<svg xmlns="http://www.w3.org/2000/svg" width="16" height="16" viewBox="0 0 16 16">
  <defs>
    <style>
      .cls-1 {
        fill-rule: evenodd;
      }
    </style>
  </defs>
  <path id="info" class="cls-1" d="M985,474.047a0.781,0.781,0,1,1-.781.781A0.781,0.781,0,0,1,985,474.047ZM985,463a8,8,0,1,0,8,8A8,8,0,0,0,985,463Zm0,14.75a6.75,6.75,0,1,1,6.75-6.75A6.746,6.746,0,0,1,985,477.75Zm0-10.734a2.5,2.5,0,0,0-2.5,2.5,0.625,0.625,0,1,0,1.25,0,1.25,1.25,0,1,1,1.25,1.25,0.625,0.625,0,0,0-.625.625v1.562a0.625,0.625,0,0,0,1.25,0v-1.016A2.5,2.5,0,0,0,985,467.016Z" transform="translate(-977 -463)"/>
</svg>
