<svg xmlns="http://www.w3.org/2000/svg" width="16" height="16" viewBox="0 0 16 16">
  <defs>
    <style>
      .cls-1 {
        fill: #fff;
        fill-rule: evenodd;
      }
    </style>
  </defs>
  <path id="insta" class="cls-1" d="M681.584,2969h-7.169a4.421,4.421,0,0,0-4.415,4.42v7.16a4.421,4.421,0,0,0,4.415,4.42h7.169a4.421,4.421,0,0,0,4.416-4.42v-7.16A4.421,4.421,0,0,0,681.584,2969Zm3,11.58a3,3,0,0,1-3,3h-7.17a3,3,0,0,1-3-3v-7.16a3,3,0,0,1,3-3h7.169a3,3,0,0,1,3,3v7.16h0Zm-6.58-7.7a4.12,4.12,0,1,0,4.123,4.12A4.128,4.128,0,0,0,678,2972.88Zm0,6.82a2.7,2.7,0,1,1,2.7-2.7A2.7,2.7,0,0,1,678,2979.7Zm4.3-8.03a1.05,1.05,0,0,0-1.041,1.04,1.039,1.039,0,0,0,.3.74,1.029,1.029,0,0,0,1.472,0,1.038,1.038,0,0,0,0-1.47A1.026,1.026,0,0,0,682.3,2971.67Z" transform="translate(-670 -2969)"/>
</svg>
