<svg xmlns="http://www.w3.org/2000/svg" width="14" height="10" viewBox="0 0 14 10">
  <defs>
    <style>
      .cls-1 {
        fill-rule: evenodd;
      }
    </style>
  </defs>
  <path id="arrow" class="cls-1" d="M1443.78,2596.84l-0.46-.56a0.685,0.685,0,0,0-1.09,0l-5.24,6.32-5.25-6.33a0.685,0.685,0,0,0-1.09,0l-0.46.56a1.066,1.066,0,0,0,0,1.31l6.25,7.56a0.735,0.735,0,0,0,.55.3h0a0.7,0.7,0,0,0,.54-0.3l6.25-7.54a1.1,1.1,0,0,0,.22-0.67A1.041,1.041,0,0,0,1443.78,2596.84Z" transform="translate(-1430 -2596)"/>
</svg>
