<?xml version="1.0" standalone="no"?>
<!DOCTYPE svg PUBLIC "-//W3C//DTD SVG 1.1//EN" "http://www.w3.org/Graphics/SVG/1.1/DTD/svg11.dtd" >
<svg>
<metadata>
Created by FontForge 20090914 at Thu Apr 30 02:52:20 2020
 By www-data
Oppo
</metadata>
<defs>
<font id="OPPOSans-Ultra" horiz-adv-x="704" vert-adv-y="1000" >
  <font-face 
    font-family="OPPO Sans Ultra"
    font-weight="900"
    font-stretch="normal"
    units-per-em="1000"
    panose-1="0 0 10 0 0 0 0 0 0 0"
    ascent="850"
    descent="-150"
    x-height="550"
    cap-height="764"
    bbox="-387 -366 1409 1033"
    underline-thickness="102"
    underline-position="-52"
    unicode-range="U+0020-U+100A5A"
  />
<missing-glyph horiz-adv-x="1000" 
d="M896 767v-853h-788v853h788zM829 705h-655v-729h655v729zM244 32l219 313l-213 304h85l167 -257l171 257h79l-214 -304l221 -313h-85l-174 267l-177 -267h-79z" />
    <glyph glyph-name="fi" unicode="fi" horiz-adv-x="751" 
d="M312.5 654c-14.333 -14 -21.499 -34.332 -21.499 -60.999v-43h129v-136h-129v-496h-175v496h-83v136h83v50c0 70.667 17.333 124 52 160s86.334 54 155.001 54c25.333 0 48.666 -2.33301 69.999 -7s37.666 -10.334 48.999 -17.001v-122c-22 4.66699 -44 7 -66 7
c-28 0 -49.167 -7 -63.5 -21zM532.501 772.501c18.333 18.333 42.5 27.5 72.5 27.5s54.167 -9.16699 72.5 -27.5s27.5 -42.5 27.5 -72.5s-9.16699 -54.167 -27.5 -72.5s-42.5 -27.5 -72.5 -27.5s-54.167 9.16699 -72.5 27.5s-27.5 42.5 -27.5 72.5s9.16699 54.167 27.5 72.5
zM693.001 550.001v-632h-176v632h176z" />
    <glyph glyph-name="fl" unicode="fl" horiz-adv-x="751" 
d="M312.5 654c-14.333 -14 -21.499 -34.332 -21.499 -60.999v-43h129v-136h-129v-496h-175v496h-83v136h83v50c0 70.667 17.333 124 52 160s86.334 54 155.001 54c25.333 0 48.666 -2.33301 69.999 -7s37.666 -10.334 48.999 -17.001v-122c-22 4.66699 -44 7 -66 7
c-28 0 -49.167 -7 -63.5 -21zM693.001 800.001v-882h-176v882h176z" />
    <glyph glyph-name=".notdef" horiz-adv-x="1000" 
d="M896 767v-853h-788v853h788zM829 705h-655v-729h655v729zM244 32l219 313l-213 304h85l167 -257l171 257h79l-214 -304l221 -313h-85l-174 267l-177 -267h-79z" />
    <glyph glyph-name="space" unicode=" " horiz-adv-x="300" 
 />
    <glyph glyph-name="exclam" unicode="!" horiz-adv-x="330" 
d="M105 188l-43 576h205l-43 -576h-119zM92 84c18.667 18.667 43 28 73 28s54.167 -9.33301 72.5 -28s27.5 -43 27.5 -73s-9.16699 -54.167 -27.5 -72.5s-42.5 -27.5 -72.5 -27.5s-54.333 9.16699 -73 27.5s-28 42.5 -28 72.5s9.33301 54.333 28 73z" />
    <glyph glyph-name="quotedbl" unicode="&#x22;" horiz-adv-x="579" 
d="M273 800l-39 -385h-173l40 385h172zM518 800l-40 -385h-173l40 385h173z" />
    <glyph glyph-name="numbersign" unicode="#" 
d="M544 448l-47 -214h89v-112h-114l-45 -204h-117l45 204h-104l-45 -204h-116l45 204h-89v112h114l48 214h-90v112h115l45 204h115l-45 -204h105l45 204h116l-45 -204h89v-112h-114zM428 448h-105l-47 -214h104z" />
    <glyph glyph-name="dollar" unicode="$" vert-adv-y="850" 
d="M605 -4.5c-42.667 -45.667 -100.332 -74.499 -172.999 -86.499v-143h-130v140c-66.667 8.66699 -122.834 30.334 -168.501 65.001s-76.167 79.334 -91.5 134.001l140 68c19.333 -64.667 59.333 -104 120 -118v223c-77.333 15.333 -136.666 44.166 -177.999 86.499
s-62 95.833 -62 160.5c0 66.667 21.667 122.167 65 166.5s101.666 71.833 174.999 82.5v142h130v-141c119.333 -16 195 -76.667 227 -182l-140 -67c-19.333 49.333 -48.333 81.666 -87 96.999v-197c158 -34.667 237 -122 237 -262c0 -66.667 -21.333 -122.834 -64 -168.501z
M252.502 486.001c10.333 -12.667 26.833 -23.333 49.5 -32v168c-20.667 -8 -36.667 -19.667 -48 -35s-17 -33 -17 -53c0 -19.333 5.16699 -35.333 15.5 -48zM494.002 159.002c0 19.333 -5 36 -15 50s-25.667 26 -47 36v-184c41.333 17.333 62 50 62 98z" />
    <glyph glyph-name="percent" unicode="%" horiz-adv-x="985" 
d="M368.5 380c-35 -40 -83.167 -60 -144.5 -60c-60.667 0 -108.5 20 -143.5 60s-52.5 96.333 -52.5 169s17.5 129 52.5 169s82.833 60 143.5 60c61.333 0 109.5 -20 144.5 -60s52.5 -96.333 52.5 -169s-17.5 -129 -52.5 -169zM317 -82h-145l496 846h145zM224 666
c-46 0 -69 -39 -69 -117c0 -77.333 23 -116 69 -116s69 38.667 69 116c0 78 -23 117 -69 117zM616.5 302c35 40 83.167 60 144.5 60c60.667 0 108.5 -20 143.5 -60s52.5 -96.333 52.5 -169s-17.5 -129 -52.5 -169s-82.833 -60 -143.5 -60c-61.333 0 -109.5 20 -144.5 60
s-52.5 96.333 -52.5 169s17.5 129 52.5 169zM761 16c46 0 69 39 69 117c0 77.333 -23 116 -69 116s-69 -38.667 -69 -116c0 -78 23 -117 69 -117z" />
    <glyph glyph-name="ampersand" unicode="&#x26;" horiz-adv-x="852" 
d="M620 -82l-47.002 52.001c-70.667 -44 -150.667 -66 -240 -66c-60 0 -112.167 9.16699 -156.5 27.5s-78.5 44.833 -102.5 79.5s-36 75.334 -36 122.001c0 55.333 12.833 103.666 38.5 144.999s65.834 77.333 120.501 108c-30 35.333 -51.167 66.166 -63.5 92.499
s-18.5 54.833 -18.5 85.5c0 42 10.5 79.167 31.5 111.5s50.5 57.5 88.5 75.5s81.667 27 131 27c48.667 0 92.167 -9 130.5 -27s68.166 -43.167 89.499 -75.5s32 -68.833 32 -109.5c0 -46 -13.333 -85.5 -40 -118.5s-71 -64.167 -133 -93.5l140 -153
c32.667 55.333 53.334 119.666 62.001 192.999h167c-4.66699 -62 -17.167 -119.667 -37.5 -173s-47.166 -100.666 -80.499 -141.999l147 -161h-223zM307.998 622.001c-14.667 -14 -22 -32.999 -22 -56.999c0 -16.667 5 -32.667 15 -48s27 -35.666 51 -60.999
c35.333 17.333 59.833 34.166 73.5 50.499s20.5 36.166 20.5 59.499s-7.33301 42 -22 56s-34 21 -58 21s-43.333 -7 -58 -21zM470.998 83.002l-182 200.999c-26 -16 -44.833 -33.833 -56.5 -53.5s-17.5 -42.167 -17.5 -67.5c0 -35.333 11.667 -63.166 35 -83.499
s55.333 -30.5 96 -30.5c44 0 85.667 11.333 125 34z" />
    <glyph glyph-name="quotesingle" unicode="'" horiz-adv-x="335" 
d="M273 800l-39 -385h-173l40 385h172z" />
    <glyph glyph-name="parenleft" unicode="(" horiz-adv-x="454" 
d="M286 118c17.333 -66.667 38.5 -126.332 63.5 -178.999s50.167 -95.667 75.5 -129h-169c-45.333 55.333 -85.333 128 -120 218s-52 188.333 -52 295c0 96.667 15.167 190 45.5 280s72.5 167.667 126.5 233h169c-30 -36 -57.5 -81.333 -82.5 -136
s-45 -114.834 -60 -180.501s-22.5 -131.167 -22.5 -196.5c0 -70 8.66699 -138.333 26 -205z" />
    <glyph glyph-name="parenright" unicode=")" horiz-adv-x="454" 
d="M168 528c-17.333 66.667 -38.501 126.334 -63.501 179.001s-50.167 95.667 -75.5 129h169c45.333 -55.333 85.333 -128 120 -218s52 -188.333 52 -295c0 -96.667 -15.167 -190 -45.5 -280s-72.5 -167.667 -126.5 -233h-169c46.667 55.333 85.834 130.166 117.501 224.499
s47.5 190.5 47.5 288.5c0 70 -8.66699 138.333 -26 205z" />
    <glyph glyph-name="asterisk" unicode="*" horiz-adv-x="633" 
d="M425 460l123 -127l-147 -108l-84 156l-84 -156l-148 108l123 128l-175 31l57 173l160 -78l-24 177h182l-24 -177l160 78l56 -173z" />
    <glyph glyph-name="plus" unicode="+" 
d="M610 272h-189v-189h-138v189h-189v138h189v189h138v-189h189v-138z" />
    <glyph glyph-name="comma" unicode="," horiz-adv-x="330" 
d="M262 87c0 -32.667 -2.5 -68.501 -7.5 -107.501s-12.167 -86.167 -21.5 -141.5l-4 -26l-12 -67h-176l11 67c5.33301 31.333 10 72.333 14 123s6 101.334 6 152.001h190z" />
    <glyph glyph-name="hyphen" unicode="-" horiz-adv-x="410" 
d="M60 382h289v-137h-289v137z" />
    <glyph glyph-name="period" unicode="." horiz-adv-x="330" 
d="M92 84c18.667 18.667 43 28 73 28s54.167 -9.33301 72.5 -28s27.5 -43 27.5 -73s-9.16699 -54.167 -27.5 -72.5s-42.5 -27.5 -72.5 -27.5s-54.333 9.16699 -73 27.5s-28 42.5 -28 72.5s9.33301 54.333 28 73z" />
    <glyph glyph-name="slash" unicode="/" horiz-adv-x="424" 
d="M9 -202l225 1009h168l-225 -1009h-168z" />
    <glyph glyph-name="zero" unicode="0" 
d="M588 14.5c-52.667 -73.667 -131.334 -110.5 -236.001 -110.5s-183.334 36.833 -236.001 110.5s-79 182.5 -79 326.5s26.333 252.833 79 326.5s131.334 110.5 236.001 110.5s183.334 -36.833 236.001 -110.5s79 -182.5 79 -326.5s-26.333 -252.833 -79 -326.5z
M248.5 117.5c21 -45.667 55.5 -68.5 103.5 -68.5s82.5 22.833 103.5 68.5s31.5 120.167 31.5 223.5s-10.5 177.833 -31.5 223.5s-55.5 68.5 -103.5 68.5s-82.5 -22.833 -103.5 -68.5s-31.5 -120.167 -31.5 -223.5s10.5 -177.833 31.5 -223.5z" />
    <glyph glyph-name="one" unicode="1" horiz-adv-x="529" 
d="M412 -82h-181v641l-170 -98l2 178l215 125h134v-846z" />
    <glyph glyph-name="two" unicode="2" 
d="M649 64l0.000976562 -146h-593v120l303 298c39.333 38 66.5 69.667 81.5 95s22.5 53 22.5 83c0 35.333 -10.833 64 -32.5 86s-50.5 33 -86.5 33c-38 0 -69.167 -10.167 -93.5 -30.5s-43.166 -50.833 -56.499 -91.5l-131 77c43.333 126.667 139.666 190 288.999 190
c56.667 0 107.167 -11.167 151.5 -33.5s78.666 -53.5 102.999 -93.5s36.5 -85.333 36.5 -136c0 -36 -7 -69.167 -21 -99.5s-33.5 -60 -58.5 -89s-61.5 -66.833 -109.5 -113.5l-146 -149h341z" />
    <glyph glyph-name="three" unicode="3" 
d="M543 409c34.667 -24.667 61.6641 -56.335 80.9971 -95.002s29 -82 29 -130c0 -56 -12.5 -105.167 -37.5 -147.5s-60.333 -75 -106 -98s-98.5 -34.5 -158.5 -34.5c-71.333 0 -132.166 15.833 -182.499 47.5s-85.5 75.5 -105.5 131.5l131 76
c30 -73.333 82.333 -110 157 -110c38.667 0 69.834 12.333 93.501 37s35.5 57.334 35.5 98.001c0 38.667 -12 69.334 -36 92.001s-56.333 34 -97 34c-44 0 -76.667 -15 -98 -45l-101 111l248 242h-302v146h523v-121l-193 -189c44.667 -5.33301 84.334 -20.333 119.001 -45z
" />
    <glyph glyph-name="four" unicode="4" 
d="M664 87h-104v-169h-173v169h-347v121l373 556h147v-531h104v-146zM387 233v247l-166 -247h166z" />
    <glyph glyph-name="five" unicode="5" 
d="M525.5 420.5c40.333 -23.667 71.499 -56.1719 93.499 -97.5049s33 -87.666 33 -138.999c0 -55.333 -12.667 -104.166 -38 -146.499s-61 -75.166 -107 -98.499s-99.333 -35 -160 -35c-74 0 -135.667 17 -185 51s-82 76.333 -98 127l131 77
c13.333 -35.333 32.833 -62.5 58.5 -81.5s56.834 -28.5 93.501 -28.5c40 0 72.167 12.333 96.5 37s36.5 57.334 36.5 98.001c0 36.667 -12.167 66.834 -36.5 90.501s-55.5 35.5 -93.5 35.5c-53.333 0 -90.666 -19 -111.999 -57l-145 40l47 471h476v-146h-323l-19 -195
c37.333 22 74.333 33 111 33c53.333 0 100.166 -11.833 140.499 -35.5z" />
    <glyph glyph-name="six" unicode="6" 
d="M526.5 421c39.667 -23.333 70.499 -55.998 92.499 -97.998s33 -89.667 33 -143c0 -52.667 -12.833 -100 -38.5 -142s-61.334 -74.833 -107.001 -98.5s-97.167 -35.5 -154.5 -35.5c-58.667 0 -110.667 11.667 -156 35s-80.666 57.166 -105.999 101.499s-38 96.5 -38 156.5
c0 59.333 10.167 116.166 30.5 170.499s52.5 113.833 96.5 178.5l147 218h198l-177 -239c-24 -32.667 -43.333 -63.667 -58 -93c30.667 16 64.667 24 102 24c50.667 0 95.834 -11.667 135.501 -35zM443.999 84.502c23.333 23.667 35 55.5 35 95.5s-11.5 71.667 -34.5 95
s-53.833 35 -92.5 35s-69.5 -11.667 -92.5 -35s-34.5 -55 -34.5 -95s11.667 -71.833 35 -95.5s54 -35.5 92 -35.5s68.667 11.833 92 35.5z" />
    <glyph glyph-name="seven" unicode="7" 
d="M643 764v-119l-276 -727h-190l296 700h-413v146h583z" />
    <glyph glyph-name="eight" unicode="8" 
d="M626.5 294c21.667 -35.333 32.498 -75.9971 32.498 -121.997c0 -52.667 -12.667 -99.334 -38 -140.001s-61.166 -72.167 -107.499 -94.5s-100.166 -33.5 -161.499 -33.5c-62 0 -116.167 11.167 -162.5 33.5s-82.166 53.833 -107.499 94.5s-38 87.334 -38 140.001
c0 46 10.833 86.667 32.5 122s52.167 63.666 91.5 84.999c-28.667 19.333 -50.667 42.666 -66 69.999s-23 57.666 -23 90.999c0 46.667 11 87.834 33 123.501s53.667 63.667 95 84s89.666 30.5 144.999 30.5s103.5 -10.167 144.5 -30.5s72.5 -48.333 94.5 -84
s33 -76.834 33 -123.501c0 -33.333 -7.66699 -63.833 -23 -91.5s-37.333 -50.834 -66 -69.501c39.333 -21.333 69.833 -49.666 91.5 -84.999zM270.998 620.503c-20.667 -19.667 -31 -45.167 -31 -76.5s10.333 -56.666 31 -75.999s47.667 -29 81 -29s60.333 9.66699 81 29
s31 44.666 31 75.999s-10.333 56.833 -31 76.5s-47.667 29.5 -81 29.5s-60.333 -9.83301 -81 -29.5zM453.998 79.0029c25.333 24.667 38 57.334 38 98.001c0 41.333 -12.667 74.333 -38 99s-59.333 37 -102 37s-76.667 -12.333 -102 -37s-38 -57.667 -38 -99
c0 -40.667 12.667 -73.334 38 -98.001s59.333 -37 102 -37s76.667 12.333 102 37z" />
    <glyph glyph-name="nine" unicode="9" 
d="M508 743c45.333 -23.333 80.666 -57.167 105.999 -101.5s38 -96.833 38 -157.5c0 -58.667 -10.167 -115.167 -30.5 -169.5s-52.5 -113.833 -96.5 -178.5l-147 -218h-199l177 239c24 32.667 43.333 63.667 58 93c-30 -16 -64 -24 -102 -24
c-50.667 0 -95.667 11.667 -135 35s-70 56 -92 98s-33 89.667 -33 143c0 52.667 12.833 100 38.5 142s61.334 74.833 107.001 98.5s97.167 35.5 154.5 35.5c58.667 0 110.667 -11.667 156 -35zM259.5 406.499c23 -23 53.833 -34.5 92.5 -34.5s69.5 11.5 92.5 34.5
s34.5 54.833 34.5 95.5c0 39.333 -11.667 71 -35 95s-54 36 -92 36s-68.667 -12 -92 -36s-35 -55.667 -35 -95c0 -40.667 11.5 -72.5 34.5 -95.5z" />
    <glyph glyph-name="colon" unicode=":" horiz-adv-x="330" 
d="M92 497.5c18.667 18.333 43 27.5 73 27.5s54.167 -9.16699 72.5 -27.5s27.5 -42.5 27.5 -72.5s-9.16699 -54.333 -27.5 -73s-42.5 -28 -72.5 -28s-54.333 9.33301 -73 28s-28 43 -28 73s9.33301 54.167 28 72.5zM92 84c18.667 18.667 43 28 73 28
s54.167 -9.33301 72.5 -28s27.5 -43 27.5 -73s-9.16699 -54.167 -27.5 -72.5s-42.5 -27.5 -72.5 -27.5s-54.333 9.16699 -73 27.5s-28 42.5 -28 72.5s9.33301 54.333 28 73z" />
    <glyph glyph-name="semicolon" unicode=";" horiz-adv-x="330" 
d="M92 497.5c18.667 18.333 43 27.5 73 27.5s54.167 -9.16699 72.5 -27.5s27.5 -42.5 27.5 -72.5s-9.16699 -54.333 -27.5 -73s-42.5 -28 -72.5 -28s-54.333 9.33301 -73 28s-28 43 -28 73s9.33301 54.167 28 72.5zM262 87c0 -32.667 -2.5 -68.501 -7.5 -107.501
s-12.167 -86.167 -21.5 -141.5l-4 -26l-12 -67h-176l11 67c5.33301 31.333 10 72.333 14 123s6 101.334 6 152.001h190z" />
    <glyph glyph-name="less" unicode="&#x3c;" 
d="M609 492l-346 -151l346 -152v-151l-514 234v138l514 234v-152z" />
    <glyph glyph-name="equal" unicode="=" 
d="M94 529h516v-139h-516v139zM94 291h516v-139h-516v139z" />
    <glyph glyph-name="greater" unicode="&#x3e;" 
d="M609 410v-139l-514 -233v151l346 152l-346 151v152z" />
    <glyph glyph-name="question" unicode="?" horiz-adv-x="595" 
d="M312 429c22.667 19.333 39.666 36.999 50.999 52.999s17 35.333 17 58c0 24.667 -8.33301 45.167 -25 61.5s-39.667 24.5 -69 24.5c-58 0 -96 -31.333 -114 -94l-141 66c16.667 58.667 47.834 103.334 93.501 134.001s104.5 46 176.5 46
c50.667 0 95.834 -9.16699 135.501 -27.5s70.667 -44.166 93 -77.499s33.5 -71.333 33.5 -114c0 -33.333 -5.16699 -62.333 -15.5 -87s-25.5 -48 -45.5 -70s-48.667 -49 -86 -81c-32.667 -28.667 -49 -73 -49 -133h-149c0 56.667 5.66699 101.667 17 135
s30.666 62.666 57.999 87.999zM221.499 83.999c18.333 18.667 42.5 28 72.5 28s54.167 -9.33301 72.5 -28s27.5 -43 27.5 -73s-9.16699 -54.167 -27.5 -72.5s-42.5 -27.5 -72.5 -27.5s-54.167 9.16699 -72.5 27.5s-27.5 42.5 -27.5 72.5s9.16699 54.333 27.5 73z" />
    <glyph glyph-name="at" unicode="@" horiz-adv-x="1202" 
d="M839 419l-0.000976562 -241.001c0 -26.667 6.66699 -47.5 20 -62.5s32 -22.5 56 -22.5c24.667 0 47.5 10 68.5 30s37.667 48.833 50 86.5s18.5 81.5 18.5 131.5c0 75.333 -18.667 141.166 -56 197.499s-89.166 99.833 -155.499 130.5s-142.166 46 -227.499 46
c-89.333 0 -169.166 -18 -239.499 -54s-125.166 -87.167 -164.499 -153.5s-59 -143.5 -59 -231.5s19.667 -165.167 59 -231.5s94.166 -117.5 164.499 -153.5s150.166 -54 239.499 -54c67.333 0 127.166 9.33301 179.499 28s92.166 46.334 119.499 83.001l79 -50
c-36 -47.333 -87.667 -84.333 -155 -111s-141.666 -40 -222.999 -40c-106 0 -201 21.833 -285 65.5s-149.667 105.667 -197 186s-71 172.833 -71 277.5s23.667 197.167 71 277.5s113 142.333 197 186s179 65.5 285 65.5c100 0 190.167 -19 270.5 -57
s143.5 -92.167 189.5 -162.5s69 -151.833 69 -244.5c0 -69.333 -10.667 -130.666 -32 -183.999s-51 -95 -89 -125s-82 -45 -132 -45c-46 0 -83.833 9.5 -113.5 28.5s-50.167 47.167 -61.5 84.5c-20 -36.667 -46.5 -64.667 -79.5 -84s-71.833 -29 -116.5 -29
c-42.667 0 -82.334 12 -119.001 36s-65.834 58 -87.501 102s-32.5 94.333 -32.5 151s10.833 107 32.5 151s50.834 78 87.501 102s76.334 36 119.001 36c40.667 0 76.5 -8 107.5 -24s56.5 -39.333 76.5 -70c0 2 2 28.333 6 79h136c-3.33301 -23.333 -5 -67 -5 -131z
M647.999 154.999c22.667 30.667 34 71 34 121s-11.333 90.333 -34 121s-52.334 46 -89.001 46s-66.334 -15.333 -89.001 -46s-34 -71 -34 -121s11.333 -90.333 34 -121s52.334 -46 89.001 -46s66.334 15.333 89.001 46z" />
    <glyph glyph-name="A" unicode="A" horiz-adv-x="829" 
d="M549 116h-279l-55 -198h-195l274 846h241l274 -846h-205zM505 274l-95 340l-96 -340h191z" />
    <glyph glyph-name="B" unicode="B" horiz-adv-x="769" 
d="M685 289.5c28.667 -35 42.999 -78.833 42.999 -131.5c0 -47.333 -10 -89.166 -30 -125.499s-48.333 -64.5 -85 -84.5s-79 -30 -127 -30h-411v846h398c44 0 82.833 -9.16699 116.5 -27.5s59.834 -44.333 78.501 -78s28 -72.5 28 -116.5
c0 -44.667 -11.5 -82.334 -34.5 -113.001s-54.167 -53 -93.5 -67c49.333 -13.333 88.333 -37.5 117 -72.5zM264.999 619v-190.001h140c31.333 0 55.833 8.16699 73.5 24.5s26.5 39.5 26.5 69.5c0 30.667 -8.83301 54.334 -26.5 71.001s-42.167 25 -73.5 25h-140z
M506.999 91.499c20.667 19 31 46.167 31 81.5s-10.333 62.5 -31 81.5s-49.667 28.5 -87 28.5h-155v-220h155c37.333 0 66.333 9.5 87 28.5z" />
    <glyph glyph-name="C" unicode="C" horiz-adv-x="810" 
d="M266.5 192c17.667 -43.333 42.501 -76.832 74.501 -100.499s68.667 -35.5 110 -35.5c89.333 0 146 43.333 170 130l156 -72c-19.333 -66.667 -56.833 -118.5 -112.5 -155.5s-125.5 -55.5 -209.5 -55.5c-80 0 -150.667 18.167 -212 54.5s-108.833 87.666 -142.5 153.999
s-50.5 142.833 -50.5 229.5s16.833 163 50.5 229s81.167 117.167 142.5 153.5s132 54.5 212 54.5c84 0 153.833 -18.5 209.5 -55.5s93.167 -88.833 112.5 -155.5l-156 -72c-24.667 87.333 -81.334 131 -170.001 131c-41.333 0 -78 -12 -110 -36s-56.833 -57.5 -74.5 -100.5
s-26.5 -92.5 -26.5 -148.5s8.83301 -105.667 26.5 -149z" />
    <glyph glyph-name="D" unicode="D" horiz-adv-x="855" 
d="M620.5 711.5c57.667 -35 102.167 -84.499 133.5 -148.499s47 -138 47 -222c0 -84.667 -15.667 -158.834 -47 -222.501s-75.833 -113 -133.5 -148s-124.834 -52.5 -201.501 -52.5h-344v846h344c76.667 0 143.834 -17.5 201.501 -52.5zM550 147.001
c40.667 47.333 61 112 61 194s-20.333 146.667 -61 194s-97.334 71 -170.001 71h-115v-530h115c72.667 0 129.334 23.667 170.001 71z" />
    <glyph glyph-name="E" unicode="E" horiz-adv-x="681" 
d="M265 606v-165h328v-158h-328v-207h352v-158h-542v846h542v-158h-352z" />
    <glyph glyph-name="F" unicode="F" horiz-adv-x="654" 
d="M265 606v-177h316v-158h-316v-353h-190v846h530v-158h-340z" />
    <glyph glyph-name="G" unicode="G" horiz-adv-x="855" 
d="M795 253c0 -70.667 -13.166 -132.166 -39.499 -184.499s-65 -92.833 -116 -121.5s-112.833 -43 -185.5 -43c-79.333 0 -149.5 18.333 -210.5 55s-108.5 88 -142.5 154s-51 142 -51 228c0 86.667 16.833 163 50.5 229s81.167 117.167 142.5 153.5s132 54.5 212 54.5
c84 0 153.833 -18.5 209.5 -55.5s93.167 -88.833 112.5 -155.5l-156 -72c-24.667 87.333 -81.334 131 -170.001 131c-41.333 0 -78 -12 -110 -36s-56.833 -57.5 -74.5 -100.5s-26.5 -92.5 -26.5 -148.5c0 -88.667 19 -158.334 57 -209.001s90.333 -76 157 -76
c104.667 0 161 57.333 169 172h-150v158h322v-133z" />
    <glyph glyph-name="H" unicode="H" horiz-adv-x="869" 
d="M794 764v-846h-190v365h-339v-365h-190v846h190v-323h339v323h190z" />
    <glyph glyph-name="I" unicode="I" horiz-adv-x="352" 
d="M271 764v-846h-190v846h190z" />
    <glyph glyph-name="J" unicode="J" horiz-adv-x="611" 
d="M469 -29.5c-46 -44.333 -110 -66.501 -192 -66.501c-74 0 -131.167 14.667 -171.5 44s-66.833 69.333 -79.5 120l141 66c11.333 -56.667 42.333 -85 93 -85c29.333 0 51.333 8.33301 66 25s22 40.334 22 71.001v619h190v-604c0 -82 -23 -145.167 -69 -189.5z" />
    <glyph glyph-name="K" unicode="K" horiz-adv-x="792" 
d="M561 -82l-296 419v-419h-190v846h190v-376l268 376h223l-303 -397l340 -449h-232z" />
    <glyph glyph-name="L" unicode="L" horiz-adv-x="646" 
d="M605 76v-158h-530v846h190v-688h340z" />
    <glyph glyph-name="M" unicode="M" horiz-adv-x="1063" 
d="M988 -82h-190v592l-173 -592h-207l-172 591v-591h-171v846h274l179 -622l179 622h281v-846z" />
    <glyph glyph-name="N" unicode="N" horiz-adv-x="866" 
d="M791 764v-846h-176l-369 547v-547h-171v846h200l345 -511v511h171z" />
    <glyph glyph-name="O" unicode="O" horiz-adv-x="902" 
d="M801.5 112c-33.667 -66 -80.834 -117.165 -141.501 -153.498s-130.334 -54.5 -209.001 -54.5s-148.334 18.167 -209.001 54.5s-107.834 87.666 -141.501 153.999s-50.5 142.5 -50.5 228.5s16.833 162.167 50.5 228.5s80.834 117.666 141.501 153.999
s130.334 54.5 209.001 54.5s148.334 -18.167 209.001 -54.5s107.834 -87.5 141.501 -153.5s50.5 -142.333 50.5 -229s-16.833 -163 -50.5 -229zM266.5 192.002c17.667 -43.333 42.5 -76.833 74.5 -100.5s68.667 -35.5 110 -35.5s78 11.833 110 35.5s56.833 57 74.5 100
s26.5 92.833 26.5 149.5s-8.83301 106.5 -26.5 149.5s-42.5 76.333 -74.5 100s-68.667 35.5 -110 35.5s-78 -11.833 -110 -35.5s-56.833 -57.167 -74.5 -100.5s-26.5 -93 -26.5 -149s8.83301 -105.667 26.5 -149z" />
    <glyph glyph-name="P" unicode="P" horiz-adv-x="736" 
d="M561 729c42.667 -23.333 75.834 -56.333 99.501 -99s35.5 -91.667 35.5 -147c0 -56 -11.833 -105.333 -35.5 -148s-56.834 -75.667 -99.501 -99s-92 -35 -148 -35h-148v-283h-190v846h338c56 0 105.333 -11.667 148 -35zM469 381.5c24.667 23.667 37 57.5 37 101.5
s-12.333 77.667 -37 101s-59.334 35 -104.001 35h-100v-273h100c44.667 0 79.334 11.833 104.001 35.5z" />
    <glyph glyph-name="Q" unicode="Q" horiz-adv-x="903" 
d="M805.5 120.5c-31 -64.333 -74.1689 -114.831 -129.502 -151.498l116 -166h-188l-70 108c-31.333 -4.66699 -59 -7 -83 -7c-78.667 0 -148.334 18.167 -209.001 54.5s-107.834 87.666 -141.501 153.999s-50.5 142.5 -50.5 228.5s16.833 162.167 50.5 228.5
s80.834 117.666 141.501 153.999s130.334 54.5 209.001 54.5s148.334 -18.167 209.001 -54.5s107.834 -87.5 141.501 -153.5s50.5 -142.333 50.5 -229c0 -82.667 -15.5 -156.167 -46.5 -220.5zM266.498 192.002c17.667 -43.333 42.5 -76.833 74.5 -100.5
s68.667 -35.5 110 -35.5s78 11.833 110 35.5s56.833 57 74.5 100s26.5 92.833 26.5 149.5s-8.83301 106.5 -26.5 149.5s-42.5 76.333 -74.5 100s-68.667 35.5 -110 35.5s-78 -11.833 -110 -35.5s-56.833 -57.167 -74.5 -100.5s-26.5 -93 -26.5 -149
s8.83301 -105.667 26.5 -149z" />
    <glyph glyph-name="R" unicode="R" horiz-adv-x="759" 
d="M333 229l-67.998 -0.000976562v-311h-190v846h360c53.333 0 100.166 -11 140.499 -33s71.5 -53.167 93.5 -93.5s33 -87.166 33 -140.499c0 -63.333 -15.333 -117.333 -46 -162s-73.334 -75.667 -128.001 -93l223 -324h-227zM265.002 374.999h122
c40 0 70.833 10.333 92.5 31s32.5 51 32.5 91c0 39.333 -10.833 69.5 -32.5 90.5s-52.5 31.5 -92.5 31.5h-122v-244z" />
    <glyph glyph-name="S" unicode="S" horiz-adv-x="730" 
d="M67 525c0 49.333 12.501 93.1719 37.501 131.505s60.667 68.166 107 89.499s100.5 32 162.5 32c81.333 0 148 -15.833 200 -47.5s87.333 -78.167 106 -139.5l-151 -69c-22.667 64.667 -72.667 97 -150 97c-40 0 -70.167 -7.33301 -90.5 -22s-30.5 -36 -30.5 -64
s11.167 -49.333 33.5 -64s61.833 -26.334 118.5 -35.001c98 -14.667 169.333 -43.5 214 -86.5s67 -103.167 67 -180.5c0 -50.667 -13.833 -95.834 -41.5 -135.501s-66 -70.834 -115 -93.501s-104.5 -34 -166.5 -34c-89.333 0 -162.5 17.333 -219.5 52
s-94.833 84.667 -113.5 150l151 70c11.333 -37.333 32.333 -65.5 63 -84.5s69.667 -28.5 117 -28.5c43.333 0 76.666 8.66699 99.999 26s35 41.666 35 72.999c0 30.667 -12.833 54.667 -38.5 72s-70.5 31.333 -134.5 42c-174 28 -261 111 -261 249z" />
    <glyph glyph-name="T" unicode="T" horiz-adv-x="718" 
d="M677 606h-223v-688h-190v688h-223v158h636v-158z" />
    <glyph glyph-name="U" unicode="U" horiz-adv-x="849" 
d="M735 55.5c-28.667 -48.333 -69.501 -85.5 -122.501 -111.5s-115.5 -39 -187.5 -39s-134.667 13 -188 39s-94.333 63.167 -123 111.5s-43 105.5 -43 171.5v537h180v-520c0 -62 14.333 -108.833 43 -140.5s70.334 -47.5 125.001 -47.5c112.667 0 169 62.667 169 188v520
h190v-537c0 -66 -14.333 -123.167 -43 -171.5z" />
    <glyph glyph-name="V" unicode="V" horiz-adv-x="829" 
d="M809 764l-274 -846h-241l-274 846h205l195 -696l194 696h195z" />
    <glyph glyph-name="W" unicode="W" horiz-adv-x="1155" 
d="M1131 764l-207 -846h-200l-146 615l-147 -615h-200l-206 846h198l117 -620l142 620h198l142 -621l119 621h190z" />
    <glyph glyph-name="X" unicode="X" horiz-adv-x="808" 
d="M569 -82l-171 316l-170 -316h-202l260 432l-252 414h220l155 -299l155 299h209l-253 -414l262 -432h-213z" />
    <glyph glyph-name="Y" unicode="Y" horiz-adv-x="781" 
d="M486 244v-326h-190v324l-285 522h214l170 -370l170 370h206z" />
    <glyph glyph-name="Z" unicode="Z" horiz-adv-x="765" 
d="M715 76v-158h-665v115l419 573h-389v158h629v-116l-418 -572h424z" />
    <glyph glyph-name="bracketleft" unicode="[" horiz-adv-x="454" 
d="M274 661v-676h147v-175h-323v1026h323v-175h-147z" />
    <glyph glyph-name="backslash" unicode="\" horiz-adv-x="424" 
d="M22 807h168l225 -1009h-168z" />
    <glyph glyph-name="bracketright" unicode="]" horiz-adv-x="454" 
d="M356 -190h-322v175h146v676h-146v175h322v-1026z" />
    <glyph glyph-name="asciicircum" unicode="^" horiz-adv-x="675" 
d="M490 271l-152 346l-152 -346h-152l234 514h139l234 -514h-151z" />
    <glyph glyph-name="underscore" unicode="_" horiz-adv-x="300" 
d="M0 -173h300v-139h-300v139z" />
    <glyph glyph-name="grave" unicode="`" horiz-adv-x="600" 
d="M369 600h-138l-109 200h170z" />
    <glyph glyph-name="a" unicode="a" horiz-adv-x="752" 
d="M683 62c0 -65.333 1.33203 -113.334 3.99902 -144.001h-157c0 3.33301 -0.833008 13 -2.5 29s-3.16699 34.333 -4.5 55c-23.333 -31.333 -52.5 -55.5 -87.5 -72.5s-74.5 -25.5 -118.5 -25.5c-48.667 0 -93.834 13.833 -135.501 41.5s-74.834 66.5 -99.501 116.5
s-37 107.333 -37 172s12.333 122.167 37 172.5s57.834 89.333 99.501 117s86.834 41.5 135.501 41.5c44.667 0 84.334 -8.5 119.001 -25.5s63.667 -41.5 87 -73.5c1.33301 22 2.83301 40.833 4.5 56.5s2.5 24.834 2.5 27.501h157c-2.66699 -30.667 -4 -78.667 -4 -144v-344z
M467.499 92.499c26.333 35.667 39.5 82.834 39.5 141.501s-13.167 105.834 -39.5 141.501s-60.833 53.5 -103.5 53.5s-77.167 -17.833 -103.5 -53.5s-39.5 -82.834 -39.5 -141.501s13.167 -105.834 39.5 -141.501s60.833 -53.5 103.5 -53.5s77.167 17.833 103.5 53.5z" />
    <glyph glyph-name="b" unicode="b" horiz-adv-x="752" 
d="M571.5 523.5c41.667 -27.667 74.834 -66.668 99.501 -117.001s37 -107.833 37 -172.5s-12.333 -122.167 -37 -172.5s-57.834 -89.166 -99.501 -116.499s-87.167 -41 -136.5 -41c-44 0 -83.5 8.5 -118.5 25.5s-64.167 41.167 -87.5 72.5
c-2 -39.333 -4.33301 -67.333 -7 -84h-157c3.33301 38 5 86 5 144v738h176v-313c48 52 111 78 189 78c49.333 0 94.833 -13.833 136.5 -41.5zM463.5 63.499c21.667 16.333 38.5 39.1699 50.5 68.5029s18 63.333 18 102s-6 72.667 -18 102s-28.833 52.166 -50.5 68.499
s-46.5 24.5 -74.5 24.5c-42.667 0 -77.167 -17.833 -103.5 -53.5s-39.5 -82.834 -39.5 -141.501s13.167 -105.834 39.5 -141.501s60.833 -53.5 103.5 -53.5c28 0 52.833 8.16699 74.5 24.5z" />
    <glyph glyph-name="c" unicode="c" horiz-adv-x="654" 
d="M85.5 407.5c27 50.333 64.498 89.168 112.498 116.501s102 41 162 41c70.667 0 128 -14.5 172 -43.5s73 -67.5 87 -115.5l-149 -70c-15.333 55.333 -51.333 83 -108 83c-43.333 0 -77.666 -16.333 -102.999 -49s-38 -78 -38 -136c0 -57.333 12.833 -102.333 38.5 -135
s59.834 -49 102.501 -49c57.333 0 93.333 27.333 108 82l149 -69c-14 -48 -43 -86.5 -87 -115.5s-101.333 -43.5 -172 -43.5c-60 0 -114 13.667 -162 41s-85.5 66 -112.5 116s-40.5 107.667 -40.5 173s13.5 123.166 40.5 173.499z" />
    <glyph glyph-name="d" unicode="d" horiz-adv-x="756" 
d="M534 -82c-2.66699 16.667 -5 44.668 -7 84.001c-23.333 -31.333 -52.5 -55.5 -87.5 -72.5s-74.5 -25.5 -118.5 -25.5c-49.333 0 -94.666 13.667 -135.999 41s-74.333 66.166 -99 116.499s-37 107.833 -37 172.5s12.333 122.167 37 172.5s57.667 89.333 99 117
s86.666 41.5 135.999 41.5c78 0 141 -26 189 -78v313h176v-738c0 -58 1.66699 -106 5 -144h-157zM470.5 92.501c26.333 35.667 39.5 82.8301 39.5 141.497s-13.167 105.834 -39.5 141.501s-60.833 53.5 -103.5 53.5c-28 0 -52.833 -8.16699 -74.5 -24.5
s-38.5 -39.166 -50.5 -68.499s-18 -63.333 -18 -102s6 -72.667 18 -102s28.833 -52.166 50.5 -68.499s46.5 -24.5 74.5 -24.5c42.667 0 77.167 17.833 103.5 53.5z" />
    <glyph glyph-name="e" unicode="e" horiz-adv-x="694" 
d="M645 184h-421.999c5.33301 -48 20.833 -84.167 46.5 -108.5s58.5 -36.5 98.5 -36.5c58.667 0 98.667 28.333 120 85l145 -69c-18.667 -46.667 -49.5 -83.5 -92.5 -110.5s-99.5 -40.5 -169.5 -40.5c-66.667 0 -124.667 14 -174 42s-87 66.833 -113 116.5
s-39 106.834 -39 171.501s13.333 122 40 172s63 89 109 117s97.667 42 155 42c61.333 0 114.666 -13.667 159.999 -41s80 -66 104 -116s36 -108 36 -174c0 -18.667 -1.33301 -35.334 -4 -50.001zM267.501 397c-21.667 -21.333 -35.833 -52.333 -42.5 -93h245
c-10.667 83.333 -51.667 125 -123 125c-31.333 0 -57.833 -10.667 -79.5 -32z" />
    <glyph glyph-name="f" unicode="f" horiz-adv-x="453" 
d="M312.5 654c-14.333 -14 -21.499 -34.332 -21.499 -60.999v-43h129v-136h-129v-496h-175v496h-83v136h83v50c0 70.667 17.333 124 52 160s86.334 54 155.001 54c25.333 0 48.666 -2.33301 69.999 -7s37.666 -10.334 48.999 -17.001v-122c-22 4.66699 -44 7 -66 7
c-28 0 -49.167 -7 -63.5 -21z" />
    <glyph glyph-name="g" unicode="g" horiz-adv-x="735" 
d="M670 550c0 -5.33301 -0.829102 -22.3369 -2.49609 -51.0039s-2.5 -59.667 -2.5 -93v-452c0 -86.667 -27.167 -155 -81.5 -205s-131.833 -75 -232.5 -75c-168.667 0 -269.334 52 -302.001 156l139 65c9.33301 -25.333 26.666 -45.833 51.999 -61.5s58.333 -23.5 99 -23.5
c49.333 0 86.833 11.667 112.5 35s38.5 58.333 38.5 105v54c-22.667 -25.333 -49.334 -44.666 -80.001 -57.999s-65 -20 -103 -20c-47.333 0 -91 13.333 -131 40s-71.833 64.334 -95.5 113.001s-35.5 104 -35.5 166c0 62.667 11.833 118.334 35.5 167.001
s55.5 86.334 95.5 113.001s83.667 40 131 40c42.667 0 80.667 -8.5 114 -25.5s61.666 -41.167 84.999 -72.5c1.33301 22 2.83301 40.667 4.5 56s2.5 24.333 2.5 27h157zM452.504 112.996c25 33.333 37.5 77.333 37.5 132c0 55.333 -12.5 99.833 -37.5 133.5
s-57.5 50.5 -97.5 50.5s-72.333 -16.833 -97 -50.5s-37 -78.167 -37 -133.5c0 -54 12.5 -97.833 37.5 -131.5s57.167 -50.5 96.5 -50.5c40 0 72.5 16.667 97.5 50z" />
    <glyph glyph-name="h" unicode="h" horiz-adv-x="726" 
d="M602 504c38.667 -40.667 57.999 -96.667 57.999 -168v-418h-176v386c0 76.667 -36 115 -108 115c-40.667 0 -72.5 -13.333 -95.5 -40s-34.5 -63 -34.5 -109v-352h-176v882h176v-313c46 52 112 78 198 78c66.667 0 119.334 -20.333 158.001 -61z" />
    <glyph glyph-name="i" unicode="i" horiz-adv-x="328" 
d="M91.5 772.5c18.333 18.333 42.5 27.5 72.5 27.5s54.167 -9.16699 72.5 -27.5s27.5 -42.5 27.5 -72.5s-9.16699 -54.167 -27.5 -72.5s-42.5 -27.5 -72.5 -27.5s-54.167 9.16699 -72.5 27.5s-27.5 42.5 -27.5 72.5s9.16699 54.167 27.5 72.5zM252 550v-632h-176v632h176z
" />
    <glyph glyph-name="j" unicode="j" horiz-adv-x="328" 
d="M91.5 772.5c18.333 18.333 42.5 27.5 72.5 27.5s54.167 -9.16699 72.5 -27.5s27.5 -42.5 27.5 -72.5s-9.16699 -54.167 -27.5 -72.5s-42.5 -27.5 -72.5 -27.5s-54.167 9.16699 -72.5 27.5s-27.5 42.5 -27.5 72.5s9.16699 54.167 27.5 72.5zM195.5 -268.5
c-37.667 -38.333 -89.501 -57.501 -155.501 -57.501c-37.333 0 -70.666 5.66699 -99.999 17v137c14 -6 33.667 -9 59 -9s44.5 6.5 57.5 19.5s19.5 32.167 19.5 57.5v654h176v-660c0 -67.333 -18.833 -120.166 -56.5 -158.499z" />
    <glyph glyph-name="k" unicode="k" horiz-adv-x="683" 
d="M453 -82l-207 309v-309h-176v882h176v-526l199 276h207l-225 -299l246 -333h-220z" />
    <glyph glyph-name="l" unicode="l" horiz-adv-x="328" 
d="M252 800v-882h-176v882h176z" />
    <glyph glyph-name="m" unicode="m" horiz-adv-x="1068" 
d="M947 508c36 -38 53.999 -89.6689 53.999 -155.002v-435h-176v404c0 32.667 -7.66699 57.334 -23 74.001s-38 25 -68 25c-34 0 -61 -11.5 -81 -34.5s-30 -54.167 -30 -93.5v-375h-176v404c0 32.667 -7.66699 57.334 -23 74.001s-38 25 -68 25
c-34 0 -60.833 -11.5 -80.5 -34.5s-29.5 -54.167 -29.5 -93.5v-375h-176v488c0 58 -1.66699 106 -5 144h157c2.66699 -14.667 5 -41.667 7 -81c43.333 64 108 96 194 96c40.667 0 76 -8.5 106 -25.5s53 -41.167 69 -72.5c44.667 65.333 112.334 98 203.001 98
c61.333 0 110 -19 146 -57z" />
    <glyph glyph-name="n" unicode="n" horiz-adv-x="726" 
d="M602 504c38.667 -40.667 57.998 -96.668 57.998 -168.001v-418h-176v386c0 76.667 -36 115 -108 115c-40.667 0 -72.5 -13.333 -95.5 -40s-34.5 -63 -34.5 -109v-352h-176v488c0 58 -1.66699 106 -5 144h157c2.66699 -15.333 5 -43.666 7 -84.999
c46.667 66.667 118.334 100 215.001 100c66.667 0 119.334 -20.333 158.001 -61z" />
    <glyph glyph-name="o" unicode="o" horiz-adv-x="726" 
d="M86 407.5c27.333 50.333 65.166 89.166 113.499 116.499s102.833 41 163.5 41s115.167 -13.667 163.5 -41s86.166 -66.166 113.499 -116.499s41 -108.166 41 -173.499s-13.667 -123 -41 -173s-65.166 -88.667 -113.499 -116s-102.833 -41 -163.5 -41
s-115.167 13.667 -163.5 41s-86.166 66 -113.499 116s-41 107.667 -41 173s13.667 123.166 41 173.499zM466 375.5c-26 35.667 -60.333 53.5 -103 53.5s-77 -17.833 -103 -53.5s-39 -82.834 -39 -141.501s13 -105.834 39 -141.501s60.333 -53.5 103 -53.5
s77 17.833 103 53.5s39 82.834 39 141.501s-13 105.834 -39 141.501z" />
    <glyph glyph-name="p" unicode="p" horiz-adv-x="752" 
d="M571.5 523.5c41.667 -27.667 74.833 -66.667 99.5 -117s37 -107.833 37 -172.5s-12.333 -122 -37 -172s-57.834 -88.833 -99.501 -116.5s-87.167 -41.5 -136.5 -41.5c-78 0 -141 26 -189 78v-294h-176v718c0 58 -1.66699 106 -5 144h157c2.66699 -14.667 5 -42.667 7 -84
c23.333 32 52.333 56.5 87 73.5s74.334 25.5 119.001 25.5c49.333 0 94.833 -13.833 136.5 -41.5zM463.499 63.5c21.667 16.333 38.5 39.1699 50.5 68.5029s18 63.333 18 102s-6 72.667 -18 102s-28.833 52.166 -50.5 68.499s-46.5 24.5 -74.5 24.5
c-42.667 0 -77.167 -17.833 -103.5 -53.5s-39.5 -82.834 -39.5 -141.501s13.167 -105.834 39.5 -141.501s60.833 -53.5 103.5 -53.5c28 0 52.833 8.16699 74.5 24.5z" />
    <glyph glyph-name="q" unicode="q" horiz-adv-x="752" 
d="M687 550c-2.66699 -30.667 -4.00195 -78.668 -4.00195 -144.001v-718h-176v295c-47.333 -52.667 -110.666 -79 -189.999 -79c-48.667 0 -93.834 13.833 -135.501 41.5s-74.834 66.5 -99.501 116.5s-37 107.333 -37 172s12.333 122.167 37 172.5s57.834 89.333 99.501 117
s86.834 41.5 135.501 41.5c44.667 0 84.334 -8.5 119.001 -25.5s63.667 -41.5 87 -73.5c1.33301 22 2.83301 40.833 4.5 56.5s2.5 24.834 2.5 27.501h157zM467.498 92.499c26.333 35.667 39.5 82.834 39.5 141.501s-13.167 105.834 -39.5 141.501s-60.833 53.5 -103.5 53.5
s-77.167 -17.833 -103.5 -53.5s-39.5 -82.834 -39.5 -141.501s13.167 -105.834 39.5 -141.501s60.833 -53.5 103.5 -53.5s77.167 17.833 103.5 53.5z" />
    <glyph glyph-name="r" unicode="r" horiz-adv-x="473" 
d="M441 556v-153.999c-15.333 3.33301 -32 5 -50 5c-38.667 0 -71.5 -11.333 -98.5 -34s-42.5 -55.667 -46.5 -99v-356h-176v488c0 58 -1.66699 106 -5 144h153c2.66699 -16 5 -48 7 -96c18.667 35.333 42.667 62.666 72 81.999s62 29 98 29c22 0 37.333 -3 46 -9z" />
    <glyph glyph-name="s" unicode="s" horiz-adv-x="604" 
d="M106.5 239.5c-36.333 33 -54.498 76.5 -54.498 130.5c0 38 10.667 71.667 32 101s50.666 52.333 87.999 69s79.666 25 126.999 25c68.667 0 125.5 -12.667 170.5 -38s74.5 -60.333 88.5 -105l-132 -61c-17.333 50 -57 75 -119 75c-25.333 0 -45.5 -5.16699 -60.5 -15.5
s-22.5 -24.833 -22.5 -43.5s8.83301 -32.834 26.5 -42.501s49.834 -17.834 96.501 -24.501c148 -18.667 222 -85 222 -199c0 -41.333 -11 -77.666 -33 -108.999s-52.5 -55.5 -91.5 -72.5s-83.5 -25.5 -133.5 -25.5c-76 0 -137.5 13.333 -184.5 40
s-78.5 65.334 -94.5 116.001l131 61c9.33301 -27.333 25.333 -48.833 48 -64.5s52.334 -23.5 89.001 -23.5c30.667 0 54.5 5.5 71.5 16.5s25.5 27.167 25.5 48.5c0 16 -3.83301 28.833 -11.5 38.5s-20.834 17.667 -39.501 24s-45.334 11.833 -80.001 16.5
c-70 8.66699 -123.167 29.5 -159.5 62.5z" />
    <glyph glyph-name="t" unicode="t" horiz-adv-x="468" 
d="M291 414v-289c0 -50.667 25.333 -76 76 -76c24 0 44 2.66699 60 8v-137c-30.667 -10.667 -64 -16 -100 -16c-66 0 -117.667 19 -155 57s-56 90.333 -56 157v296h-83v136h83v144h175v-144h136v-136h-136z" />
    <glyph glyph-name="u" unicode="u" horiz-adv-x="726" 
d="M504 -82c0 3.33301 -0.833008 12.833 -2.5 28.5s-3.16699 34.167 -4.5 55.5c-47.333 -65.333 -119 -98 -215 -98c-66 0 -118.333 20.333 -157 61s-58 96.667 -58 168v417h175v-386c0 -76 36 -114 108 -114c40.667 0 72.667 13.167 96 39.5s35 62.5 35 108.5v352h175v-488
c0 -65.333 2 -113.333 6 -144h-158z" />
    <glyph glyph-name="v" unicode="v" horiz-adv-x="690" 
d="M669 550l-221 -632h-205l-222 632h199l130 -480l129 480h190z" />
    <glyph glyph-name="w" unicode="w" horiz-adv-x="1013" 
d="M984 550l-160 -632h-206l-112 474l-111 -474h-206l-159 632h176l89 -471l111 471h209l112 -471l88 471h169z" />
    <glyph glyph-name="x" unicode="x" horiz-adv-x="697" 
d="M467 -82l-123 229l-114 -229h-200l202 321l-197 311h210l109 -220l116 220h192l-197 -311l203 -321h-201z" />
    <glyph glyph-name="y" unicode="y" horiz-adv-x="696" 
d="M675 550l-308 -862h-196l106 213l-256 649h203l136 -475l126 475h189z" />
    <glyph glyph-name="z" unicode="z" horiz-adv-x="634" 
d="M585 55v-137h-536v108l312 388h-300v136h518v-108l-311 -387h317z" />
    <glyph glyph-name="braceleft" unicode="{" horiz-adv-x="454" 
d="M315.5 644.5c-13.667 -11 -20.5 -26.8379 -20.5 -47.5049c0 -15.333 1.33301 -29 4 -41s6.66699 -26.333 12 -43c6 -20 10.333 -36.167 13 -48.5s4 -27.166 4 -44.499c0 -20.667 -5.33301 -39.167 -16 -55.5s-25.667 -30.166 -45 -41.499
c19.333 -11.333 34.333 -25.166 45 -41.499s16 -34.833 16 -55.5c0 -17.333 -1.33301 -32.166 -4 -44.499s-7 -28.5 -13 -48.5c-5.33301 -16.667 -9.33301 -31 -12 -43s-4 -25.667 -4 -41c0 -20.667 6.83301 -36.5 20.5 -47.5s32.834 -16.5 57.501 -16.5h36v-175h-136
c-29.333 0 -56.333 6.5 -81 19.5s-44.167 31.167 -58.5 54.5s-21.5 50.333 -21.5 81c0 21.333 1.5 40 4.5 56s7.5 36.333 13.5 61c10 35.333 15 64 15 86s-6.83301 38.667 -20.5 50s-32.834 17 -57.501 17h-32v176h32c24.667 0 43.834 5.66699 57.501 17s20.5 28 20.5 50
c0 22.667 -5 51.334 -15 86.001c-6 24.667 -10.5 45 -13.5 61s-4.5 34.667 -4.5 56c0 30.667 7.16699 57.667 21.5 81s33.833 41.5 58.5 54.5s51.667 19.5 81 19.5h136v-175h-36c-24.667 0 -43.834 -5.5 -57.501 -16.5z" />
    <glyph glyph-name="bar" unicode="|" horiz-adv-x="335" 
d="M81 -190v1028h173v-1028h-173z" />
    <glyph glyph-name="braceright" unicode="}" horiz-adv-x="454" 
d="M419 411v-175.995h-32c-24.667 0 -43.834 -5.66699 -57.501 -17s-20.5 -28 -20.5 -50s5 -50.667 15 -86c6 -24.667 10.5 -45 13.5 -61s4.5 -34.667 4.5 -56c0 -30.667 -7.16699 -57.667 -21.5 -81s-33.833 -41.5 -58.5 -54.5s-51.667 -19.5 -81 -19.5h-136v175h36
c24.667 0 43.834 5.5 57.501 16.5s20.5 26.833 20.5 47.5c0 15.333 -1.33301 29 -4 41s-6.66699 26.333 -12 43c-6 20 -10.333 36.167 -13 48.5s-4 27.166 -4 44.499c0 20.667 5.33301 39.167 16 55.5s25.667 30.166 45 41.499c-19.333 11.333 -34.333 25.166 -45 41.499
s-16 34.833 -16 55.5c0 17.333 1.33301 32.166 4 44.499s7 28.5 13 48.5c5.33301 16.667 9.33301 31 12 43s4 25.667 4 41c0 20.667 -6.83301 36.5 -20.5 47.5s-32.834 16.5 -57.501 16.5h-36v175h136c29.333 0 56.333 -6.5 81 -19.5s44.167 -31.167 58.5 -54.5
s21.5 -50.333 21.5 -81c0 -21.333 -1.5 -40 -4.5 -56s-7.5 -36.333 -13.5 -61c-10 -34.667 -15 -63.334 -15 -86.001c0 -21.333 6.83301 -37.833 20.5 -49.5s32.834 -17.5 57.501 -17.5h32z" />
    <glyph glyph-name="asciitilde" unicode="~" 
d="M488 391.5c8.66699 7.66699 13 17.832 13 30.499v6h127v-29c0 -29.333 -7 -56 -21 -80s-33 -43 -57 -57s-50.667 -21 -80 -21c-30 0 -55.833 3.83301 -77.5 11.5s-45.5 18.167 -71.5 31.5c-15.333 8.66699 -28 15 -38 19s-20.333 6 -31 6
c-14.667 0 -26.334 -3.66699 -35.001 -11s-13 -17.666 -13 -30.999v-6h-127v30c0 29.333 7 56 21 80s33 42.833 57 56.5s50.667 20.5 80 20.5c30 0 55.833 -3.83301 77.5 -11.5s45.5 -18.167 71.5 -31.5c15.333 -8.66699 28 -15 38 -19s20.333 -6 31 -6
c14.667 0 26.334 3.83301 35.001 11.5z" />
    <glyph glyph-name="exclamdown" unicode="&#xa1;" horiz-adv-x="310" 
d="M219 408c-16 -16 -37.333 -24 -64 -24s-48 8 -64 24s-24 37.333 -24 64s8 48 24 64s37.333 24 64 24s48 -8 64 -24s24 -37.333 24 -64s-8 -48 -24 -64zM205 293l38 -605h-176l38 605h100z" />
    <glyph glyph-name="cent" unicode="&#xa2;" 
d="M457.5 179c20.333 16.667 33.166 40.333 38.499 71l148 -65c-12.667 -52 -43 -93.5 -91 -124.5s-105.667 -46.5 -173 -46.5c-19.333 0 -36.666 1.33301 -51.999 4l-24 -100h-103l31 128c-54 26 -96.667 65 -128 117s-47 111.667 -47 179
c0 63.333 13.833 119.833 41.5 169.5s66 88.5 115 116.5s104.5 42 166.5 42h5l23 94h103l-27 -109c41.333 -12.667 76 -32.5 104 -59.5s46.667 -59.167 56 -96.5l-148 -65c-7.33301 34.667 -23 60 -47 76l-87 -355c3.33301 -0.666992 9 -1 17 -1
c32 0 58.167 8.33301 78.5 25zM271 201.999l79 326.001c-38 -6.66699 -67.333 -26.167 -88 -58.5s-31 -74.833 -31 -127.5c0 -60.667 13.333 -107.334 40 -140.001z" />
    <glyph glyph-name="sterling" unicode="&#xa3;" horiz-adv-x="720" 
d="M674 63l0.000976562 -145h-619v117c37.333 23.333 65.166 47.833 83.499 73.5s27.5 59.5 27.5 101.5c0 18.667 -2.33301 40.667 -7 66h-115v130h81c-13.333 50 -20 93 -20 129c0 47.333 11.5 89.5 34.5 126.5s55.333 65.667 97 86s89.834 30.5 144.501 30.5
c75.333 0 137.166 -17 185.499 -51s78.166 -78.667 89.499 -134l-151 -71c-7.33301 34 -20.666 61 -39.999 81s-46.333 30 -81 30c-34 0 -60.5 -10 -79.5 -30s-28.5 -47.333 -28.5 -82c0 -32.667 6.33301 -71 19 -115h220v-130h-184c4 -20 6 -40.667 6 -62
c0 -26.667 -4.83301 -54 -14.5 -82s-22.167 -51 -37.5 -69h389z" />
    <glyph glyph-name="yen" unicode="&#xa5;" 
d="M440 236h198v-130h-198v-188h-176v188h-197v130h197v40h-197v130h133l-188 358h195l149 -313l147 313h189l-189 -358h134v-130h-197v-40z" />
    <glyph glyph-name="brokenbar" unicode="&#xa6;" horiz-adv-x="0" 
 />
    <glyph glyph-name="section" unicode="&#xa7;" horiz-adv-x="597" 
d="M549.5 262c-18.333 -24.667 -44.833 -44.334 -79.5 -59.001c22.667 -12.667 39.167 -28.834 49.5 -48.501s15.5 -44.167 15.5 -73.5c0 -34.667 -10.333 -65.5 -31 -92.5s-49.667 -48 -87 -63s-80.333 -22.5 -129 -22.5c-69.333 0 -126.333 11.833 -171 35.5
s-74 57.834 -88 102.501l132 61c7.33301 -24 20.666 -41.667 39.999 -53s45.666 -17 78.999 -17c26.667 0 47.167 4.33301 61.5 13s21.5 20.667 21.5 36c0 17.333 -9.33301 31 -28 41s-50.334 17.333 -95.001 22c-76 8 -132 27.167 -168 57.5s-54 73.833 -54 130.5
c0 33.333 9.16699 62.333 27.5 87s44.833 44.334 79.5 59.001c-22.667 12.667 -39.167 28.834 -49.5 48.501s-15.5 44.167 -15.5 73.5c0 34.667 10.333 65.5 31 92.5s49.667 48 87 63s80.333 22.5 129 22.5c69.333 0 126.333 -11.833 171 -35.5s74 -57.834 88 -102.501
l-132 -61c-7.33301 24 -20.666 41.667 -39.999 53s-45.666 17 -78.999 17c-26.667 0 -47.167 -4.33301 -61.5 -13s-21.5 -20.667 -21.5 -36c0 -17.333 9.33301 -31 28 -41s50.334 -17.333 95.001 -22c76 -8 132 -27.167 168 -57.5s54 -73.833 54 -130.5
c0 -33.333 -9.16699 -62.333 -27.5 -87zM217.5 288c18.333 -12.667 45.166 -19 80.499 -19c71.333 0 107 23 107 69c0 24 -9.16699 42.333 -27.5 55s-45.166 19 -80.499 19c-71.333 0 -107 -23 -107 -69c0 -24 9.16699 -42.333 27.5 -55z" />
    <glyph glyph-name="dieresis" unicode="&#xa8;" horiz-adv-x="600" 
d="M97.5 772.5c18.333 18.333 42.5 27.5 72.5 27.5c30.667 0 55.167 -9.16699 73.5 -27.5s27.5 -42.5 27.5 -72.5s-9.16699 -54.167 -27.5 -72.5s-42.833 -27.5 -73.5 -27.5c-30 0 -54.167 9.16699 -72.5 27.5s-27.5 42.5 -27.5 72.5s9.16699 54.167 27.5 72.5zM356.5 772.5
c18.333 18.333 42.833 27.5 73.5 27.5c30 0 54.167 -9.16699 72.5 -27.5s27.5 -42.5 27.5 -72.5s-9.16699 -54.167 -27.5 -72.5s-42.5 -27.5 -72.5 -27.5c-30.667 0 -55.167 9.16699 -73.5 27.5s-27.5 42.5 -27.5 72.5s9.16699 54.167 27.5 72.5z" />
    <glyph glyph-name="copyright" unicode="&#xa9;" horiz-adv-x="948" 
d="M854 118c-38 -66.667 -90.333 -119 -157 -157s-141 -57 -223 -57s-156.333 19 -223 57s-119 90.333 -157 157s-57 141 -57 223s19 156.333 57 223s90.333 119 157 157s141 57 223 57s156.333 -19 223 -57s119 -90.333 157 -157s57 -141 57 -223s-19 -156.333 -57 -223z
M174.5 165.5c30.333 -52.333 71.666 -93.666 123.999 -123.999s110.833 -45.5 175.5 -45.5s123.167 15.167 175.5 45.5s93.666 71.666 123.999 123.999s45.5 110.833 45.5 175.5s-15.167 123.167 -45.5 175.5s-71.666 93.666 -123.999 123.999s-110.833 45.5 -175.5 45.5
s-123.167 -15.167 -175.5 -45.5s-93.666 -71.666 -123.999 -123.999s-45.5 -110.833 -45.5 -175.5s15.167 -123.167 45.5 -175.5zM262 473c21.333 38.667 50.833 68.665 88.5 89.998s80.5 32 128.5 32c52 0 97.333 -13 136 -39s62.667 -59 72 -99l-122 -57
c-16 46 -46.333 69 -91 69c-32.667 0 -58.834 -11.5 -78.501 -34.5s-29.5 -53.833 -29.5 -92.5s9.83301 -69.5 29.5 -92.5s45.834 -34.5 78.501 -34.5c44.667 0 75 23 91 69l122 -57c-9.33301 -40 -33.333 -73 -72 -99s-84 -39 -136 -39c-48 0 -90.833 10.667 -128.5 32
s-67.167 51.333 -88.5 90s-32 82.334 -32 131.001s10.667 92.334 32 131.001z" />
    <glyph glyph-name="ordfeminine" unicode="&#xaa;" horiz-adv-x="634" 
d="M563 386c0 -44.667 1 -82.0029 3 -112.003h-136c-2.66699 11.333 -5 29.666 -7 54.999c-38.667 -46.667 -91.334 -70 -158.001 -70c-38.667 0 -74.667 10.833 -108 32.5s-59.833 52.334 -79.5 92.001s-29.5 84.834 -29.5 135.501s9.83301 95.834 29.5 135.501
s46.167 70.334 79.5 92.001s69.333 32.5 108 32.5c66.667 0 119.334 -23.667 158.001 -71c2 26 4.33301 44.667 7 56h136c-2 -30 -3 -67.333 -3 -112v-266zM380.5 417.497c19 25.667 28.5 59.5 28.5 101.5s-9.5 75.667 -28.5 101s-44.167 38 -75.5 38
c-30.667 0 -55.5 -12.667 -74.5 -38s-28.5 -59 -28.5 -101s9.5 -75.833 28.5 -101.5s43.833 -38.5 74.5 -38.5c31.333 0 56.5 12.833 75.5 38.5zM113 150.997h385v-122h-385v122z" />
    <glyph glyph-name="guillemotleft" unicode="&#xab;" horiz-adv-x="600" 
d="M182 310l97 -87v-146l-219 173v120l219 173l1 -146zM432 310l97 -87v-146l-219 173v120l219 173l1 -146z" />
    <glyph glyph-name="uni00AD" unicode="&#xad;" horiz-adv-x="410" 
d="M60 382h289v-137h-289v137z" />
    <glyph glyph-name="registered" unicode="&#xae;" horiz-adv-x="394" 
d="M276.5 766.5c24.333 -14.333 43.666 -33.833 57.999 -58.5s21.5 -51.334 21.5 -80.001s-7.16699 -55.334 -21.5 -80.001s-33.666 -44.167 -57.999 -58.5s-50.833 -21.5 -79.5 -21.5s-55.167 7.16699 -79.5 21.5s-43.666 33.833 -57.999 58.5s-21.5 51.334 -21.5 80.001
s7.16699 55.334 21.5 80.001s33.666 44.167 57.999 58.5s50.833 21.5 79.5 21.5s55.167 -7.16699 79.5 -21.5zM287.5 537c24.333 24.667 36.5 55 36.5 91s-12.167 66.333 -36.5 91s-54.5 37 -90.5 37s-66.167 -12.333 -90.5 -37s-36.5 -55 -36.5 -91
s12.167 -66.333 36.5 -91s54.5 -37 90.5 -37s66.167 12.333 90.5 37zM264.5 626c-7.66699 -10.667 -18.166 -17.668 -31.499 -21.001l44 -75h-54l-36 72h-13v-72h-47v198h86c19.333 0 34.666 -5.66699 45.999 -17s17 -26.666 17 -45.999
c0 -15.333 -3.83301 -28.333 -11.5 -39zM174.001 636.999h27c18.667 0 28 9.33301 28 28c0 18 -9.33301 27 -28 27h-27v-55z" />
    <glyph glyph-name="macron" unicode="&#xaf;" horiz-adv-x="600" 
d="M123 768h354v-136h-354v136z" />
    <glyph glyph-name="degree" unicode="&#xb0;" horiz-adv-x="586" 
d="M113.5 675c18.333 32 43.166 57.167 74.499 75.5s66.333 27.5 105 27.5s73.667 -9.16699 105 -27.5s56.166 -43.5 74.499 -75.5s27.5 -67.667 27.5 -107s-9.16699 -75 -27.5 -107s-43.166 -57.167 -74.499 -75.5s-66.333 -27.5 -105 -27.5s-73.667 9.16699 -105 27.5
s-56.166 43.5 -74.499 75.5s-27.5 67.667 -27.5 107s9.16699 75 27.5 107zM219 490.5c19.333 -20.333 44 -30.5 74 -30.5s54.667 10.167 74 30.5s29 46.166 29 77.499s-9.66699 57.166 -29 77.499s-44 30.5 -74 30.5s-54.667 -10.167 -74 -30.5s-29 -46.166 -29 -77.499
s9.66699 -57.166 29 -77.499z" />
    <glyph glyph-name="plusminus" unicode="&#xb1;" horiz-adv-x="692" 
d="M598 491v-120h-192v-182h-120v182h-192v120h192v182h120v-182h192zM94 129h504v-120h-504v120z" />
    <glyph glyph-name="uni00B2" unicode="&#xb2;" horiz-adv-x="388" 
d="M348 424l-0.00195312 -83.002h-307v69l145 138c20.667 20.667 34.834 37.167 42.501 49.5s11.5 25.5 11.5 39.5c0 15.333 -4.66699 27.833 -14 37.5s-21.666 14.5 -36.999 14.5c-18 0 -32.5 -5 -43.5 -15s-19.833 -25.333 -26.5 -46l-75 44
c11.333 34 29.166 59.167 53.499 75.5s56.5 24.5 96.5 24.5c44.667 0 81 -12.5 109 -37.5s42 -57.167 42 -96.5c0 -27.333 -7.66699 -51.666 -23 -72.999s-42.666 -50.666 -81.999 -87.999l-55 -53h163z" />
    <glyph glyph-name="uni00B3" unicode="&#xb3;" horiz-adv-x="388" 
d="M320.5 566c19.667 -24.667 29.5 -54.666 29.5 -89.999c0 -43.333 -14.167 -78 -42.5 -104s-66.5 -39 -114.5 -39c-36.667 0 -68 8.16699 -94 24.5s-44.333 39.166 -55 68.499l75 44c15.333 -35.333 40 -53 74 -53c17.333 0 31.333 5.5 42 16.5s16 25.167 16 42.5
c0 16.667 -5.5 30 -16.5 40s-25.167 15 -42.5 15c-19.333 0 -34.333 -7.33301 -45 -22l-58 64l115 108h-146v83h274v-69l-89 -83c32 -6 57.833 -21.333 77.5 -46z" />
    <glyph glyph-name="acute" unicode="&#xb4;" horiz-adv-x="600" 
d="M478 800l-109 -200h-138l77 200h170z" />
    <glyph glyph-name="paragraph" unicode="&#xb6;" horiz-adv-x="709" 
d="M630 -82h-160v721h-40v-721h-160v299c-69.333 10 -124.5 39.333 -165.5 88s-61.5 110 -61.5 184c0 54 11.5 101.833 34.5 143.5s55.5 74 97.5 97s90.333 34.5 145 34.5h310v-846z" />
    <glyph glyph-name="periodcentered" unicode="&#xb7;" horiz-adv-x="330" 
d="M92 386.5c18.667 18.333 43 27.5 73 27.5s54.167 -9.16699 72.5 -27.5s27.5 -42.833 27.5 -73.5c0 -30 -9.16699 -54.167 -27.5 -72.5s-42.5 -27.5 -72.5 -27.5s-54.333 9.16699 -73 27.5s-28 42.5 -28 72.5c0 30.667 9.33301 55.167 28 73.5z" />
    <glyph glyph-name="cedilla" unicode="&#xb8;" horiz-adv-x="600" 
d="M341 -82l-11 -53.002c28 -7.33301 49.5 -19 64.5 -35s22.5 -35.667 22.5 -59c0 -30 -11.5 -53.667 -34.5 -71s-54.167 -26 -93.5 -26c-15.333 0 -31.333 2 -48 6s-31 9 -43 15l18 65c23.333 -10 44.666 -15 63.999 -15c30 0 45 10.333 45 31
c0 12.667 -7.16699 23.334 -21.5 32.001s-34.166 14.334 -59.499 17.001l19 93h78z" />
    <glyph glyph-name="uni00B9" unicode="&#xb9;" horiz-adv-x="299" 
d="M231 341h-104v307l-83 -48l1 102l108 62h79z" />
    <glyph glyph-name="ordmasculine" unicode="&#xba;" horiz-adv-x="612" 
d="M438.5 747c39 -21.333 69.667 -51.666 92 -90.999s33.5 -85 33.5 -137s-11.167 -97.667 -33.5 -137s-53 -69.666 -92 -90.999s-83.167 -32 -132.5 -32s-93.5 10.667 -132.5 32s-69.667 51.666 -92 90.999s-33.5 85 -33.5 137s11.167 97.667 33.5 137s53 69.666 92 90.999
s83.167 32 132.5 32s93.5 -10.667 132.5 -32zM381.5 416.5c19 25.667 28.5 59.834 28.5 102.501s-9.5 76.834 -28.5 102.501s-44.167 38.5 -75.5 38.5s-56.5 -12.833 -75.5 -38.5s-28.5 -59.834 -28.5 -102.501s9.5 -76.834 28.5 -102.501s44.167 -38.5 75.5 -38.5
s56.5 12.833 75.5 38.5zM113 151h387v-122h-387v122z" />
    <glyph glyph-name="guillemotright" unicode="&#xbb;" horiz-adv-x="600" 
d="M168 310l-97 87v146l219 -173v-120l-219 -173l-1 146zM418 310l-97 87v146l219 -173v-120l-219 -173l-1 146z" />
    <glyph glyph-name="onequarter" unicode="&#xbc;" horiz-adv-x="917" 
d="M231 341h-104v307l-83 -48l1 102l108 62h79zM83 -82l556 846h106l-556 -846h-106zM883 -2h-50v-80h-99v80h-171v69l185 274h85v-260h50v-83zM734 81v101l-68 -101h68z" />
    <glyph glyph-name="onehalf" unicode="&#xbd;" horiz-adv-x="917" 
d="M231 341h-104v307l-83 -48l1 102l108 62h79zM83 -82l556 846h106l-556 -846h-106zM877 1l-0.00195312 -83.002h-307v69l145 138c20.667 20.667 34.834 37.167 42.501 49.5s11.5 25.5 11.5 39.5c0 15.333 -4.66699 27.833 -14 37.5s-21.666 14.5 -36.999 14.5
c-18 0 -32.5 -5 -43.5 -15s-19.833 -25.333 -26.5 -46l-75 44c11.333 34 29.166 59.167 53.499 75.5s56.5 24.5 96.5 24.5c44.667 0 81 -12.5 109 -37.5s42 -57.167 42 -96.5c0 -27.333 -7.66699 -51.666 -23 -72.999s-42.666 -50.666 -81.999 -87.999l-55 -53h163z" />
    <glyph glyph-name="threequarters" unicode="&#xbe;" horiz-adv-x="1006" 
d="M320.5 566c19.667 -24.667 29.5 -54.666 29.5 -89.999c0 -43.333 -14.167 -78 -42.5 -104s-66.5 -39 -114.5 -39c-36.667 0 -68 8.16699 -94 24.5s-44.333 39.166 -55 68.499l75 44c15.333 -35.333 40 -53 74 -53c17.333 0 31.333 5.5 42 16.5s16 25.167 16 42.5
c0 16.667 -5.5 30 -16.5 40s-25.167 15 -42.5 15c-19.333 0 -34.333 -7.33301 -45 -22l-58 64l115 108h-146v83h274v-69l-89 -83c32 -6 57.833 -21.333 77.5 -46zM172 -81.999l556 846h106l-556 -846h-106zM972 -1.99902h-50v-80h-99v80h-171v69l185 274h85v-260h50v-83z
M823 81.001v101l-68 -101h68z" />
    <glyph glyph-name="questiondown" unicode="&#xbf;" horiz-adv-x="587" 
d="M359 408c-16 -16 -37.333 -24 -64 -24s-48 8 -64 24s-24 37.333 -24 64s8 48 24 64s37.333 24 64 24s48 -8 64 -24s24 -37.333 24 -64s-8 -48 -24 -64zM267 36c-25.333 -24.667 -44 -45.835 -56 -63.502s-18 -39.167 -18 -64.5c0 -31.333 9.5 -57.666 28.5 -78.999
s45.833 -32 80.5 -32c34 0 61.333 9.16699 82 27.5s35.334 43.833 44.001 76.5l120 -56c-15.333 -55.333 -44.833 -97.666 -88.5 -126.999s-99.834 -44 -168.501 -44c-48.667 0 -92.167 9.5 -130.5 28.5s-68.333 45.167 -90 78.5s-32.5 71 -32.5 113
c0 34.667 5.83301 65.5 17.5 92.5s27 51.333 46 73s45.833 48.167 80.5 79.5c34.667 32 52 83.333 52 154h126c0 -59.333 -5.5 -107.5 -16.5 -144.5s-29.833 -68.167 -56.5 -93.5z" />
    <glyph glyph-name="Agrave" unicode="&#xc0;" horiz-adv-x="829" 
d="M549 116h-279l-55 -198h-195l274 846h241l274 -846h-205zM505 274l-95 340l-96 -340h191zM484 820h-138l-109 200h170z" />
    <glyph glyph-name="Aacute" unicode="&#xc1;" horiz-adv-x="829" 
d="M549 116h-279l-55 -198h-195l274 846h241l274 -846h-205zM505 274l-95 340l-96 -340h191zM593 1020l-109 -200h-138l77 200h170z" />
    <glyph glyph-name="Acircumflex" unicode="&#xc2;" horiz-adv-x="829" 
d="M549 116h-279l-55 -198h-195l274 846h241l274 -846h-205zM505 274l-95 340l-96 -340h191zM415 914l-83 -94h-144l159 200h136l159 -200h-144z" />
    <glyph glyph-name="Atilde" unicode="&#xc3;" horiz-adv-x="829" 
d="M549 116h-279l-55 -198h-195l274 846h241l274 -846h-205zM505 274l-95 340l-96 -340h191zM232 964c22.667 27.333 54 41 94 41c23.333 0 43.166 -3.16699 59.499 -9.5s34.5 -15.5 54.5 -27.5c11.333 -7.33301 20.666 -12.666 27.999 -15.999s15 -5 23 -5
c22.667 0 34 13.667 34 41h108c-0.666992 -47.333 -12.334 -84.666 -35.001 -111.999s-54 -41 -94 -41c-23.333 0 -43.166 3.16699 -59.499 9.5s-34.5 15.5 -54.5 27.5c-11.333 7.33301 -20.666 12.666 -27.999 15.999s-15 5 -23 5c-22.667 0 -34 -13.667 -34 -41h-108
c0.666992 47.333 12.334 84.666 35.001 111.999z" />
    <glyph glyph-name="Adieresis" unicode="&#xc4;" horiz-adv-x="829" 
d="M549 116h-279l-55 -198h-195l274 846h241l274 -846h-205zM505 274l-95 340l-96 -340h191zM212.5 993.5c18.333 18.333 42.5 27.5 72.5 27.5c30.667 0 55.167 -9.16699 73.5 -27.5s27.5 -42.5 27.5 -72.5c0 -30.667 -9.16699 -55.167 -27.5 -73.5
s-42.833 -27.5 -73.5 -27.5c-30 0 -54.167 9.16699 -72.5 27.5s-27.5 42.833 -27.5 73.5c0 30 9.16699 54.167 27.5 72.5zM471.5 993.5c18.333 18.333 42.833 27.5 73.5 27.5c30 0 54.167 -9.16699 72.5 -27.5s27.5 -42.5 27.5 -72.5
c0 -30.667 -9.16699 -55.167 -27.5 -73.5s-42.5 -27.5 -72.5 -27.5c-30.667 0 -55.167 9.16699 -73.5 27.5s-27.5 42.833 -27.5 73.5c0 30 9.16699 54.167 27.5 72.5z" />
    <glyph glyph-name="Aring" unicode="&#xc5;" horiz-adv-x="829" 
d="M549 116h-279l-55 -198h-195l274 846h241l274 -846h-205zM505 274l-95 340l-96 -340h191zM333.5 1001.5c21 21 48.167 31.5 81.5 31.5s60.666 -10.5 81.999 -31.5s32 -48.167 32 -81.5s-10.667 -60.5 -32 -81.5s-48.666 -31.5 -81.999 -31.5s-60.5 10.5 -81.5 31.5
s-31.5 48.167 -31.5 81.5s10.5 60.5 31.5 81.5zM382.5 886.5c9 -9 19.833 -13.5 32.5 -13.5c13.333 0 24.333 4.5 33 13.5s13 20.167 13 33.5s-4.33301 24.5 -13 33.5s-19.667 13.5 -33 13.5c-12.667 0 -23.5 -4.5 -32.5 -13.5s-13.5 -20.167 -13.5 -33.5
s4.5 -24.5 13.5 -33.5z" />
    <glyph glyph-name="AE" unicode="&#xc6;" horiz-adv-x="1165" vert-adv-y="850" 
d="M682 606l29 -165h366v-158h-338l37 -207h325v-158h-493l-28 198h-279l-83 -198h-203l399 846h687v-158h-419zM558 274l-47 341l-143 -341h190z" />
    <glyph glyph-name="Ccedilla" unicode="&#xc7;" horiz-adv-x="810" 
d="M621 186l156.002 -72.001c-18 -64 -53.167 -114.5 -105.5 -151.5s-117.833 -56.833 -196.5 -59.5l-8 -38c28 -7.33301 49.5 -19 64.5 -35s22.5 -35.667 22.5 -59c0 -30 -11.5 -53.667 -34.5 -71s-54.167 -26 -93.5 -26c-15.333 0 -31.333 2 -48 6s-31 9 -43 15l18 65
c23.333 -10 44.666 -15 63.999 -15c30 0 45 10.333 45 31c0 12.667 -7.16699 23.334 -21.5 32.001s-34.166 14.334 -59.499 17.001l17 81c-69.333 8.66699 -130.333 32.167 -183 70.5s-93.334 88.666 -122.001 150.999s-43 133.5 -43 213.5c0 86.667 16.833 163 50.5 229
s81.167 117.167 142.5 153.5s132 54.5 212 54.5c84 0 153.833 -18.5 209.5 -55.5s93.167 -88.833 112.5 -155.5l-156 -72c-24.667 87.333 -81.334 131 -170.001 131c-41.333 0 -78 -12 -110 -36s-56.833 -57.5 -74.5 -100.5s-26.5 -92.5 -26.5 -148.5
s8.83301 -105.667 26.5 -149s42.5 -76.833 74.5 -100.5s68.667 -35.5 110 -35.5c89.333 0 146 43.333 170 130z" />
    <glyph glyph-name="Egrave" unicode="&#xc8;" horiz-adv-x="681" 
d="M265 606v-165h328v-158h-328v-207h352v-158h-542v846h542v-158h-352zM427 820h-138l-109 200h170z" />
    <glyph glyph-name="Eacute" unicode="&#xc9;" horiz-adv-x="681" 
d="M265 606v-165h328v-158h-328v-207h352v-158h-542v846h542v-158h-352zM536 1020l-109 -200h-138l77 200h170z" />
    <glyph glyph-name="Ecircumflex" unicode="&#xca;" horiz-adv-x="681" 
d="M265 606v-165h328v-158h-328v-207h352v-158h-542v846h542v-158h-352zM353 914l-83 -94h-144l159 200h136l159 -200h-144z" />
    <glyph glyph-name="Edieresis" unicode="&#xcb;" horiz-adv-x="681" 
d="M265 606v-165h328v-158h-328v-207h352v-158h-542v846h542v-158h-352zM150.5 993.5c18.333 18.333 42.5 27.5 72.5 27.5c30.667 0 55.167 -9.16699 73.5 -27.5s27.5 -42.5 27.5 -72.5c0 -30.667 -9.16699 -55.167 -27.5 -73.5s-42.833 -27.5 -73.5 -27.5
c-30 0 -54.167 9.16699 -72.5 27.5s-27.5 42.833 -27.5 73.5c0 30 9.16699 54.167 27.5 72.5zM409.5 993.5c18.333 18.333 42.833 27.5 73.5 27.5c30 0 54.167 -9.16699 72.5 -27.5s27.5 -42.5 27.5 -72.5c0 -30.667 -9.16699 -55.167 -27.5 -73.5s-42.5 -27.5 -72.5 -27.5
c-30.667 0 -55.167 9.16699 -73.5 27.5s-27.5 42.833 -27.5 73.5c0 30 9.16699 54.167 27.5 72.5z" />
    <glyph glyph-name="Igrave" unicode="&#xcc;" horiz-adv-x="352" 
d="M271 764v-846h-190v846h190zM245 820h-138l-109 200h170z" />
    <glyph glyph-name="Iacute" unicode="&#xcd;" horiz-adv-x="352" 
d="M271 764v-846h-190v846h190zM354 1020l-109 -200h-138l77 200h170z" />
    <glyph glyph-name="Icircumflex" unicode="&#xce;" horiz-adv-x="352" 
d="M271 764v-846h-190v846h190zM176 914l-83 -94h-144l159 200h136l159 -200h-144z" />
    <glyph glyph-name="Idieresis" unicode="&#xcf;" horiz-adv-x="352" 
d="M271 764v-846h-190v846h190zM-26.5 993.5c18.333 18.333 42.5 27.5 72.5 27.5c30.667 0 55.167 -9.16699 73.5 -27.5s27.5 -42.5 27.5 -72.5c0 -30.667 -9.16699 -55.167 -27.5 -73.5s-42.833 -27.5 -73.5 -27.5c-30 0 -54.167 9.16699 -72.5 27.5
s-27.5 42.833 -27.5 73.5c0 30 9.16699 54.167 27.5 72.5zM232.5 993.5c18.333 18.333 42.833 27.5 73.5 27.5c30 0 54.167 -9.16699 72.5 -27.5s27.5 -42.5 27.5 -72.5c0 -30.667 -9.16699 -55.167 -27.5 -73.5s-42.5 -27.5 -72.5 -27.5
c-30.667 0 -55.167 9.16699 -73.5 27.5s-27.5 42.833 -27.5 73.5c0 30 9.16699 54.167 27.5 72.5z" />
    <glyph glyph-name="Eth" unicode="&#xd0;" horiz-adv-x="935" vert-adv-y="850" 
d="M700.5 711.5c57.667 -35 102.167 -84.499 133.5 -148.499s47 -138 47 -222c0 -84.667 -15.667 -158.834 -47 -222.501s-75.833 -113 -133.5 -148s-124.834 -52.5 -201.501 -52.5h-344v365h-125v158h125v323h344c76.667 0 143.834 -17.5 201.501 -52.5zM630 147.001
c40.667 47.333 61 112 61 194s-20.333 146.667 -61 194s-97.334 71 -170.001 71h-115v-165h218v-158h-218v-207h115c72.667 0 129.334 23.667 170.001 71z" />
    <glyph glyph-name="Ntilde" unicode="&#xd1;" horiz-adv-x="866" 
d="M791 764v-846h-176l-369 547v-547h-171v846h200l345 -511v511h171zM250 964c22.667 27.333 54 41 94 41c23.333 0 43.166 -3.16699 59.499 -9.5s34.5 -15.5 54.5 -27.5c11.333 -7.33301 20.666 -12.666 27.999 -15.999s15 -5 23 -5c22.667 0 34 13.667 34 41h108
c-0.666992 -47.333 -12.334 -84.666 -35.001 -111.999s-54 -41 -94 -41c-23.333 0 -43.166 3.16699 -59.499 9.5s-34.5 15.5 -54.5 27.5c-11.333 7.33301 -20.666 12.666 -27.999 15.999s-15 5 -23 5c-22.667 0 -34 -13.667 -34 -41h-108
c0.666992 47.333 12.334 84.666 35.001 111.999z" />
    <glyph glyph-name="Ograve" unicode="&#xd2;" horiz-adv-x="902" 
d="M801.5 112c-33.667 -66 -80.834 -117.165 -141.501 -153.498s-130.334 -54.5 -209.001 -54.5s-148.334 18.167 -209.001 54.5s-107.834 87.666 -141.501 153.999s-50.5 142.5 -50.5 228.5s16.833 162.167 50.5 228.5s80.834 117.666 141.501 153.999
s130.334 54.5 209.001 54.5s148.334 -18.167 209.001 -54.5s107.834 -87.5 141.501 -153.5s50.5 -142.333 50.5 -229s-16.833 -163 -50.5 -229zM266.5 192.002c17.667 -43.333 42.5 -76.833 74.5 -100.5s68.667 -35.5 110 -35.5s78 11.833 110 35.5s56.833 57 74.5 100
s26.5 92.833 26.5 149.5s-8.83301 106.5 -26.5 149.5s-42.5 76.333 -74.5 100s-68.667 35.5 -110 35.5s-78 -11.833 -110 -35.5s-56.833 -57.167 -74.5 -100.5s-26.5 -93 -26.5 -149s8.83301 -105.667 26.5 -149zM520 820.002h-138l-109 200h170z" />
    <glyph glyph-name="Oacute" unicode="&#xd3;" horiz-adv-x="902" 
d="M801.5 112c-33.667 -66 -80.834 -117.165 -141.501 -153.498s-130.334 -54.5 -209.001 -54.5s-148.334 18.167 -209.001 54.5s-107.834 87.666 -141.501 153.999s-50.5 142.5 -50.5 228.5s16.833 162.167 50.5 228.5s80.834 117.666 141.501 153.999
s130.334 54.5 209.001 54.5s148.334 -18.167 209.001 -54.5s107.834 -87.5 141.501 -153.5s50.5 -142.333 50.5 -229s-16.833 -163 -50.5 -229zM266.5 192.002c17.667 -43.333 42.5 -76.833 74.5 -100.5s68.667 -35.5 110 -35.5s78 11.833 110 35.5s56.833 57 74.5 100
s26.5 92.833 26.5 149.5s-8.83301 106.5 -26.5 149.5s-42.5 76.333 -74.5 100s-68.667 35.5 -110 35.5s-78 -11.833 -110 -35.5s-56.833 -57.167 -74.5 -100.5s-26.5 -93 -26.5 -149s8.83301 -105.667 26.5 -149zM629 1020l-109 -200h-138l77 200h170z" />
    <glyph glyph-name="Ocircumflex" unicode="&#xd4;" horiz-adv-x="902" 
d="M801.5 112c-33.667 -66 -80.834 -117.165 -141.501 -153.498s-130.334 -54.5 -209.001 -54.5s-148.334 18.167 -209.001 54.5s-107.834 87.666 -141.501 153.999s-50.5 142.5 -50.5 228.5s16.833 162.167 50.5 228.5s80.834 117.666 141.501 153.999
s130.334 54.5 209.001 54.5s148.334 -18.167 209.001 -54.5s107.834 -87.5 141.501 -153.5s50.5 -142.333 50.5 -229s-16.833 -163 -50.5 -229zM266.5 192.002c17.667 -43.333 42.5 -76.833 74.5 -100.5s68.667 -35.5 110 -35.5s78 11.833 110 35.5s56.833 57 74.5 100
s26.5 92.833 26.5 149.5s-8.83301 106.5 -26.5 149.5s-42.5 76.333 -74.5 100s-68.667 35.5 -110 35.5s-78 -11.833 -110 -35.5s-56.833 -57.167 -74.5 -100.5s-26.5 -93 -26.5 -149s8.83301 -105.667 26.5 -149zM451 914.002l-83 -94h-144l159 200h136l159 -200h-144z" />
    <glyph glyph-name="Otilde" unicode="&#xd5;" horiz-adv-x="902" 
d="M801.5 112c-33.667 -66 -80.834 -117.165 -141.501 -153.498s-130.334 -54.5 -209.001 -54.5s-148.334 18.167 -209.001 54.5s-107.834 87.666 -141.501 153.999s-50.5 142.5 -50.5 228.5s16.833 162.167 50.5 228.5s80.834 117.666 141.501 153.999
s130.334 54.5 209.001 54.5s148.334 -18.167 209.001 -54.5s107.834 -87.5 141.501 -153.5s50.5 -142.333 50.5 -229s-16.833 -163 -50.5 -229zM266.5 192.002c17.667 -43.333 42.5 -76.833 74.5 -100.5s68.667 -35.5 110 -35.5s78 11.833 110 35.5s56.833 57 74.5 100
s26.5 92.833 26.5 149.5s-8.83301 106.5 -26.5 149.5s-42.5 76.333 -74.5 100s-68.667 35.5 -110 35.5s-78 -11.833 -110 -35.5s-56.833 -57.167 -74.5 -100.5s-26.5 -93 -26.5 -149s8.83301 -105.667 26.5 -149zM268 964.002c22.667 27.333 54 41 94 41
c23.333 0 43.166 -3.16699 59.499 -9.5s34.5 -15.5 54.5 -27.5c11.333 -7.33301 20.666 -12.666 27.999 -15.999s15 -5 23 -5c22.667 0 34 13.667 34 41h108c-0.666992 -47.333 -12.334 -84.666 -35.001 -111.999s-54 -41 -94 -41c-23.333 0 -43.166 3.16699 -59.499 9.5
s-34.5 15.5 -54.5 27.5c-11.333 7.33301 -20.666 12.666 -27.999 15.999s-15 5 -23 5c-22.667 0 -34 -13.667 -34 -41h-108c0.666992 47.333 12.334 84.666 35.001 111.999z" />
    <glyph glyph-name="Odieresis" unicode="&#xd6;" horiz-adv-x="902" 
d="M801.5 112c-33.667 -66 -80.834 -117.165 -141.501 -153.498s-130.334 -54.5 -209.001 -54.5s-148.334 18.167 -209.001 54.5s-107.834 87.666 -141.501 153.999s-50.5 142.5 -50.5 228.5s16.833 162.167 50.5 228.5s80.834 117.666 141.501 153.999
s130.334 54.5 209.001 54.5s148.334 -18.167 209.001 -54.5s107.834 -87.5 141.501 -153.5s50.5 -142.333 50.5 -229s-16.833 -163 -50.5 -229zM266.5 192.002c17.667 -43.333 42.5 -76.833 74.5 -100.5s68.667 -35.5 110 -35.5s78 11.833 110 35.5s56.833 57 74.5 100
s26.5 92.833 26.5 149.5s-8.83301 106.5 -26.5 149.5s-42.5 76.333 -74.5 100s-68.667 35.5 -110 35.5s-78 -11.833 -110 -35.5s-56.833 -57.167 -74.5 -100.5s-26.5 -93 -26.5 -149s8.83301 -105.667 26.5 -149zM248.5 993.502c18.333 18.333 42.5 27.5 72.5 27.5
c30.667 0 55.167 -9.16699 73.5 -27.5s27.5 -42.5 27.5 -72.5c0 -30.667 -9.16699 -55.167 -27.5 -73.5s-42.833 -27.5 -73.5 -27.5c-30 0 -54.167 9.16699 -72.5 27.5s-27.5 42.833 -27.5 73.5c0 30 9.16699 54.167 27.5 72.5zM507.5 993.502
c18.333 18.333 42.833 27.5 73.5 27.5c30 0 54.167 -9.16699 72.5 -27.5s27.5 -42.5 27.5 -72.5c0 -30.667 -9.16699 -55.167 -27.5 -73.5s-42.5 -27.5 -72.5 -27.5c-30.667 0 -55.167 9.16699 -73.5 27.5s-27.5 42.833 -27.5 73.5c0 30 9.16699 54.167 27.5 72.5z" />
    <glyph glyph-name="multiply" unicode="&#xd7;" horiz-adv-x="692" 
d="M431 341l186 -186l-85 -85l-186 186l-186 -186l-85 85l186 186l-186 186l85 85l186 -186l186 186l85 -85z" />
    <glyph glyph-name="Oslash" unicode="&#xd8;" horiz-adv-x="902" vert-adv-y="850" 
d="M852 341c0 -86.667 -16.833 -162.998 -50.5 -228.998s-80.834 -117.167 -141.501 -153.5s-130.334 -54.5 -209.001 -54.5c-90 0 -168 23.667 -234 71l-55 -62l-99 86l62 71c-50 75.333 -75 165.666 -75 270.999c0 86 16.833 162.167 50.5 228.5
s80.834 117.666 141.501 153.999s130.334 54.5 209.001 54.5c90 0 168 -23.667 234 -71l54 62l100 -86l-62 -71c50 -74.667 75 -165 75 -271zM257 220.002l317 360.999c-35.333 30 -76.333 45 -123 45c-41.333 0 -78 -11.833 -110 -35.5s-56.833 -57.167 -74.5 -100.5
s-26.5 -93 -26.5 -149c0 -43.333 5.66699 -83.666 17 -120.999zM561 91.501c32 23.667 56.833 57 74.5 100s26.5 92.833 26.5 149.5c0 44 -5.66699 84.667 -17 122l-317 -361c34.667 -30.667 75.667 -46 123 -46c41.333 0 78 11.833 110 35.5z" />
    <glyph glyph-name="Ugrave" unicode="&#xd9;" horiz-adv-x="849" 
d="M735 55.5c-28.667 -48.333 -69.501 -85.5 -122.501 -111.5s-115.5 -39 -187.5 -39s-134.667 13 -188 39s-94.333 63.167 -123 111.5s-43 105.5 -43 171.5v537h180v-520c0 -62 14.333 -108.833 43 -140.5s70.334 -47.5 125.001 -47.5c112.667 0 169 62.667 169 188v520
h190v-537c0 -66 -14.333 -123.167 -43 -171.5zM493.999 820h-138l-109 200h170z" />
    <glyph glyph-name="Uacute" unicode="&#xda;" horiz-adv-x="849" 
d="M735 55.5c-28.667 -48.333 -69.501 -85.5 -122.501 -111.5s-115.5 -39 -187.5 -39s-134.667 13 -188 39s-94.333 63.167 -123 111.5s-43 105.5 -43 171.5v537h180v-520c0 -62 14.333 -108.833 43 -140.5s70.334 -47.5 125.001 -47.5c112.667 0 169 62.667 169 188v520
h190v-537c0 -66 -14.333 -123.167 -43 -171.5zM602.999 1020l-109 -200h-138l77 200h170z" />
    <glyph glyph-name="Ucircumflex" unicode="&#xdb;" horiz-adv-x="849" 
d="M735 55.5c-28.667 -48.333 -69.501 -85.5 -122.501 -111.5s-115.5 -39 -187.5 -39s-134.667 13 -188 39s-94.333 63.167 -123 111.5s-43 105.5 -43 171.5v537h180v-520c0 -62 14.333 -108.833 43 -140.5s70.334 -47.5 125.001 -47.5c112.667 0 169 62.667 169 188v520
h190v-537c0 -66 -14.333 -123.167 -43 -171.5zM424.999 914l-83 -94h-144l159 200h136l159 -200h-144z" />
    <glyph glyph-name="Udieresis" unicode="&#xdc;" horiz-adv-x="849" 
d="M735 55.5c-28.667 -48.333 -69.501 -85.5 -122.501 -111.5s-115.5 -39 -187.5 -39s-134.667 13 -188 39s-94.333 63.167 -123 111.5s-43 105.5 -43 171.5v537h180v-520c0 -62 14.333 -108.833 43 -140.5s70.334 -47.5 125.001 -47.5c112.667 0 169 62.667 169 188v520
h190v-537c0 -66 -14.333 -123.167 -43 -171.5zM222.499 993.5c18.333 18.333 42.5 27.5 72.5 27.5c30.667 0 55.167 -9.16699 73.5 -27.5s27.5 -42.5 27.5 -72.5c0 -30.667 -9.16699 -55.167 -27.5 -73.5s-42.833 -27.5 -73.5 -27.5c-30 0 -54.167 9.16699 -72.5 27.5
s-27.5 42.833 -27.5 73.5c0 30 9.16699 54.167 27.5 72.5zM481.499 993.5c18.333 18.333 42.833 27.5 73.5 27.5c30 0 54.167 -9.16699 72.5 -27.5s27.5 -42.5 27.5 -72.5c0 -30.667 -9.16699 -55.167 -27.5 -73.5s-42.5 -27.5 -72.5 -27.5
c-30.667 0 -55.167 9.16699 -73.5 27.5s-27.5 42.833 -27.5 73.5c0 30 9.16699 54.167 27.5 72.5z" />
    <glyph glyph-name="Yacute" unicode="&#xdd;" horiz-adv-x="781" 
d="M486 244v-326h-190v324l-285 522h214l170 -370l170 370h206zM569 1020l-109 -200h-138l77 200h170z" />
    <glyph glyph-name="Thorn" unicode="&#xde;" horiz-adv-x="741" 
d="M561 587c42.667 -23.333 75.834 -56.168 99.501 -98.501s35.5 -91.5 35.5 -147.5s-11.833 -105.167 -35.5 -147.5s-56.834 -75.166 -99.501 -98.499s-92 -35 -148 -35h-148v-142h-190v846h190v-142h148c56 0 105.333 -11.667 148 -35zM469 239.998
c24.667 23.333 37 57 37 101s-12.333 77.667 -37 101s-59.334 35 -104.001 35h-100v-272h100c44.667 0 79.334 11.667 104.001 35z" />
    <glyph glyph-name="germandbls" unicode="&#xdf;" horiz-adv-x="815" vert-adv-y="850" 
d="M351.5 432.5c13.667 19 33.8359 39.502 60.5029 61.502c20.667 16.667 36.167 31.667 46.5 45s15.5 29.666 15.5 48.999c0 28.667 -10.833 51.834 -32.5 69.501s-49.167 26.5 -82.5 26.5c-32 0 -59 -8.16699 -81 -24.5s-33 -37.833 -33 -64.5v-677h-175v667
c0 47.333 12 88.166 36 122.499s57.667 60.833 101 79.5s94 28 152 28c58.667 0 109.5 -9.16699 152.5 -27.5s76 -44.5 99 -78.5s34.5 -74.333 34.5 -121c0 -36 -8.16699 -65.167 -24.5 -87.5s-38.833 -44.166 -67.5 -65.499c-16.667 -13.333 -29 -24.333 -37 -33
s-12 -18.334 -12 -29.001c0 -14 7.33301 -24.667 22 -32s39 -16.333 73 -27c63.333 -19.333 109.833 -46.333 139.5 -81s44.5 -77.667 44.5 -129c0 -40 -10.333 -75.167 -31 -105.5s-49.834 -53.833 -87.501 -70.5s-80.834 -25 -129.501 -25
c-62.667 0 -113.334 12.667 -152.001 38s-67 64.333 -85 117l132 61c10.667 -30 24 -51.667 40 -65s37.667 -20 65 -20c24 0 42.833 5.5 56.5 16.5s20.5 26.5 20.5 46.5s-7.5 36 -22.5 48s-41.167 24 -78.5 36c-66 20.667 -112.5 44.167 -139.5 70.5
s-40.5 61.166 -40.5 104.499c0 32 6.83301 57.5 20.5 76.5z" />
    <glyph glyph-name="agrave" unicode="&#xe0;" horiz-adv-x="752" 
d="M683 62c0 -65.333 1.33203 -113.334 3.99902 -144.001h-157c0 3.33301 -0.833008 13 -2.5 29s-3.16699 34.333 -4.5 55c-23.333 -31.333 -52.5 -55.5 -87.5 -72.5s-74.5 -25.5 -118.5 -25.5c-48.667 0 -93.834 13.833 -135.501 41.5s-74.834 66.5 -99.501 116.5
s-37 107.333 -37 172s12.333 122.167 37 172.5s57.834 89.333 99.501 117s86.834 41.5 135.501 41.5c44.667 0 84.334 -8.5 119.001 -25.5s63.667 -41.5 87 -73.5c1.33301 22 2.83301 40.833 4.5 56.5s2.5 24.834 2.5 27.501h157c-2.66699 -30.667 -4 -78.667 -4 -144v-344z
M467.499 92.499c26.333 35.667 39.5 82.834 39.5 141.501s-13.167 105.834 -39.5 141.501s-60.833 53.5 -103.5 53.5s-77.167 -17.833 -103.5 -53.5s-39.5 -82.834 -39.5 -141.501s13.167 -105.834 39.5 -141.501s60.833 -53.5 103.5 -53.5s77.167 17.833 103.5 53.5z
M426.999 599.999h-138l-109 200h170z" />
    <glyph glyph-name="aacute" unicode="&#xe1;" horiz-adv-x="752" 
d="M683 62c0 -65.333 1.33203 -113.334 3.99902 -144.001h-157c0 3.33301 -0.833008 13 -2.5 29s-3.16699 34.333 -4.5 55c-23.333 -31.333 -52.5 -55.5 -87.5 -72.5s-74.5 -25.5 -118.5 -25.5c-48.667 0 -93.834 13.833 -135.501 41.5s-74.834 66.5 -99.501 116.5
s-37 107.333 -37 172s12.333 122.167 37 172.5s57.834 89.333 99.501 117s86.834 41.5 135.501 41.5c44.667 0 84.334 -8.5 119.001 -25.5s63.667 -41.5 87 -73.5c1.33301 22 2.83301 40.833 4.5 56.5s2.5 24.834 2.5 27.501h157c-2.66699 -30.667 -4 -78.667 -4 -144v-344z
M467.499 92.499c26.333 35.667 39.5 82.834 39.5 141.501s-13.167 105.834 -39.5 141.501s-60.833 53.5 -103.5 53.5s-77.167 -17.833 -103.5 -53.5s-39.5 -82.834 -39.5 -141.501s13.167 -105.834 39.5 -141.501s60.833 -53.5 103.5 -53.5s77.167 17.833 103.5 53.5z
M535.999 799.999l-109 -200h-138l77 200h170z" />
    <glyph glyph-name="acircumflex" unicode="&#xe2;" horiz-adv-x="752" 
d="M683 62c0 -65.333 1.33203 -113.334 3.99902 -144.001h-157c0 3.33301 -0.833008 13 -2.5 29s-3.16699 34.333 -4.5 55c-23.333 -31.333 -52.5 -55.5 -87.5 -72.5s-74.5 -25.5 -118.5 -25.5c-48.667 0 -93.834 13.833 -135.501 41.5s-74.834 66.5 -99.501 116.5
s-37 107.333 -37 172s12.333 122.167 37 172.5s57.834 89.333 99.501 117s86.834 41.5 135.501 41.5c44.667 0 84.334 -8.5 119.001 -25.5s63.667 -41.5 87 -73.5c1.33301 22 2.83301 40.833 4.5 56.5s2.5 24.834 2.5 27.501h157c-2.66699 -30.667 -4 -78.667 -4 -144v-344z
M467.499 92.499c26.333 35.667 39.5 82.834 39.5 141.501s-13.167 105.834 -39.5 141.501s-60.833 53.5 -103.5 53.5s-77.167 -17.833 -103.5 -53.5s-39.5 -82.834 -39.5 -141.501s13.167 -105.834 39.5 -141.501s60.833 -53.5 103.5 -53.5s77.167 17.833 103.5 53.5z
M357.999 694.999l-83 -95h-144l159 200h136l159 -200h-144z" />
    <glyph glyph-name="atilde" unicode="&#xe3;" horiz-adv-x="752" 
d="M683 62c0 -65.333 1.33203 -113.334 3.99902 -144.001h-157c0 3.33301 -0.833008 13 -2.5 29s-3.16699 34.333 -4.5 55c-23.333 -31.333 -52.5 -55.5 -87.5 -72.5s-74.5 -25.5 -118.5 -25.5c-48.667 0 -93.834 13.833 -135.501 41.5s-74.834 66.5 -99.501 116.5
s-37 107.333 -37 172s12.333 122.167 37 172.5s57.834 89.333 99.501 117s86.834 41.5 135.501 41.5c44.667 0 84.334 -8.5 119.001 -25.5s63.667 -41.5 87 -73.5c1.33301 22 2.83301 40.833 4.5 56.5s2.5 24.834 2.5 27.501h157c-2.66699 -30.667 -4 -78.667 -4 -144v-344z
M467.499 92.499c26.333 35.667 39.5 82.834 39.5 141.501s-13.167 105.834 -39.5 141.501s-60.833 53.5 -103.5 53.5s-77.167 -17.833 -103.5 -53.5s-39.5 -82.834 -39.5 -141.501s13.167 -105.834 39.5 -141.501s60.833 -53.5 103.5 -53.5s77.167 17.833 103.5 53.5z
M174.999 735.999c22.667 27.333 54 41.001 94 41.001c23.333 0 43.166 -3.16699 59.499 -9.5s34.5 -15.5 54.5 -27.5c11.333 -7.33301 20.666 -12.666 27.999 -15.999s15 -5 23 -5c22.667 0 34 13.333 34 40h108c-0.666992 -47.333 -12.334 -84.5 -35.001 -111.5
s-54 -40.5 -94 -40.5c-23.333 0 -43.166 3.16699 -59.499 9.5s-34.5 15.5 -54.5 27.5c-11.333 7.33301 -20.666 12.666 -27.999 15.999s-15 5 -23 5c-10.667 0 -19 -3.5 -25 -10.5s-9 -17.167 -9 -30.5h-108c0.666992 47.333 12.334 84.666 35.001 111.999z" />
    <glyph glyph-name="adieresis" unicode="&#xe4;" horiz-adv-x="752" 
d="M683 62c0 -65.333 1.33203 -113.334 3.99902 -144.001h-157c0 3.33301 -0.833008 13 -2.5 29s-3.16699 34.333 -4.5 55c-23.333 -31.333 -52.5 -55.5 -87.5 -72.5s-74.5 -25.5 -118.5 -25.5c-48.667 0 -93.834 13.833 -135.501 41.5s-74.834 66.5 -99.501 116.5
s-37 107.333 -37 172s12.333 122.167 37 172.5s57.834 89.333 99.501 117s86.834 41.5 135.501 41.5c44.667 0 84.334 -8.5 119.001 -25.5s63.667 -41.5 87 -73.5c1.33301 22 2.83301 40.833 4.5 56.5s2.5 24.834 2.5 27.501h157c-2.66699 -30.667 -4 -78.667 -4 -144v-344z
M467.499 92.499c26.333 35.667 39.5 82.834 39.5 141.501s-13.167 105.834 -39.5 141.501s-60.833 53.5 -103.5 53.5s-77.167 -17.833 -103.5 -53.5s-39.5 -82.834 -39.5 -141.501s13.167 -105.834 39.5 -141.501s60.833 -53.5 103.5 -53.5s77.167 17.833 103.5 53.5z
M155.499 772.499c18.333 18.333 42.5 27.5 72.5 27.5c30.667 0 55.167 -9.16699 73.5 -27.5s27.5 -42.5 27.5 -72.5s-9.16699 -54.167 -27.5 -72.5s-42.833 -27.5 -73.5 -27.5c-30 0 -54.167 9.16699 -72.5 27.5s-27.5 42.5 -27.5 72.5s9.16699 54.167 27.5 72.5z
M414.499 772.499c18.333 18.333 42.833 27.5 73.5 27.5c30 0 54.167 -9.16699 72.5 -27.5s27.5 -42.5 27.5 -72.5s-9.16699 -54.167 -27.5 -72.5s-42.5 -27.5 -72.5 -27.5c-30.667 0 -55.167 9.16699 -73.5 27.5s-27.5 42.5 -27.5 72.5s9.16699 54.167 27.5 72.5z" />
    <glyph glyph-name="aring" unicode="&#xe5;" horiz-adv-x="752" 
d="M683 62c0 -65.333 1.33203 -113.334 3.99902 -144.001h-157c0 3.33301 -0.833008 13 -2.5 29s-3.16699 34.333 -4.5 55c-23.333 -31.333 -52.5 -55.5 -87.5 -72.5s-74.5 -25.5 -118.5 -25.5c-48.667 0 -93.834 13.833 -135.501 41.5s-74.834 66.5 -99.501 116.5
s-37 107.333 -37 172s12.333 122.167 37 172.5s57.834 89.333 99.501 117s86.834 41.5 135.501 41.5c44.667 0 84.334 -8.5 119.001 -25.5s63.667 -41.5 87 -73.5c1.33301 22 2.83301 40.833 4.5 56.5s2.5 24.834 2.5 27.501h157c-2.66699 -30.667 -4 -78.667 -4 -144v-344z
M467.499 92.499c26.333 35.667 39.5 82.834 39.5 141.501s-13.167 105.834 -39.5 141.501s-60.833 53.5 -103.5 53.5s-77.167 -17.833 -103.5 -53.5s-39.5 -82.834 -39.5 -141.501s13.167 -105.834 39.5 -141.501s60.833 -53.5 103.5 -53.5s77.167 17.833 103.5 53.5z
M276.499 781.999c21 21.333 48.167 32 81.5 32s60.5 -10.667 81.5 -32s31.5 -48.666 31.5 -81.999s-10.5 -60.666 -31.5 -81.999s-48.167 -32 -81.5 -32s-60.5 10.667 -81.5 32s-31.5 48.666 -31.5 81.999s10.5 60.666 31.5 81.999zM325.499 665.999
c9 -9.33301 19.833 -14 32.5 -14s23.5 4.66699 32.5 14s13.5 20.666 13.5 33.999c0 14 -4.33301 25.5 -13 34.5s-19.667 13.5 -33 13.5c-12.667 0 -23.5 -4.5 -32.5 -13.5s-13.5 -20.5 -13.5 -34.5c0 -13.333 4.5 -24.666 13.5 -33.999z" />
    <glyph glyph-name="ae" unicode="&#xe6;" horiz-adv-x="1088" vert-adv-y="850" 
d="M1039 184l-422.001 0.000976562c5.33301 -46.667 20.333 -82.5 45 -107.5s58 -37.5 100 -37.5c59.333 0 99.333 28.333 120 85l145 -69c-20 -49.333 -52.333 -86.833 -97 -112.5s-99.667 -38.5 -165 -38.5c-54 0 -101.167 9.66699 -141.5 29s-73.166 47.333 -98.499 84
c-26 -36.667 -59.5 -64.834 -100.5 -84.501s-87.5 -29.5 -139.5 -29.5c-48 0 -90.167 8.16699 -126.5 24.5s-64.5 39.333 -84.5 69s-30 63.834 -30 102.501c0 66.667 23.333 117.5 70 152.5s114.334 52.5 203.001 52.5h122c-2 41.333 -13 72.666 -33 93.999
s-48.667 32 -86 32c-56 0 -93.333 -28.333 -112 -85l-145 69c13.333 46.667 43 83.5 89 110.5s102 40.5 168 40.5c48 0 90.167 -8.66699 126.5 -26s65.5 -42.333 87.5 -75c24 32.667 53.833 57.667 89.5 75s75.5 26 119.5 26c60.667 0 113.667 -13.5 159 -40.5
s80.166 -65.333 104.499 -115s36.5 -108.167 36.5 -175.5c0 -13.333 -1.33301 -30 -4 -50zM660.499 396.001c-21 -22 -34.833 -52.667 -41.5 -92h245c-11.333 83.333 -52.333 125 -123 125c-32.667 0 -59.5 -11 -80.5 -33zM400.499 77.001
c22.333 24.667 34.833 60.333 37.5 107h-107c-33.333 0 -58.833 -6.33301 -76.5 -19s-26.5 -31 -26.5 -55c0 -22.667 6.83301 -40 20.5 -52s33.167 -18 58.5 -18c40 0 71.167 12.333 93.5 37z" />
    <glyph glyph-name="ccedilla" unicode="&#xe7;" horiz-adv-x="654" 
d="M470 132l148.998 -69c-13.333 -44.667 -39.5 -81.167 -78.5 -109.5s-89.5 -44.5 -151.5 -48.5l-8 -40c28 -7.33301 49.5 -19 64.5 -35s22.5 -35.667 22.5 -59c0 -30 -11.5 -53.667 -34.5 -71s-54.167 -26 -93.5 -26c-15.333 0 -31.333 2 -48 6s-31 9 -43 15l18 65
c23.333 -10 44.666 -15 63.999 -15c30 0 45 10.333 45 31c0 12.667 -7.16699 23.334 -21.5 32.001s-34.166 14.334 -59.499 17.001l17 82c-52 7.33301 -98.167 25.333 -138.5 54s-71.833 66.5 -94.5 113.5s-34 100.167 -34 159.5c0 65.333 13.5 123.166 40.5 173.499
s64.5 89.166 112.5 116.499s102 41 162 41c70.667 0 128 -14.5 172 -43.5s73 -67.5 87 -115.5l-149 -70c-15.333 55.333 -51.333 83 -108 83c-43.333 0 -77.666 -16.333 -102.999 -49s-38 -78 -38 -136c0 -57.333 12.833 -102.333 38.5 -135s59.834 -49 102.501 -49
c57.333 0 93.333 27.333 108 82z" />
    <glyph glyph-name="egrave" unicode="&#xe8;" horiz-adv-x="694" 
d="M645 184h-421.999c5.33301 -48 20.833 -84.167 46.5 -108.5s58.5 -36.5 98.5 -36.5c58.667 0 98.667 28.333 120 85l145 -69c-18.667 -46.667 -49.5 -83.5 -92.5 -110.5s-99.5 -40.5 -169.5 -40.5c-66.667 0 -124.667 14 -174 42s-87 66.833 -113 116.5
s-39 106.834 -39 171.501s13.333 122 40 172s63 89 109 117s97.667 42 155 42c61.333 0 114.666 -13.667 159.999 -41s80 -66 104 -116s36 -108 36 -174c0 -18.667 -1.33301 -35.334 -4 -50.001zM267.501 397c-21.667 -21.333 -35.833 -52.333 -42.5 -93h245
c-10.667 83.333 -51.667 125 -123 125c-31.333 0 -57.833 -10.667 -79.5 -32zM418.002 600h-138l-109 200h170z" />
    <glyph glyph-name="eacute" unicode="&#xe9;" horiz-adv-x="694" 
d="M645 184h-421.999c5.33301 -48 20.833 -84.167 46.5 -108.5s58.5 -36.5 98.5 -36.5c58.667 0 98.667 28.333 120 85l145 -69c-18.667 -46.667 -49.5 -83.5 -92.5 -110.5s-99.5 -40.5 -169.5 -40.5c-66.667 0 -124.667 14 -174 42s-87 66.833 -113 116.5
s-39 106.834 -39 171.501s13.333 122 40 172s63 89 109 117s97.667 42 155 42c61.333 0 114.666 -13.667 159.999 -41s80 -66 104 -116s36 -108 36 -174c0 -18.667 -1.33301 -35.334 -4 -50.001zM267.501 397c-21.667 -21.333 -35.833 -52.333 -42.5 -93h245
c-10.667 83.333 -51.667 125 -123 125c-31.333 0 -57.833 -10.667 -79.5 -32zM527.002 800l-109 -200h-138l77 200h170z" />
    <glyph glyph-name="ecircumflex" unicode="&#xea;" horiz-adv-x="694" 
d="M645 184h-421.999c5.33301 -48 20.833 -84.167 46.5 -108.5s58.5 -36.5 98.5 -36.5c58.667 0 98.667 28.333 120 85l145 -69c-18.667 -46.667 -49.5 -83.5 -92.5 -110.5s-99.5 -40.5 -169.5 -40.5c-66.667 0 -124.667 14 -174 42s-87 66.833 -113 116.5
s-39 106.834 -39 171.501s13.333 122 40 172s63 89 109 117s97.667 42 155 42c61.333 0 114.666 -13.667 159.999 -41s80 -66 104 -116s36 -108 36 -174c0 -18.667 -1.33301 -35.334 -4 -50.001zM267.501 397c-21.667 -21.333 -35.833 -52.333 -42.5 -93h245
c-10.667 83.333 -51.667 125 -123 125c-31.333 0 -57.833 -10.667 -79.5 -32zM349.002 695l-83 -95h-144l159 200h136l159 -200h-144z" />
    <glyph glyph-name="edieresis" unicode="&#xeb;" horiz-adv-x="694" 
d="M645 184h-421.999c5.33301 -48 20.833 -84.167 46.5 -108.5s58.5 -36.5 98.5 -36.5c58.667 0 98.667 28.333 120 85l145 -69c-18.667 -46.667 -49.5 -83.5 -92.5 -110.5s-99.5 -40.5 -169.5 -40.5c-66.667 0 -124.667 14 -174 42s-87 66.833 -113 116.5
s-39 106.834 -39 171.501s13.333 122 40 172s63 89 109 117s97.667 42 155 42c61.333 0 114.666 -13.667 159.999 -41s80 -66 104 -116s36 -108 36 -174c0 -18.667 -1.33301 -35.334 -4 -50.001zM267.501 397c-21.667 -21.333 -35.833 -52.333 -42.5 -93h245
c-10.667 83.333 -51.667 125 -123 125c-31.333 0 -57.833 -10.667 -79.5 -32zM146.502 772.5c18.333 18.333 42.5 27.5 72.5 27.5c30.667 0 55.167 -9.16699 73.5 -27.5s27.5 -42.5 27.5 -72.5s-9.16699 -54.167 -27.5 -72.5s-42.833 -27.5 -73.5 -27.5
c-30 0 -54.167 9.16699 -72.5 27.5s-27.5 42.5 -27.5 72.5s9.16699 54.167 27.5 72.5zM405.502 772.5c18.333 18.333 42.833 27.5 73.5 27.5c30 0 54.167 -9.16699 72.5 -27.5s27.5 -42.5 27.5 -72.5s-9.16699 -54.167 -27.5 -72.5s-42.5 -27.5 -72.5 -27.5
c-30.667 0 -55.167 9.16699 -73.5 27.5s-27.5 42.5 -27.5 72.5s9.16699 54.167 27.5 72.5z" />
    <glyph glyph-name="igrave" unicode="&#xec;" horiz-adv-x="328" 
d="M252 550v-632h-176v632h176zM233 600h-138l-109 200h170z" />
    <glyph glyph-name="iacute" unicode="&#xed;" horiz-adv-x="328" 
d="M252 550v-632h-176v632h176zM342 800l-109 -200h-138l77 200h170z" />
    <glyph glyph-name="icircumflex" unicode="&#xee;" horiz-adv-x="328" 
d="M252 550v-632h-176v632h176zM164 695l-83 -95h-144l159 200h136l159 -200h-144z" />
    <glyph glyph-name="idieresis" unicode="&#xef;" horiz-adv-x="328" 
d="M252 550v-632h-176v632h176zM-38.5 772.5c18.333 18.333 42.5 27.5 72.5 27.5c30.667 0 55.167 -9.16699 73.5 -27.5s27.5 -42.5 27.5 -72.5s-9.16699 -54.167 -27.5 -72.5s-42.833 -27.5 -73.5 -27.5c-30 0 -54.167 9.16699 -72.5 27.5s-27.5 42.5 -27.5 72.5
s9.16699 54.167 27.5 72.5zM220.5 772.5c18.333 18.333 42.833 27.5 73.5 27.5c30 0 54.167 -9.16699 72.5 -27.5s27.5 -42.5 27.5 -72.5s-9.16699 -54.167 -27.5 -72.5s-42.5 -27.5 -72.5 -27.5c-30.667 0 -55.167 9.16699 -73.5 27.5s-27.5 42.5 -27.5 72.5
s9.16699 54.167 27.5 72.5z" />
    <glyph glyph-name="eth" unicode="&#xf0;" horiz-adv-x="728" vert-adv-y="850" 
d="M681 234c0 -65.333 -13.667 -123 -41 -173s-65 -88.667 -113 -116s-102.333 -41 -163 -41s-115.167 13.667 -163.5 41s-86.333 66 -114 116s-41.5 107.667 -41.5 173c0 64 14 121.167 42 171.5s64.333 89.5 109 117.5s91 42 139 42c8.66699 0 15 -0.333008 19 -1
c-14 10.667 -31.667 22.667 -53 36l-188 -72l-44 112l97 37l-108 54l175 84c44.667 -18 87.667 -39 129 -63l158 61l44 -112l-83 -32c133.333 -112.667 200 -257.667 200 -435zM466 92.5c26 35.667 39 82.834 39 141.501s-13 105.834 -39 141.501s-60.333 53.5 -103 53.5
s-77 -17.833 -103 -53.5s-39 -82.834 -39 -141.501s13 -105.834 39 -141.501s60.333 -53.5 103 -53.5s77 17.833 103 53.5z" />
    <glyph glyph-name="ntilde" unicode="&#xf1;" horiz-adv-x="726" 
d="M602 504c38.667 -40.667 57.998 -96.668 57.998 -168.001v-418h-176v386c0 76.667 -36 115 -108 115c-40.667 0 -72.5 -13.333 -95.5 -40s-34.5 -63 -34.5 -109v-352h-176v488c0 58 -1.66699 106 -5 144h157c2.66699 -15.333 5 -43.666 7 -84.999
c46.667 66.667 118.334 100 215.001 100c66.667 0 119.334 -20.333 158.001 -61zM183.998 735.999c22.667 27.333 54 41.001 94 41.001c23.333 0 43.166 -3.16699 59.499 -9.5s34.5 -15.5 54.5 -27.5c11.333 -7.33301 20.666 -12.666 27.999 -15.999s15 -5 23 -5
c22.667 0 34 13.333 34 40h108c-0.666992 -47.333 -12.334 -84.5 -35.001 -111.5s-54 -40.5 -94 -40.5c-23.333 0 -43.166 3.16699 -59.499 9.5s-34.5 15.5 -54.5 27.5c-11.333 7.33301 -20.666 12.666 -27.999 15.999s-15 5 -23 5c-10.667 0 -19 -3.5 -25 -10.5
s-9 -17.167 -9 -30.5h-108c0.666992 47.333 12.334 84.666 35.001 111.999z" />
    <glyph glyph-name="ograve" unicode="&#xf2;" horiz-adv-x="726" 
d="M86 407.5c27.333 50.333 65.166 89.166 113.499 116.499s102.833 41 163.5 41s115.167 -13.667 163.5 -41s86.166 -66.166 113.499 -116.499s41 -108.166 41 -173.499s-13.667 -123 -41 -173s-65.166 -88.667 -113.499 -116s-102.833 -41 -163.5 -41
s-115.167 13.667 -163.5 41s-86.166 66 -113.499 116s-41 107.667 -41 173s13.667 123.166 41 173.499zM466 375.5c-26 35.667 -60.333 53.5 -103 53.5s-77 -17.833 -103 -53.5s-39 -82.834 -39 -141.501s13 -105.834 39 -141.501s60.333 -53.5 103 -53.5
s77 17.833 103 53.5s39 82.834 39 141.501s-13 105.834 -39 141.501zM432 600h-138l-109 200h170z" />
    <glyph glyph-name="oacute" unicode="&#xf3;" horiz-adv-x="726" 
d="M86 407.5c27.333 50.333 65.166 89.166 113.499 116.499s102.833 41 163.5 41s115.167 -13.667 163.5 -41s86.166 -66.166 113.499 -116.499s41 -108.166 41 -173.499s-13.667 -123 -41 -173s-65.166 -88.667 -113.499 -116s-102.833 -41 -163.5 -41
s-115.167 13.667 -163.5 41s-86.166 66 -113.499 116s-41 107.667 -41 173s13.667 123.166 41 173.499zM466 375.5c-26 35.667 -60.333 53.5 -103 53.5s-77 -17.833 -103 -53.5s-39 -82.834 -39 -141.501s13 -105.834 39 -141.501s60.333 -53.5 103 -53.5
s77 17.833 103 53.5s39 82.834 39 141.501s-13 105.834 -39 141.501zM541 800l-109 -200h-138l77 200h170z" />
    <glyph glyph-name="ocircumflex" unicode="&#xf4;" horiz-adv-x="726" 
d="M86 407.5c27.333 50.333 65.166 89.166 113.499 116.499s102.833 41 163.5 41s115.167 -13.667 163.5 -41s86.166 -66.166 113.499 -116.499s41 -108.166 41 -173.499s-13.667 -123 -41 -173s-65.166 -88.667 -113.499 -116s-102.833 -41 -163.5 -41
s-115.167 13.667 -163.5 41s-86.166 66 -113.499 116s-41 107.667 -41 173s13.667 123.166 41 173.499zM466 375.5c-26 35.667 -60.333 53.5 -103 53.5s-77 -17.833 -103 -53.5s-39 -82.834 -39 -141.501s13 -105.834 39 -141.501s60.333 -53.5 103 -53.5
s77 17.833 103 53.5s39 82.834 39 141.501s-13 105.834 -39 141.501zM363 695l-83 -95h-144l159 200h136l159 -200h-144z" />
    <glyph glyph-name="otilde" unicode="&#xf5;" horiz-adv-x="726" 
d="M86 407.5c27.333 50.333 65.166 89.166 113.499 116.499s102.833 41 163.5 41s115.167 -13.667 163.5 -41s86.166 -66.166 113.499 -116.499s41 -108.166 41 -173.499s-13.667 -123 -41 -173s-65.166 -88.667 -113.499 -116s-102.833 -41 -163.5 -41
s-115.167 13.667 -163.5 41s-86.166 66 -113.499 116s-41 107.667 -41 173s13.667 123.166 41 173.499zM466 375.5c-26 35.667 -60.333 53.5 -103 53.5s-77 -17.833 -103 -53.5s-39 -82.834 -39 -141.501s13 -105.834 39 -141.501s60.333 -53.5 103 -53.5
s77 17.833 103 53.5s39 82.834 39 141.501s-13 105.834 -39 141.501zM180 736c22.667 27.333 54 41.001 94 41.001c23.333 0 43.166 -3.16699 59.499 -9.5s34.5 -15.5 54.5 -27.5c11.333 -7.33301 20.666 -12.666 27.999 -15.999s15 -5 23 -5c22.667 0 34 13.333 34 40h108
c-0.666992 -47.333 -12.334 -84.5 -35.001 -111.5s-54 -40.5 -94 -40.5c-23.333 0 -43.166 3.16699 -59.499 9.5s-34.5 15.5 -54.5 27.5c-11.333 7.33301 -20.666 12.666 -27.999 15.999s-15 5 -23 5c-10.667 0 -19 -3.5 -25 -10.5s-9 -17.167 -9 -30.5h-108
c0.666992 47.333 12.334 84.666 35.001 111.999z" />
    <glyph glyph-name="odieresis" unicode="&#xf6;" horiz-adv-x="726" 
d="M86 407.5c27.333 50.333 65.166 89.166 113.499 116.499s102.833 41 163.5 41s115.167 -13.667 163.5 -41s86.166 -66.166 113.499 -116.499s41 -108.166 41 -173.499s-13.667 -123 -41 -173s-65.166 -88.667 -113.499 -116s-102.833 -41 -163.5 -41
s-115.167 13.667 -163.5 41s-86.166 66 -113.499 116s-41 107.667 -41 173s13.667 123.166 41 173.499zM466 375.5c-26 35.667 -60.333 53.5 -103 53.5s-77 -17.833 -103 -53.5s-39 -82.834 -39 -141.501s13 -105.834 39 -141.501s60.333 -53.5 103 -53.5
s77 17.833 103 53.5s39 82.834 39 141.501s-13 105.834 -39 141.501zM160.5 772.5c18.333 18.333 42.5 27.5 72.5 27.5c30.667 0 55.167 -9.16699 73.5 -27.5s27.5 -42.5 27.5 -72.5s-9.16699 -54.167 -27.5 -72.5s-42.833 -27.5 -73.5 -27.5
c-30 0 -54.167 9.16699 -72.5 27.5s-27.5 42.5 -27.5 72.5s9.16699 54.167 27.5 72.5zM419.5 772.5c18.333 18.333 42.833 27.5 73.5 27.5c30 0 54.167 -9.16699 72.5 -27.5s27.5 -42.5 27.5 -72.5s-9.16699 -54.167 -27.5 -72.5s-42.5 -27.5 -72.5 -27.5
c-30.667 0 -55.167 9.16699 -73.5 27.5s-27.5 42.5 -27.5 72.5s9.16699 54.167 27.5 72.5z" />
    <glyph glyph-name="divide" unicode="&#xf7;" 
d="M277 636.5c18.667 18.333 43 27.5 73 27.5s54.167 -9.16699 72.5 -27.5s27.5 -42.5 27.5 -72.5s-9.16699 -54.333 -27.5 -73s-42.5 -28 -72.5 -28s-54.333 9.33301 -73 28s-28 43 -28 73s9.33301 54.167 28 72.5zM94 410h516v-138h-516v138zM277 191
c18.667 18.667 43 28 73 28s54.167 -9.33301 72.5 -28s27.5 -43 27.5 -73s-9.16699 -54.167 -27.5 -72.5s-42.5 -27.5 -72.5 -27.5s-54.333 9.16699 -73 27.5s-28 42.5 -28 72.5s9.33301 54.333 28 73z" />
    <glyph glyph-name="oslash" unicode="&#xf8;" horiz-adv-x="726" vert-adv-y="850" 
d="M681 234c0 -65.333 -13.668 -122.999 -41.001 -172.999s-65.166 -88.667 -113.499 -116s-102.833 -41 -163.5 -41c-64.667 0 -121.667 15 -171 45l-40 -45l-88 80l41 47c-19.333 26.667 -34.166 57.334 -44.499 92.001s-15.5 71.667 -15.5 111
c0 65.333 13.667 123.166 41 173.499s65.166 89.166 113.499 116.499s102.833 41 163.5 41c64 0 121 -15.333 171 -46l40 46l88 -80l-41 -47c40 -56.667 60 -124.667 60 -204zM226.999 170.001l208 236.001c-21.333 15.333 -45.333 23 -72 23
c-42.667 0 -77 -17.833 -103 -53.5s-39 -82.834 -39 -141.501c0 -22.667 2 -44 6 -64zM465.999 92.502c26 35.667 39 82.832 39 141.499c0 24.667 -2.33301 46.334 -7 65.001l-207 -237c20.667 -15.333 44.667 -23 72 -23c42.667 0 77 17.833 103 53.5z" />
    <glyph glyph-name="ugrave" unicode="&#xf9;" horiz-adv-x="726" 
d="M504 -82c0 3.33301 -0.833008 12.833 -2.5 28.5s-3.16699 34.167 -4.5 55.5c-47.333 -65.333 -119 -98 -215 -98c-66 0 -118.333 20.333 -157 61s-58 96.667 -58 168v417h175v-386c0 -76 36 -114 108 -114c40.667 0 72.667 13.167 96 39.5s35 62.5 35 108.5v352h175v-488
c0 -65.333 2 -113.333 6 -144h-158zM428 600h-138l-109 200h170z" />
    <glyph glyph-name="uacute" unicode="&#xfa;" horiz-adv-x="726" 
d="M504 -82c0 3.33301 -0.833008 12.833 -2.5 28.5s-3.16699 34.167 -4.5 55.5c-47.333 -65.333 -119 -98 -215 -98c-66 0 -118.333 20.333 -157 61s-58 96.667 -58 168v417h175v-386c0 -76 36 -114 108 -114c40.667 0 72.667 13.167 96 39.5s35 62.5 35 108.5v352h175v-488
c0 -65.333 2 -113.333 6 -144h-158zM537 800l-109 -200h-138l77 200h170z" />
    <glyph glyph-name="ucircumflex" unicode="&#xfb;" horiz-adv-x="726" 
d="M504 -82c0 3.33301 -0.833008 12.833 -2.5 28.5s-3.16699 34.167 -4.5 55.5c-47.333 -65.333 -119 -98 -215 -98c-66 0 -118.333 20.333 -157 61s-58 96.667 -58 168v417h175v-386c0 -76 36 -114 108 -114c40.667 0 72.667 13.167 96 39.5s35 62.5 35 108.5v352h175v-488
c0 -65.333 2 -113.333 6 -144h-158zM359 695l-83 -95h-144l159 200h136l159 -200h-144z" />
    <glyph glyph-name="udieresis" unicode="&#xfc;" horiz-adv-x="726" 
d="M504 -82c0 3.33301 -0.833008 12.833 -2.5 28.5s-3.16699 34.167 -4.5 55.5c-47.333 -65.333 -119 -98 -215 -98c-66 0 -118.333 20.333 -157 61s-58 96.667 -58 168v417h175v-386c0 -76 36 -114 108 -114c40.667 0 72.667 13.167 96 39.5s35 62.5 35 108.5v352h175v-488
c0 -65.333 2 -113.333 6 -144h-158zM156.5 772.5c18.333 18.333 42.5 27.5 72.5 27.5c30.667 0 55.167 -9.16699 73.5 -27.5s27.5 -42.5 27.5 -72.5s-9.16699 -54.167 -27.5 -72.5s-42.833 -27.5 -73.5 -27.5c-30 0 -54.167 9.16699 -72.5 27.5s-27.5 42.5 -27.5 72.5
s9.16699 54.167 27.5 72.5zM415.5 772.5c18.333 18.333 42.833 27.5 73.5 27.5c30 0 54.167 -9.16699 72.5 -27.5s27.5 -42.5 27.5 -72.5s-9.16699 -54.167 -27.5 -72.5s-42.5 -27.5 -72.5 -27.5c-30.667 0 -55.167 9.16699 -73.5 27.5s-27.5 42.5 -27.5 72.5
s9.16699 54.167 27.5 72.5z" />
    <glyph glyph-name="yacute" unicode="&#xfd;" horiz-adv-x="696" 
d="M675 550l-308 -862h-196l106 213l-256 649h203l136 -475l126 475h189zM541 800l-109 -200h-138l77 200h170z" />
    <glyph glyph-name="thorn" unicode="&#xfe;" horiz-adv-x="752" 
d="M571.5 523.5c41.667 -27.667 74.834 -66.667 99.501 -117s37 -107.833 37 -172.5s-12.333 -122 -37 -172s-57.834 -88.833 -99.501 -116.5s-87.167 -41.5 -136.5 -41.5c-78 0 -141 26 -189 78v-294h-176v1112h176v-313c48 52 111 78 189 78
c49.333 0 94.833 -13.833 136.5 -41.5zM463.5 63.5c21.667 16.333 38.5 39.1699 50.5 68.5029s18 63.333 18 102s-6 72.667 -18 102s-28.833 52.166 -50.5 68.499s-46.5 24.5 -74.5 24.5c-42.667 0 -77.167 -17.833 -103.5 -53.5s-39.5 -82.834 -39.5 -141.501
s13.167 -105.834 39.5 -141.501s60.833 -53.5 103.5 -53.5c28 0 52.833 8.16699 74.5 24.5z" />
    <glyph glyph-name="ydieresis" unicode="&#xff;" horiz-adv-x="696" 
d="M675 550l-308 -862h-196l106 213l-256 649h203l136 -475l126 475h189zM160.5 772.5c18.333 18.333 42.5 27.5 72.5 27.5c30.667 0 55.167 -9.16699 73.5 -27.5s27.5 -42.5 27.5 -72.5s-9.16699 -54.167 -27.5 -72.5s-42.833 -27.5 -73.5 -27.5
c-30 0 -54.167 9.16699 -72.5 27.5s-27.5 42.5 -27.5 72.5s9.16699 54.167 27.5 72.5zM419.5 772.5c18.333 18.333 42.833 27.5 73.5 27.5c30 0 54.167 -9.16699 72.5 -27.5s27.5 -42.5 27.5 -72.5s-9.16699 -54.167 -27.5 -72.5s-42.5 -27.5 -72.5 -27.5
c-30.667 0 -55.167 9.16699 -73.5 27.5s-27.5 42.5 -27.5 72.5s9.16699 54.167 27.5 72.5z" />
    <glyph glyph-name="Amacron" unicode="&#x100;" horiz-adv-x="829" 
d="M549 116h-279l-55 -198h-195l274 846h241l274 -846h-205zM505 274l-95 340l-96 -340h191zM238 988h354v-136h-354v136z" />
    <glyph glyph-name="amacron" unicode="&#x101;" horiz-adv-x="752" 
d="M683 62c0 -65.333 1.33203 -113.334 3.99902 -144.001h-157c0 3.33301 -0.833008 13 -2.5 29s-3.16699 34.333 -4.5 55c-23.333 -31.333 -52.5 -55.5 -87.5 -72.5s-74.5 -25.5 -118.5 -25.5c-48.667 0 -93.834 13.833 -135.501 41.5s-74.834 66.5 -99.501 116.5
s-37 107.333 -37 172s12.333 122.167 37 172.5s57.834 89.333 99.501 117s86.834 41.5 135.501 41.5c44.667 0 84.334 -8.5 119.001 -25.5s63.667 -41.5 87 -73.5c1.33301 22 2.83301 40.833 4.5 56.5s2.5 24.834 2.5 27.501h157c-2.66699 -30.667 -4 -78.667 -4 -144v-344z
M467.499 92.499c26.333 35.667 39.5 82.834 39.5 141.501s-13.167 105.834 -39.5 141.501s-60.833 53.5 -103.5 53.5s-77.167 -17.833 -103.5 -53.5s-39.5 -82.834 -39.5 -141.501s13.167 -105.834 39.5 -141.501s60.833 -53.5 103.5 -53.5s77.167 17.833 103.5 53.5z
M180.999 767.999h354v-136h-354v136z" />
    <glyph glyph-name="Abreve" unicode="&#x102;" horiz-adv-x="829" 
d="M549 116h-279l-55 -198h-195l274 846h241l274 -846h-205zM505 274l-95 340l-96 -340h191zM264.5 864c-37 38 -55.5 90 -55.5 156h109c0 -34 8.16699 -60.333 24.5 -79s40.5 -28 72.5 -28s56.167 9.33301 72.5 28s24.5 45 24.5 79h109c0 -66 -18.5 -118 -55.5 -156
s-87.167 -57 -150.5 -57s-113.5 19 -150.5 57z" />
    <glyph glyph-name="abreve" unicode="&#x103;" horiz-adv-x="752" 
d="M683 62c0 -65.333 1.33203 -113.334 3.99902 -144.001h-157c0 3.33301 -0.833008 13 -2.5 29s-3.16699 34.333 -4.5 55c-23.333 -31.333 -52.5 -55.5 -87.5 -72.5s-74.5 -25.5 -118.5 -25.5c-48.667 0 -93.834 13.833 -135.501 41.5s-74.834 66.5 -99.501 116.5
s-37 107.333 -37 172s12.333 122.167 37 172.5s57.834 89.333 99.501 117s86.834 41.5 135.501 41.5c44.667 0 84.334 -8.5 119.001 -25.5s63.667 -41.5 87 -73.5c1.33301 22 2.83301 40.833 4.5 56.5s2.5 24.834 2.5 27.501h157c-2.66699 -30.667 -4 -78.667 -4 -144v-344z
M467.499 92.499c26.333 35.667 39.5 82.834 39.5 141.501s-13.167 105.834 -39.5 141.501s-60.833 53.5 -103.5 53.5s-77.167 -17.833 -103.5 -53.5s-39.5 -82.834 -39.5 -141.501s13.167 -105.834 39.5 -141.501s60.833 -53.5 103.5 -53.5s77.167 17.833 103.5 53.5z
M207.499 643.999c-37 38 -55.5 90 -55.5 156h109c0 -34 8.16699 -60.167 24.5 -78.5s40.5 -27.5 72.5 -27.5s56.167 9.16699 72.5 27.5s24.5 44.5 24.5 78.5h109c0 -66 -18.5 -118 -55.5 -156s-87.167 -57 -150.5 -57s-113.5 19 -150.5 57z" />
    <glyph glyph-name="Aogonek" unicode="&#x104;" horiz-adv-x="829" 
d="M868 -296c-27.333 -20 -65.666 -29.998 -114.999 -29.998c-44 0 -79.667 11.5 -107 34.5s-41 53.5 -41 91.5c0 45.333 18 84.666 54 117.999h-55l-55 198h-279l-55 -198h-195l274 846h241l274 -846c-67.333 -18.667 -101 -51.334 -101 -98.001
c0 -17.333 5.66699 -31 17 -41s27 -15 47 -15c25.333 0 49.666 7 72.999 21zM505 274.002l-95 340l-96 -340h191z" />
    <glyph glyph-name="aogonek" unicode="&#x105;" horiz-adv-x="752" 
d="M746 -296c-27.333 -20 -65.668 -29.999 -115.001 -29.999c-44 0 -79.667 11.5 -107 34.5s-41 53.5 -41 91.5c0 45.333 18 84.666 54 117.999h-7c0 3.33301 -0.833008 13 -2.5 29s-3.16699 34.333 -4.5 55c-23.333 -31.333 -52.5 -55.5 -87.5 -72.5
s-74.5 -25.5 -118.5 -25.5c-48.667 0 -93.834 13.833 -135.501 41.5s-74.834 66.5 -99.501 116.5s-37 107.333 -37 172s12.333 122.167 37 172.5s57.834 89.333 99.501 117s86.834 41.5 135.501 41.5c44.667 0 84.334 -8.5 119.001 -25.5s63.667 -41.5 87 -73.5
c1.33301 22 2.83301 40.833 4.5 56.5s2.5 24.834 2.5 27.501h157c-2.66699 -30.667 -4 -78.667 -4 -144v-344c0 -65.333 1.33301 -113.333 4 -144c-67.333 -18.667 -101 -51.334 -101 -98.001c0 -17.333 5.66699 -31 17 -41s27 -15 47 -15c26 0 50.333 7 73 21z
M467.498 92.501c26.333 35.667 39.5 82.834 39.5 141.501s-13.167 105.834 -39.5 141.501s-60.833 53.5 -103.5 53.5s-77.167 -17.833 -103.5 -53.5s-39.5 -82.834 -39.5 -141.501s13.167 -105.834 39.5 -141.501s60.833 -53.5 103.5 -53.5s77.167 17.833 103.5 53.5z" />
    <glyph glyph-name="Cacute" unicode="&#x106;" horiz-adv-x="810" 
d="M266.5 192c17.667 -43.333 42.501 -76.832 74.501 -100.499s68.667 -35.5 110 -35.5c89.333 0 146 43.333 170 130l156 -72c-19.333 -66.667 -56.833 -118.5 -112.5 -155.5s-125.5 -55.5 -209.5 -55.5c-80 0 -150.667 18.167 -212 54.5s-108.833 87.666 -142.5 153.999
s-50.5 142.833 -50.5 229.5s16.833 163 50.5 229s81.167 117.167 142.5 153.5s132 54.5 212 54.5c84 0 153.833 -18.5 209.5 -55.5s93.167 -88.833 112.5 -155.5l-156 -72c-24.667 87.333 -81.334 131 -170.001 131c-41.333 0 -78 -12 -110 -36s-56.833 -57.5 -74.5 -100.5
s-26.5 -92.5 -26.5 -148.5s8.83301 -105.667 26.5 -149zM615.001 1020l-109 -200h-138l77 200h170z" />
    <glyph glyph-name="cacute" unicode="&#x107;" horiz-adv-x="654" 
d="M85.5 407.5c27 50.333 64.498 89.168 112.498 116.501s102 41 162 41c70.667 0 128 -14.5 172 -43.5s73 -67.5 87 -115.5l-149 -70c-15.333 55.333 -51.333 83 -108 83c-43.333 0 -77.666 -16.333 -102.999 -49s-38 -78 -38 -136c0 -57.333 12.833 -102.333 38.5 -135
s59.834 -49 102.501 -49c57.333 0 93.333 27.333 108 82l149 -69c-14 -48 -43 -86.5 -87 -115.5s-101.333 -43.5 -172 -43.5c-60 0 -114 13.667 -162 41s-85.5 66 -112.5 116s-40.5 107.667 -40.5 173s13.5 123.166 40.5 173.499zM529.998 800.002l-109 -200h-138l77 200
h170z" />
    <glyph glyph-name="Ccircumflex" unicode="&#x108;" horiz-adv-x="810" 
d="M266.5 192c17.667 -43.333 42.501 -76.832 74.501 -100.499s68.667 -35.5 110 -35.5c89.333 0 146 43.333 170 130l156 -72c-19.333 -66.667 -56.833 -118.5 -112.5 -155.5s-125.5 -55.5 -209.5 -55.5c-80 0 -150.667 18.167 -212 54.5s-108.833 87.666 -142.5 153.999
s-50.5 142.833 -50.5 229.5s16.833 163 50.5 229s81.167 117.167 142.5 153.5s132 54.5 212 54.5c84 0 153.833 -18.5 209.5 -55.5s93.167 -88.833 112.5 -155.5l-156 -72c-24.667 87.333 -81.334 131 -170.001 131c-41.333 0 -78 -12 -110 -36s-56.833 -57.5 -74.5 -100.5
s-26.5 -92.5 -26.5 -148.5s8.83301 -105.667 26.5 -149zM437.001 914.001l-83 -94h-144l159 200h136l159 -200h-144z" />
    <glyph glyph-name="ccircumflex" unicode="&#x109;" horiz-adv-x="654" 
d="M85.5 407.5c27 50.333 64.498 89.168 112.498 116.501s102 41 162 41c70.667 0 128 -14.5 172 -43.5s73 -67.5 87 -115.5l-149 -70c-15.333 55.333 -51.333 83 -108 83c-43.333 0 -77.666 -16.333 -102.999 -49s-38 -78 -38 -136c0 -57.333 12.833 -102.333 38.5 -135
s59.834 -49 102.501 -49c57.333 0 93.333 27.333 108 82l149 -69c-14 -48 -43 -86.5 -87 -115.5s-101.333 -43.5 -172 -43.5c-60 0 -114 13.667 -162 41s-85.5 66 -112.5 116s-40.5 107.667 -40.5 173s13.5 123.166 40.5 173.499zM351.998 695.002l-83 -95h-144l159 200h136
l159 -200h-144z" />
    <glyph glyph-name="Cdotaccent" unicode="&#x10a;" horiz-adv-x="810" 
d="M266.5 192c17.667 -43.333 42.501 -76.832 74.501 -100.499s68.667 -35.5 110 -35.5c89.333 0 146 43.333 170 130l156 -72c-19.333 -66.667 -56.833 -118.5 -112.5 -155.5s-125.5 -55.5 -209.5 -55.5c-80 0 -150.667 18.167 -212 54.5s-108.833 87.666 -142.5 153.999
s-50.5 142.833 -50.5 229.5s16.833 163 50.5 229s81.167 117.167 142.5 153.5s132 54.5 212 54.5c84 0 153.833 -18.5 209.5 -55.5s93.167 -88.833 112.5 -155.5l-156 -72c-24.667 87.333 -81.334 131 -170.001 131c-41.333 0 -78 -12 -110 -36s-56.833 -57.5 -74.5 -100.5
s-26.5 -92.5 -26.5 -148.5s8.83301 -105.667 26.5 -149zM364.501 993.501c18.333 18.333 42.5 27.5 72.5 27.5s54.167 -9.16699 72.5 -27.5s27.5 -42.5 27.5 -72.5c0 -30.667 -9.16699 -55.167 -27.5 -73.5s-42.5 -27.5 -72.5 -27.5s-54.167 9.16699 -72.5 27.5
s-27.5 42.833 -27.5 73.5c0 30 9.16699 54.167 27.5 72.5z" />
    <glyph glyph-name="cdotaccent" unicode="&#x10b;" horiz-adv-x="654" 
d="M85.5 407.5c27 50.333 64.498 89.168 112.498 116.501s102 41 162 41c70.667 0 128 -14.5 172 -43.5s73 -67.5 87 -115.5l-149 -70c-15.333 55.333 -51.333 83 -108 83c-43.333 0 -77.666 -16.333 -102.999 -49s-38 -78 -38 -136c0 -57.333 12.833 -102.333 38.5 -135
s59.834 -49 102.501 -49c57.333 0 93.333 27.333 108 82l149 -69c-14 -48 -43 -86.5 -87 -115.5s-101.333 -43.5 -172 -43.5c-60 0 -114 13.667 -162 41s-85.5 66 -112.5 116s-40.5 107.667 -40.5 173s13.5 123.166 40.5 173.499zM279.498 772.502
c18.333 18.333 42.5 27.5 72.5 27.5s54.167 -9.16699 72.5 -27.5s27.5 -42.5 27.5 -72.5s-9.16699 -54.167 -27.5 -72.5s-42.5 -27.5 -72.5 -27.5s-54.167 9.16699 -72.5 27.5s-27.5 42.5 -27.5 72.5s9.16699 54.167 27.5 72.5z" />
    <glyph glyph-name="Ccaron" unicode="&#x10c;" horiz-adv-x="810" 
d="M266.5 192c17.667 -43.333 42.501 -76.832 74.501 -100.499s68.667 -35.5 110 -35.5c89.333 0 146 43.333 170 130l156 -72c-19.333 -66.667 -56.833 -118.5 -112.5 -155.5s-125.5 -55.5 -209.5 -55.5c-80 0 -150.667 18.167 -212 54.5s-108.833 87.666 -142.5 153.999
s-50.5 142.833 -50.5 229.5s16.833 163 50.5 229s81.167 117.167 142.5 153.5s132 54.5 212 54.5c84 0 153.833 -18.5 209.5 -55.5s93.167 -88.833 112.5 -155.5l-156 -72c-24.667 87.333 -81.334 131 -170.001 131c-41.333 0 -78 -12 -110 -36s-56.833 -57.5 -74.5 -100.5
s-26.5 -92.5 -26.5 -148.5s8.83301 -105.667 26.5 -149zM437.001 926.001l83 94h144l-159 -200h-136l-159 200h144z" />
    <glyph glyph-name="ccaron" unicode="&#x10d;" horiz-adv-x="654" 
d="M85.5 407.5c27 50.333 64.498 89.168 112.498 116.501s102 41 162 41c70.667 0 128 -14.5 172 -43.5s73 -67.5 87 -115.5l-149 -70c-15.333 55.333 -51.333 83 -108 83c-43.333 0 -77.666 -16.333 -102.999 -49s-38 -78 -38 -136c0 -57.333 12.833 -102.333 38.5 -135
s59.834 -49 102.501 -49c57.333 0 93.333 27.333 108 82l149 -69c-14 -48 -43 -86.5 -87 -115.5s-101.333 -43.5 -172 -43.5c-60 0 -114 13.667 -162 41s-85.5 66 -112.5 116s-40.5 107.667 -40.5 173s13.5 123.166 40.5 173.499zM351.998 706.002l83 94h144l-159 -200h-136
l-159 200h144z" />
    <glyph glyph-name="Dcaron" unicode="&#x10e;" horiz-adv-x="855" 
d="M620.5 711.5c57.667 -35 102.167 -84.499 133.5 -148.499s47 -138 47 -222c0 -84.667 -15.667 -158.834 -47 -222.501s-75.833 -113 -133.5 -148s-124.834 -52.5 -201.501 -52.5h-344v846h344c76.667 0 143.834 -17.5 201.501 -52.5zM550 147.001
c40.667 47.333 61 112 61 194s-20.333 146.667 -61 194s-97.334 71 -170.001 71h-115v-530h115c72.667 0 129.334 23.667 170.001 71zM407 926.001l83 94h144l-159 -200h-136l-159 200h144z" />
    <glyph glyph-name="dcaron" unicode="&#x10f;" horiz-adv-x="756" 
d="M534 -82c-2.66699 16.667 -5 44.668 -7 84.001c-23.333 -31.333 -52.5 -55.5 -87.5 -72.5s-74.5 -25.5 -118.5 -25.5c-49.333 0 -94.666 13.667 -135.999 41s-74.333 66.166 -99 116.499s-37 107.833 -37 172.5s12.333 122.167 37 172.5s57.667 89.333 99 117
s86.666 41.5 135.999 41.5c78 0 141 -26 189 -78v313h176v-738c0 -58 1.66699 -106 5 -144h-157zM470.5 92.501c26.333 35.667 39.5 82.8301 39.5 141.497s-13.167 105.834 -39.5 141.501s-60.833 53.5 -103.5 53.5c-28 0 -52.833 -8.16699 -74.5 -24.5
s-38.5 -39.166 -50.5 -68.499s-18 -63.333 -18 -102s6 -72.667 18 -102s28.833 -52.166 50.5 -68.499s46.5 -24.5 74.5 -24.5c42.667 0 77.167 17.833 103.5 53.5zM854 799.997l-30 -215h-103l12 215h121z" />
    <glyph glyph-name="Dcroat" unicode="&#x110;" horiz-adv-x="935" 
d="M700.5 711.5c57.667 -35 102.167 -84.499 133.5 -148.499s47 -138 47 -222c0 -84.667 -15.667 -158.834 -47 -222.501s-75.833 -113 -133.5 -148s-124.834 -52.5 -201.501 -52.5h-344v365h-125v158h125v323h344c76.667 0 143.834 -17.5 201.501 -52.5zM630 147.001
c40.667 47.333 61 112 61 194s-20.333 146.667 -61 194s-97.334 71 -170.001 71h-115v-165h218v-158h-218v-207h115c72.667 0 129.334 23.667 170.001 71z" />
    <glyph glyph-name="dcroat" unicode="&#x111;" horiz-adv-x="757" vert-adv-y="850" 
d="M686 607v-544.999c0 -58 1.66699 -106 5 -144h-157c-2.66699 16.667 -5 44.667 -7 84c-23.333 -31.333 -52.5 -55.5 -87.5 -72.5s-74.5 -25.5 -118.5 -25.5c-49.333 0 -94.666 13.667 -135.999 41s-74.333 66.166 -99 116.499s-37 107.833 -37 172.5
s12.333 122.167 37 172.5s57.667 89.333 99 117s86.666 41.5 135.999 41.5c78 0 141 -26 189 -78v120h-112v136h112v57h176v-57h63v-136h-63zM470.5 92.501c26.333 35.667 39.5 82.8301 39.5 141.497s-13.167 105.834 -39.5 141.501s-60.833 53.5 -103.5 53.5
c-28 0 -52.833 -8.16699 -74.5 -24.5s-38.5 -39.166 -50.5 -68.499s-18 -63.333 -18 -102s6 -72.667 18 -102s28.833 -52.166 50.5 -68.499s46.5 -24.5 74.5 -24.5c42.667 0 77.167 17.833 103.5 53.5z" />
    <glyph glyph-name="Emacron" unicode="&#x112;" horiz-adv-x="681" 
d="M265 606v-165h328v-158h-328v-207h352v-158h-542v846h542v-158h-352zM176 988h354v-136h-354v136z" />
    <glyph glyph-name="emacron" unicode="&#x113;" horiz-adv-x="694" 
d="M645 184h-421.999c5.33301 -48 20.833 -84.167 46.5 -108.5s58.5 -36.5 98.5 -36.5c58.667 0 98.667 28.333 120 85l145 -69c-18.667 -46.667 -49.5 -83.5 -92.5 -110.5s-99.5 -40.5 -169.5 -40.5c-66.667 0 -124.667 14 -174 42s-87 66.833 -113 116.5
s-39 106.834 -39 171.501s13.333 122 40 172s63 89 109 117s97.667 42 155 42c61.333 0 114.666 -13.667 159.999 -41s80 -66 104 -116s36 -108 36 -174c0 -18.667 -1.33301 -35.334 -4 -50.001zM267.501 397c-21.667 -21.333 -35.833 -52.333 -42.5 -93h245
c-10.667 83.333 -51.667 125 -123 125c-31.333 0 -57.833 -10.667 -79.5 -32zM172.002 768h354v-136h-354v136z" />
    <glyph glyph-name="Ebreve" unicode="&#x114;" horiz-adv-x="681" 
d="M265 606v-165h328v-158h-328v-207h352v-158h-542v846h542v-158h-352zM202.5 864c-37 38 -55.5 90 -55.5 156h109c0 -34 8.16699 -60.333 24.5 -79s40.5 -28 72.5 -28s56.167 9.33301 72.5 28s24.5 45 24.5 79h109c0 -66 -18.5 -118 -55.5 -156s-87.167 -57 -150.5 -57
s-113.5 19 -150.5 57z" />
    <glyph glyph-name="ebreve" unicode="&#x115;" horiz-adv-x="694" 
d="M645 184h-421.999c5.33301 -48 20.833 -84.167 46.5 -108.5s58.5 -36.5 98.5 -36.5c58.667 0 98.667 28.333 120 85l145 -69c-18.667 -46.667 -49.5 -83.5 -92.5 -110.5s-99.5 -40.5 -169.5 -40.5c-66.667 0 -124.667 14 -174 42s-87 66.833 -113 116.5
s-39 106.834 -39 171.501s13.333 122 40 172s63 89 109 117s97.667 42 155 42c61.333 0 114.666 -13.667 159.999 -41s80 -66 104 -116s36 -108 36 -174c0 -18.667 -1.33301 -35.334 -4 -50.001zM267.501 397c-21.667 -21.333 -35.833 -52.333 -42.5 -93h245
c-10.667 83.333 -51.667 125 -123 125c-31.333 0 -57.833 -10.667 -79.5 -32zM198.502 644c-37 38 -55.5 90 -55.5 156h109c0 -34 8.16699 -60.167 24.5 -78.5s40.5 -27.5 72.5 -27.5s56.167 9.16699 72.5 27.5s24.5 44.5 24.5 78.5h109c0 -66 -18.5 -118 -55.5 -156
s-87.167 -57 -150.5 -57s-113.5 19 -150.5 57z" />
    <glyph glyph-name="Edotaccent" unicode="&#x116;" horiz-adv-x="681" 
d="M265 606v-165h328v-158h-328v-207h352v-158h-542v846h542v-158h-352zM280.5 993.5c18.333 18.333 42.5 27.5 72.5 27.5s54.167 -9.16699 72.5 -27.5s27.5 -42.5 27.5 -72.5c0 -30.667 -9.16699 -55.167 -27.5 -73.5s-42.5 -27.5 -72.5 -27.5s-54.167 9.16699 -72.5 27.5
s-27.5 42.833 -27.5 73.5c0 30 9.16699 54.167 27.5 72.5z" />
    <glyph glyph-name="edotaccent" unicode="&#x117;" horiz-adv-x="694" 
d="M645 184h-421.999c5.33301 -48 20.833 -84.167 46.5 -108.5s58.5 -36.5 98.5 -36.5c58.667 0 98.667 28.333 120 85l145 -69c-18.667 -46.667 -49.5 -83.5 -92.5 -110.5s-99.5 -40.5 -169.5 -40.5c-66.667 0 -124.667 14 -174 42s-87 66.833 -113 116.5
s-39 106.834 -39 171.501s13.333 122 40 172s63 89 109 117s97.667 42 155 42c61.333 0 114.666 -13.667 159.999 -41s80 -66 104 -116s36 -108 36 -174c0 -18.667 -1.33301 -35.334 -4 -50.001zM267.501 397c-21.667 -21.333 -35.833 -52.333 -42.5 -93h245
c-10.667 83.333 -51.667 125 -123 125c-31.333 0 -57.833 -10.667 -79.5 -32zM276.502 772.5c18.333 18.333 42.5 27.5 72.5 27.5s54.167 -9.16699 72.5 -27.5s27.5 -42.5 27.5 -72.5s-9.16699 -54.167 -27.5 -72.5s-42.5 -27.5 -72.5 -27.5s-54.167 9.16699 -72.5 27.5
s-27.5 42.5 -27.5 72.5s9.16699 54.167 27.5 72.5z" />
    <glyph glyph-name="Eogonek" unicode="&#x118;" horiz-adv-x="681" 
d="M676 -296c-27.333 -20 -65.667 -29.998 -115 -29.998c-44 0 -79.667 11.5 -107 34.5s-41 53.5 -41 91.5c0 45.333 18 84.666 54 117.999h-392v846h542v-158h-352v-165h328v-158h-328v-207h352v-158c-67.333 -18.667 -101 -51.334 -101 -98.001
c0 -17.333 5.66699 -31 17 -41s27 -15 47 -15c26 0 50.333 7 73 21z" />
    <glyph glyph-name="eogonek" unicode="&#x119;" horiz-adv-x="694" 
d="M645 184l-421.999 0.00292969c5.33301 -48 20.833 -84.167 46.5 -108.5s58.5 -36.5 98.5 -36.5c58.667 0 98.667 28.333 120 85l145 -69c-14 -34 -34.5 -63.167 -61.5 -87.5s-61.167 -41.833 -102.5 -52.5c-61.333 -18.667 -92 -50.334 -92 -95.001
c0 -17.333 5.66699 -31 17 -41s27 -15 47 -15c25.333 0 49.666 7 72.999 21l23 -81c-27.333 -20 -65.666 -30 -114.999 -30c-44 0 -79.667 11.5 -107 34.5s-41 53.5 -41 91.5c0 39.333 14.333 75 43 107c-56 7.33301 -104.5 25.666 -145.5 54.999s-72.333 67.5 -94 114.5
s-32.5 99.5 -32.5 157.5c0 64.667 13.333 122 40 172s63 89 109 117s97.667 42 155 42c61.333 0 114.666 -13.667 159.999 -41s80 -66 104 -116s36 -108 36 -174c0 -18.667 -1.33301 -35.334 -4 -50.001zM267.501 397.003c-21.667 -21.333 -35.833 -52.333 -42.5 -93h245
c-10.667 83.333 -51.667 125 -123 125c-31.333 0 -57.833 -10.667 -79.5 -32z" />
    <glyph glyph-name="Ecaron" unicode="&#x11a;" horiz-adv-x="681" 
d="M265 606v-165h328v-158h-328v-207h352v-158h-542v846h542v-158h-352zM353 926l83 94h144l-159 -200h-136l-159 200h144z" />
    <glyph glyph-name="ecaron" unicode="&#x11b;" horiz-adv-x="694" 
d="M645 184h-421.999c5.33301 -48 20.833 -84.167 46.5 -108.5s58.5 -36.5 98.5 -36.5c58.667 0 98.667 28.333 120 85l145 -69c-18.667 -46.667 -49.5 -83.5 -92.5 -110.5s-99.5 -40.5 -169.5 -40.5c-66.667 0 -124.667 14 -174 42s-87 66.833 -113 116.5
s-39 106.834 -39 171.501s13.333 122 40 172s63 89 109 117s97.667 42 155 42c61.333 0 114.666 -13.667 159.999 -41s80 -66 104 -116s36 -108 36 -174c0 -18.667 -1.33301 -35.334 -4 -50.001zM267.501 397c-21.667 -21.333 -35.833 -52.333 -42.5 -93h245
c-10.667 83.333 -51.667 125 -123 125c-31.333 0 -57.833 -10.667 -79.5 -32zM349.002 706l83 94h144l-159 -200h-136l-159 200h144z" />
    <glyph glyph-name="Gcircumflex" unicode="&#x11c;" horiz-adv-x="855" 
d="M795 253c0 -70.667 -13.166 -132.166 -39.499 -184.499s-65 -92.833 -116 -121.5s-112.833 -43 -185.5 -43c-79.333 0 -149.5 18.333 -210.5 55s-108.5 88 -142.5 154s-51 142 -51 228c0 86.667 16.833 163 50.5 229s81.167 117.167 142.5 153.5s132 54.5 212 54.5
c84 0 153.833 -18.5 209.5 -55.5s93.167 -88.833 112.5 -155.5l-156 -72c-24.667 87.333 -81.334 131 -170.001 131c-41.333 0 -78 -12 -110 -36s-56.833 -57.5 -74.5 -100.5s-26.5 -92.5 -26.5 -148.5c0 -88.667 19 -158.334 57 -209.001s90.333 -76 157 -76
c104.667 0 161 57.333 169 172h-150v158h322v-133zM437.001 914.001l-83 -94h-144l159 200h136l159 -200h-144z" />
    <glyph glyph-name="gcircumflex" unicode="&#x11d;" horiz-adv-x="735" 
d="M670 550c0 -5.33301 -0.829102 -22.3369 -2.49609 -51.0039s-2.5 -59.667 -2.5 -93v-452c0 -86.667 -27.167 -155 -81.5 -205s-131.833 -75 -232.5 -75c-168.667 0 -269.334 52 -302.001 156l139 65c9.33301 -25.333 26.666 -45.833 51.999 -61.5s58.333 -23.5 99 -23.5
c49.333 0 86.833 11.667 112.5 35s38.5 58.333 38.5 105v54c-22.667 -25.333 -49.334 -44.666 -80.001 -57.999s-65 -20 -103 -20c-47.333 0 -91 13.333 -131 40s-71.833 64.334 -95.5 113.001s-35.5 104 -35.5 166c0 62.667 11.833 118.334 35.5 167.001
s55.5 86.334 95.5 113.001s83.667 40 131 40c42.667 0 80.667 -8.5 114 -25.5s61.666 -41.167 84.999 -72.5c1.33301 22 2.83301 40.667 4.5 56s2.5 24.333 2.5 27h157zM452.504 112.996c25 33.333 37.5 77.333 37.5 132c0 55.333 -12.5 99.833 -37.5 133.5
s-57.5 50.5 -97.5 50.5s-72.333 -16.833 -97 -50.5s-37 -78.167 -37 -133.5c0 -54 12.5 -97.833 37.5 -131.5s57.167 -50.5 96.5 -50.5c40 0 72.5 16.667 97.5 50zM350.004 694.996l-83 -95h-144l159 200h136l159 -200h-144z" />
    <glyph glyph-name="Gbreve" unicode="&#x11e;" horiz-adv-x="855" 
d="M795 253c0 -70.667 -13.166 -132.166 -39.499 -184.499s-65 -92.833 -116 -121.5s-112.833 -43 -185.5 -43c-79.333 0 -149.5 18.333 -210.5 55s-108.5 88 -142.5 154s-51 142 -51 228c0 86.667 16.833 163 50.5 229s81.167 117.167 142.5 153.5s132 54.5 212 54.5
c84 0 153.833 -18.5 209.5 -55.5s93.167 -88.833 112.5 -155.5l-156 -72c-24.667 87.333 -81.334 131 -170.001 131c-41.333 0 -78 -12 -110 -36s-56.833 -57.5 -74.5 -100.5s-26.5 -92.5 -26.5 -148.5c0 -88.667 19 -158.334 57 -209.001s90.333 -76 157 -76
c104.667 0 161 57.333 169 172h-150v158h322v-133zM286.501 864.001c-37 38 -55.5 90 -55.5 156h109c0 -34 8.16699 -60.333 24.5 -79s40.5 -28 72.5 -28s56.167 9.33301 72.5 28s24.5 45 24.5 79h109c0 -66 -18.5 -118 -55.5 -156s-87.167 -57 -150.5 -57
s-113.5 19 -150.5 57z" />
    <glyph glyph-name="gbreve" unicode="&#x11f;" horiz-adv-x="735" 
d="M670 550c0 -5.33301 -0.829102 -22.3369 -2.49609 -51.0039s-2.5 -59.667 -2.5 -93v-452c0 -86.667 -27.167 -155 -81.5 -205s-131.833 -75 -232.5 -75c-168.667 0 -269.334 52 -302.001 156l139 65c9.33301 -25.333 26.666 -45.833 51.999 -61.5s58.333 -23.5 99 -23.5
c49.333 0 86.833 11.667 112.5 35s38.5 58.333 38.5 105v54c-22.667 -25.333 -49.334 -44.666 -80.001 -57.999s-65 -20 -103 -20c-47.333 0 -91 13.333 -131 40s-71.833 64.334 -95.5 113.001s-35.5 104 -35.5 166c0 62.667 11.833 118.334 35.5 167.001
s55.5 86.334 95.5 113.001s83.667 40 131 40c42.667 0 80.667 -8.5 114 -25.5s61.666 -41.167 84.999 -72.5c1.33301 22 2.83301 40.667 4.5 56s2.5 24.333 2.5 27h157zM452.504 112.996c25 33.333 37.5 77.333 37.5 132c0 55.333 -12.5 99.833 -37.5 133.5
s-57.5 50.5 -97.5 50.5s-72.333 -16.833 -97 -50.5s-37 -78.167 -37 -133.5c0 -54 12.5 -97.833 37.5 -131.5s57.167 -50.5 96.5 -50.5c40 0 72.5 16.667 97.5 50zM199.504 643.996c-37 38 -55.5 90 -55.5 156h109c0 -34 8.16699 -60.167 24.5 -78.5s40.5 -27.5 72.5 -27.5
s56.167 9.16699 72.5 27.5s24.5 44.5 24.5 78.5h109c0 -66 -18.5 -118 -55.5 -156s-87.167 -57 -150.5 -57s-113.5 19 -150.5 57z" />
    <glyph glyph-name="Gdotaccent" unicode="&#x120;" horiz-adv-x="855" 
d="M795 253c0 -70.667 -13.166 -132.166 -39.499 -184.499s-65 -92.833 -116 -121.5s-112.833 -43 -185.5 -43c-79.333 0 -149.5 18.333 -210.5 55s-108.5 88 -142.5 154s-51 142 -51 228c0 86.667 16.833 163 50.5 229s81.167 117.167 142.5 153.5s132 54.5 212 54.5
c84 0 153.833 -18.5 209.5 -55.5s93.167 -88.833 112.5 -155.5l-156 -72c-24.667 87.333 -81.334 131 -170.001 131c-41.333 0 -78 -12 -110 -36s-56.833 -57.5 -74.5 -100.5s-26.5 -92.5 -26.5 -148.5c0 -88.667 19 -158.334 57 -209.001s90.333 -76 157 -76
c104.667 0 161 57.333 169 172h-150v158h322v-133zM364.501 993.501c18.333 18.333 42.5 27.5 72.5 27.5s54.167 -9.16699 72.5 -27.5s27.5 -42.5 27.5 -72.5c0 -30.667 -9.16699 -55.167 -27.5 -73.5s-42.5 -27.5 -72.5 -27.5s-54.167 9.16699 -72.5 27.5
s-27.5 42.833 -27.5 73.5c0 30 9.16699 54.167 27.5 72.5z" />
    <glyph glyph-name="gdotaccent" unicode="&#x121;" horiz-adv-x="735" 
d="M670 550c0 -5.33301 -0.829102 -22.3369 -2.49609 -51.0039s-2.5 -59.667 -2.5 -93v-452c0 -86.667 -27.167 -155 -81.5 -205s-131.833 -75 -232.5 -75c-168.667 0 -269.334 52 -302.001 156l139 65c9.33301 -25.333 26.666 -45.833 51.999 -61.5s58.333 -23.5 99 -23.5
c49.333 0 86.833 11.667 112.5 35s38.5 58.333 38.5 105v54c-22.667 -25.333 -49.334 -44.666 -80.001 -57.999s-65 -20 -103 -20c-47.333 0 -91 13.333 -131 40s-71.833 64.334 -95.5 113.001s-35.5 104 -35.5 166c0 62.667 11.833 118.334 35.5 167.001
s55.5 86.334 95.5 113.001s83.667 40 131 40c42.667 0 80.667 -8.5 114 -25.5s61.666 -41.167 84.999 -72.5c1.33301 22 2.83301 40.667 4.5 56s2.5 24.333 2.5 27h157zM452.504 112.996c25 33.333 37.5 77.333 37.5 132c0 55.333 -12.5 99.833 -37.5 133.5
s-57.5 50.5 -97.5 50.5s-72.333 -16.833 -97 -50.5s-37 -78.167 -37 -133.5c0 -54 12.5 -97.833 37.5 -131.5s57.167 -50.5 96.5 -50.5c40 0 72.5 16.667 97.5 50zM277.504 772.496c18.333 18.333 42.5 27.5 72.5 27.5s54.167 -9.16699 72.5 -27.5s27.5 -42.5 27.5 -72.5
s-9.16699 -54.167 -27.5 -72.5s-42.5 -27.5 -72.5 -27.5s-54.167 9.16699 -72.5 27.5s-27.5 42.5 -27.5 72.5s9.16699 54.167 27.5 72.5z" />
    <glyph glyph-name="uni0122" unicode="&#x122;" horiz-adv-x="855" 
d="M795 253c0 -70.667 -13.166 -132.166 -39.499 -184.499s-65 -92.833 -116 -121.5s-112.833 -43 -185.5 -43c-79.333 0 -149.5 18.333 -210.5 55s-108.5 88 -142.5 154s-51 142 -51 228c0 86.667 16.833 163 50.5 229s81.167 117.167 142.5 153.5s132 54.5 212 54.5
c84 0 153.833 -18.5 209.5 -55.5s93.167 -88.833 112.5 -155.5l-156 -72c-24.667 87.333 -81.334 131 -170.001 131c-41.333 0 -78 -12 -110 -36s-56.833 -57.5 -74.5 -100.5s-26.5 -92.5 -26.5 -148.5c0 -88.667 19 -158.334 57 -209.001s90.333 -76 157 -76
c104.667 0 161 57.333 169 172h-150v158h322v-133zM508.001 -147.999c0 -29.333 -4.33203 -66.999 -12.999 -112.999c-0.666992 -6 -2.33398 -16.667 -5.00098 -32l-3 -19h-139l3 19c2.66699 20.667 5.16699 45.167 7.5 73.5s3.5 52.166 3.5 71.499h146z" />
    <glyph glyph-name="uni0123" unicode="&#x123;" horiz-adv-x="735" vert-adv-y="850" 
d="M277 600c0.666992 35.333 5.33301 77.001 14 125.001l5 30l7 45h139l-7 -45c-6.66699 -46.667 -10.667 -98.334 -12 -155.001h-146zM669.999 550.001c0 -5.33301 -0.829102 -22.3369 -2.49609 -51.0039s-2.5 -59.667 -2.5 -93v-452c0 -86.667 -27.167 -155 -81.5 -205
s-131.833 -75 -232.5 -75c-168.667 0 -269.334 52 -302.001 156l139 65c9.33301 -25.333 26.666 -45.833 51.999 -61.5s58.333 -23.5 99 -23.5c49.333 0 86.833 11.667 112.5 35s38.5 58.333 38.5 105v54c-22.667 -25.333 -49.334 -44.666 -80.001 -57.999s-65 -20 -103 -20
c-47.333 0 -91 13.333 -131 40s-71.833 64.334 -95.5 113.001s-35.5 104 -35.5 166c0 62.667 11.833 118.334 35.5 167.001s55.5 86.334 95.5 113.001s83.667 40 131 40c42.667 0 80.667 -8.5 114 -25.5s61.666 -41.167 84.999 -72.5c1.33301 22 2.83301 40.667 4.5 56
s2.5 24.333 2.5 27h157zM452.503 112.997c25 33.333 37.5 77.333 37.5 132c0 55.333 -12.5 99.833 -37.5 133.5s-57.5 50.5 -97.5 50.5s-72.333 -16.833 -97 -50.5s-37 -78.167 -37 -133.5c0 -54 12.5 -97.833 37.5 -131.5s57.167 -50.5 96.5 -50.5
c40 0 72.5 16.667 97.5 50z" />
    <glyph glyph-name="Hcircumflex" unicode="&#x124;" horiz-adv-x="869" 
d="M794 764v-846h-190v365h-339v-365h-190v846h190v-323h339v323h190zM435 914l-83 -94h-144l159 200h136l159 -200h-144z" />
    <glyph glyph-name="hcircumflex" unicode="&#x125;" horiz-adv-x="726" 
d="M602 504c38.667 -40.667 57.999 -96.667 57.999 -168v-418h-176v386c0 76.667 -36 115 -108 115c-40.667 0 -72.5 -13.333 -95.5 -40s-34.5 -63 -34.5 -109v-352h-176v882h176v-313c46 52 112 78 198 78c66.667 0 119.334 -20.333 158.001 -61zM156.999 914l-83 -94h-144
l159 200h136l159 -200h-144z" />
    <glyph glyph-name="Hbar" unicode="&#x126;" horiz-adv-x="869" 
d="M830 534h-36v-616h-190v365h-339v-365h-190v616h-36v120h36v110h190v-110h339v110h190v-110h36v-120zM604 534h-339v-93h339v93z" />
    <glyph glyph-name="hbar" unicode="&#x127;" horiz-adv-x="726" 
d="M602 504c38.667 -40.667 57.999 -96.667 57.999 -168v-418h-176v386c0 76.667 -36 115 -108 115c-40.667 0 -72.5 -13.333 -95.5 -40s-34.5 -63 -34.5 -109v-352h-176v689h-68v137h68v56h176v-56h133v-136h-133v-121c46 52 112 78 198 78
c66.667 0 119.334 -20.333 158.001 -61z" />
    <glyph glyph-name="Itilde" unicode="&#x128;" horiz-adv-x="352" 
d="M271 764v-846h-190v846h190zM-7 964c22.667 27.333 54 41 94 41c23.333 0 43.166 -3.16699 59.499 -9.5s34.5 -15.5 54.5 -27.5c11.333 -7.33301 20.666 -12.666 27.999 -15.999s15 -5 23 -5c22.667 0 34 13.667 34 41h108
c-0.666992 -47.333 -12.334 -84.666 -35.001 -111.999s-54 -41 -94 -41c-23.333 0 -43.166 3.16699 -59.499 9.5s-34.5 15.5 -54.5 27.5c-11.333 7.33301 -20.666 12.666 -27.999 15.999s-15 5 -23 5c-22.667 0 -34 -13.667 -34 -41h-108
c0.666992 47.333 12.334 84.666 35.001 111.999z" />
    <glyph glyph-name="itilde" unicode="&#x129;" horiz-adv-x="328" 
d="M252 550v-632h-176v632h176zM-19 736c22.667 27.333 54 41.001 94 41.001c23.333 0 43.166 -3.16699 59.499 -9.5s34.5 -15.5 54.5 -27.5c11.333 -7.33301 20.666 -12.666 27.999 -15.999s15 -5 23 -5c22.667 0 34 13.333 34 40h108
c-0.666992 -47.333 -12.334 -84.5 -35.001 -111.5s-54 -40.5 -94 -40.5c-23.333 0 -43.166 3.16699 -59.499 9.5s-34.5 15.5 -54.5 27.5c-11.333 7.33301 -20.666 12.666 -27.999 15.999s-15 5 -23 5c-10.667 0 -19 -3.5 -25 -10.5s-9 -17.167 -9 -30.5h-108
c0.666992 47.333 12.334 84.666 35.001 111.999z" />
    <glyph glyph-name="Imacron" unicode="&#x12a;" horiz-adv-x="352" 
d="M271 764v-846h-190v846h190zM-1 988h354v-136h-354v136z" />
    <glyph glyph-name="imacron" unicode="&#x12b;" horiz-adv-x="328" 
d="M252 550v-632h-176v632h176zM-13 768h354v-136h-354v136z" />
    <glyph glyph-name="Ibreve" unicode="&#x12c;" horiz-adv-x="352" 
d="M271 764v-846h-190v846h190zM25.5 864c-37 38 -55.5 90 -55.5 156h109c0 -34 8.16699 -60.333 24.5 -79s40.5 -28 72.5 -28s56.167 9.33301 72.5 28s24.5 45 24.5 79h109c0 -66 -18.5 -118 -55.5 -156s-87.167 -57 -150.5 -57s-113.5 19 -150.5 57z" />
    <glyph glyph-name="ibreve" unicode="&#x12d;" horiz-adv-x="328" 
d="M252 550v-632h-176v632h176zM13.5 644c-37 38 -55.5 90 -55.5 156h109c0 -34 8.16699 -60.167 24.5 -78.5s40.5 -27.5 72.5 -27.5s56.167 9.16699 72.5 27.5s24.5 44.5 24.5 78.5h109c0 -66 -18.5 -118 -55.5 -156s-87.167 -57 -150.5 -57s-113.5 19 -150.5 57z" />
    <glyph glyph-name="Iogonek" unicode="&#x12e;" horiz-adv-x="352" 
d="M330 -296c-27.333 -20 -65.667 -29.998 -115 -29.998c-44 0 -79.667 11.5 -107 34.5s-41 53.5 -41 91.5c0 45.333 18 84.666 54 117.999h-40v846h190v-846c-67.333 -18.667 -101 -51.334 -101 -98.001c0 -17.333 5.66699 -31 17 -41s27 -15 47 -15c26 0 50.333 7 73 21z
" />
    <glyph glyph-name="iogonek" unicode="&#x12f;" horiz-adv-x="328" 
d="M91.5 627.5c-18.333 18.333 -27.5 42.5 -27.5 72.5s9.16699 54.167 27.5 72.5s42.5 27.5 72.5 27.5s54.167 -9.16699 72.5 -27.5s27.5 -42.5 27.5 -72.5s-9.16699 -54.167 -27.5 -72.5s-42.5 -27.5 -72.5 -27.5s-54.167 9.16699 -72.5 27.5zM311 -296
c-27.333 -20 -65.667 -29.998 -115 -29.998c-44 0 -79.667 11.5 -107 34.5s-41 53.5 -41 91.5c0 45.333 18 84.666 54 117.999h-26v632h176v-632c-67.333 -18.667 -101 -51.334 -101 -98.001c0 -17.333 5.66699 -31 17 -41s27 -15 47 -15c26 0 50.333 7 73 21z" />
    <glyph glyph-name="Idotaccent" unicode="&#x130;" horiz-adv-x="352" 
d="M271 764v-846h-190v846h190zM103.5 993.5c18.333 18.333 42.5 27.5 72.5 27.5s54.167 -9.16699 72.5 -27.5s27.5 -42.5 27.5 -72.5c0 -30.667 -9.16699 -55.167 -27.5 -73.5s-42.5 -27.5 -72.5 -27.5s-54.167 9.16699 -72.5 27.5s-27.5 42.833 -27.5 73.5
c0 30 9.16699 54.167 27.5 72.5z" />
    <glyph glyph-name="dotlessi" unicode="&#x131;" horiz-adv-x="328" 
d="M252 550v-632h-176v632h176z" />
    <glyph glyph-name="IJ" unicode="&#x132;" horiz-adv-x="901" 
d="M271 764v-846h-190v846h190zM759 -29.5c-46 -44.333 -110 -66.501 -192 -66.501c-74 0 -131.167 14.667 -171.5 44s-66.833 69.333 -79.5 120l141 66c11.333 -56.667 42.333 -85 93 -85c29.333 0 51.333 8.33301 66 25s22 40.334 22 71.001v619h190v-604
c0 -82 -23 -145.167 -69 -189.5z" />
    <glyph glyph-name="ij" unicode="&#x133;" horiz-adv-x="588" 
d="M91.5 772.5c18.333 18.333 42.5 27.5 72.5 27.5s54.167 -9.16699 72.5 -27.5s27.5 -42.5 27.5 -72.5s-9.16699 -54.167 -27.5 -72.5s-42.5 -27.5 -72.5 -27.5s-54.167 9.16699 -72.5 27.5s-27.5 42.5 -27.5 72.5s9.16699 54.167 27.5 72.5zM252 550v-632h-176v632h176z
M351.5 772.5c18.333 18.333 42.5 27.5 72.5 27.5s54.167 -9.16699 72.5 -27.5s27.5 -42.5 27.5 -72.5s-9.16699 -54.167 -27.5 -72.5s-42.5 -27.5 -72.5 -27.5s-54.167 9.16699 -72.5 27.5s-27.5 42.5 -27.5 72.5s9.16699 54.167 27.5 72.5zM455.5 -268.5
c-37.667 -38.333 -89.501 -57.501 -155.501 -57.501c-37.333 0 -70.666 5.66699 -99.999 17v137c14 -6 33.667 -9 59 -9s44.5 6.5 57.5 19.5s19.5 32.167 19.5 57.5v654h176v-660c0 -67.333 -18.833 -120.166 -56.5 -158.499z" />
    <glyph glyph-name="Jcircumflex" unicode="&#x134;" horiz-adv-x="611" 
d="M469 -29.5c-46 -44.333 -110 -66.501 -192 -66.501c-74 0 -131.167 14.667 -171.5 44s-66.833 69.333 -79.5 120l141 66c11.333 -56.667 42.333 -85 93 -85c29.333 0 51.333 8.33301 66 25s22 40.334 22 71.001v619h190v-604c0 -82 -23 -145.167 -69 -189.5zM443 913.999
l-83 -94h-144l159 200h136l159 -200h-144z" />
    <glyph glyph-name="jcircumflex" unicode="&#x135;" horiz-adv-x="328" 
d="M195.5 -268.5c-37.667 -38.333 -89.501 -57.501 -155.501 -57.501c-37.333 0 -70.666 5.66699 -99.999 17v137c14 -6 33.667 -9 59 -9s44.5 6.5 57.5 19.5s19.5 32.167 19.5 57.5v654h176v-660c0 -67.333 -18.833 -120.166 -56.5 -158.499zM163.999 694.999l-83 -95h-144
l159 200h136l159 -200h-144z" />
    <glyph glyph-name="uni0136" unicode="&#x136;" horiz-adv-x="792" 
d="M561 -82l-296 419v-419h-190v846h190v-376l268 376h223l-303 -397l340 -449h-232zM475 -148c0 -29.333 -4.33203 -66.999 -12.999 -112.999c-0.666992 -6 -2.33398 -16.667 -5.00098 -32l-3 -19h-139l3 19c2.66699 20.667 5.16699 45.167 7.5 73.5s3.5 52.166 3.5 71.499
h146z" />
    <glyph glyph-name="uni0137" unicode="&#x137;" horiz-adv-x="683" 
d="M453 -82l-207 309v-309h-176v882h176v-526l199 276h207l-225 -299l246 -333h-220zM421 -148c0 -29.333 -4.33203 -66.999 -12.999 -112.999c-0.666992 -6 -2.33398 -16.667 -5.00098 -32l-3 -19h-139l3 19c2.66699 20.667 5.16699 45.167 7.5 73.5s3.5 52.166 3.5 71.499
h146z" />
    <glyph glyph-name="kgreenlandic" unicode="&#x138;" horiz-adv-x="683" vert-adv-y="850" 
d="M453 -82l-207 309v-309h-176v632h176v-276l199 276h207l-225 -299l246 -333h-220z" />
    <glyph glyph-name="Lacute" unicode="&#x139;" horiz-adv-x="646" 
d="M605 76v-158h-530v846h190v-688h340zM348 1020l-109 -200h-138l77 200h170z" />
    <glyph glyph-name="lacute" unicode="&#x13a;" horiz-adv-x="328" 
d="M252 800v-882h-176v882h176zM338 1020l-109 -200h-138l77 200h170z" />
    <glyph glyph-name="uni013B" unicode="&#x13b;" horiz-adv-x="646" 
d="M605 76v-158h-530v846h190v-688h340zM403 -148c0 -29.333 -4.33203 -66.999 -12.999 -112.999c-0.666992 -6 -2.33398 -16.667 -5.00098 -32l-3 -19h-139l3 19c2.66699 20.667 5.16699 45.167 7.5 73.5s3.5 52.166 3.5 71.499h146z" />
    <glyph glyph-name="uni013C" unicode="&#x13c;" horiz-adv-x="328" 
d="M252 800v-882h-176v882h176zM241 -148c0 -29.333 -4.33203 -66.999 -12.999 -112.999c-0.666992 -6 -2.33398 -16.667 -5.00098 -32l-3 -19h-139l3 19c2.66699 20.667 5.16699 45.167 7.5 73.5s3.5 52.166 3.5 71.499h146z" />
    <glyph glyph-name="Lcaron" unicode="&#x13d;" horiz-adv-x="646" 
d="M605 76v-158h-530v846h190v-688h340zM519 800l-30 -215h-103l12 215h121z" />
    <glyph glyph-name="lcaron" unicode="&#x13e;" horiz-adv-x="328" 
d="M252 800v-882h-176v882h176zM420 800l-30 -215h-103l12 215h121z" />
    <glyph glyph-name="Ldot" unicode="&#x13f;" horiz-adv-x="646" 
d="M605 76v-158h-530v846h190v-688h340zM421 289c-18.667 18.667 -28 43 -28 73s9.33301 54.167 28 72.5s43 27.5 73 27.5s54.167 -9.16699 72.5 -27.5s27.5 -42.5 27.5 -72.5s-9.16699 -54.333 -27.5 -73s-42.5 -28 -72.5 -28s-54.333 9.33301 -73 28z" />
    <glyph glyph-name="ldot" unicode="&#x140;" horiz-adv-x="500" 
d="M252 800v-882h-176v882h176zM341 382.5c18.667 18.333 43 27.5 73 27.5s54.167 -9.16699 72.5 -27.5s27.5 -42.5 27.5 -72.5s-9.16699 -54.333 -27.5 -73s-42.5 -28 -72.5 -28s-54.333 9.33301 -73 28s-28 43 -28 73s9.33301 54.167 28 72.5z" />
    <glyph glyph-name="Lslash" unicode="&#x141;" horiz-adv-x="726" 
d="M685 76v-158h-530v282l-86 -57l-59 89l145 96v436h190v-311l170 112l59 -89l-229 -151v-249h340z" />
    <glyph glyph-name="lslash" unicode="&#x142;" horiz-adv-x="465" 
d="M312 364v-446h-176v301l-48 -39l-74 91l122 100v429h176v-284l65 53l74 -91z" />
    <glyph glyph-name="Nacute" unicode="&#x143;" horiz-adv-x="866" 
d="M791 764v-846h-176l-369 547v-547h-171v846h200l345 -511v511h171zM611 1020l-109 -200h-138l77 200h170z" />
    <glyph glyph-name="nacute" unicode="&#x144;" horiz-adv-x="726" 
d="M602 504c38.667 -40.667 57.998 -96.668 57.998 -168.001v-418h-176v386c0 76.667 -36 115 -108 115c-40.667 0 -72.5 -13.333 -95.5 -40s-34.5 -63 -34.5 -109v-352h-176v488c0 58 -1.66699 106 -5 144h157c2.66699 -15.333 5 -43.666 7 -84.999
c46.667 66.667 118.334 100 215.001 100c66.667 0 119.334 -20.333 158.001 -61zM544.998 799.999l-109 -200h-138l77 200h170z" />
    <glyph glyph-name="uni0145" unicode="&#x145;" horiz-adv-x="866" 
d="M791 764v-846h-176l-369 547v-547h-171v846h200l345 -511v511h171zM513 -148c0 -29.333 -4.33203 -66.999 -12.999 -112.999c-0.666992 -6 -2.33398 -16.667 -5.00098 -32l-3 -19h-139l3 19c2.66699 20.667 5.16699 45.167 7.5 73.5s3.5 52.166 3.5 71.499h146z" />
    <glyph glyph-name="uni0146" unicode="&#x146;" horiz-adv-x="726" 
d="M602 504c38.667 -40.667 57.998 -96.668 57.998 -168.001v-418h-176v386c0 76.667 -36 115 -108 115c-40.667 0 -72.5 -13.333 -95.5 -40s-34.5 -63 -34.5 -109v-352h-176v488c0 58 -1.66699 106 -5 144h157c2.66699 -15.333 5 -43.666 7 -84.999
c46.667 66.667 118.334 100 215.001 100c66.667 0 119.334 -20.333 158.001 -61zM442.998 -148.001c0 -29.333 -4.33203 -66.999 -12.999 -112.999c-0.666992 -6 -2.33398 -16.667 -5.00098 -32l-3 -19h-139l3 19c2.66699 20.667 5.16699 45.167 7.5 73.5
s3.5 52.166 3.5 71.499h146z" />
    <glyph glyph-name="Ncaron" unicode="&#x147;" horiz-adv-x="866" 
d="M791 764v-846h-176l-369 547v-547h-171v846h200l345 -511v511h171zM433 926l83 94h144l-159 -200h-136l-159 200h144z" />
    <glyph glyph-name="ncaron" unicode="&#x148;" horiz-adv-x="726" 
d="M602 504c38.667 -40.667 57.998 -96.668 57.998 -168.001v-418h-176v386c0 76.667 -36 115 -108 115c-40.667 0 -72.5 -13.333 -95.5 -40s-34.5 -63 -34.5 -109v-352h-176v488c0 58 -1.66699 106 -5 144h157c2.66699 -15.333 5 -43.666 7 -84.999
c46.667 66.667 118.334 100 215.001 100c66.667 0 119.334 -20.333 158.001 -61zM366.998 705.999l83 94h144l-159 -200h-136l-159 200h144z" />
    <glyph glyph-name="Eng" unicode="&#x14a;" horiz-adv-x="866" 
d="M791 764l-0.000976562 -874.001c0 -67.333 -18.833 -120.166 -56.5 -158.499s-89.5 -57.5 -155.5 -57.5c-37.333 0 -70.666 5.66699 -99.999 17v133c15.333 -6 36 -9 62 -9c25.333 0 44.833 6.83301 58.5 20.5s20.5 33.167 20.5 58.5v16l-374 555v-547h-171v846h200
l345 -511v511h171z" />
    <glyph glyph-name="eng" unicode="&#x14b;" horiz-adv-x="726" 
d="M602 504c38.667 -40.667 57.999 -96.6689 57.999 -168.002v-446c0 -67.333 -18.833 -120.166 -56.5 -158.499s-89.834 -57.5 -156.501 -57.5c-36.667 0 -69.667 5.66699 -99 17v137c14 -6 33.667 -9 59 -9s44.5 6.5 57.5 19.5s19.5 32.167 19.5 57.5v408
c0 76.667 -36 115 -108 115c-40.667 0 -72.5 -13.333 -95.5 -40s-34.5 -63 -34.5 -109v-352h-176v488c0 58 -1.66699 106 -5 144h157c2.66699 -15.333 5 -43.666 7 -84.999c46.667 66.667 118.334 100 215.001 100c66.667 0 119.334 -20.333 158.001 -61z" />
    <glyph glyph-name="Omacron" unicode="&#x14c;" horiz-adv-x="902" 
d="M801.5 112c-33.667 -66 -80.834 -117.165 -141.501 -153.498s-130.334 -54.5 -209.001 -54.5s-148.334 18.167 -209.001 54.5s-107.834 87.666 -141.501 153.999s-50.5 142.5 -50.5 228.5s16.833 162.167 50.5 228.5s80.834 117.666 141.501 153.999
s130.334 54.5 209.001 54.5s148.334 -18.167 209.001 -54.5s107.834 -87.5 141.501 -153.5s50.5 -142.333 50.5 -229s-16.833 -163 -50.5 -229zM266.5 192.002c17.667 -43.333 42.5 -76.833 74.5 -100.5s68.667 -35.5 110 -35.5s78 11.833 110 35.5s56.833 57 74.5 100
s26.5 92.833 26.5 149.5s-8.83301 106.5 -26.5 149.5s-42.5 76.333 -74.5 100s-68.667 35.5 -110 35.5s-78 -11.833 -110 -35.5s-56.833 -57.167 -74.5 -100.5s-26.5 -93 -26.5 -149s8.83301 -105.667 26.5 -149zM274 988.002h354v-136h-354v136z" />
    <glyph glyph-name="omacron" unicode="&#x14d;" horiz-adv-x="726" 
d="M86 407.5c27.333 50.333 65.166 89.166 113.499 116.499s102.833 41 163.5 41s115.167 -13.667 163.5 -41s86.166 -66.166 113.499 -116.499s41 -108.166 41 -173.499s-13.667 -123 -41 -173s-65.166 -88.667 -113.499 -116s-102.833 -41 -163.5 -41
s-115.167 13.667 -163.5 41s-86.166 66 -113.499 116s-41 107.667 -41 173s13.667 123.166 41 173.499zM466 375.5c-26 35.667 -60.333 53.5 -103 53.5s-77 -17.833 -103 -53.5s-39 -82.834 -39 -141.501s13 -105.834 39 -141.501s60.333 -53.5 103 -53.5
s77 17.833 103 53.5s39 82.834 39 141.501s-13 105.834 -39 141.501zM186 768h354v-136h-354v136z" />
    <glyph glyph-name="Obreve" unicode="&#x14e;" horiz-adv-x="902" 
d="M801.5 112c-33.667 -66 -80.834 -117.165 -141.501 -153.498s-130.334 -54.5 -209.001 -54.5s-148.334 18.167 -209.001 54.5s-107.834 87.666 -141.501 153.999s-50.5 142.5 -50.5 228.5s16.833 162.167 50.5 228.5s80.834 117.666 141.501 153.999
s130.334 54.5 209.001 54.5s148.334 -18.167 209.001 -54.5s107.834 -87.5 141.501 -153.5s50.5 -142.333 50.5 -229s-16.833 -163 -50.5 -229zM266.5 192.002c17.667 -43.333 42.5 -76.833 74.5 -100.5s68.667 -35.5 110 -35.5s78 11.833 110 35.5s56.833 57 74.5 100
s26.5 92.833 26.5 149.5s-8.83301 106.5 -26.5 149.5s-42.5 76.333 -74.5 100s-68.667 35.5 -110 35.5s-78 -11.833 -110 -35.5s-56.833 -57.167 -74.5 -100.5s-26.5 -93 -26.5 -149s8.83301 -105.667 26.5 -149zM300.5 864.002c-37 38 -55.5 90 -55.5 156h109
c0 -34 8.16699 -60.333 24.5 -79s40.5 -28 72.5 -28s56.167 9.33301 72.5 28s24.5 45 24.5 79h109c0 -66 -18.5 -118 -55.5 -156s-87.167 -57 -150.5 -57s-113.5 19 -150.5 57z" />
    <glyph glyph-name="obreve" unicode="&#x14f;" horiz-adv-x="726" 
d="M86 407.5c27.333 50.333 65.166 89.166 113.499 116.499s102.833 41 163.5 41s115.167 -13.667 163.5 -41s86.166 -66.166 113.499 -116.499s41 -108.166 41 -173.499s-13.667 -123 -41 -173s-65.166 -88.667 -113.499 -116s-102.833 -41 -163.5 -41
s-115.167 13.667 -163.5 41s-86.166 66 -113.499 116s-41 107.667 -41 173s13.667 123.166 41 173.499zM466 375.5c-26 35.667 -60.333 53.5 -103 53.5s-77 -17.833 -103 -53.5s-39 -82.834 -39 -141.501s13 -105.834 39 -141.501s60.333 -53.5 103 -53.5
s77 17.833 103 53.5s39 82.834 39 141.501s-13 105.834 -39 141.501zM212.5 644c-37 38 -55.5 90 -55.5 156h109c0 -34 8.16699 -60.167 24.5 -78.5s40.5 -27.5 72.5 -27.5s56.167 9.16699 72.5 27.5s24.5 44.5 24.5 78.5h109c0 -66 -18.5 -118 -55.5 -156
s-87.167 -57 -150.5 -57s-113.5 19 -150.5 57z" />
    <glyph glyph-name="Ohungarumlaut" unicode="&#x150;" horiz-adv-x="902" 
d="M801.5 112c-33.667 -66 -80.834 -117.165 -141.501 -153.498s-130.334 -54.5 -209.001 -54.5s-148.334 18.167 -209.001 54.5s-107.834 87.666 -141.501 153.999s-50.5 142.5 -50.5 228.5s16.833 162.167 50.5 228.5s80.834 117.666 141.501 153.999
s130.334 54.5 209.001 54.5s148.334 -18.167 209.001 -54.5s107.834 -87.5 141.501 -153.5s50.5 -142.333 50.5 -229s-16.833 -163 -50.5 -229zM266.5 192.002c17.667 -43.333 42.5 -76.833 74.5 -100.5s68.667 -35.5 110 -35.5s78 11.833 110 35.5s56.833 57 74.5 100
s26.5 92.833 26.5 149.5s-8.83301 106.5 -26.5 149.5s-42.5 76.333 -74.5 100s-68.667 35.5 -110 35.5s-78 -11.833 -110 -35.5s-56.833 -57.167 -74.5 -100.5s-26.5 -93 -26.5 -149s8.83301 -105.667 26.5 -149zM526 1020l-108 -200h-139l77 200h170zM731 1020l-108 -200
h-139l78 200h169z" />
    <glyph glyph-name="ohungarumlaut" unicode="&#x151;" horiz-adv-x="726" 
d="M86 407.5c27.333 50.333 65.166 89.166 113.499 116.499s102.833 41 163.5 41s115.167 -13.667 163.5 -41s86.166 -66.166 113.499 -116.499s41 -108.166 41 -173.499s-13.667 -123 -41 -173s-65.166 -88.667 -113.499 -116s-102.833 -41 -163.5 -41
s-115.167 13.667 -163.5 41s-86.166 66 -113.499 116s-41 107.667 -41 173s13.667 123.166 41 173.499zM466 375.5c-26 35.667 -60.333 53.5 -103 53.5s-77 -17.833 -103 -53.5s-39 -82.834 -39 -141.501s13 -105.834 39 -141.501s60.333 -53.5 103 -53.5
s77 17.833 103 53.5s39 82.834 39 141.501s-13 105.834 -39 141.501zM438 800l-108 -200h-139l77 200h170zM643 800l-108 -200h-139l78 200h169z" />
    <glyph glyph-name="OE" unicode="&#x152;" horiz-adv-x="1156" 
d="M740 606v-165.001h328v-158h-328v-207h352v-158h-656c-76.667 0 -143.834 17.5 -201.501 52.5s-102.167 84.5 -133.5 148.5s-47 138 -47 222c0 84.667 15.667 158.834 47 222.501s75.833 113 133.5 148s124.834 52.5 201.501 52.5h656v-158h-352zM550 75.999v530h-75
c-72.667 0 -129.334 -23.667 -170.001 -71s-61 -112 -61 -194s20.333 -146.667 61 -194s97.334 -71 170.001 -71h75z" />
    <glyph glyph-name="oe" unicode="&#x153;" horiz-adv-x="1152" 
d="M1104 184l-422.002 0.00390625c5.33301 -48 20.833 -84.167 46.5 -108.5s58.834 -36.5 99.501 -36.5c58.667 0 98.667 28.333 120 85l144 -69c-18.667 -46.667 -49.667 -83.667 -93 -111s-100 -41 -170 -41c-53.333 0 -99.833 10.833 -139.5 32.5
s-72.167 51.5 -97.5 89.5c-25.333 -38 -57.5 -67.833 -96.5 -89.5s-83.167 -32.5 -132.5 -32.5c-60.667 0 -115.167 13.667 -163.5 41s-86.166 66.166 -113.499 116.499s-41 108.166 -41 173.499s13.667 123.166 41 173.499s65.166 89.166 113.499 116.499
s102.833 41 163.5 41c49.333 0 93.5 -10.833 132.5 -32.5s71.167 -51.5 96.5 -89.5c24.667 38 55.334 67.833 92.001 89.5s78 32.5 124 32.5c61.333 0 114.5 -13.667 159.5 -41s79.5 -66 103.5 -116s36 -108 36 -174c0 -23.333 -1 -40 -3 -50zM465.998 92.5039
c26 35.667 39 82.834 39 141.501s-13 105.834 -39 141.501s-60.333 53.5 -103 53.5s-77 -17.833 -103 -53.5s-39 -82.834 -39 -141.501s13 -105.834 39 -141.501s60.333 -53.5 103 -53.5s77 17.833 103 53.5zM725.998 397.504c-21.333 -21 -35.333 -51.833 -42 -92.5h245
c-12 82.667 -53 124 -123 124c-32 0 -58.667 -10.5 -80 -31.5z" />
    <glyph glyph-name="Racute" unicode="&#x154;" horiz-adv-x="759" 
d="M333 229l-67.998 -0.000976562v-311h-190v846h360c53.333 0 100.166 -11 140.499 -33s71.5 -53.167 93.5 -93.5s33 -87.166 33 -140.499c0 -63.333 -15.333 -117.333 -46 -162s-73.334 -75.667 -128.001 -93l223 -324h-227zM265.002 374.999h122
c40 0 70.833 10.333 92.5 31s32.5 51 32.5 91c0 39.333 -10.833 69.5 -32.5 90.5s-52.5 31.5 -92.5 31.5h-122v-244zM540.002 1020l-109 -200h-138l77 200h170z" />
    <glyph glyph-name="racute" unicode="&#x155;" horiz-adv-x="473" 
d="M441 556v-153.999c-15.333 3.33301 -32 5 -50 5c-38.667 0 -71.5 -11.333 -98.5 -34s-42.5 -55.667 -46.5 -99v-356h-176v488c0 58 -1.66699 106 -5 144h153c2.66699 -16 5 -48 7 -96c18.667 35.333 42.667 62.666 72 81.999s62 29 98 29c22 0 37.333 -3 46 -9z
M436 800.001l-109 -200h-138l77 200h170z" />
    <glyph glyph-name="uni0156" unicode="&#x156;" horiz-adv-x="759" 
d="M333 229l-67.998 -0.000976562v-311h-190v846h360c53.333 0 100.166 -11 140.499 -33s71.5 -53.167 93.5 -93.5s33 -87.166 33 -140.499c0 -63.333 -15.333 -117.333 -46 -162s-73.334 -75.667 -128.001 -93l223 -324h-227zM265.002 374.999h122
c40 0 70.833 10.333 92.5 31s32.5 51 32.5 91c0 39.333 -10.833 69.5 -32.5 90.5s-52.5 31.5 -92.5 31.5h-122v-244zM460.002 -148.001c0 -29.333 -4.33203 -66.999 -12.999 -112.999c-0.666992 -6 -2.33398 -16.667 -5.00098 -32l-3 -19h-139l3 19
c2.66699 20.667 5.16699 45.167 7.5 73.5s3.5 52.166 3.5 71.499h146z" />
    <glyph glyph-name="uni0157" unicode="&#x157;" horiz-adv-x="473" 
d="M441 556v-153.999c-15.333 3.33301 -32 5 -50 5c-38.667 0 -71.5 -11.333 -98.5 -34s-42.5 -55.667 -46.5 -99v-356h-176v488c0 58 -1.66699 106 -5 144h153c2.66699 -16 5 -48 7 -96c18.667 35.333 42.667 62.666 72 81.999s62 29 98 29c22 0 37.333 -3 46 -9z
M231 -147.999c0 -29.333 -4.33203 -66.999 -12.999 -112.999c-0.666992 -6 -2.33398 -16.667 -5.00098 -32l-3 -19h-139l3 19c2.66699 20.667 5.16699 45.167 7.5 73.5s3.5 52.166 3.5 71.499h146z" />
    <glyph glyph-name="Rcaron" unicode="&#x158;" horiz-adv-x="759" 
d="M333 229l-67.998 -0.000976562v-311h-190v846h360c53.333 0 100.166 -11 140.499 -33s71.5 -53.167 93.5 -93.5s33 -87.166 33 -140.499c0 -63.333 -15.333 -117.333 -46 -162s-73.334 -75.667 -128.001 -93l223 -324h-227zM265.002 374.999h122
c40 0 70.833 10.333 92.5 31s32.5 51 32.5 91c0 39.333 -10.833 69.5 -32.5 90.5s-52.5 31.5 -92.5 31.5h-122v-244zM362.002 925.999l83 94h144l-159 -200h-136l-159 200h144z" />
    <glyph glyph-name="rcaron" unicode="&#x159;" horiz-adv-x="473" 
d="M441 556v-153.999c-15.333 3.33301 -32 5 -50 5c-38.667 0 -71.5 -11.333 -98.5 -34s-42.5 -55.667 -46.5 -99v-356h-176v488c0 58 -1.66699 106 -5 144h153c2.66699 -16 5 -48 7 -96c18.667 35.333 42.667 62.666 72 81.999s62 29 98 29c22 0 37.333 -3 46 -9z
M258 706.001l83 94h144l-159 -200h-136l-159 200h144z" />
    <glyph glyph-name="Sacute" unicode="&#x15a;" horiz-adv-x="730" 
d="M67 525c0 49.333 12.501 93.1719 37.501 131.505s60.667 68.166 107 89.499s100.5 32 162.5 32c81.333 0 148 -15.833 200 -47.5s87.333 -78.167 106 -139.5l-151 -69c-22.667 64.667 -72.667 97 -150 97c-40 0 -70.167 -7.33301 -90.5 -22s-30.5 -36 -30.5 -64
s11.167 -49.333 33.5 -64s61.833 -26.334 118.5 -35.001c98 -14.667 169.333 -43.5 214 -86.5s67 -103.167 67 -180.5c0 -50.667 -13.833 -95.834 -41.5 -135.501s-66 -70.834 -115 -93.501s-104.5 -34 -166.5 -34c-89.333 0 -162.5 17.333 -219.5 52
s-94.833 84.667 -113.5 150l151 70c11.333 -37.333 32.333 -65.5 63 -84.5s69.667 -28.5 117 -28.5c43.333 0 76.666 8.66699 99.999 26s35 41.666 35 72.999c0 30.667 -12.833 54.667 -38.5 72s-70.5 31.333 -134.5 42c-174 28 -261 111 -261 249zM547.001 1020.01
l-109 -200h-138l77 200h170z" />
    <glyph glyph-name="sacute" unicode="&#x15b;" horiz-adv-x="604" 
d="M106.5 239.5c-36.333 33 -54.498 76.5 -54.498 130.5c0 38 10.667 71.667 32 101s50.666 52.333 87.999 69s79.666 25 126.999 25c68.667 0 125.5 -12.667 170.5 -38s74.5 -60.333 88.5 -105l-132 -61c-17.333 50 -57 75 -119 75c-25.333 0 -45.5 -5.16699 -60.5 -15.5
s-22.5 -24.833 -22.5 -43.5s8.83301 -32.834 26.5 -42.501s49.834 -17.834 96.501 -24.501c148 -18.667 222 -85 222 -199c0 -41.333 -11 -77.666 -33 -108.999s-52.5 -55.5 -91.5 -72.5s-83.5 -25.5 -133.5 -25.5c-76 0 -137.5 13.333 -184.5 40
s-78.5 65.334 -94.5 116.001l131 61c9.33301 -27.333 25.333 -48.833 48 -64.5s52.334 -23.5 89.001 -23.5c30.667 0 54.5 5.5 71.5 16.5s25.5 27.167 25.5 48.5c0 16 -3.83301 28.833 -11.5 38.5s-20.834 17.667 -39.501 24s-45.334 11.833 -80.001 16.5
c-70 8.66699 -123.167 29.5 -159.5 62.5zM478.002 800l-109 -200h-138l77 200h170z" />
    <glyph glyph-name="Scircumflex" unicode="&#x15c;" horiz-adv-x="730" 
d="M67 525c0 49.333 12.501 93.1719 37.501 131.505s60.667 68.166 107 89.499s100.5 32 162.5 32c81.333 0 148 -15.833 200 -47.5s87.333 -78.167 106 -139.5l-151 -69c-22.667 64.667 -72.667 97 -150 97c-40 0 -70.167 -7.33301 -90.5 -22s-30.5 -36 -30.5 -64
s11.167 -49.333 33.5 -64s61.833 -26.334 118.5 -35.001c98 -14.667 169.333 -43.5 214 -86.5s67 -103.167 67 -180.5c0 -50.667 -13.833 -95.834 -41.5 -135.501s-66 -70.834 -115 -93.501s-104.5 -34 -166.5 -34c-89.333 0 -162.5 17.333 -219.5 52
s-94.833 84.667 -113.5 150l151 70c11.333 -37.333 32.333 -65.5 63 -84.5s69.667 -28.5 117 -28.5c43.333 0 76.666 8.66699 99.999 26s35 41.666 35 72.999c0 30.667 -12.833 54.667 -38.5 72s-70.5 31.333 -134.5 42c-174 28 -261 111 -261 249zM369.001 914.006l-83 -94
h-144l159 200h136l159 -200h-144z" />
    <glyph glyph-name="scircumflex" unicode="&#x15d;" horiz-adv-x="604" 
d="M106.5 239.5c-36.333 33 -54.498 76.5 -54.498 130.5c0 38 10.667 71.667 32 101s50.666 52.333 87.999 69s79.666 25 126.999 25c68.667 0 125.5 -12.667 170.5 -38s74.5 -60.333 88.5 -105l-132 -61c-17.333 50 -57 75 -119 75c-25.333 0 -45.5 -5.16699 -60.5 -15.5
s-22.5 -24.833 -22.5 -43.5s8.83301 -32.834 26.5 -42.501s49.834 -17.834 96.501 -24.501c148 -18.667 222 -85 222 -199c0 -41.333 -11 -77.666 -33 -108.999s-52.5 -55.5 -91.5 -72.5s-83.5 -25.5 -133.5 -25.5c-76 0 -137.5 13.333 -184.5 40
s-78.5 65.334 -94.5 116.001l131 61c9.33301 -27.333 25.333 -48.833 48 -64.5s52.334 -23.5 89.001 -23.5c30.667 0 54.5 5.5 71.5 16.5s25.5 27.167 25.5 48.5c0 16 -3.83301 28.833 -11.5 38.5s-20.834 17.667 -39.501 24s-45.334 11.833 -80.001 16.5
c-70 8.66699 -123.167 29.5 -159.5 62.5zM300.002 695l-83 -95h-144l159 200h136l159 -200h-144z" />
    <glyph glyph-name="Scedilla" unicode="&#x15e;" horiz-adv-x="730" 
d="M653.5 37c-25 -38.667 -59.833 -69.498 -104.5 -92.498s-96 -36.167 -154 -39.5l-8 -40c28 -7.33301 49.5 -19 64.5 -35s22.5 -35.667 22.5 -59c0 -30 -11.5 -53.667 -34.5 -71s-54.167 -26 -93.5 -26c-15.333 0 -31.333 2 -48 6s-31 9 -43 15l18 65
c23.333 -10 44.666 -15 63.999 -15c30 0 45 10.333 45 31c0 12.667 -7.16699 23.334 -21.5 32.001s-34.166 14.334 -59.499 17.001l17 81c-75.333 6 -137.166 26.167 -185.499 60.5s-80.833 80.833 -97.5 139.5l151 70c11.333 -37.333 32.333 -65.5 63 -84.5
s69.667 -28.5 117 -28.5c43.333 0 76.666 8.66699 99.999 26s35 41.666 35 72.999c0 30.667 -12.833 54.667 -38.5 72s-70.5 31.333 -134.5 42c-174 28 -261 111 -261 249c0 49.333 12.5 93.166 37.5 131.499s60.667 68.166 107 89.499s100.5 32 162.5 32
c81.333 0 148 -15.833 200 -47.5s87.333 -78.167 106 -139.5l-151 -69c-22.667 64.667 -72.667 97 -150 97c-40 0 -70.167 -7.33301 -90.5 -22s-30.5 -36 -30.5 -64s11.167 -49.333 33.5 -64s61.833 -26.334 118.5 -35.001c98 -14.667 169.333 -43.5 214 -86.5
s67 -103.167 67 -180.5c0 -48 -12.5 -91.333 -37.5 -130z" />
    <glyph glyph-name="scedilla" unicode="&#x15f;" horiz-adv-x="604" 
d="M505 -32.5c-42.667 -37 -98.666 -57.833 -167.999 -62.5l-8 -40c28 -7.33301 49.5 -19 64.5 -35s22.5 -35.667 22.5 -59c0 -30 -11.5 -53.667 -34.5 -71s-54.167 -26 -93.5 -26c-15.333 0 -31.333 2 -48 6s-31 9 -43 15l18 65c23.333 -10 44.666 -15 63.999 -15
c30 0 45 10.333 45 31c0 12.667 -7.16699 23.334 -21.5 32.001s-34.166 14.334 -59.499 17.001l17 81c-61.333 6 -111.166 22.167 -149.499 48.5s-64.5 61.5 -78.5 105.5l131 61c9.33301 -27.333 25.333 -48.833 48 -64.5s52.334 -23.5 89.001 -23.5
c30.667 0 54.5 5.5 71.5 16.5s25.5 27.167 25.5 48.5c0 16 -3.83301 28.833 -11.5 38.5s-20.834 17.667 -39.501 24s-45.334 11.833 -80.001 16.5c-70 8.66699 -123.167 29.5 -159.5 62.5s-54.5 76.5 -54.5 130.5c0 38 10.667 71.667 32 101s50.666 52.333 87.999 69
s79.666 25 126.999 25c68.667 0 125.5 -12.667 170.5 -38s74.5 -60.333 88.5 -105l-132 -61c-17.333 50 -57 75 -119 75c-25.333 0 -45.5 -5.16699 -60.5 -15.5s-22.5 -24.833 -22.5 -43.5s8.83301 -32.834 26.5 -42.501s49.834 -17.834 96.501 -24.501
c148 -18.667 222 -85 222 -199c0 -58.667 -21.333 -106.5 -64 -143.5z" />
    <glyph glyph-name="Scaron" unicode="&#x160;" horiz-adv-x="730" 
d="M67 525c0 49.333 12.501 93.1719 37.501 131.505s60.667 68.166 107 89.499s100.5 32 162.5 32c81.333 0 148 -15.833 200 -47.5s87.333 -78.167 106 -139.5l-151 -69c-22.667 64.667 -72.667 97 -150 97c-40 0 -70.167 -7.33301 -90.5 -22s-30.5 -36 -30.5 -64
s11.167 -49.333 33.5 -64s61.833 -26.334 118.5 -35.001c98 -14.667 169.333 -43.5 214 -86.5s67 -103.167 67 -180.5c0 -50.667 -13.833 -95.834 -41.5 -135.501s-66 -70.834 -115 -93.501s-104.5 -34 -166.5 -34c-89.333 0 -162.5 17.333 -219.5 52
s-94.833 84.667 -113.5 150l151 70c11.333 -37.333 32.333 -65.5 63 -84.5s69.667 -28.5 117 -28.5c43.333 0 76.666 8.66699 99.999 26s35 41.666 35 72.999c0 30.667 -12.833 54.667 -38.5 72s-70.5 31.333 -134.5 42c-174 28 -261 111 -261 249zM369.001 926.006l83 94
h144l-159 -200h-136l-159 200h144z" />
    <glyph glyph-name="scaron" unicode="&#x161;" horiz-adv-x="604" 
d="M106.5 239.5c-36.333 33 -54.498 76.5 -54.498 130.5c0 38 10.667 71.667 32 101s50.666 52.333 87.999 69s79.666 25 126.999 25c68.667 0 125.5 -12.667 170.5 -38s74.5 -60.333 88.5 -105l-132 -61c-17.333 50 -57 75 -119 75c-25.333 0 -45.5 -5.16699 -60.5 -15.5
s-22.5 -24.833 -22.5 -43.5s8.83301 -32.834 26.5 -42.501s49.834 -17.834 96.501 -24.501c148 -18.667 222 -85 222 -199c0 -41.333 -11 -77.666 -33 -108.999s-52.5 -55.5 -91.5 -72.5s-83.5 -25.5 -133.5 -25.5c-76 0 -137.5 13.333 -184.5 40
s-78.5 65.334 -94.5 116.001l131 61c9.33301 -27.333 25.333 -48.833 48 -64.5s52.334 -23.5 89.001 -23.5c30.667 0 54.5 5.5 71.5 16.5s25.5 27.167 25.5 48.5c0 16 -3.83301 28.833 -11.5 38.5s-20.834 17.667 -39.501 24s-45.334 11.833 -80.001 16.5
c-70 8.66699 -123.167 29.5 -159.5 62.5zM300.002 706l83 94h144l-159 -200h-136l-159 200h144z" />
    <glyph glyph-name="uni0162" unicode="&#x162;" horiz-adv-x="718" 
d="M677 606h-223v-688h-190v688h-223v158h636v-158zM312 -112c52.667 -7.33301 92.5 -20.835 119.5 -40.502s40.5 -45.167 40.5 -76.5c0 -30 -11.5 -53.667 -34.5 -71s-54.167 -26 -93.5 -26c-15.333 0 -31.333 2 -48 6s-31 9 -43 15l18 65
c23.333 -10 44.666 -15 63.999 -15c30 0 45 10.333 45 31c0 12.667 -7.16699 23.334 -21.5 32.001s-34.166 14.334 -59.499 17.001z" />
    <glyph glyph-name="uni0163" unicode="&#x163;" horiz-adv-x="468" 
d="M291 414v-289c0 -50.667 25.333 -76 76 -76c24 0 44 2.66699 60 8v-137c-30.667 -10.667 -64 -16 -100 -16c-66 0 -117.667 19 -155 57s-56 90.333 -56 157v296h-83v136h83v144h175v-144h136v-136h-136zM211 -112c52.667 -7.33301 92.5 -20.835 119.5 -40.502
s40.5 -45.167 40.5 -76.5c0 -30 -11.5 -53.667 -34.5 -71s-54.167 -26 -93.5 -26c-15.333 0 -31.333 2 -48 6s-31 9 -43 15l18 65c23.333 -10 44.666 -15 63.999 -15c30 0 45 10.333 45 31c0 12.667 -7.16699 23.334 -21.5 32.001s-34.166 14.334 -59.499 17.001z" />
    <glyph glyph-name="Tcaron" unicode="&#x164;" horiz-adv-x="718" 
d="M677 606h-223v-688h-190v688h-223v158h636v-158zM352 926l83 94h144l-159 -200h-136l-159 200h144z" />
    <glyph glyph-name="tcaron" unicode="&#x165;" horiz-adv-x="468" 
d="M291 414v-289c0 -50.667 25.333 -76 76 -76c24 0 44 2.66699 60 8v-137c-30.667 -10.667 -64 -16 -100 -16c-66 0 -117.667 19 -155 57s-56 90.333 -56 157v296h-83v136h83v144h175v-144h136v-136h-136zM459 800l-30 -215h-103l12 215h121z" />
    <glyph glyph-name="Tbar" unicode="&#x166;" horiz-adv-x="717" 
d="M454 606v-170h133v-148h-133v-370h-190v370h-133v148h133v170h-223v158h636v-158h-223z" />
    <glyph glyph-name="tbar" unicode="&#x167;" horiz-adv-x="468" vert-adv-y="850" 
d="M291 414v-100h122v-136h-122v-53c0 -50.667 25.333 -76 76 -76c24 0 44 2.66699 60 8v-137c-30.667 -10.667 -64 -16 -100 -16c-66 0 -117.667 19 -155 57s-56 90.333 -56 157v59h-70v137h70v100h-83v136h83v144h175v-144h136v-136h-136z" />
    <glyph glyph-name="Utilde" unicode="&#x168;" horiz-adv-x="849" 
d="M735 55.5c-28.667 -48.333 -69.501 -85.5 -122.501 -111.5s-115.5 -39 -187.5 -39s-134.667 13 -188 39s-94.333 63.167 -123 111.5s-43 105.5 -43 171.5v537h180v-520c0 -62 14.333 -108.833 43 -140.5s70.334 -47.5 125.001 -47.5c112.667 0 169 62.667 169 188v520
h190v-537c0 -66 -14.333 -123.167 -43 -171.5zM241.999 964c22.667 27.333 54 41 94 41c23.333 0 43.166 -3.16699 59.499 -9.5s34.5 -15.5 54.5 -27.5c11.333 -7.33301 20.666 -12.666 27.999 -15.999s15 -5 23 -5c22.667 0 34 13.667 34 41h108
c-0.666992 -47.333 -12.334 -84.666 -35.001 -111.999s-54 -41 -94 -41c-23.333 0 -43.166 3.16699 -59.499 9.5s-34.5 15.5 -54.5 27.5c-11.333 7.33301 -20.666 12.666 -27.999 15.999s-15 5 -23 5c-22.667 0 -34 -13.667 -34 -41h-108
c0.666992 47.333 12.334 84.666 35.001 111.999z" />
    <glyph glyph-name="utilde" unicode="&#x169;" horiz-adv-x="726" 
d="M504 -82c0 3.33301 -0.833008 12.833 -2.5 28.5s-3.16699 34.167 -4.5 55.5c-47.333 -65.333 -119 -98 -215 -98c-66 0 -118.333 20.333 -157 61s-58 96.667 -58 168v417h175v-386c0 -76 36 -114 108 -114c40.667 0 72.667 13.167 96 39.5s35 62.5 35 108.5v352h175v-488
c0 -65.333 2 -113.333 6 -144h-158zM176 736c22.667 27.333 54 41.001 94 41.001c23.333 0 43.166 -3.16699 59.499 -9.5s34.5 -15.5 54.5 -27.5c11.333 -7.33301 20.666 -12.666 27.999 -15.999s15 -5 23 -5c22.667 0 34 13.333 34 40h108
c-0.666992 -47.333 -12.334 -84.5 -35.001 -111.5s-54 -40.5 -94 -40.5c-23.333 0 -43.166 3.16699 -59.499 9.5s-34.5 15.5 -54.5 27.5c-11.333 7.33301 -20.666 12.666 -27.999 15.999s-15 5 -23 5c-10.667 0 -19 -3.5 -25 -10.5s-9 -17.167 -9 -30.5h-108
c0.666992 47.333 12.334 84.666 35.001 111.999z" />
    <glyph glyph-name="Umacron" unicode="&#x16a;" horiz-adv-x="849" 
d="M735 55.5c-28.667 -48.333 -69.501 -85.5 -122.501 -111.5s-115.5 -39 -187.5 -39s-134.667 13 -188 39s-94.333 63.167 -123 111.5s-43 105.5 -43 171.5v537h180v-520c0 -62 14.333 -108.833 43 -140.5s70.334 -47.5 125.001 -47.5c112.667 0 169 62.667 169 188v520
h190v-537c0 -66 -14.333 -123.167 -43 -171.5zM247.999 988h354v-136h-354v136z" />
    <glyph glyph-name="umacron" unicode="&#x16b;" horiz-adv-x="726" 
d="M504 -82c0 3.33301 -0.833008 12.833 -2.5 28.5s-3.16699 34.167 -4.5 55.5c-47.333 -65.333 -119 -98 -215 -98c-66 0 -118.333 20.333 -157 61s-58 96.667 -58 168v417h175v-386c0 -76 36 -114 108 -114c40.667 0 72.667 13.167 96 39.5s35 62.5 35 108.5v352h175v-488
c0 -65.333 2 -113.333 6 -144h-158zM182 768h354v-136h-354v136z" />
    <glyph glyph-name="Ubreve" unicode="&#x16c;" horiz-adv-x="849" 
d="M735 55.5c-28.667 -48.333 -69.501 -85.5 -122.501 -111.5s-115.5 -39 -187.5 -39s-134.667 13 -188 39s-94.333 63.167 -123 111.5s-43 105.5 -43 171.5v537h180v-520c0 -62 14.333 -108.833 43 -140.5s70.334 -47.5 125.001 -47.5c112.667 0 169 62.667 169 188v520
h190v-537c0 -66 -14.333 -123.167 -43 -171.5zM274.499 864c-37 38 -55.5 90 -55.5 156h109c0 -34 8.16699 -60.333 24.5 -79s40.5 -28 72.5 -28s56.167 9.33301 72.5 28s24.5 45 24.5 79h109c0 -66 -18.5 -118 -55.5 -156s-87.167 -57 -150.5 -57s-113.5 19 -150.5 57z" />
    <glyph glyph-name="ubreve" unicode="&#x16d;" horiz-adv-x="726" 
d="M504 -82c0 3.33301 -0.833008 12.833 -2.5 28.5s-3.16699 34.167 -4.5 55.5c-47.333 -65.333 -119 -98 -215 -98c-66 0 -118.333 20.333 -157 61s-58 96.667 -58 168v417h175v-386c0 -76 36 -114 108 -114c40.667 0 72.667 13.167 96 39.5s35 62.5 35 108.5v352h175v-488
c0 -65.333 2 -113.333 6 -144h-158zM208.5 664c-37 38 -55.5 90 -55.5 156h109c0 -34 8.16699 -60.167 24.5 -78.5s40.5 -27.5 72.5 -27.5s56.167 9.16699 72.5 27.5s24.5 44.5 24.5 78.5h109c0 -66 -18.5 -118 -55.5 -156s-87.167 -57 -150.5 -57s-113.5 19 -150.5 57z" />
    <glyph glyph-name="Uring" unicode="&#x16e;" horiz-adv-x="849" 
d="M735 55.5c-28.667 -48.333 -69.501 -85.5 -122.501 -111.5s-115.5 -39 -187.5 -39s-134.667 13 -188 39s-94.333 63.167 -123 111.5s-43 105.5 -43 171.5v537h180v-520c0 -62 14.333 -108.833 43 -140.5s70.334 -47.5 125.001 -47.5c112.667 0 169 62.667 169 188v520
h190v-537c0 -66 -14.333 -123.167 -43 -171.5zM343.499 1001.5c21 21 48.167 31.5 81.5 31.5s60.666 -10.5 81.999 -31.5s32 -48.167 32 -81.5s-10.667 -60.5 -32 -81.5s-48.666 -31.5 -81.999 -31.5s-60.5 10.5 -81.5 31.5s-31.5 48.167 -31.5 81.5s10.5 60.5 31.5 81.5z
M392.499 886.5c9 -9 19.833 -13.5 32.5 -13.5c13.333 0 24.333 4.5 33 13.5s13 20.167 13 33.5s-4.33301 24.5 -13 33.5s-19.667 13.5 -33 13.5c-12.667 0 -23.5 -4.5 -32.5 -13.5s-13.5 -20.167 -13.5 -33.5s4.5 -24.5 13.5 -33.5z" />
    <glyph glyph-name="uring" unicode="&#x16f;" horiz-adv-x="726" 
d="M504 -82c0 3.33301 -0.833008 12.833 -2.5 28.5s-3.16699 34.167 -4.5 55.5c-47.333 -65.333 -119 -98 -215 -98c-66 0 -118.333 20.333 -157 61s-58 96.667 -58 168v417h175v-386c0 -76 36 -114 108 -114c40.667 0 72.667 13.167 96 39.5s35 62.5 35 108.5v352h175v-488
c0 -65.333 2 -113.333 6 -144h-158zM277.5 782c21 21.333 48.167 32 81.5 32s60.5 -10.667 81.5 -32s31.5 -48.666 31.5 -81.999s-10.5 -60.666 -31.5 -81.999s-48.167 -32 -81.5 -32s-60.5 10.667 -81.5 32s-31.5 48.666 -31.5 81.999s10.5 60.666 31.5 81.999zM326.5 666
c9 -9.33301 19.833 -14 32.5 -14s23.5 4.66699 32.5 14s13.5 20.666 13.5 33.999c0 14 -4.33301 25.5 -13 34.5s-19.667 13.5 -33 13.5c-12.667 0 -23.5 -4.5 -32.5 -13.5s-13.5 -20.5 -13.5 -34.5c0 -13.333 4.5 -24.666 13.5 -33.999z" />
    <glyph glyph-name="Uhungarumlaut" unicode="&#x170;" horiz-adv-x="849" 
d="M735 55.5c-28.667 -48.333 -69.501 -85.5 -122.501 -111.5s-115.5 -39 -187.5 -39s-134.667 13 -188 39s-94.333 63.167 -123 111.5s-43 105.5 -43 171.5v537h180v-520c0 -62 14.333 -108.833 43 -140.5s70.334 -47.5 125.001 -47.5c112.667 0 169 62.667 169 188v520
h190v-537c0 -66 -14.333 -123.167 -43 -171.5zM499.999 1020l-108 -200h-139l77 200h170zM704.999 1020l-108 -200h-139l78 200h169z" />
    <glyph glyph-name="uhungarumlaut" unicode="&#x171;" horiz-adv-x="726" 
d="M504 -82c0 3.33301 -0.833008 12.833 -2.5 28.5s-3.16699 34.167 -4.5 55.5c-47.333 -65.333 -119 -98 -215 -98c-66 0 -118.333 20.333 -157 61s-58 96.667 -58 168v417h175v-386c0 -76 36 -114 108 -114c40.667 0 72.667 13.167 96 39.5s35 62.5 35 108.5v352h175v-488
c0 -65.333 2 -113.333 6 -144h-158zM434 800l-108 -200h-139l77 200h170zM639 800l-108 -200h-139l78 200h169z" />
    <glyph glyph-name="Uogonek" unicode="&#x172;" horiz-adv-x="849" 
d="M778 764l-0.00292969 -537c0 -82 -21.667 -150 -65 -204s-104.333 -89.667 -183 -107c-62 -18.667 -93 -50.667 -93 -96c0 -17.333 5.66699 -31 17 -41s27 -15 47 -15c26 0 50.333 7 73 21l23 -81c-27.333 -20 -65.666 -30 -114.999 -30c-44 0 -79.667 11.5 -107 34.5
s-41 53.5 -41 91.5c0 39.333 14.333 75 43 107c-95.333 8.66699 -170.166 41.167 -224.499 97.5s-81.5 130.5 -81.5 222.5v537h180v-520c0 -62 14.333 -108.833 43 -140.5s70.334 -47.5 125.001 -47.5c112.667 0 169 62.667 169 188v520h190z" />
    <glyph glyph-name="uogonek" unicode="&#x173;" horiz-adv-x="726" 
d="M721 -296c-27.333 -20 -65.666 -29.999 -114.999 -29.999c-44 0 -79.667 11.5 -107 34.5s-41 53.5 -41 91.5c0 46 18 85.333 54 118h-8c0 3.33301 -0.833008 12.833 -2.5 28.5s-3.16699 34.167 -4.5 55.5c-47.333 -65.333 -119 -98 -215 -98
c-66 0 -118.333 20.333 -157 61s-58 96.667 -58 168v417h175v-386c0 -76 36 -114 108 -114c40.667 0 72.667 13.167 96 39.5s35 62.5 35 108.5v352h175v-488c0 -65.333 2 -113.333 6 -144c-67.333 -18.667 -101 -51.334 -101 -98.001c0 -17.333 5.66699 -31 17 -41
s27 -15 47 -15c25.333 0 49.666 7 72.999 21z" />
    <glyph glyph-name="Wcircumflex" unicode="&#x174;" horiz-adv-x="1155" 
d="M1131 764l-207 -846h-200l-146 615l-147 -615h-200l-206 846h198l117 -620l142 620h198l142 -621l119 621h190zM578 914l-83 -94h-144l159 200h136l159 -200h-144z" />
    <glyph glyph-name="wcircumflex" unicode="&#x175;" horiz-adv-x="1013" 
d="M984 550l-160 -632h-206l-112 474l-111 -474h-206l-159 632h176l89 -471l111 471h209l112 -471l88 471h169zM506 695l-83 -95h-144l159 200h136l159 -200h-144z" />
    <glyph glyph-name="Ycircumflex" unicode="&#x176;" horiz-adv-x="781" 
d="M486 244v-326h-190v324l-285 522h214l170 -370l170 370h206zM391 914l-83 -94h-144l159 200h136l159 -200h-144z" />
    <glyph glyph-name="ycircumflex" unicode="&#x177;" horiz-adv-x="696" 
d="M675 550l-308 -862h-196l106 213l-256 649h203l136 -475l126 475h189zM363 695l-83 -95h-144l159 200h136l159 -200h-144z" />
    <glyph glyph-name="Ydieresis" unicode="&#x178;" horiz-adv-x="781" 
d="M486 244v-326h-190v324l-285 522h214l170 -370l170 370h206zM188.5 993.5c18.333 18.333 42.5 27.5 72.5 27.5c30.667 0 55.167 -9.16699 73.5 -27.5s27.5 -42.5 27.5 -72.5c0 -30.667 -9.16699 -55.167 -27.5 -73.5s-42.833 -27.5 -73.5 -27.5
c-30 0 -54.167 9.16699 -72.5 27.5s-27.5 42.833 -27.5 73.5c0 30 9.16699 54.167 27.5 72.5zM447.5 993.5c18.333 18.333 42.833 27.5 73.5 27.5c30 0 54.167 -9.16699 72.5 -27.5s27.5 -42.5 27.5 -72.5c0 -30.667 -9.16699 -55.167 -27.5 -73.5s-42.5 -27.5 -72.5 -27.5
c-30.667 0 -55.167 9.16699 -73.5 27.5s-27.5 42.833 -27.5 73.5c0 30 9.16699 54.167 27.5 72.5z" />
    <glyph glyph-name="Zacute" unicode="&#x179;" horiz-adv-x="765" 
d="M715 76v-158h-665v115l419 573h-389v158h629v-116l-418 -572h424zM560 1020l-109 -200h-138l77 200h170z" />
    <glyph glyph-name="zacute" unicode="&#x17a;" horiz-adv-x="634" 
d="M585 55v-137h-536v108l312 388h-300v136h518v-108l-311 -387h317zM494 800l-109 -200h-138l77 200h170z" />
    <glyph glyph-name="Zdotaccent" unicode="&#x17b;" horiz-adv-x="765" 
d="M715 76v-158h-665v115l419 573h-389v158h629v-116l-418 -572h424zM309.5 993.5c18.333 18.333 42.5 27.5 72.5 27.5s54.167 -9.16699 72.5 -27.5s27.5 -42.5 27.5 -72.5c0 -30.667 -9.16699 -55.167 -27.5 -73.5s-42.5 -27.5 -72.5 -27.5s-54.167 9.16699 -72.5 27.5
s-27.5 42.833 -27.5 73.5c0 30 9.16699 54.167 27.5 72.5z" />
    <glyph glyph-name="zdotaccent" unicode="&#x17c;" horiz-adv-x="634" 
d="M585 55v-137h-536v108l312 388h-300v136h518v-108l-311 -387h317zM243.5 772.5c18.333 18.333 42.5 27.5 72.5 27.5s54.167 -9.16699 72.5 -27.5s27.5 -42.5 27.5 -72.5s-9.16699 -54.167 -27.5 -72.5s-42.5 -27.5 -72.5 -27.5s-54.167 9.16699 -72.5 27.5
s-27.5 42.5 -27.5 72.5s9.16699 54.167 27.5 72.5z" />
    <glyph glyph-name="Zcaron" unicode="&#x17d;" horiz-adv-x="765" 
d="M715 76v-158h-665v115l419 573h-389v158h629v-116l-418 -572h424zM382 926l83 94h144l-159 -200h-136l-159 200h144z" />
    <glyph glyph-name="zcaron" unicode="&#x17e;" horiz-adv-x="634" 
d="M585 55v-137h-536v108l312 388h-300v136h518v-108l-311 -387h317zM316 706l83 94h144l-159 -200h-136l-159 200h144z" />
    <glyph glyph-name="uni018F" unicode="&#x18f;" horiz-adv-x="905" vert-adv-y="850" 
d="M658.5 723.5c63 -37 111.166 -88.6699 144.499 -155.003s50 -142.166 50 -227.499c0 -86.667 -17.167 -163.167 -51.5 -229.5s-82.166 -117.666 -143.499 -153.999s-131 -54.5 -209 -54.5c-81.333 0 -151.833 18.333 -211.5 55s-105.5 88 -137.5 154s-48 142.333 -48 229
c0 18 1.33301 34.333 4 49h605c-6 74.667 -29 132.334 -69 173.001s-92 61 -156 61c-98.667 0 -163 -39 -193 -117l-165 76c28 61.333 71.667 109.333 131 144s134 52 224 52c87.333 0 162.5 -18.5 225.5 -55.5zM581.999 108.997c36.667 34 61 80.667 73 140h-407
c10 -58.667 32.5 -105.167 67.5 -139.5s79.833 -51.5 134.5 -51.5c51.333 0 95.333 17 132 51z" />
    <glyph glyph-name="florin" unicode="&#x192;" 
d="M420 276c32.667 -52 58.667 -95.666 78 -130.999s36 -72.833 50 -112.5s21 -78.167 21 -115.5c0 -47.333 -11.667 -89.5 -35 -126.5s-56.166 -65.667 -98.499 -86s-90.5 -30.5 -144.5 -30.5c-74 0 -133.667 15.667 -179 47s-75 77.333 -89 138l151 71
c9.33301 -38.667 23.333 -66.834 42 -84.501s44.334 -26.5 77.001 -26.5c30 0 54.167 10.167 72.5 30.5s27.5 47.166 27.5 80.499c0 32 -9 66.667 -27 104s-46 86.666 -84 147.999c-24.667 38.667 -43.667 70 -57 94h-157v130h94c-17.333 46.667 -26 90 -26 130
c0 47.333 11.667 89.5 35 126.5s56.166 65.667 98.499 86s90.5 30.5 144.5 30.5c74 0 133.667 -15.667 179 -47s75 -77.333 89 -138l-151 -71c-9.33301 38.667 -23.333 66.834 -42 84.501s-44.334 26.5 -77.001 26.5c-30 0 -54.167 -10.167 -72.5 -30.5
s-27.5 -47.166 -27.5 -80.499c0 -32.667 11.333 -71.667 34 -117h215v-130h-141z" />
    <glyph glyph-name="uni0218" unicode="&#x218;" horiz-adv-x="730" 
d="M67 525c0 49.333 12.501 93.1719 37.501 131.505s60.667 68.166 107 89.499s100.5 32 162.5 32c81.333 0 148 -15.833 200 -47.5s87.333 -78.167 106 -139.5l-151 -69c-22.667 64.667 -72.667 97 -150 97c-40 0 -70.167 -7.33301 -90.5 -22s-30.5 -36 -30.5 -64
s11.167 -49.333 33.5 -64s61.833 -26.334 118.5 -35.001c98 -14.667 169.333 -43.5 214 -86.5s67 -103.167 67 -180.5c0 -50.667 -13.833 -95.834 -41.5 -135.501s-66 -70.834 -115 -93.501s-104.5 -34 -166.5 -34c-89.333 0 -162.5 17.333 -219.5 52
s-94.833 84.667 -113.5 150l151 70c11.333 -37.333 32.333 -65.5 63 -84.5s69.667 -28.5 117 -28.5c43.333 0 76.666 8.66699 99.999 26s35 41.666 35 72.999c0 30.667 -12.833 54.667 -38.5 72s-70.5 31.333 -134.5 42c-174 28 -261 111 -261 249zM446.001 -147.994
c0 -29.333 -4.33203 -66.999 -12.999 -112.999c-0.666992 -6 -2.33398 -16.667 -5.00098 -32l-3 -19h-139l3 19c2.66699 20.667 5.16699 45.167 7.5 73.5s3.5 52.166 3.5 71.499h146z" />
    <glyph glyph-name="uni0219" unicode="&#x219;" horiz-adv-x="604" 
d="M106.5 239.5c-36.333 33 -54.498 76.5 -54.498 130.5c0 38 10.667 71.667 32 101s50.666 52.333 87.999 69s79.666 25 126.999 25c68.667 0 125.5 -12.667 170.5 -38s74.5 -60.333 88.5 -105l-132 -61c-17.333 50 -57 75 -119 75c-25.333 0 -45.5 -5.16699 -60.5 -15.5
s-22.5 -24.833 -22.5 -43.5s8.83301 -32.834 26.5 -42.501s49.834 -17.834 96.501 -24.501c148 -18.667 222 -85 222 -199c0 -41.333 -11 -77.666 -33 -108.999s-52.5 -55.5 -91.5 -72.5s-83.5 -25.5 -133.5 -25.5c-76 0 -137.5 13.333 -184.5 40
s-78.5 65.334 -94.5 116.001l131 61c9.33301 -27.333 25.333 -48.833 48 -64.5s52.334 -23.5 89.001 -23.5c30.667 0 54.5 5.5 71.5 16.5s25.5 27.167 25.5 48.5c0 16 -3.83301 28.833 -11.5 38.5s-20.834 17.667 -39.501 24s-45.334 11.833 -80.001 16.5
c-70 8.66699 -123.167 29.5 -159.5 62.5zM381.002 -148c0 -29.333 -4.33203 -66.999 -12.999 -112.999c-0.666992 -6 -2.33398 -16.667 -5.00098 -32l-3 -19h-139l3 19c2.66699 20.667 5.16699 45.167 7.5 73.5s3.5 52.166 3.5 71.499h146z" />
    <glyph glyph-name="uni021A" unicode="&#x21a;" horiz-adv-x="718" 
d="M677 606h-223v-688h-190v688h-223v158h636v-158zM436 -148c0 -29.333 -4.33203 -66.999 -12.999 -112.999c-0.666992 -6 -2.33398 -16.667 -5.00098 -32l-3 -19h-139l3 19c2.66699 20.667 5.16699 45.167 7.5 73.5s3.5 52.166 3.5 71.499h146z" />
    <glyph glyph-name="uni021B" unicode="&#x21b;" horiz-adv-x="468" 
d="M291 414v-289c0 -50.667 25.333 -76 76 -76c24 0 44 2.66699 60 8v-137c-30.667 -10.667 -64 -16 -100 -16c-66 0 -117.667 19 -155 57s-56 90.333 -56 157v296h-83v136h83v144h175v-144h136v-136h-136zM335 -148c0 -29.333 -4.33203 -66.999 -12.999 -112.999
c-0.666992 -6 -2.33398 -16.667 -5.00098 -32l-3 -19h-139l3 19c2.66699 20.667 5.16699 45.167 7.5 73.5s3.5 52.166 3.5 71.499h146z" />
    <glyph glyph-name="uni0232" unicode="&#x232;" horiz-adv-x="781" 
d="M486 244v-326h-190v324l-285 522h214l170 -370l170 370h206zM214 988h354v-136h-354v136z" />
    <glyph glyph-name="uni0233" unicode="&#x233;" horiz-adv-x="696" 
d="M675 550l-308 -862h-196l106 213l-256 649h203l136 -475l126 475h189zM186 768h354v-136h-354v136z" />
    <glyph glyph-name="uni0237" unicode="&#x237;" horiz-adv-x="328" 
d="M195.5 -268.5c-37.667 -38.333 -89.501 -57.501 -155.501 -57.501c-37.333 0 -70.666 5.66699 -99.999 17v137c14 -6 33.667 -9 59 -9s44.5 6.5 57.5 19.5s19.5 32.167 19.5 57.5v654h176v-660c0 -67.333 -18.833 -120.166 -56.5 -158.499z" />
    <glyph glyph-name="uni0259" unicode="&#x259;" horiz-adv-x="694" vert-adv-y="850" 
d="M497 523c49.333 -28 86.999 -66.833 112.999 -116.5s39 -106.834 39 -171.501s-13.333 -122 -40 -172s-63 -89 -109 -117s-97.667 -42 -155 -42c-61.333 0 -114.666 13.667 -159.999 41s-80 66 -104 116s-36 108 -36 174c0 18.667 1.33301 35.334 4 50.001h422
c-5.33301 48 -20.833 84.167 -46.5 108.5s-58.5 36.5 -98.5 36.5c-58.667 0 -98.667 -28.333 -120 -85l-145 69c18.667 46.667 49.5 83.5 92.5 110.5s99.5 40.5 169.5 40.5c66.667 0 124.667 -14 174 -42zM426.499 72c21.667 21.333 35.833 52.333 42.5 93h-245
c10.667 -83.333 51.667 -125 123 -125c31.333 0 57.833 10.667 79.5 32z" />
    <glyph glyph-name="circumflex" unicode="&#x2c6;" horiz-adv-x="600" 
d="M300 695l-83 -95h-144l159 200h136l159 -200h-144z" />
    <glyph glyph-name="caron" unicode="&#x2c7;" horiz-adv-x="600" 
d="M300 706l83 94h144l-159 -200h-136l-159 200h144z" />
    <glyph glyph-name="breve" unicode="&#x2d8;" horiz-adv-x="600" 
d="M149.5 644c-37 38 -55.5 90 -55.5 156h109c0 -34 8.16699 -60.167 24.5 -78.5s40.5 -27.5 72.5 -27.5s56.167 9.16699 72.5 27.5s24.5 44.5 24.5 78.5h109c0 -66 -18.5 -118 -55.5 -156s-87.167 -57 -150.5 -57s-113.5 19 -150.5 57z" />
    <glyph glyph-name="dotaccent" unicode="&#x2d9;" horiz-adv-x="600" 
d="M227.5 772.5c18.333 18.333 42.5 27.5 72.5 27.5s54.167 -9.16699 72.5 -27.5s27.5 -42.5 27.5 -72.5s-9.16699 -54.167 -27.5 -72.5s-42.5 -27.5 -72.5 -27.5s-54.167 9.16699 -72.5 27.5s-27.5 42.5 -27.5 72.5s9.16699 54.167 27.5 72.5z" />
    <glyph glyph-name="ring" unicode="&#x2da;" horiz-adv-x="600" 
d="M218.5 782c21 21.333 48.167 32 81.5 32s60.5 -10.667 81.5 -32s31.5 -48.666 31.5 -81.999s-10.5 -60.666 -31.5 -81.999s-48.167 -32 -81.5 -32s-60.5 10.667 -81.5 32s-31.5 48.666 -31.5 81.999s10.5 60.666 31.5 81.999zM267.5 666c9 -9.33301 19.833 -14 32.5 -14
s23.5 4.66699 32.5 14s13.5 20.666 13.5 33.999c0 14 -4.33301 25.5 -13 34.5s-19.667 13.5 -33 13.5c-12.667 0 -23.5 -4.5 -32.5 -13.5s-13.5 -20.5 -13.5 -34.5c0 -13.333 4.5 -24.666 13.5 -33.999z" />
    <glyph glyph-name="ogonek" unicode="&#x2db;" horiz-adv-x="600" 
d="M300 -82c-67.333 -18.667 -101.001 -51.333 -101.001 -98c0 -17.333 5.66699 -31 17 -41s27 -15 47 -15c26 0 50.333 7 73 21l23 -81c-27.333 -20 -65.666 -30 -114.999 -30c-44 0 -79.667 11.5 -107 34.5s-41 53.5 -41 91.5c0 77.333 54.333 139 163 185z" />
    <glyph glyph-name="tilde" unicode="&#x2dc;" horiz-adv-x="600" 
d="M117 736c22.667 27.333 54 41.001 94 41.001c23.333 0 43.166 -3.16699 59.499 -9.5s34.5 -15.5 54.5 -27.5c11.333 -7.33301 20.666 -12.666 27.999 -15.999s15 -5 23 -5c22.667 0 34 13.333 34 40h108c-0.666992 -47.333 -12.334 -84.5 -35.001 -111.5
s-54 -40.5 -94 -40.5c-23.333 0 -43.166 3.16699 -59.499 9.5s-34.5 15.5 -54.5 27.5c-11.333 7.33301 -20.666 12.666 -27.999 15.999s-15 5 -23 5c-10.667 0 -19 -3.5 -25 -10.5s-9 -17.167 -9 -30.5h-108c0.666992 47.333 12.334 84.666 35.001 111.999z" />
    <glyph glyph-name="hungarumlaut" unicode="&#x2dd;" horiz-adv-x="600" 
d="M375 800l-108 -200h-139l77 200h170zM580 800l-108 -200h-139l78 200h169z" />
    <glyph glyph-name="alpha" unicode="&#x3b1;" horiz-adv-x="844" 
d="M813 45l-0.00292969 -122.996c-5.33301 -3.33301 -14.666 -6 -27.999 -8s-24.666 -3 -33.999 -3c-37.333 0 -69.833 8.16699 -97.5 24.5s-51.834 41.166 -72.501 74.499c-29.333 -37.333 -63.833 -64.333 -103.5 -81s-86.167 -25 -139.5 -25
c-58 0 -109.167 13.667 -153.5 41s-78.666 66.166 -102.999 116.499s-36.5 108.166 -36.5 173.499s12.333 123 37 173s59.167 88.667 103.5 116s95.166 41 152.499 41c97.333 0 175 -31 233 -93c10 31.333 19.333 57.333 28 78h178
c-13.333 -35.333 -29.666 -83.166 -48.999 -143.499s-33.666 -110.833 -42.999 -151.5l-4 -16c2.66699 -12 5 -21 7 -27c10.667 -44.667 19.5 -77.834 26.5 -99.501s15.833 -39.334 26.5 -53.001s24.667 -20.5 42 -20.5c11.333 0 21.333 2 30 6zM425.497 64.0039
c19 16.667 34.001 38.167 45.001 64.5s21.833 59.833 32.5 100.5c-10.667 44 -21.334 79.833 -32.001 107.5s-25.667 50 -45 67s-44 25.5 -74 25.5c-24 0 -46 -8.16699 -66 -24.5s-35.833 -39.333 -47.5 -69s-17.5 -63.5 -17.5 -101.5s5.83301 -71.833 17.5 -101.5
s27.5 -52.667 47.5 -69s42 -24.5 66 -24.5c30 0 54.5 8.33301 73.5 25z" />
    <glyph glyph-name="uni0400" unicode="&#x400;" horiz-adv-x="681" 
d="M265 606v-165h328v-158h-328v-207h352v-158h-542v846h542v-158h-352zM427 820h-138l-109 200h170z" />
    <glyph glyph-name="uni0401" unicode="&#x401;" horiz-adv-x="666" 
d="M265 606v-165h328v-158h-328v-207h352v-158h-542v846h542v-158h-352zM146.5 993.5c18.333 18.333 42.5 27.5 72.5 27.5c30.667 0 55.167 -9.16699 73.5 -27.5s27.5 -42.5 27.5 -72.5c0 -30.667 -9.16699 -55.167 -27.5 -73.5s-42.833 -27.5 -73.5 -27.5
c-30 0 -54.167 9.16699 -72.5 27.5s-27.5 42.833 -27.5 73.5c0 30 9.16699 54.167 27.5 72.5zM405.5 993.5c18.333 18.333 42.833 27.5 73.5 27.5c30 0 54.167 -9.16699 72.5 -27.5s27.5 -42.5 27.5 -72.5c0 -30.667 -9.16699 -55.167 -27.5 -73.5s-42.5 -27.5 -72.5 -27.5
c-30.667 0 -55.167 9.16699 -73.5 27.5s-27.5 42.833 -27.5 73.5c0 30 9.16699 54.167 27.5 72.5z" />
    <glyph glyph-name="uni0402" unicode="&#x402;" horiz-adv-x="970" 
d="M790 398.5c40 -23 71.167 -56.332 93.5 -99.999s33.5 -95.834 33.5 -156.501c0 -91.333 -25.333 -161.833 -76 -211.5s-122.334 -74.5 -215.001 -74.5c-20 0 -45.333 2 -76 6v160c15.333 -4 33 -6 53 -6c38 0 67 11.333 87 34s30 55.667 30 99c0 38 -11 68.333 -33 91
s-52.667 34 -92 34c-43.333 0 -77.666 -14.333 -102.999 -43s-38 -67.667 -38 -117v-196h-190v688h-223v158h635v-158h-222v-253c46.667 53.333 112.667 80 198 80c52 0 98 -11.5 138 -34.5z" />
    <glyph glyph-name="uni0403" unicode="&#x403;" horiz-adv-x="646" 
d="M605 606h-340v-688h-190v846h530v-158zM507 1020l-109 -200h-138l77 200h170z" />
    <glyph glyph-name="uni0404" unicode="&#x404;" horiz-adv-x="810" 
d="M621 186l155.997 -71.999c-19.333 -66.667 -56.833 -118.5 -112.5 -155.5s-125.5 -55.5 -209.5 -55.5c-80 0 -150.667 18.167 -212 54.5s-108.833 87.666 -142.5 153.999s-50.5 142.833 -50.5 229.5s16.833 163 50.5 229s81.167 117.167 142.5 153.5s132 54.5 212 54.5
c84 0 153.833 -18.5 209.5 -55.5s93.167 -88.833 112.5 -155.5l-156 -72c-24.667 87.333 -81.334 131 -170.001 131c-51.333 0 -95.166 -18 -131.499 -54s-60.166 -85 -71.499 -147h319v-158h-321c10.667 -64.667 34.334 -116 71.001 -154s81.334 -57 134.001 -57
c89.333 0 146 43.333 170 130z" />
    <glyph glyph-name="uni0405" unicode="&#x405;" horiz-adv-x="731" 
d="M67 525c0 49.333 12.501 93.1719 37.501 131.505s60.667 68.166 107 89.499s100.5 32 162.5 32c81.333 0 148 -15.833 200 -47.5s87.333 -78.167 106 -139.5l-151 -69c-22.667 64.667 -72.667 97 -150 97c-40 0 -70.167 -7.33301 -90.5 -22s-30.5 -36 -30.5 -64
s11.167 -49.333 33.5 -64s61.833 -26.334 118.5 -35.001c98 -14.667 169.333 -43.5 214 -86.5s67 -103.167 67 -180.5c0 -50.667 -13.833 -95.834 -41.5 -135.501s-66 -70.834 -115 -93.501s-104.5 -34 -166.5 -34c-89.333 0 -162.5 17.333 -219.5 52
s-94.833 84.667 -113.5 150l151 70c11.333 -37.333 32.333 -65.5 63 -84.5s69.667 -28.5 117 -28.5c43.333 0 76.666 8.66699 99.999 26s35 41.666 35 72.999c0 30.667 -12.833 54.667 -38.5 72s-70.5 31.333 -134.5 42c-174 28 -261 111 -261 249z" />
    <glyph glyph-name="uni0406" unicode="&#x406;" horiz-adv-x="353" 
d="M271 764v-846h-190v846h190z" />
    <glyph glyph-name="uni0407" unicode="&#x407;" horiz-adv-x="353" 
d="M271 764v-846h-190v846h190zM-26.5 993.5c18.333 18.333 42.5 27.5 72.5 27.5c30.667 0 55.167 -9.16699 73.5 -27.5s27.5 -42.5 27.5 -72.5c0 -30.667 -9.16699 -55.167 -27.5 -73.5s-42.833 -27.5 -73.5 -27.5c-30 0 -54.167 9.16699 -72.5 27.5
s-27.5 42.833 -27.5 73.5c0 30 9.16699 54.167 27.5 72.5zM232.5 993.5c18.333 18.333 42.833 27.5 73.5 27.5c30 0 54.167 -9.16699 72.5 -27.5s27.5 -42.5 27.5 -72.5c0 -30.667 -9.16699 -55.167 -27.5 -73.5s-42.5 -27.5 -72.5 -27.5
c-30.667 0 -55.167 9.16699 -73.5 27.5s-27.5 42.833 -27.5 73.5c0 30 9.16699 54.167 27.5 72.5z" />
    <glyph glyph-name="uni0408" unicode="&#x408;" horiz-adv-x="611" 
d="M469 -29.5c-46 -44.333 -110 -66.501 -192 -66.501c-74 0 -131.167 14.667 -171.5 44s-66.833 69.333 -79.5 120l141 66c11.333 -56.667 42.333 -85 93 -85c29.333 0 51.333 8.33301 66 25s22 40.334 22 71.001v619h190v-604c0 -82 -23 -145.167 -69 -189.5z" />
    <glyph glyph-name="uni0409" unicode="&#x409;" horiz-adv-x="1269" 
d="M1104.5 407.5c39.667 -21.667 70.335 -52.3311 92.002 -91.998s32.5 -85.167 32.5 -136.5s-10.833 -96.833 -32.5 -136.5s-52.334 -70.334 -92.001 -92.001s-85.5 -32.5 -137.5 -32.5h-373v688h-209l-53 -511c-6 -62.667 -26.5 -110.167 -61.5 -142.5
s-83.167 -48.5 -144.5 -48.5c-18.667 0 -37.334 2.16699 -56.001 6.5s-32.667 9.16602 -42 14.499v141c16 -7.33301 33.667 -11 53 -11c38.667 0 60.667 21.667 66 65l65 644h572v-324h183c52 0 97.833 -10.833 137.5 -32.5zM1008 94.0029c20.667 20 31 48.333 31 85
s-10.333 65 -31 85s-50 30 -88 30h-136v-230h136c38 0 67.333 10 88 30z" />
    <glyph glyph-name="uni040A" unicode="&#x40a;" horiz-adv-x="1278" 
d="M1113.5 407.5c39.667 -21.667 70.334 -52.332 92.001 -91.999s32.5 -85.167 32.5 -136.5s-10.833 -96.833 -32.5 -136.5s-52.334 -70.334 -92.001 -92.001s-85.5 -32.5 -137.5 -32.5h-373v364h-339v-364h-189v846h189v-324h339v324h190v-324h183
c52 0 97.833 -10.833 137.5 -32.5zM1017 94.002c20.667 20 31 48.333 31 85s-10.333 65 -31 85s-50 30 -88 30h-136v-230h136c38 0 67.333 10 88 30z" />
    <glyph glyph-name="uni040B" unicode="&#x40b;" horiz-adv-x="966" 
d="M836 368.5c43.333 -43 65.002 -104.167 65.002 -183.5v-267h-190v232c0 82.667 -39 124 -117 124c-43.333 0 -77.5 -14.333 -102.5 -43s-37.5 -67.667 -37.5 -117v-196h-190v688h-223v158h635v-158h-222v-253c24 27.333 52.167 47.5 84.5 60.5s70.166 19.5 113.499 19.5
c79.333 0 140.666 -21.5 183.999 -64.5z" />
    <glyph glyph-name="uni040C" unicode="&#x40c;" horiz-adv-x="792" 
d="M561 -82l-296 420v-420h-190v846h190v-377l268 377h223l-303 -397l340 -449h-232zM574 1020l-109 -200h-138l77 200h170z" />
    <glyph glyph-name="uni040D" unicode="&#x40d;" horiz-adv-x="866" 
d="M497 814h-138l-109 200h170zM791 -82h-189v531l-321 -531h-206v846h189v-533l321 533h206v-846z" />
    <glyph glyph-name="uni040E" unicode="&#x40e;" horiz-adv-x="759" 
d="M770 764l-323.003 -661c-25.333 -52.667 -50.166 -93.167 -74.499 -121.5s-51.166 -48.333 -80.499 -60s-65 -17.5 -107 -17.5c-24 0 -46.333 2 -67 6s-37 9.33301 -49 16v140c22 -7.33301 48 -11 78 -11c24 0 44.333 5.33301 61 16s32.334 29 47.001 55l49 84l-293 554
h213l175 -397l170 397h201zM229.497 864c-37 38 -55.5 90 -55.5 156h109c0 -34 8.16699 -60.333 24.5 -79s40.5 -28 72.5 -28s56.167 9.33301 72.5 28s24.5 45 24.5 79h109c0 -66 -18.5 -118 -55.5 -156s-87.167 -57 -150.5 -57s-113.5 19 -150.5 57z" />
    <glyph glyph-name="uni040F" unicode="&#x40f;" horiz-adv-x="870" 
d="M795 764v-846h-281v-135h-158v135h-281v846h190v-688h340v688h190z" />
    <glyph glyph-name="uni0410" unicode="&#x410;" horiz-adv-x="829" 
d="M548 117h-277l-56 -199h-195l274 846h241l274 -846h-205zM505 274l-95 340l-96 -340h191z" />
    <glyph glyph-name="uni0411" unicode="&#x411;" horiz-adv-x="752" 
d="M585.5 407.5c39.667 -21.667 70.334 -52.332 92.001 -91.999s32.5 -85.167 32.5 -136.5s-10.833 -96.833 -32.5 -136.5s-52.334 -70.334 -92.001 -92.001s-85.5 -32.5 -137.5 -32.5h-373v846h530v-158h-340v-166h183c52 0 97.833 -10.833 137.5 -32.5zM489 94.002
c20.667 20 31 48.333 31 85s-10.333 65 -31 85s-50 30 -88 30h-136v-230h136c38 0 67.333 10 88 30z" />
    <glyph glyph-name="uni0412" unicode="&#x412;" horiz-adv-x="769" 
d="M685 289.5c28.667 -35 42.999 -78.833 42.999 -131.5c0 -47.333 -10 -89.166 -30 -125.499s-48.333 -64.5 -85 -84.5s-79 -30 -127 -30h-411v846h398c44 0 82.833 -9.16699 116.5 -27.5s59.834 -44.333 78.501 -78s28 -72.5 28 -116.5
c0 -44.667 -11.5 -82.334 -34.5 -113.001s-54.167 -53 -93.5 -67c49.333 -13.333 88.333 -37.5 117 -72.5zM264.999 619v-190.001h140c31.333 0 55.833 8.16699 73.5 24.5s26.5 39.5 26.5 69.5c0 30.667 -8.83301 54.334 -26.5 71.001s-42.167 25 -73.5 25h-140z
M506.999 91.499c20.667 19 31 46.167 31 81.5s-10.333 62.5 -31 81.5s-49.667 28.5 -87 28.5h-155v-220h155c37.333 0 66.333 9.5 87 28.5z" />
    <glyph glyph-name="uni0413" unicode="&#x413;" horiz-adv-x="646" 
d="M605 606h-340v-688h-190v846h530v-158z" />
    <glyph glyph-name="uni0414" unicode="&#x414;" horiz-adv-x="925" 
d="M895 76v-293h-158v135h-549v-135h-158v293h56c38.667 0 60.667 22 66 66l63 622h557v-688h123zM582 76v530h-195l-45 -446c-2.66699 -28.667 -9.66699 -56.667 -21 -84h261z" />
    <glyph glyph-name="uni0415" unicode="&#x415;" horiz-adv-x="681" 
d="M265 606v-165h328v-158h-328v-207h352v-158h-542v846h542v-158h-352z" />
    <glyph glyph-name="uni0416" unicode="&#x416;" horiz-adv-x="1214" 
d="M966 -82l-264 408v-408h-190v408l-263 -408h-230l312 448l-275 398h221l235 -364v364h190v-365l236 365h221l-275 -398l311 -448h-229z" />
    <glyph glyph-name="uni0417" unicode="&#x417;" horiz-adv-x="740" 
d="M657 282c27.333 -37.333 41 -82.334 41 -135.001c0 -45.333 -13 -86.333 -39 -123s-63.333 -65.834 -112 -87.501s-105.667 -32.5 -171 -32.5c-92 0 -166.667 16.667 -224 50s-97.666 84 -120.999 152l152 71c12.667 -38.667 33.5 -67.334 62.5 -86.001
s67.167 -28 114.5 -28c45.333 0 81.333 10 108 30s40 47 40 81c0 35.333 -10.167 62.5 -30.5 81.5s-49.833 28.5 -88.5 28.5h-155v142h139c33.333 0 58.666 7.83301 75.999 23.5s26 38.834 26 69.501c0 31.333 -10 55.833 -30 73.5s-48.667 26.5 -86 26.5
c-76 0 -125.333 -33.667 -148 -101l-152 71c42 126 148.667 189 320 189c56 0 105.667 -9.66699 149 -29s77.166 -46.166 101.499 -80.499s36.5 -73.5 36.5 -117.5c0 -45.333 -10.667 -84.166 -32 -116.499s-51.666 -56.5 -90.999 -72.5c48.667 -16 86.667 -42.667 114 -80z
" />
    <glyph glyph-name="uni0418" unicode="&#x418;" horiz-adv-x="866" 
d="M791 -82h-189v531l-321 -531h-206v846h189v-533l321 533h206v-846z" />
    <glyph glyph-name="uni0419" unicode="&#x419;" horiz-adv-x="845" 
d="M791 -82h-189v531l-321 -531h-206v846h189v-533l321 533h206v-846zM272.5 864c-37 38 -55.5 90 -55.5 156h109c0 -34 8.16699 -60.333 24.5 -79s40.5 -28 72.5 -28s56.167 9.33301 72.5 28s24.5 45 24.5 79h109c0 -66 -18.5 -118 -55.5 -156s-87.167 -57 -150.5 -57
s-113.5 19 -150.5 57z" />
    <glyph glyph-name="uni041A" unicode="&#x41a;" horiz-adv-x="792" 
d="M561 -82l-296 420v-420h-190v846h190v-377l268 377h223l-303 -397l340 -449h-232z" />
    <glyph glyph-name="uni041B" unicode="&#x41b;" horiz-adv-x="845" 
d="M770 -82l-189.999 0.000976562v688h-195l-53 -511c-6 -62.667 -26.5 -110.167 -61.5 -142.5s-83.167 -48.5 -144.5 -48.5c-18.667 0 -37.334 2.16699 -56.001 6.5s-32.667 9.16602 -42 14.499v141c16 -7.33301 33.667 -11 53 -11c38.667 0 60.667 21.667 66 65l65 644
h558v-846z" />
    <glyph glyph-name="uni041C" unicode="&#x41c;" horiz-adv-x="1063" 
d="M988 -82h-190v592l-173 -592h-207l-172 591v-591h-171v846h274l179 -622l179 622h281v-846z" />
    <glyph glyph-name="uni041D" unicode="&#x41d;" horiz-adv-x="869" 
d="M794 764v-846h-190v365h-339v-365h-190v846h190v-323h339v323h190z" />
    <glyph glyph-name="uni041E" unicode="&#x41e;" horiz-adv-x="903" 
d="M801.5 112c-33.667 -66 -80.834 -117.165 -141.501 -153.498s-130.334 -54.5 -209.001 -54.5s-148.334 18.167 -209.001 54.5s-107.834 87.666 -141.501 153.999s-50.5 142.5 -50.5 228.5s16.833 162.167 50.5 228.5s80.834 117.666 141.501 153.999
s130.334 54.5 209.001 54.5s148.334 -18.167 209.001 -54.5s107.834 -87.5 141.501 -153.5s50.5 -142.333 50.5 -229s-16.833 -163 -50.5 -229zM266.5 192.002c17.667 -43.333 42.5 -76.833 74.5 -100.5s68.667 -35.5 110 -35.5s78 11.833 110 35.5s56.833 57 74.5 100
s26.5 92.833 26.5 149.5s-8.83301 106.5 -26.5 149.5s-42.5 76.333 -74.5 100s-68.667 35.5 -110 35.5s-78 -11.833 -110 -35.5s-56.833 -57.167 -74.5 -100.5s-26.5 -93 -26.5 -149s8.83301 -105.667 26.5 -149z" />
    <glyph glyph-name="uni041F" unicode="&#x41f;" horiz-adv-x="869" 
d="M794 -82h-190v688h-339v-688h-190v846h719v-846z" />
    <glyph glyph-name="uni0420" unicode="&#x420;" horiz-adv-x="736" 
d="M561 729c42.667 -23.333 75.834 -56.333 99.501 -99s35.5 -91.667 35.5 -147c0 -56 -11.833 -105.333 -35.5 -148s-56.834 -75.667 -99.501 -99s-92 -35 -148 -35h-148v-283h-190v846h338c56 0 105.333 -11.667 148 -35zM469 381.5c24.667 23.667 37 57.5 37 101.5
s-12.333 77.667 -37 101s-59.334 35 -104.001 35h-100v-273h100c44.667 0 79.334 11.833 104.001 35.5z" />
    <glyph glyph-name="uni0421" unicode="&#x421;" horiz-adv-x="810" 
d="M266.5 192c17.667 -43.333 42.501 -76.832 74.501 -100.499s68.667 -35.5 110 -35.5c89.333 0 146 43.333 170 130l156 -72c-19.333 -66.667 -56.833 -118.5 -112.5 -155.5s-125.5 -55.5 -209.5 -55.5c-80 0 -150.667 18.167 -212 54.5s-108.833 87.666 -142.5 153.999
s-50.5 142.833 -50.5 229.5s16.833 163 50.5 229s81.167 117.167 142.5 153.5s132 54.5 212 54.5c84 0 153.833 -18.5 209.5 -55.5s93.167 -88.833 112.5 -155.5l-156 -72c-24.667 87.333 -81.334 131 -170.001 131c-41.333 0 -78 -12 -110 -36s-56.833 -57.5 -74.5 -100.5
s-26.5 -92.5 -26.5 -148.5s8.83301 -105.667 26.5 -149z" />
    <glyph glyph-name="uni0422" unicode="&#x422;" horiz-adv-x="717" 
d="M676 606h-222v-688h-190v688h-223v158h635v-158z" />
    <glyph glyph-name="uni0423" unicode="&#x423;" horiz-adv-x="780" 
d="M770 764l-323.003 -661c-25.333 -52.667 -50.166 -93.167 -74.499 -121.5s-51.166 -48.333 -80.499 -60s-65 -17.5 -107 -17.5c-24 0 -46.333 2 -67 6s-37 9.33301 -49 16v140c22 -7.33301 48 -11 78 -11c24 0 44.333 5.33301 61 16s32.334 29 47.001 55l49 84l-293 554
h213l175 -397l170 397h201z" />
    <glyph glyph-name="uni0424" unicode="&#x424;" horiz-adv-x="1007" 
d="M829 587c42.667 -23.333 75.667 -56.333 99 -99s35 -91.667 35 -147s-11.667 -104.333 -35 -147s-56.333 -75.667 -99 -99s-92 -35 -148 -35h-82v-142h-190v142h-83c-56 0 -105.333 11.667 -148 35s-75.667 56.333 -99 99s-35 91.667 -35 147s11.667 104.333 35 147
s56.333 75.667 99 99s92 35 148 35h83v142h190v-142h82c56 0 105.333 -11.667 148 -35zM409 205v272h-35c-44.667 0 -79.167 -11.833 -103.5 -35.5s-36.5 -57.167 -36.5 -100.5s12.167 -76.833 36.5 -100.5s58.833 -35.5 103.5 -35.5h35zM737 240.5
c24.667 23.667 37 57.167 37 100.5s-12.333 76.833 -37 100.5s-59.334 35.5 -104.001 35.5h-34v-272h34c44.667 0 79.334 11.833 104.001 35.5z" />
    <glyph glyph-name="uni0425" unicode="&#x425;" horiz-adv-x="807" vert-adv-y="850" 
d="M569 -82l-171 316l-170 -316h-202l260 432l-252 414h220l155 -299l155 299h209l-253 -414l262 -432h-213z" />
    <glyph glyph-name="uni0426" unicode="&#x426;" horiz-adv-x="946" 
d="M915 -217h-158v135h-682v846h190v-688h339v688h189v-688h122v-293z" />
    <glyph glyph-name="uni0427" unicode="&#x427;" horiz-adv-x="773" 
d="M697 764v-846h-190v330c-46 -52.667 -112 -79 -198 -79c-79.333 0 -140.5 21.5 -183.5 64.5s-64.5 104.167 -64.5 183.5v347h189v-312c0 -82.667 39 -124 117 -124c44 0 78.333 14.167 103 42.5s37 67.5 37 117.5v276h190z" />
    <glyph glyph-name="uni0428" unicode="&#x428;" horiz-adv-x="1099" 
d="M1024 764v-846h-949v846h190v-688h190v688h190v-688h189v688h190z" />
    <glyph glyph-name="uni0429" unicode="&#x429;" horiz-adv-x="1177" 
d="M1146 -217h-158v135h-913v846h190v-688h190v688h190v-688h189v688h190v-688h122v-293z" />
    <glyph glyph-name="uni042A" unicode="&#x42a;" horiz-adv-x="938" 
d="M774.5 407.5c39.667 -21.667 70.334 -52.332 92.001 -91.999s32.5 -85.167 32.5 -136.5s-10.833 -96.833 -32.5 -136.5s-52.334 -70.334 -92.001 -92.001s-85.5 -32.5 -137.5 -32.5h-373v688h-223v158h413v-324h183c52 0 97.833 -10.833 137.5 -32.5zM678 94.002
c20.667 20 31 48.333 31 85s-10.333 65 -31 85s-50 30 -88 30h-136v-230h136c38 0 67.333 10 88 30z" />
    <glyph glyph-name="uni042B" unicode="&#x42b;" horiz-adv-x="1047" 
d="M585.5 407.5c39.667 -21.667 70.334 -52.332 92.001 -91.999s32.5 -85.167 32.5 -136.5s-10.833 -96.833 -32.5 -136.5s-52.334 -70.334 -92.001 -92.001s-85.5 -32.5 -137.5 -32.5h-373v846h190v-324h183c52 0 97.833 -10.833 137.5 -32.5zM971 764.002v-846h-190v846
h190zM489 94.002c20.667 20 31 48.333 31 85s-10.333 65 -31 85s-50 30 -88 30h-136v-230h136c38 0 67.333 10 88 30z" />
    <glyph glyph-name="uni042C" unicode="&#x42c;" horiz-adv-x="750" 
d="M585.5 407.5c39.667 -21.667 70.334 -52.332 92.001 -91.999s32.5 -85.167 32.5 -136.5s-10.833 -96.833 -32.5 -136.5s-52.334 -70.334 -92.001 -92.001s-85.5 -32.5 -137.5 -32.5h-373v846h190v-324h183c52 0 97.833 -10.833 137.5 -32.5zM489 94.002
c20.667 20 31 48.333 31 85s-10.333 65 -31 85s-50 30 -88 30h-136v-230h136c38 0 67.333 10 88 30z" />
    <glyph glyph-name="uni042D" unicode="&#x42d;" horiz-adv-x="810" 
d="M567 723.5c61.333 -36.333 108.83 -87.501 142.497 -153.501s50.5 -142.333 50.5 -229s-16.833 -163.167 -50.5 -229.5s-81.167 -117.666 -142.5 -153.999s-132 -54.5 -212 -54.5c-84 0 -153.833 18.5 -209.5 55.5s-93.167 88.833 -112.5 155.5l156 72
c24 -86.667 80.667 -130 170 -130c52.667 0 97.334 19 134.001 57s60.334 89.333 71.001 154h-321v158h319c-11.333 62 -35.166 111 -71.499 147s-80.166 54 -131.499 54c-88.667 0 -145.334 -43.667 -170.001 -131l-156 72c19.333 66.667 56.833 118.5 112.5 155.5
s125.5 55.5 209.5 55.5c80 0 150.667 -18.167 212 -54.5z" />
    <glyph glyph-name="uni042E" unicode="&#x42e;" horiz-adv-x="1224" 
d="M982 723.5c60.667 -36.333 107.835 -87.668 141.502 -154.001s50.5 -142.5 50.5 -228.5s-16.833 -162.167 -50.5 -228.5s-80.834 -117.666 -141.501 -153.999s-130.334 -54.5 -209.001 -54.5c-72.667 0 -137.834 15.5 -195.501 46.5s-104 75.167 -139 132.5
s-56.167 124 -63.5 200h-111v-365h-189v846h189v-323h116c12 68 36 127.5 72 178.5s81.5 90.167 136.5 117.5s116.5 41 184.5 41c78.667 0 148.334 -18.167 209.001 -54.5zM883.001 91.498c32 23.667 56.833 57.167 74.5 100.5s26.5 93 26.5 149s-8.83301 105.5 -26.5 148.5
s-42.5 76.5 -74.5 100.5s-68.667 36 -110 36s-78 -11.833 -110 -35.5s-56.833 -57.167 -74.5 -100.5s-26.5 -93 -26.5 -149s8.83301 -105.667 26.5 -149s42.5 -76.833 74.5 -100.5s68.667 -35.5 110 -35.5s78 11.833 110 35.5z" />
    <glyph glyph-name="uni042F" unicode="&#x42f;" horiz-adv-x="759" 
d="M685 -82h-189.999v312h-68l-192 -312h-226l223 325c-54.667 16.667 -97.5 47.334 -128.5 92.001s-46.5 98.667 -46.5 162c0 53.333 11.167 100.166 33.5 140.499s53.666 71.5 93.999 93.5s86.833 33 139.5 33h361v-846zM495.001 376v242h-123
c-40.667 0 -71.667 -10.333 -93 -31s-32 -50.667 -32 -90s10.667 -69.333 32 -90s52.333 -31 93 -31h123z" />
    <glyph glyph-name="uni0430" unicode="&#x430;" horiz-adv-x="752" 
d="M683 62c0 -65.333 1.33203 -113.334 3.99902 -144.001h-157c0 3.33301 -0.833008 13 -2.5 29s-3.16699 34.333 -4.5 55c-23.333 -31.333 -52.5 -55.5 -87.5 -72.5s-74.5 -25.5 -118.5 -25.5c-48.667 0 -93.834 13.833 -135.501 41.5s-74.834 66.5 -99.501 116.5
s-37 107.333 -37 172s12.333 122.167 37 172.5s57.834 89.333 99.501 117s86.834 41.5 135.501 41.5c44.667 0 84.334 -8.5 119.001 -25.5s63.667 -41.5 87 -73.5c1.33301 22 2.83301 40.833 4.5 56.5s2.5 24.834 2.5 27.501h157c-2.66699 -30.667 -4 -78.667 -4 -144v-344z
M467.499 92.499c26.333 35.667 39.5 82.834 39.5 141.501s-13.167 105.834 -39.5 141.501s-60.833 53.5 -103.5 53.5s-77.167 -17.833 -103.5 -53.5s-39.5 -82.834 -39.5 -141.501s13.167 -105.834 39.5 -141.501s60.833 -53.5 103.5 -53.5s77.167 17.833 103.5 53.5z" />
    <glyph glyph-name="uni0431" unicode="&#x431;" horiz-adv-x="732" 
d="M539 523.5c45.333 -27.667 81.335 -66.667 108.002 -117s40 -107.833 40 -172.5c0 -65.333 -13.667 -123 -41 -173s-65.166 -88.667 -113.499 -116s-102.833 -41 -163.5 -41c-62.667 0 -117.834 14.167 -165.501 42.5s-85 70.5 -112 126.5s-40.5 124.667 -40.5 206
c0 356.667 112.667 535 338 535c21.333 0 39.666 -1.16699 54.999 -3.5s33.333 -6.16602 54 -11.499c30.667 -7.33301 56.667 -11 78 -11c14.667 0 30.167 2.5 46.5 7.5s29.166 11.167 38.499 18.5v-127c-22 -23.333 -52 -35 -90 -35c-19.333 0 -37 1.66699 -53 5
s-25.333 5.33301 -28 6c-32 8 -60 12 -84 12c-52 0 -93 -17.333 -123 -52s-52.667 -85.334 -68 -152.001c44 62.667 102.333 94 175 94c54 0 103.667 -13.833 149 -41.5zM472.002 92.5c26 35.667 39 82.834 39 141.501s-13 105.834 -39 141.501s-60.333 53.5 -103 53.5
s-77 -17.833 -103 -53.5s-39 -82.834 -39 -141.501s13 -105.834 39 -141.501s60.333 -53.5 103 -53.5s77 17.833 103 53.5z" />
    <glyph glyph-name="uni0432" unicode="&#x432;" horiz-adv-x="672" 
d="M607 192.5c18 -24.333 27 -54.168 27 -89.501c0 -55.333 -17 -100 -51 -134s-78.667 -51 -134 -51h-379v632h360c53.333 0 96 -16 128 -48s48 -74.667 48 -128c0 -29.333 -6.5 -54.666 -19.5 -75.999s-31.167 -38.333 -54.5 -51c32 -12 57 -30.167 75 -54.5zM246 423.998
v-121.001h120c20 0 35.667 5.33301 47 16s17 25.334 17 44.001c0 19.333 -5.66699 34.333 -17 45s-27 16 -47 16h-120zM438.5 62.4971c13 11.667 19.5 28.833 19.5 51.5c0 22 -6.5 38.833 -19.5 50.5s-31.167 17.5 -54.5 17.5h-138v-137h138
c23.333 0 41.5 5.83301 54.5 17.5z" />
    <glyph glyph-name="uni0433" unicode="&#x433;" horiz-adv-x="473" 
d="M441 414h-195v-496h-176v632h371v-136z" />
    <glyph glyph-name="uni0434" unicode="&#x434;" horiz-adv-x="772" 
d="M762 -217h-136.999v135h-479v-135h-136v271h67c31.333 0 48.666 17.667 51.999 53l44 443h488v-496h101v-271zM485.001 54l0.000976562 360h-153l-28 -278c-2.66699 -30.667 -10.334 -58 -23.001 -82h204z" />
    <glyph glyph-name="uni0435" unicode="&#x435;" horiz-adv-x="694" 
d="M645 184h-421.999c5.33301 -48 20.833 -84.167 46.5 -108.5s58.5 -36.5 98.5 -36.5c58.667 0 98.667 28.333 120 85l145 -69c-18.667 -46.667 -49.5 -83.5 -92.5 -110.5s-99.5 -40.5 -169.5 -40.5c-66.667 0 -124.667 14 -174 42s-87 66.833 -113 116.5
s-39 106.834 -39 171.501s13.333 122 40 172s63 89 109 117s97.667 42 155 42c61.333 0 114.666 -13.667 159.999 -41s80 -66 104 -116s36 -108 36 -174c0 -18.667 -1.33301 -35.334 -4 -50.001zM267.501 397c-21.667 -21.333 -35.833 -52.333 -42.5 -93h245
c-10.667 83.333 -51.667 125 -123 125c-31.333 0 -57.833 -10.667 -79.5 -32z" />
    <glyph glyph-name="uni0436" unicode="&#x436;" horiz-adv-x="1007" 
d="M772 -82l-181 300v-300h-175v300l-180 -300h-214l227 333l-204 299h199l172 -268v268h175v-268l172 268h198l-203 -299l227 -333h-213z" />
    <glyph glyph-name="uni0437" unicode="&#x437;" horiz-adv-x="588" 
d="M521 192c19.333 -26.667 29.001 -58.9951 29.001 -96.9951c0 -37.333 -10.167 -70.5 -30.5 -99.5s-50 -51.5 -89 -67.5s-85.5 -24 -139.5 -24c-72 0 -128.333 12.667 -169 38s-71.334 64 -92.001 116l136 63c8 -27.333 21.5 -47.833 40.5 -61.5s44.5 -20.5 76.5 -20.5
c29.333 0 52.5 6.66699 69.5 20s25.5 31 25.5 53c0 23.333 -6.5 41.166 -19.5 53.499s-31.833 18.5 -56.5 18.5h-113v121h98c21.333 0 37.833 5.16699 49.5 15.5s17.5 25.166 17.5 44.499s-6.66699 34.833 -20 46.5s-31.666 17.5 -54.999 17.5
c-26.667 0 -48.667 -5.83301 -66 -17.5s-29.333 -28.834 -36 -51.501l-132 62c13.333 46 39.666 81.333 78.999 106s94.666 37 165.999 37c48 0 89.833 -7.5 125.5 -22.5s63.167 -35.833 82.5 -62.5s29 -57 29 -91c0 -32.667 -7.66699 -60.834 -23 -84.501
s-36.666 -41.5 -63.999 -53.5c34.667 -12.667 61.667 -32.334 81 -59.001z" />
    <glyph glyph-name="uni0438" unicode="&#x438;" horiz-adv-x="720" 
d="M650 -82h-176v353l-214 -353h-190v632h176v-353l214 353h190v-632z" />
    <glyph glyph-name="uni0439" unicode="&#x439;" horiz-adv-x="705" 
d="M650 -82h-176v353l-214 -353h-190v632h176v-353l214 353h190v-632zM202.5 644c-37 38 -55.5 90 -55.5 156h109c0 -34 8.16699 -60.167 24.5 -78.5s40.5 -27.5 72.5 -27.5s56.167 9.16699 72.5 27.5s24.5 44.5 24.5 78.5h109c0 -66 -18.5 -118 -55.5 -156
s-87.167 -57 -150.5 -57s-113.5 19 -150.5 57z" />
    <glyph glyph-name="uni043A" unicode="&#x43a;" horiz-adv-x="683" 
d="M453 -82l-207 309v-309h-176v632h176v-276l199 276h207l-225 -299l246 -333h-220z" />
    <glyph glyph-name="uni043B" unicode="&#x43b;" horiz-adv-x="716" 
d="M647 -82h-176.002v496h-154l-35 -346c-5.33301 -52.667 -22.5 -93.167 -51.5 -121.5s-68.167 -42.5 -117.5 -42.5c-19.333 0 -37.666 1.5 -54.999 4.5s-29.666 6.83301 -36.999 11.5v137c11.333 -4.66699 25 -7 41 -7c14.667 0 26.5 4.5 35.5 13.5
s14.167 22.167 15.5 39.5l46 447h488v-632z" />
    <glyph glyph-name="uni043C" unicode="&#x43c;" horiz-adv-x="912" 
d="M842 -82h-168v453l-112 -453h-224l-113 457v-457h-155v632h270l115 -477l115 477h272v-632z" />
    <glyph glyph-name="uni043D" unicode="&#x43d;" horiz-adv-x="720" 
d="M650 550v-632h-176v265h-228v-265h-176v632h176v-231h228v231h176z" />
    <glyph glyph-name="uni043E" unicode="&#x43e;" horiz-adv-x="726" 
d="M86 407.5c27.333 50.333 65.166 89.166 113.499 116.499s102.833 41 163.5 41s115.167 -13.667 163.5 -41s86.166 -66.166 113.499 -116.499s41 -108.166 41 -173.499s-13.667 -123 -41 -173s-65.166 -88.667 -113.499 -116s-102.833 -41 -163.5 -41
s-115.167 13.667 -163.5 41s-86.166 66 -113.499 116s-41 107.667 -41 173s13.667 123.166 41 173.499zM466 375.5c-26 35.667 -60.333 53.5 -103 53.5s-77 -17.833 -103 -53.5s-39 -82.834 -39 -141.501s13 -105.834 39 -141.501s60.333 -53.5 103 -53.5
s77 17.833 103 53.5s39 82.834 39 141.501s-13 105.834 -39 141.501z" />
    <glyph glyph-name="uni043F" unicode="&#x43f;" horiz-adv-x="720" 
d="M650 -82h-176v496h-228v-496h-176v632h580v-632z" />
    <glyph glyph-name="uni0440" unicode="&#x440;" horiz-adv-x="752" 
d="M571.5 523.5c41.667 -27.667 74.833 -66.667 99.5 -117s37 -107.833 37 -172.5s-12.333 -122 -37 -172s-57.834 -88.833 -99.501 -116.5s-87.167 -41.5 -136.5 -41.5c-78 0 -141 26 -189 78v-294h-176v718c0 58 -1.66699 106 -5 144h157c2.66699 -14.667 5 -42.667 7 -84
c23.333 32 52.333 56.5 87 73.5s74.334 25.5 119.001 25.5c49.333 0 94.833 -13.833 136.5 -41.5zM463.499 63.5c21.667 16.333 38.5 39.1699 50.5 68.5029s18 63.333 18 102s-6 72.667 -18 102s-28.833 52.166 -50.5 68.499s-46.5 24.5 -74.5 24.5
c-42.667 0 -77.167 -17.833 -103.5 -53.5s-39.5 -82.834 -39.5 -141.501s13.167 -105.834 39.5 -141.501s60.833 -53.5 103.5 -53.5c28 0 52.833 8.16699 74.5 24.5z" />
    <glyph glyph-name="uni0441" unicode="&#x441;" horiz-adv-x="654" 
d="M85.5 407.5c27 50.333 64.498 89.168 112.498 116.501s102 41 162 41c70.667 0 128 -14.5 172 -43.5s73 -67.5 87 -115.5l-149 -70c-15.333 55.333 -51.333 83 -108 83c-43.333 0 -77.666 -16.333 -102.999 -49s-38 -78 -38 -136c0 -57.333 12.833 -102.333 38.5 -135
s59.834 -49 102.501 -49c57.333 0 93.333 27.333 108 82l149 -69c-14 -48 -43 -86.5 -87 -115.5s-101.333 -43.5 -172 -43.5c-60 0 -114 13.667 -162 41s-85.5 66 -112.5 116s-40.5 107.667 -40.5 173s13.5 123.166 40.5 173.499z" />
    <glyph glyph-name="uni0442" unicode="&#x442;" horiz-adv-x="557" 
d="M523 414h-157v-496h-175v496h-158v136h490v-136z" />
    <glyph glyph-name="uni0443" unicode="&#x443;" horiz-adv-x="696" 
d="M675 550l-248.999 -682c-25.333 -70.667 -56.5 -120.667 -93.5 -150s-83.167 -44 -138.5 -44s-96.333 8.33301 -123 25v139c25.333 -8 49.666 -12 72.999 -12c52.667 0 89 22 109 66l15 32l-247 626h203l124 -433l128 433h199z" />
    <glyph glyph-name="uni0444" unicode="&#x444;" horiz-adv-x="920" 
d="M729.5 511c46.333 -26 82.5 -63 108.5 -111s39 -103.333 39 -166s-13 -117.834 -39 -165.501s-62.167 -84.5 -108.5 -110.5s-98.5 -39 -156.5 -39h-25v-231h-175v231h-25c-58 0 -110.167 13 -156.5 39s-82.5 62.833 -108.5 110.5s-39 102.834 -39 165.501s13 118 39 166
s62.167 85 108.5 111s98.5 39 156.5 39h25v250h175v-250h25c58 0 110.167 -13 156.5 -39zM373 55v358h-22c-39.333 0 -71 -16.333 -95 -49s-36 -76 -36 -130c0 -53.333 12 -96.5 36 -129.5s55.667 -49.5 95 -49.5h22zM664.5 104.5c24.333 33 36.5 76.167 36.5 129.5
c0 54 -12.167 97.333 -36.5 130s-56.166 49 -95.499 49h-21v-358h21c39.333 0 71.166 16.5 95.499 49.5z" />
    <glyph glyph-name="uni0445" unicode="&#x445;" horiz-adv-x="697" vert-adv-y="850" 
d="M467 -82l-123 229l-114 -229h-200l202 321l-197 311h210l109 -220l116 220h192l-197 -311l203 -321h-201z" />
    <glyph glyph-name="uni0446" unicode="&#x446;" horiz-adv-x="762" 
d="M752 -217h-136v135h-546v632h176v-496h228v496h176v-496h102v-271z" />
    <glyph glyph-name="uni0447" unicode="&#x447;" horiz-adv-x="719" 
d="M649 550l0.000976562 -632h-176v263c-44 -66 -109.667 -99 -197 -99c-66.667 0 -119.334 20.333 -158.001 61s-58 96.667 -58 168v239h176v-207c0 -76.667 35.667 -115 107 -115c40.667 0 72.5 13.167 95.5 39.5s34.5 62.5 34.5 108.5v174h176z" />
    <glyph glyph-name="uni0448" unicode="&#x448;" horiz-adv-x="1003" 
d="M933 550v-632h-863v632h176v-496h168v496h175v-496h169v496h175z" />
    <glyph glyph-name="uni0449" unicode="&#x449;" horiz-adv-x="1045" 
d="M1035 -217h-136v135h-829v632h176v-496h168v496h175v-496h169v496h175v-496h102v-271z" />
    <glyph glyph-name="uni044A" unicode="&#x44a;" horiz-adv-x="754" 
d="M665.5 265c37 -36.667 55.501 -85.332 55.501 -145.999c0 -39.333 -8.33301 -74.333 -25 -105s-40.334 -54.334 -71.001 -71.001s-66 -25 -106 -25h-329v495h-157v137h333v-230h153c60.667 0 109.5 -18.333 146.5 -55zM524.001 64.002c13.333 12.667 20 31 20 55
c0 23.333 -6.66699 41.5 -20 54.5s-32 19.5 -56 19.5h-102v-148h102c24 0 42.667 6.33301 56 19z" />
    <glyph glyph-name="uni044B" unicode="&#x44b;" horiz-adv-x="903" 
d="M545.5 265c37 -36.667 55.501 -85.332 55.501 -145.999c0 -39.333 -8.33301 -74.333 -25 -105s-40.334 -54.334 -71.001 -71.001s-66 -25 -106 -25h-329v632h176v-230h153c60.667 0 109.5 -18.333 146.5 -55zM833.001 550.002v-632h-176v632h176zM404.001 64.002
c13.333 12.667 20 31 20 55c0 23.333 -6.66699 41.5 -20 54.5s-32 19.5 -56 19.5h-102v-148h102c24 0 42.667 6.33301 56 19z" />
    <glyph glyph-name="uni044C" unicode="&#x44c;" horiz-adv-x="634" 
d="M546 265c36.667 -36.667 54.999 -85.332 54.999 -145.999c0 -39.333 -8.33301 -74.333 -25 -105s-40.167 -54.334 -70.5 -71.001s-65.5 -25 -105.5 -25h-330v632h176v-230h154c60.667 0 109.334 -18.333 146.001 -55zM403.999 64.002c13.333 12.667 20 31 20 55
c0 23.333 -6.66699 41.5 -20 54.5s-32 19.5 -56 19.5h-102v-148h102c24 0 42.667 6.33301 56 19z" />
    <glyph glyph-name="uni044D" unicode="&#x44d;" horiz-adv-x="654" 
d="M455.5 524c47.667 -27.333 85.167 -66.1689 112.5 -116.502s41 -108.166 41 -173.499s-13.667 -123 -41 -173s-64.833 -88.667 -112.5 -116s-101.5 -41 -161.5 -41c-70.667 0 -128 14.333 -172 43s-73.333 67.334 -88 116.001l150 69c14.667 -54.667 50.667 -82 108 -82
c35.333 0 64.833 11 88.5 33s39.5 53 47.5 93h-200v138h194c-10 33.333 -26.333 59.166 -49 77.499s-49.667 27.5 -81 27.5c-56.667 0 -92.667 -27.667 -108 -83l-150 70c14.667 48.667 44 87.334 88 116.001s101.333 43 172 43c60 0 113.833 -13.667 161.5 -41z" />
    <glyph glyph-name="uni044E" unicode="&#x44e;" horiz-adv-x="1021" 
d="M821.5 524c48.333 -27.333 86.165 -66.167 113.498 -116.5s41 -108.166 41 -173.499s-13.667 -123 -41 -173s-65.166 -88.667 -113.499 -116s-102.833 -41 -163.5 -41c-55.333 0 -105.666 11.5 -150.999 34.5s-82.5 55.5 -111.5 97.5s-46.833 91 -53.5 147h-96v-265h-176
v632h176v-231h102c16.667 75.333 53 135.166 109 179.499s123 66.5 201 66.5c60.667 0 115.167 -13.667 163.5 -41zM760.999 92.499c26 35.667 39 82.834 39 141.501s-13 105.834 -39 141.501s-60.333 53.5 -103 53.5s-77.167 -17.833 -103.5 -53.5
s-39.5 -82.834 -39.5 -141.501s13.167 -105.834 39.5 -141.501s60.833 -53.5 103.5 -53.5s77 17.833 103 53.5z" />
    <glyph glyph-name="uni044F" unicode="&#x44f;" horiz-adv-x="668" 
d="M598 -82h-175v220h-58l-123 -220h-213l154 235c-38.667 14.667 -68.834 38.667 -90.501 72s-32.5 73 -32.5 119c0 62 18.833 111.833 56.5 149.5s87.834 56.5 150.501 56.5h331v-632zM423 264v160h-103c-26.667 0 -47.167 -7 -61.5 -21s-21.5 -33.667 -21.5 -59
s7.16699 -45 21.5 -59s34.833 -21 61.5 -21h103z" />
    <glyph glyph-name="uni0450" unicode="&#x450;" horiz-adv-x="694" 
d="M645 184h-421.999c5.33301 -48 20.833 -84.167 46.5 -108.5s58.5 -36.5 98.5 -36.5c58.667 0 98.667 28.333 120 85l145 -69c-18.667 -46.667 -49.5 -83.5 -92.5 -110.5s-99.5 -40.5 -169.5 -40.5c-66.667 0 -124.667 14 -174 42s-87 66.833 -113 116.5
s-39 106.834 -39 171.501s13.333 122 40 172s63 89 109 117s97.667 42 155 42c61.333 0 114.666 -13.667 159.999 -41s80 -66 104 -116s36 -108 36 -174c0 -18.667 -1.33301 -35.334 -4 -50.001zM267.501 397c-21.667 -21.333 -35.833 -52.333 -42.5 -93h245
c-10.667 83.333 -51.667 125 -123 125c-31.333 0 -57.833 -10.667 -79.5 -32zM418.002 624h-138l-109 200h170z" />
    <glyph glyph-name="uni0451" unicode="&#x451;" horiz-adv-x="694" 
d="M645 184h-421.999c5.33301 -48 20.833 -84.167 46.5 -108.5s58.5 -36.5 98.5 -36.5c58.667 0 98.667 28.333 120 85l145 -69c-18.667 -46.667 -49.5 -83.5 -92.5 -110.5s-99.5 -40.5 -169.5 -40.5c-66.667 0 -124.667 14 -174 42s-87 66.833 -113 116.5
s-39 106.834 -39 171.501s13.333 122 40 172s63 89 109 117s97.667 42 155 42c61.333 0 114.666 -13.667 159.999 -41s80 -66 104 -116s36 -108 36 -174c0 -18.667 -1.33301 -35.334 -4 -50.001zM267.501 397c-21.667 -21.333 -35.833 -52.333 -42.5 -93h245
c-10.667 83.333 -51.667 125 -123 125c-31.333 0 -57.833 -10.667 -79.5 -32zM146.502 788.5c18.333 18.333 42.5 27.5 72.5 27.5c30.667 0 55.167 -9.16699 73.5 -27.5s27.5 -42.5 27.5 -72.5s-9.16699 -54.167 -27.5 -72.5s-42.833 -27.5 -73.5 -27.5
c-30 0 -54.167 9.16699 -72.5 27.5s-27.5 42.5 -27.5 72.5s9.16699 54.167 27.5 72.5zM405.502 788.5c18.333 18.333 42.833 27.5 73.5 27.5c30 0 54.167 -9.16699 72.5 -27.5s27.5 -42.5 27.5 -72.5s-9.16699 -54.167 -27.5 -72.5s-42.5 -27.5 -72.5 -27.5
c-30.667 0 -55.167 9.16699 -73.5 27.5s-27.5 42.5 -27.5 72.5s9.16699 54.167 27.5 72.5z" />
    <glyph glyph-name="uni0452" unicode="&#x452;" horiz-adv-x="726" 
d="M602 504c38.667 -40.667 58 -96.668 58 -168.001v-446c0 -67.333 -18.833 -120.166 -56.5 -158.499s-89.834 -57.5 -156.501 -57.5c-36.667 0 -69.667 5.66699 -99 17v137c14 -6 33.667 -9 59 -9s44.5 6.5 57.5 19.5s19.5 32.167 19.5 57.5v408
c0 76.667 -36 115 -108 115c-40.667 0 -72.5 -13.333 -95.5 -40s-34.5 -63 -34.5 -109v-352h-176v689h-68v137h68v56h176v-56h133v-137h-133v-120c46 52 112 78 198 78c66.667 0 119.334 -20.333 158.001 -61z" />
    <glyph glyph-name="uni0453" unicode="&#x453;" horiz-adv-x="473" 
d="M432 800l-109 -200h-138l77 200h170zM441 414h-195v-496h-176v632h371v-136z" />
    <glyph glyph-name="uni0454" unicode="&#x454;" horiz-adv-x="654" 
d="M470 132l149 -68.999c-14 -48 -43 -86.5 -87 -115.5s-101.333 -43.5 -172 -43.5c-60 0 -114 13.667 -162 41s-85.5 66 -112.5 116s-40.5 107.667 -40.5 173s13.5 123.166 40.5 173.499s64.5 89.166 112.5 116.499s102 41 162 41c70.667 0 128 -14.5 172 -43.5
s73 -67.5 87 -115.5l-149 -70c-15.333 55.333 -51.333 83 -108 83c-31.333 0 -58.333 -9.16699 -81 -27.5s-39 -44.166 -49 -77.499h194v-138h-200c8 -40 23.833 -71 47.5 -93s53.167 -33 88.5 -33c57.333 0 93.333 27.333 108 82z" />
    <glyph glyph-name="uni0455" unicode="&#x455;" horiz-adv-x="604" 
d="M106.5 239.5c-36.333 33 -54.498 76.5 -54.498 130.5c0 38 10.667 71.667 32 101s50.666 52.333 87.999 69s79.666 25 126.999 25c68.667 0 125.5 -12.667 170.5 -38s74.5 -60.333 88.5 -105l-132 -61c-17.333 50 -57 75 -119 75c-25.333 0 -45.5 -5.16699 -60.5 -15.5
s-22.5 -24.833 -22.5 -43.5s8.83301 -32.834 26.5 -42.501s49.834 -17.834 96.501 -24.501c148 -18.667 222 -85 222 -199c0 -41.333 -11 -77.666 -33 -108.999s-52.5 -55.5 -91.5 -72.5s-83.5 -25.5 -133.5 -25.5c-76 0 -137.5 13.333 -184.5 40
s-78.5 65.334 -94.5 116.001l131 61c9.33301 -27.333 25.333 -48.833 48 -64.5s52.334 -23.5 89.001 -23.5c30.667 0 54.5 5.5 71.5 16.5s25.5 27.167 25.5 48.5c0 16 -3.83301 28.833 -11.5 38.5s-20.834 17.667 -39.501 24s-45.334 11.833 -80.001 16.5
c-70 8.66699 -123.167 29.5 -159.5 62.5z" />
    <glyph glyph-name="uni0456" unicode="&#x456;" horiz-adv-x="328" 
d="M91.5 772.5c18.333 18.333 42.5 27.5 72.5 27.5s54.167 -9.16699 72.5 -27.5s27.5 -42.5 27.5 -72.5s-9.16699 -54.167 -27.5 -72.5s-42.5 -27.5 -72.5 -27.5s-54.167 9.16699 -72.5 27.5s-27.5 42.5 -27.5 72.5s9.16699 54.167 27.5 72.5zM252 550v-632h-176v632h176z
" />
    <glyph glyph-name="uni0457" unicode="&#x457;" horiz-adv-x="328" 
d="M252 550v-632h-176v632h176zM-38.5 788.5c18.333 18.333 42.5 27.5 72.5 27.5c30.667 0 55.167 -9.16699 73.5 -27.5s27.5 -42.5 27.5 -72.5s-9.16699 -54.167 -27.5 -72.5s-42.833 -27.5 -73.5 -27.5c-30 0 -54.167 9.16699 -72.5 27.5s-27.5 42.5 -27.5 72.5
s9.16699 54.167 27.5 72.5zM220.5 788.5c18.333 18.333 42.833 27.5 73.5 27.5c30 0 54.167 -9.16699 72.5 -27.5s27.5 -42.5 27.5 -72.5s-9.16699 -54.167 -27.5 -72.5s-42.5 -27.5 -72.5 -27.5c-30.667 0 -55.167 9.16699 -73.5 27.5s-27.5 42.5 -27.5 72.5
s9.16699 54.167 27.5 72.5z" />
    </font>
</defs>
</svg>
