<?xml version="1.0" standalone="no"?>
<!DOCTYPE svg PUBLIC "-//W3C//DTD SVG 1.1//EN" "http://www.w3.org/Graphics/SVG/1.1/DTD/svg11.dtd" >
<svg>
<metadata>
Created by FontForge 20090914 at Thu Apr 30 02:51:48 2020
 By www-data
Oppo
</metadata>
<defs>
<font id="OPPOSans-Bold" horiz-adv-x="683" vert-adv-y="1000" >
  <font-face 
    font-family="OPPO Sans Bold"
    font-weight="700"
    font-stretch="normal"
    units-per-em="1000"
    panose-1="0 0 8 0 0 0 0 0 0 0"
    ascent="850"
    descent="-150"
    x-height="543"
    cap-height="764"
    bbox="-371 -365 1356 1040"
    underline-thickness="97"
    underline-position="-51"
    unicode-range="U+0020-U+100A5A"
  />
<missing-glyph horiz-adv-x="1000" 
d="M896 767v-853h-788v853h788zM829 705h-655v-729h655v729zM244 32l219 313l-213 304h85l167 -257l171 257h79l-214 -304l221 -313h-85l-174 267l-177 -267h-79z" />
    <glyph glyph-name="fi" unicode="fi" horiz-adv-x="730" 
d="M254 611l0.000976562 -68h142v-104h-142v-521h-129v521h-89v104h89v74c0 64 16.333 112.833 49 146.5s80 50.5 142 50.5c21.333 0 41.166 -2 59.499 -6s33.5 -9 45.5 -15v-94c-22.667 5.33301 -46 8 -70 8c-64.667 0 -97 -32 -97 -96zM523.001 758
c14.667 14.667 34 22 58 22s43.333 -7.33301 58 -22s22 -34 22 -58s-7.33301 -43.333 -22 -58s-34 -22 -58 -22s-43.333 7.33301 -58 22s-22 34 -22 58s7.33301 43.333 22 58zM646.001 543v-625h-130v625h130z" />
    <glyph glyph-name="fl" unicode="fl" horiz-adv-x="730" 
d="M254 611l0.000976562 -68h142v-104h-142v-521h-129v521h-89v104h89v74c0 64 16.333 112.833 49 146.5s80 50.5 142 50.5c21.333 0 41.166 -2 59.499 -6s33.5 -9 45.5 -15v-94c-22.667 5.33301 -46 8 -70 8c-64.667 0 -97 -32 -97 -96zM646.001 800v-882h-130v882h130z
" />
    <glyph glyph-name=".notdef" horiz-adv-x="1000" 
d="M896 767v-853h-788v853h788zM829 705h-655v-729h655v729zM244 32l219 313l-213 304h85l167 -257l171 257h79l-214 -304l221 -313h-85l-174 267l-177 -267h-79z" />
    <glyph glyph-name="space" unicode=" " horiz-adv-x="304" 
 />
    <glyph glyph-name="exclam" unicode="!" horiz-adv-x="301" 
d="M107 173l-34 591h155l-34 -591h-87zM92.5 50c14.333 14.667 33.5 22 57.5 22c24.667 0 44.167 -7.33301 58.5 -22s21.5 -34 21.5 -58s-7.16699 -43.333 -21.5 -58s-33.833 -22 -58.5 -22c-24 0 -43.167 7.33301 -57.5 22s-21.5 34 -21.5 58s7.16699 43.333 21.5 58z" />
    <glyph glyph-name="quotedbl" unicode="&#x22;" horiz-adv-x="525" 
d="M237 800l-38 -360h-128l38 360h128zM454 800l-38 -360h-128l38 360h128z" />
    <glyph glyph-name="numbersign" unicode="#" 
d="M522 459l-52 -236h95v-90h-115l-47 -215h-94l48 215h-122l-48 -215h-93l48 215h-95v90h114l53 236h-96v90h115l48 215h93l-48 -215h122l48 215h93l-47 -215h94v-90h-114zM429 459h-122l-53 -236h122z" />
    <glyph glyph-name="dollar" unicode="$" vert-adv-y="155" 
d="M575 -11c-43.333 -45.333 -102 -72.667 -176 -82v-141h-97v140c-64 6.66699 -118.5 27 -163.5 61s-75.5 77.333 -91.5 130l108 52c11.333 -35.333 29.333 -64.333 54 -87s55.667 -37.334 93 -44.001v284c-155.333 34.667 -233 113.334 -233 236.001
c0 64 20.667 117.333 62 160s98.333 68.334 171 77.001v141h97v-140c58.667 -6.66699 107.167 -24.5 145.5 -53.5s65.5 -68.167 81.5 -117.5l-108 -52c-22 62 -61.667 99 -119 111v-253c82.667 -18.667 143.5 -48.834 182.5 -90.501s58.5 -96.167 58.5 -163.5
c0 -66.667 -21.667 -122.667 -65 -168zM222.5 476.499c15.667 -17 42.167 -31.5 79.5 -43.5v229c-32.667 -8 -58 -22.333 -76 -43s-27 -45.667 -27 -75c0 -28 7.83301 -50.5 23.5 -67.5zM481 67.499c19.333 23.667 29.001 52.5 29.001 86.5c0 30.667 -8.5 56 -25.5 76
s-45.5 36.333 -85.5 49v-259c35.333 8 62.666 23.833 81.999 47.5z" />
    <glyph glyph-name="percent" unicode="%" horiz-adv-x="937" 
d="M82.5 718.5c33 39.667 77.833 59.5 134.5 59.5c57.333 0 102.5 -19.833 135.5 -59.5s49.5 -93.834 49.5 -162.501s-16.5 -122.834 -49.5 -162.501s-78.167 -59.5 -135.5 -59.5c-56.667 0 -101.5 19.833 -134.5 59.5s-49.5 93.834 -49.5 162.501
s16.5 122.834 49.5 162.501zM277 -82h-113l496 846h112zM154.5 457.5c14.333 -23 35.166 -34.5 62.499 -34.5s48.333 11.333 63 34s22 55.667 22 99c0 42.667 -7.33301 75.334 -22 98.001s-35.667 34 -63 34s-48.166 -11.333 -62.499 -34s-21.5 -55.334 -21.5 -98.001
s7.16699 -75.5 21.5 -98.5zM584.5 288.5c33 39.667 77.833 59.5 134.5 59.5c57.333 0 102.5 -19.833 135.5 -59.5s49.5 -93.834 49.5 -162.501s-16.5 -122.834 -49.5 -162.501s-78.167 -59.5 -135.5 -59.5c-56.667 0 -101.5 19.833 -134.5 59.5s-49.5 93.834 -49.5 162.501
s16.5 122.834 49.5 162.501zM656.5 28c14.333 -22.667 35.166 -34 62.499 -34s48.333 11.333 63 34s22 55.334 22 98.001c0 43.333 -7.33301 76.333 -22 99s-35.667 34 -63 34s-48.166 -11.5 -62.499 -34.5s-21.5 -55.833 -21.5 -98.5s7.16699 -75.334 21.5 -98.001z" />
    <glyph glyph-name="ampersand" unicode="&#x26;" horiz-adv-x="820" 
d="M639 -82l-60.002 66.998c-74 -54 -158 -81 -252 -81c-57.333 0 -107.333 9.5 -150 28.5s-75.5 45.833 -98.5 80.5s-34.5 75 -34.5 121c0 56.667 13.5 105.834 40.5 147.501s69.5 78.5 127.5 110.5c-32 36 -55 67.667 -69 95s-21 57 -21 89
c0 39.333 9.66699 74.333 29 105s46.5 54.5 81.5 71.5s74.833 25.5 119.5 25.5s84.334 -8.5 119.001 -25.5s61.834 -40.833 81.501 -71.5s29.5 -65 29.5 -103c0 -46 -13.167 -85.5 -39.5 -118.5s-70.833 -64.5 -133.5 -94.5l173 -191c35.333 60.667 58 132.334 68 215.001
h132c-5.33301 -61.333 -17.5 -118.5 -36.5 -171.5s-43.833 -100.167 -74.5 -141.5l143 -158h-175zM282.998 643.998c-17.333 -16.667 -26 -39.001 -26 -67.001c0 -21.333 5.83301 -41 17.5 -59s31.5 -41.667 59.5 -71c42.667 20.667 72.167 40.834 88.5 60.501
s24.5 43.167 24.5 70.5s-8.66699 49.333 -26 66s-40.333 25 -69 25s-51.667 -8.33301 -69 -25zM496.998 74.9971l-210.999 233.999c-37.333 -20.667 -63.833 -43 -79.5 -67s-23.5 -52.667 -23.5 -86c0 -41.333 13.667 -74.166 41 -98.499s64.666 -36.5 111.999 -36.5
c60 0 113.667 18 161 54z" />
    <glyph glyph-name="quotesingle" unicode="'" horiz-adv-x="308" 
d="M237 800l-38 -360h-128l38 360h128z" />
    <glyph glyph-name="parenleft" unicode="(" horiz-adv-x="419" 
d="M266.5 612.5c-32.333 -94.333 -48.501 -190.832 -48.501 -289.499c0 -70 8.83301 -138.333 26.5 -205s39.334 -126.334 65.001 -179.001s51.5 -95.667 77.5 -129h-128c-45.333 55.333 -85.333 128 -120 218s-52 188.333 -52 295c0 96.667 15.167 190 45.5 280
s72.5 167.667 126.5 233h128c-48 -54.667 -88.167 -129.167 -120.5 -223.5z" />
    <glyph glyph-name="parenright" unicode=")" horiz-adv-x="419" 
d="M153.5 33.5c32.333 94.333 48.5 190.832 48.5 289.499c0 70 -8.83301 138.333 -26.5 205s-39.5 126.334 -65.5 179.001s-52 95.667 -78 129h128c45.333 -55.333 85.333 -128 120 -218s52 -188.333 52 -295c0 -96.667 -15.167 -190 -45.5 -280s-72.5 -167.667 -126.5 -233
h-128c48.667 54.667 89.167 129.167 121.5 223.5z" />
    <glyph glyph-name="asterisk" unicode="*" horiz-adv-x="608" 
d="M382 480l129 -144l-110 -81l-97 167l-96 -167l-111 81l129 144l-190 40l43 130l177 -79l-20 193h136l-21 -194l178 80l42 -130z" />
    <glyph glyph-name="plus" unicode="+" 
d="M590 288h-195v-195h-107v195h-195v106h195v195h107v-195h195v-106z" />
    <glyph glyph-name="comma" unicode="," horiz-adv-x="301" 
d="M222 52c0 -26 -1.83398 -53.5 -5.50098 -82.5s-9.5 -69.167 -17.5 -120.5l-6 -37l-12 -67h-128l11 67c4.66699 28.667 8.83398 66 12.501 112s5.5 88.667 5.5 128h140z" />
    <glyph glyph-name="hyphen" unicode="-" horiz-adv-x="393" 
d="M60 362h273v-104h-273v104z" />
    <glyph glyph-name="period" unicode="." horiz-adv-x="301" 
d="M92.5 50c14.333 14.667 33.5 22 57.5 22c24.667 0 44.167 -7.33301 58.5 -22s21.5 -34 21.5 -58s-7.16699 -43.333 -21.5 -58s-33.833 -22 -58.5 -22c-24 0 -43.167 7.33301 -57.5 22s-21.5 34 -21.5 58s7.16699 43.333 21.5 58z" />
    <glyph glyph-name="slash" unicode="/" horiz-adv-x="389" 
d="M15 -190l231 1030h128l-231 -1030h-128z" />
    <glyph glyph-name="zero" unicode="0" 
d="M118 666c50.667 74.667 125.334 112 224.001 112c98 0 172.333 -37.333 223 -112s76 -183 76 -325s-25.333 -250.333 -76 -325s-125 -112 -223 -112c-98.667 0 -173.334 37.333 -224.001 112s-76 183 -76 325s25.333 250.333 76 325zM215.5 94.5
c27 -53 69.167 -79.5 126.5 -79.5s99.333 26.5 126 79.5s40 135.167 40 246.5s-13.333 193.5 -40 246.5s-68.667 79.5 -126 79.5s-99.5 -26.5 -126.5 -79.5s-40.5 -135.167 -40.5 -246.5s13.5 -193.5 40.5 -246.5z" />
    <glyph glyph-name="one" unicode="1" horiz-adv-x="500" 
d="M369 -82h-133v691l-175 -101l1 134l211 122h97z" />
    <glyph glyph-name="two" unicode="2" 
d="M622 29l0.000976562 -111h-558v90l325 331c34.667 34.667 59.167 65.5 73.5 92.5s21.5 56.5 21.5 88.5c0 44.667 -13.333 80.334 -40 107.001s-62.334 40 -107.001 40c-42 0 -77 -10.667 -105 -32s-48 -52.333 -60 -93l-100 59c19.333 57.333 52 101.166 98 131.499
s103.333 45.5 172 45.5c53.333 0 101 -11 143 -33s74.667 -52.5 98 -91.5s35 -83.167 35 -132.5c0 -47.333 -11.833 -90.5 -35.5 -129.5s-63.167 -86.167 -118.5 -141.5l-213 -221h371z" />
    <glyph glyph-name="three" unicode="3" 
d="M500.5 408.5c39 -23 69.499 -54.668 91.499 -95.001s33 -86.166 33 -137.499c0 -52.667 -12 -99.667 -36 -141s-57.5 -73.5 -100.5 -96.5s-92.167 -34.5 -147.5 -34.5c-66 0 -122.833 15.167 -170.5 45.5s-80.167 72.166 -97.5 125.499l99 57
c13.333 -37.333 34.333 -66.166 63 -86.499s64 -30.5 106 -30.5c46 0 83.333 14.833 112 44.5s43 68.5 43 116.5c0 48.667 -14.167 87 -42.5 115s-67.166 42 -116.499 42c-50.667 0 -88 -16 -112 -48l-75 82l273 286h-316v111h480v-90l-219 -230
c49.333 -0.666992 93.5 -12.5 132.5 -35.5z" />
    <glyph glyph-name="four" unicode="4" 
d="M639 105h-108v-187h-129v187h-358v90l379 569h108v-548h108v-111zM402 216v328l-218 -328h218z" />
    <glyph glyph-name="five" unicode="5" 
d="M499 409.5c40 -23 70.9941 -55.001 92.9941 -96.001s33 -86.833 33 -137.5c0 -52.667 -12.167 -99.667 -36.5 -141s-58.166 -73.5 -101.499 -96.5s-93 -34.5 -149 -34.5c-67.333 0 -124.5 15.833 -171.5 47.5s-78.167 72.5 -93.5 122.5l99 58
c12.667 -37.333 33.334 -66.166 62.001 -86.499s63.334 -30.5 104.001 -30.5c46.667 0 84.834 14.833 114.501 44.5s44.5 68.5 44.5 116.5c0 46.667 -14.667 84.5 -44 113.5s-67 43.5 -113 43.5c-31.333 0 -57.666 -5.83301 -78.999 -17.5s-37.666 -27.167 -48.999 -46.5
l-107 29l48 466h436v-111h-321l-26 -247c39.333 25.333 79.333 38 120 38c51.333 0 97 -11.5 137 -34.5z" />
    <glyph glyph-name="six" unicode="6" 
d="M499.5 408c39 -22.667 69.335 -54.332 91.002 -94.999s32.5 -87 32.5 -139c0 -51.333 -12.167 -97.5 -36.5 -138.5s-58 -73.167 -101 -96.5s-91.167 -35 -144.5 -35c-54.667 0 -103.334 11.667 -146.001 35s-75.834 56.5 -99.501 99.5s-35.5 92.833 -35.5 149.5
c0 58 10.333 114.333 31 169s54.667 116.667 102 186l150 221h149l-183 -252c-27.333 -38.667 -49 -74.334 -65 -107.001c36 24.667 76.667 37 122 37c50 0 94.5 -11.333 133.5 -34zM451.502 58.502c28.333 29 42.502 67.5 42.502 115.5
c0 48.667 -13.833 87.167 -41.5 115.5s-64.834 42.5 -111.501 42.5s-83.667 -14.167 -111 -42.5s-41 -66.833 -41 -115.5c0 -48 14 -86.5 42 -115.5s64.667 -43.5 110 -43.5s82.166 14.5 110.499 43.5z" />
    <glyph glyph-name="seven" unicode="7" 
d="M617 764v-88l-290 -758h-142l303 735h-423v111h552z" />
    <glyph glyph-name="eight" unicode="8" 
d="M594 292.5c24 -37 36.001 -79.5 36.001 -127.5c0 -50.667 -12 -95.834 -36 -135.501s-58 -70.5 -102 -92.5s-94.333 -33 -151 -33s-106.834 11 -150.501 33s-77.5 52.833 -101.5 92.5s-36 84.834 -36 135.501c0 48 12 90.5 36 127.5s57.333 65.5 100 85.5
c-32 18.667 -56.667 42.667 -74 72s-26 62 -26 98c0 44.667 10.333 84.334 31 119.001s50.167 61.834 88.5 81.501s82.5 29.5 132.5 29.5c50.667 0 95 -9.83301 133 -29.5s67.333 -46.834 88 -81.501s31 -74.334 31 -119.001c0 -36 -8.66699 -68.667 -26 -98
s-42 -53.333 -74 -72c43.333 -20 77 -48.5 101 -85.5zM246.001 643c-24 -23.333 -36 -54 -36 -92c0 -37.333 12.167 -67.666 36.5 -90.999s55.833 -35 94.5 -35c39.333 0 71 11.667 95 35s36 53.666 36 90.999c0 38 -12 68.667 -36 92s-55.667 35 -95 35
s-71 -11.667 -95 -35zM460.001 54c30 28.667 45 66.667 45 114c0 48.667 -14.833 87.334 -44.5 116.001s-69.5 43 -119.5 43c-49.333 0 -88.833 -14.333 -118.5 -43s-44.5 -67.334 -44.5 -116.001c0 -47.333 14.833 -85.333 44.5 -114s69.167 -43 118.5 -43
s89 14.333 119 43z" />
    <glyph glyph-name="nine" unicode="9" 
d="M488 743c42.667 -23.333 75.832 -56.501 99.499 -99.501s35.5 -93.167 35.5 -150.5s-10.5 -113.333 -31.5 -168s-54.833 -116.667 -101.5 -186l-150 -221h-149l182 252c26 36 48.333 71.667 67 107c-36.667 -24.667 -78 -37 -124 -37c-49.333 0 -93.5 11.333 -132.5 34
s-69.333 54.334 -91 95.001s-32.5 87 -32.5 139c0 51.333 12.167 97.5 36.5 138.5s58 73.167 101 96.5s91.167 35 144.5 35c54.667 0 103.334 -11.667 146.001 -35zM230.498 392.499c27.667 -28.333 64.832 -42.501 111.499 -42.501c44 0 79.667 13 107 39
s42.333 61.333 45 106v13c0 48 -14 86.5 -42 115.5s-64.667 43.5 -110 43.5s-82.166 -14.667 -110.499 -44s-42.5 -67.666 -42.5 -114.999c0 -48.667 13.833 -87.167 41.5 -115.5z" />
    <glyph glyph-name="colon" unicode=":" horiz-adv-x="301" 
d="M92.5 482c14.333 14.667 33.5 22 57.5 22c24.667 0 44.167 -7.33301 58.5 -22s21.5 -34 21.5 -58s-7.16699 -43.333 -21.5 -58s-33.833 -22 -58.5 -22c-24 0 -43.167 7.33301 -57.5 22s-21.5 34 -21.5 58s7.16699 43.333 21.5 58zM92.5 50c14.333 14.667 33.5 22 57.5 22
c24.667 0 44.167 -7.33301 58.5 -22s21.5 -34 21.5 -58s-7.16699 -43.333 -21.5 -58s-33.833 -22 -58.5 -22c-24 0 -43.167 7.33301 -57.5 22s-21.5 34 -21.5 58s7.16699 43.333 21.5 58z" />
    <glyph glyph-name="semicolon" unicode=";" horiz-adv-x="301" 
d="M92.5 482c14.333 14.667 33.5 22 57.5 22c24.667 0 44.167 -7.33301 58.5 -22s21.5 -34 21.5 -58s-7.16699 -43.333 -21.5 -58s-33.833 -22 -58.5 -22c-24 0 -43.167 7.33301 -57.5 22s-21.5 34 -21.5 58s7.16699 43.333 21.5 58zM222 52
c0 -26 -1.83398 -53.5 -5.50098 -82.5s-9.5 -69.167 -17.5 -120.5l-6 -37l-12 -67h-128l11 67c4.66699 28.667 8.83398 66 12.501 112s5.5 88.667 5.5 128h140z" />
    <glyph glyph-name="less" unicode="&#x3c;" 
d="M589 502l-365 -161l365 -161v-116l-495 224v106l495 224v-116z" />
    <glyph glyph-name="equal" unicode="=" 
d="M93 514h497v-106h-497v106zM93 274h497v-106h-497v106z" />
    <glyph glyph-name="greater" unicode="&#x3e;" 
d="M589 394v-106l-495 -224v116l365 161l-365 161v116z" />
    <glyph glyph-name="question" unicode="?" horiz-adv-x="581" 
d="M247 310c10.667 34 29.334 64.6641 56.001 91.9971l27 26c24 21.333 42 40.833 54 58.5s18 39.834 18 66.501c0 34 -10.333 61.833 -31 83.5s-50.334 32.5 -89.001 32.5c-70 0 -114.333 -35.333 -133 -106l-106 49c14.667 54 43.167 95.167 85.5 123.5
s96.5 42.5 162.5 42.5c48 0 90.667 -9 128 -27s66.333 -43.167 87 -75.5s31 -69.166 31 -110.499c0 -35.333 -6 -66.166 -18 -92.499s-26.333 -48.5 -43 -66.5s-43.667 -44.333 -81 -79c-18.667 -18 -32.167 -38.833 -40.5 -62.5s-12.5 -54.167 -12.5 -91.5h-111
c0 57.333 5.33301 103 16 137zM230 49.9971c14.667 14.667 34 22 58 22s43.333 -7.33301 58 -22s22 -34 22 -58s-7.33301 -43.333 -22 -58s-34 -22 -58 -22s-43.333 7.33301 -58 22s-22 34 -22 58s7.33301 43.333 22 58z" />
    <glyph glyph-name="at" unicode="@" horiz-adv-x="1160" 
d="M791 406l0.00292969 -235.998c0 -28.667 7.33301 -51 22 -67s35 -24 61 -24c26.667 0 51.667 11 75 33s41.833 52.833 55.5 92.5s20.5 84.5 20.5 134.5c0 75.333 -18.167 141.666 -54.5 198.999s-87.333 101.666 -153 132.999s-140.834 47 -225.501 47
c-88 0 -166.667 -18.333 -236 -55s-123.5 -88.5 -162.5 -155.5s-58.5 -144.167 -58.5 -231.5s19.5 -164.5 58.5 -231.5s93.333 -118.833 163 -155.5s148.5 -55 236.5 -55c67.333 0 127.166 10 179.499 30s92.833 49 121.5 87l60 -49
c-35.333 -45.333 -84.666 -80.5 -147.999 -105.5s-134.333 -37.5 -213 -37.5c-102 0 -193.5 21.667 -274.5 65s-144.333 104.166 -190 182.499s-68.5 168.166 -68.5 269.499s22.833 191.166 68.5 269.499s108.834 139.166 189.501 182.499s172 65 274 65
c96.667 0 183.667 -18.833 261 -56.5s137.833 -90.834 181.5 -159.501s65.5 -148 65.5 -238c0 -65.333 -10.333 -124.166 -31 -176.499s-49.334 -93.333 -86.001 -123s-78 -44.5 -124 -44.5c-43.333 0 -79.166 9.83301 -107.499 29.5s-47.5 48.167 -57.5 85.5
c-18.667 -36.667 -43.834 -65 -75.501 -85s-68.5 -30 -110.5 -30c-42.667 0 -81.334 11.833 -116.001 35.5s-62.167 56.834 -82.5 99.501s-30.5 91.334 -30.5 146.001s10.167 103.334 30.5 146.001s47.833 75.834 82.5 99.501s73.334 35.5 116.001 35.5
c39.333 0 74.166 -8.83301 104.499 -26.5s55.166 -43.167 74.499 -76.5c0.666992 30.667 2.66699 60.334 6 89.001h103c-3.33301 -24.667 -5 -70.334 -5 -137.001zM634.003 140.502c25.333 34.333 38 79.5 38 135.5s-12.667 101.167 -38 135.5s-58.333 51.5 -99 51.5
s-73.667 -17.167 -99 -51.5s-38 -79.5 -38 -135.5s12.667 -101.167 38 -135.5s58.333 -51.5 99 -51.5s73.667 17.167 99 51.5z" />
    <glyph glyph-name="A" unicode="A" horiz-adv-x="790" 
d="M546 147h-310l-71 -229h-144l289 846h170l289 -846h-152zM510 265l-119 382l-118 -382h237z" />
    <glyph glyph-name="B" unicode="B" horiz-adv-x="736" 
d="M644 290.5c29.333 -35.667 44 -80.167 44 -133.5c0 -47.333 -10 -89.166 -30 -125.499s-48.333 -64.333 -85 -84s-78.667 -29.5 -126 -29.5h-367v846h353c43.333 0 81.833 -9.16699 115.5 -27.5s59.667 -44 78 -77s27.5 -71.167 27.5 -114.5
c0 -45.333 -11.5 -83.5 -34.5 -114.5s-54.5 -53.5 -94.5 -67.5c50 -12.667 89.667 -36.834 119 -72.501zM220 653l-0.000976562 -239h170c38.667 0 68.834 10.5 90.501 31.5s32.5 50.167 32.5 87.5c0 38 -11 67.5 -33 88.5s-52 31.5 -90 31.5h-170zM509.999 65.5
c25.333 24.333 38 57.833 38 100.5c0 43.333 -12.667 77 -38 101s-60.333 36 -105 36h-185v-274h185c44.667 0 79.667 12.167 105 36.5z" />
    <glyph glyph-name="C" unicode="C" horiz-adv-x="772" 
d="M226 173c20 -48.667 47.833 -86.332 83.5 -112.999s76.834 -40 123.501 -40c97.333 0 159.333 45.667 186 137l116 -54c-18 -61.333 -53 -109.833 -105 -145.5s-116.667 -53.5 -194 -53.5c-74.667 0 -140.667 18.333 -198 55s-102 88 -134 154s-48 142 -48 228
s16 162 48 228s76.667 117.333 134 154s123.333 55 198 55c77.333 0 142 -17.833 194 -53.5s87 -84.167 105 -145.5l-116 -55c-26.667 92 -88.667 138 -186 138c-46.667 0 -87.834 -13.333 -123.501 -40s-63.5 -64.334 -83.5 -113.001s-30 -104.667 -30 -168
s10 -119.333 30 -168z" />
    <glyph glyph-name="D" unicode="D" horiz-adv-x="823" 
d="M589.5 711.5c56.333 -35 99.666 -84.332 129.999 -147.999s45.5 -137.834 45.5 -222.501s-15.167 -159 -45.5 -223s-73.666 -113.333 -129.999 -148s-122.833 -52 -199.5 -52h-310v846h310c76.667 0 143.167 -17.5 199.5 -52.5zM556.5 118.001
c45.667 54.667 68.5 129 68.5 223c0 93.333 -22.833 167.5 -68.5 222.5s-109.5 82.5 -191.5 82.5h-145v-610h145c82 0 145.833 27.333 191.5 82z" />
    <glyph glyph-name="E" unicode="E" horiz-adv-x="656" 
d="M220 646v-225h345v-118h-345v-267h369v-118h-509v846h509v-118h-369z" />
    <glyph glyph-name="F" unicode="F" horiz-adv-x="629" 
d="M220 646v-237h333v-118h-333v-373h-140v846h497v-118h-357z" />
    <glyph glyph-name="G" unicode="G" horiz-adv-x="820" 
d="M755 244c0 -66.667 -12.165 -125.667 -36.498 -177s-60.5 -91.333 -108.5 -120s-106.333 -43 -175 -43c-74 0 -139.667 18.333 -197 55s-102 88.167 -134 154.5s-48 142.166 -48 227.499c0 86 16 162 48 228s76.667 117.333 134 154s123.333 55 198 55
c77.333 0 142 -17.833 194 -53.5s87.333 -84.167 106 -145.5l-116 -55c-13.333 44.667 -35.5 78.834 -66.5 102.501s-71.167 35.5 -120.5 35.5c-46.667 0 -87.834 -13.333 -123.501 -40s-63.5 -64.334 -83.5 -113.001s-30 -104.667 -30 -168
c0 -65.333 9.83301 -122.166 29.5 -170.499s47.5 -85.5 83.5 -111.5s78 -39 126 -39c127.333 0 191.666 76 192.999 228h-168v118h295v-122z" />
    <glyph glyph-name="H" unicode="H" horiz-adv-x="832" 
d="M752 764v-846h-140v385h-392v-385h-140v846h140v-343h392v343h140z" />
    <glyph glyph-name="I" unicode="I" horiz-adv-x="316" 
d="M228 764v-846h-140v846h140z" />
    <glyph glyph-name="J" unicode="J" horiz-adv-x="567" 
d="M426 -34c-42 -41.333 -100.001 -62 -174.001 -62c-63.333 0 -113.666 13.167 -150.999 39.5s-62 62.833 -74 109.5l107 50c7.33301 -30 19.833 -52 37.5 -66s41.167 -21 70.5 -21c35.333 0 62 9.83301 80 29.5s27 48.167 27 85.5v633h140v-624
c0 -74.667 -21 -132.667 -63 -174z" />
    <glyph glyph-name="K" unicode="K" horiz-adv-x="739" 
d="M562 -82l-342 426v-426h-140v846h140v-382l312 382h169l-340 -399l375 -447h-174z" />
    <glyph glyph-name="L" unicode="L" horiz-adv-x="619" 
d="M577 36v-118h-497v846h140v-728h357z" />
    <glyph glyph-name="M" unicode="M" horiz-adv-x="1023" 
d="M943 -82h-140v656l-225 -656h-147l-224 653v-653h-127v846h195l234 -691l234 691h200v-846z" />
    <glyph glyph-name="N" unicode="N" horiz-adv-x="831" 
d="M750 764v-846h-124l-419 625v-625h-127v846h149l395 -590v590h126z" />
    <glyph glyph-name="O" unicode="O" horiz-adv-x="866" 
d="M763.5 114c-31.667 -66 -76.167 -117.5 -133.5 -154.5s-123 -55.5 -197 -55.5s-139.667 18.5 -197 55.5s-101.833 88.5 -133.5 154.5s-47.5 141.667 -47.5 227s15.833 161 47.5 227s76.167 117.5 133.5 154.5s123 55.5 197 55.5s139.667 -18.5 197 -55.5
s101.833 -88.5 133.5 -154.5s47.5 -141.667 47.5 -227s-15.833 -161 -47.5 -227zM225 173c20 -48.667 48 -86.334 84 -113.001s77.333 -40 124 -40s88 13.333 124 40s64 64.334 84 113.001s30 104.667 30 168s-10 119.333 -30 168s-48 86.334 -84 113.001
s-77.333 40 -124 40s-88 -13.333 -124 -40s-64 -64.334 -84 -113.001s-30 -104.667 -30 -168s10 -119.333 30 -168z" />
    <glyph glyph-name="P" unicode="P" horiz-adv-x="692" 
d="M517.5 730c41 -22.667 72.833 -54.5 95.5 -95.5s34 -88.167 34 -141.5c0 -54 -11.333 -101.5 -34 -142.5s-54.5 -72.833 -95.5 -95.5s-88.5 -34 -142.5 -34h-155v-303h-140v846h295c54 0 101.5 -11.333 142.5 -34zM464.5 375c28.333 28 42.5 67.333 42.5 118
s-14.167 90 -42.5 118s-67.833 42 -118.5 42h-126v-320h126c50.667 0 90.167 14 118.5 42z" />
    <glyph glyph-name="Q" unicode="Q" horiz-adv-x="866" 
d="M765 116.5c-30.667 -65.667 -73.667 -116.833 -129 -153.5l115 -160h-146l-77 113c-30 -8 -61.667 -12 -95 -12c-74 0 -139.667 18.5 -197 55.5s-101.833 88.5 -133.5 154.5s-47.5 141.667 -47.5 227s15.833 161 47.5 227s76.167 117.5 133.5 154.5s123 55.5 197 55.5
s139.667 -18.5 197 -55.5s101.833 -88.5 133.5 -154.5s47.5 -141.667 47.5 -227c0 -84 -15.333 -158.833 -46 -224.5zM225 173.001c20 -48.667 48 -86.334 84 -113.001s77.333 -40 124 -40s88 13.333 124 40s64 64.334 84 113.001s30 104.667 30 168s-10 119.333 -30 168
s-48 86.334 -84 113.001s-77.333 40 -124 40s-88 -13.333 -124 -40s-64 -64.334 -84 -113.001s-30 -104.667 -30 -168s10 -119.333 30 -168z" />
    <glyph glyph-name="R" unicode="R" horiz-adv-x="726" 
d="M324 254h-104.001v-336h-140v846h331c50.667 0 95 -10.5 133 -31.5s67.333 -50.833 88 -89.5s31 -83.334 31 -134.001c0 -66 -17.167 -121.167 -51.5 -165.5s-81.166 -72.166 -140.499 -83.499l244 -342h-168zM219.999 365l161 -0.000976562
c45.333 0 80.166 12.333 104.499 37s36.5 60.334 36.5 107.001c0 46 -12.167 81.5 -36.5 106.5s-59.166 37.5 -104.499 37.5h-161v-288z" />
    <glyph glyph-name="S" unicode="S" horiz-adv-x="694" 
d="M133 381.5c-40.667 39 -60.9961 91.167 -60.9961 156.5c0 46.667 11.5 88.167 34.5 124.5s55.833 64.666 98.5 84.999s93 30.5 151 30.5c72 0 132 -14.833 180 -44.5s81 -72.5 99 -128.5l-112 -53c-12.667 35.333 -32.167 61.833 -58.5 79.5s-61.5 26.5 -105.5 26.5
c-48.667 0 -85.167 -9.83301 -109.5 -29.5s-36.5 -47.834 -36.5 -84.501c0 -23.333 5.16699 -42.833 15.5 -58.5s27.666 -28.834 51.999 -39.501s57.833 -20.334 100.5 -29.001c95.333 -17.333 164.166 -46.666 206.499 -87.999s63.5 -98.666 63.5 -171.999
c0 -48.667 -12.667 -92.167 -38 -130.5s-61 -68.333 -107 -90s-98.333 -32.5 -157 -32.5c-80 0 -146.5 16.667 -199.5 50s-89.167 81 -108.5 143l113 53c13.333 -41.333 36.5 -72.666 69.5 -93.999s74.5 -32 124.5 -32c52 0 92 11.333 120 34s42 54.667 42 96
c0 38.667 -13.833 68.834 -41.5 90.501s-75.834 39.5 -144.501 53.5c-86.667 16.667 -150.334 44.5 -191.001 83.5z" />
    <glyph glyph-name="T" unicode="T" horiz-adv-x="674" 
d="M631 646h-224v-728h-140v728h-225v118h589v-118z" />
    <glyph glyph-name="U" unicode="U" horiz-adv-x="824" 
d="M706 54c-27.333 -48 -66.167 -84.833 -116.5 -110.5s-109.5 -38.5 -177.5 -38.5s-127.333 13 -178 39s-89.667 62.833 -117 110.5s-41 103.834 -41 168.501v541h133v-531c0 -68.667 17.333 -121.334 52 -158.001s83.667 -55 147 -55c64 0 113.167 18.333 147.5 55
s51.5 89.667 51.5 159v530h140v-541c0 -64.667 -13.667 -121 -41 -169z" />
    <glyph glyph-name="V" unicode="V" horiz-adv-x="790" 
d="M769 764l-289 -846h-170l-289 846h151l227 -731l227 731h143z" />
    <glyph glyph-name="W" unicode="W" horiz-adv-x="1130" 
d="M1103 764l-219 -846h-145l-174 673l-174 -673h-145l-219 846h146l152 -679l171 679h143l172 -680l152 680h140z" />
    <glyph glyph-name="X" unicode="X" horiz-adv-x="769" 
d="M578 -82l-198 343l-198 -343h-150l268 429l-261 417h164l185 -331l187 331h155l-260 -416l268 -430h-160z" />
    <glyph glyph-name="Y" unicode="Y" horiz-adv-x="744" 
d="M442 256v-338h-140v338l-288 508h159l203 -395l202 395h153z" />
    <glyph glyph-name="Z" unicode="Z" horiz-adv-x="748" 
d="M692 36v-118h-636v87l454 641h-424v118h600v-88l-453 -640h459z" />
    <glyph glyph-name="bracketleft" unicode="[" horiz-adv-x="419" 
d="M230 706v-766h151v-130h-281v1026h281v-130h-151z" />
    <glyph glyph-name="backslash" unicode="\" horiz-adv-x="389" 
d="M15 840h128l231 -1030h-128z" />
    <glyph glyph-name="bracketright" unicode="]" horiz-adv-x="419" 
d="M319 -190h-280v130h151v766h-151v130h280v-1026z" />
    <glyph glyph-name="asciicircum" unicode="^" 
d="M503 305l-161 365l-161 -365h-117l225 495h106l224 -495h-116z" />
    <glyph glyph-name="underscore" unicode="_" horiz-adv-x="300" 
d="M0 -205h300v-107h-300v107z" />
    <glyph glyph-name="grave" unicode="`" horiz-adv-x="600" 
d="M353 601h-106l-96 199h130z" />
    <glyph glyph-name="a" unicode="a" horiz-adv-x="713" 
d="M638 62c0 -62.667 1.33301 -110.665 4 -143.998h-115c-2.66699 19.333 -5 52.666 -7 99.999c-22.667 -36.667 -51.5 -64.834 -86.5 -84.501s-75.167 -29.5 -120.5 -29.5c-48.667 0 -93 13.667 -133 41s-71.5 65.833 -94.5 115.5s-34.5 106.5 -34.5 170.5
c0 63.333 11.5 119.833 34.5 169.5s54.5 88.167 94.5 115.5s84.333 41 133 41c45.333 0 85.5 -9.83301 120.5 -29.5s63.833 -47.5 86.5 -83.5c2 48.667 4.33301 81.667 7 99h115c-2.66699 -33.333 -4 -81.333 -4 -144v-337zM430 36.002
c24.667 18.667 43.834 44.834 57.501 78.501s20.5 72.5 20.5 116.5s-6.83301 82.833 -20.5 116.5s-32.834 59.667 -57.501 78s-53.334 27.5 -86.001 27.5c-32 0 -60.333 -9.33301 -85 -28s-43.834 -44.667 -57.501 -78s-20.5 -72 -20.5 -116s6.83301 -82.833 20.5 -116.5
s32.834 -59.834 57.501 -78.501s53 -28 85 -28c32.667 0 61.334 9.33301 86.001 28z" />
    <glyph glyph-name="b" unicode="b" horiz-adv-x="713" 
d="M533 516c40 -27.333 71.668 -65.834 95.001 -115.501s35 -106.167 35 -169.5c0 -64 -11.667 -120.833 -35 -170.5s-55 -88.167 -95 -115.5s-84.333 -41 -133 -41c-45.333 0 -85.5 9.83301 -120.5 29.5s-63.833 47.5 -86.5 83.5c-0.666992 -39.333 -3 -72.333 -7 -99h-115
c3.33301 41.333 5 89.333 5 144v738h129v-339c22 30.667 49.667 54.334 83 71.001s70.666 25 111.999 25c48.667 0 93 -13.667 133 -41zM454.001 35.999c24.667 18.667 43.834 44.834 57.501 78.501s20.5 72.5 20.5 116.5s-6.83301 82.667 -20.5 116
s-32.834 59.333 -57.501 78s-53 28 -85 28s-60.5 -9.33301 -85.5 -28s-44.333 -44.667 -58 -78s-20.5 -72 -20.5 -116s6.83301 -82.833 20.5 -116.5s33 -59.834 58 -78.501s53.5 -28 85.5 -28s60.333 9.33301 85 28z" />
    <glyph glyph-name="c" unicode="c" horiz-adv-x="614" 
d="M88.5 401c25 49.333 59.5 87.668 103.5 115.001s94 41 150 41c63.333 0 115 -13.5 155 -40.5s66.333 -62.167 79 -105.5l-111 -52c-16.667 58.667 -57 88 -121 88c-49.333 0 -88.833 -19.5 -118.5 -58.5s-44.5 -91.5 -44.5 -157.5
c0 -66.667 14.833 -119.334 44.5 -158.001s69.167 -58 118.5 -58c64.667 0 105 29 121 87l111 -51c-12.667 -44 -39 -79.5 -79 -106.5s-91.667 -40.5 -155 -40.5c-56 0 -106 13.667 -150 41s-78.5 65.833 -103.5 115.5s-37.5 106.5 -37.5 170.5s12.5 120.667 37.5 170z" />
    <glyph glyph-name="d" unicode="d" horiz-adv-x="715" 
d="M529 -82c-4 26.667 -6.33301 59.668 -7 99.001c-22.667 -36 -51.5 -63.833 -86.5 -83.5s-74.833 -29.5 -119.5 -29.5c-49.333 0 -94 13.667 -134 41s-71.5 65.833 -94.5 115.5s-34.5 106.5 -34.5 170.5c0 63.333 11.5 119.833 34.5 169.5s54.5 88.167 94.5 115.5
s84.667 41 134 41c41.333 0 78.5 -8.33301 111.5 -25s60.5 -40.334 82.5 -71.001v339h130v-738c0 -62.667 1.33301 -110.667 4 -144h-115zM432 36.001c24.667 18.667 43.834 44.834 57.501 78.501s20.5 72.5 20.5 116.5s-6.83301 82.667 -20.5 116
s-32.834 59.333 -57.501 78s-53 28 -85 28s-60.5 -9.33301 -85.5 -28s-44.333 -44.667 -58 -78s-20.5 -72 -20.5 -116s6.83301 -82.833 20.5 -116.5s33 -59.834 58 -78.501s53.5 -28 85.5 -28s60.333 9.33301 85 28z" />
    <glyph glyph-name="e" unicode="e" horiz-adv-x="665" 
d="M612 197h-430c3.33301 -60.667 20.166 -107.334 50.499 -140.001s70.5 -49 120.5 -49c36.667 0 65.834 7.83301 87.501 23.5s39.167 39.5 52.5 71.5l107 -51c-40 -98.667 -122 -148 -246 -148c-61.333 0 -115 13.667 -161 41s-81.167 65.833 -105.5 115.5
s-36.5 106.5 -36.5 170.5c0 63.333 12.333 119.833 37 169.5s58.5 88.167 101.5 115.5s91.5 41 145.5 41c57.333 0 107 -13.333 149 -40s74.167 -64.667 96.5 -114s33.5 -106.666 33.5 -171.999c0 -12 -0.666992 -23.333 -2 -34zM234 411
c-26.667 -28 -43.334 -67.667 -50.001 -119h298c-5.33301 52.667 -20.666 92.667 -45.999 120s-59.333 41 -102 41c-40 0 -73.333 -14 -100 -42z" />
    <glyph glyph-name="f" unicode="f" horiz-adv-x="433" 
d="M254 611l0.000976562 -68h142v-104h-142v-521h-129v521h-89v104h89v74c0 64 16.333 112.833 49 146.5s80 50.5 142 50.5c21.333 0 41.166 -2 59.499 -6s33.5 -9 45.5 -15v-94c-22.667 5.33301 -46 8 -70 8c-64.667 0 -97 -32 -97 -96z" />
    <glyph glyph-name="g" unicode="g" horiz-adv-x="703" 
d="M631 543c-2 -50 -3.00098 -98.001 -3.00098 -144.001v-448c0 -86.667 -25.5 -154.5 -76.5 -203.5s-123.167 -73.5 -216.5 -73.5c-77.333 0 -139.5 12.833 -186.5 38.5s-78.167 62.5 -93.5 110.5l104 48c10 -28.667 29.333 -51.167 58 -67.5s65.334 -24.5 110.001 -24.5
c56 0 98.5 14.167 127.5 42.5s43.5 70.833 43.5 127.5v65c-22 -30.667 -49.167 -54.334 -81.5 -71.001s-68.5 -25 -108.5 -25c-48 0 -91.5 13.333 -130.5 40s-69.833 64.334 -92.5 113.001s-34 104 -34 166c0 62.667 11.333 118.334 34 167.001s53.5 86.334 92.5 113.001
s82.5 40 130.5 40c44 0 83 -9.83301 117 -29.5s62 -47.5 84 -83.5c1.33301 23.333 2.83301 44.666 4.5 63.999s2.5 31 2.5 35h115zM421.999 49.999c24 18 42.667 43.167 56 75.5s20 69.5 20 111.5c0 42.667 -6.66699 80.334 -20 113.001s-32 58 -56 76s-51.667 27 -83 27
s-58.833 -9 -82.5 -27s-42.167 -43.333 -55.5 -76s-20 -70.334 -20 -113.001c0 -42 6.66699 -79.167 20 -111.5s31.833 -57.5 55.5 -75.5s51.167 -27 82.5 -27s59 9 83 27z" />
    <glyph glyph-name="h" unicode="h" horiz-adv-x="696" 
d="M568 497.5c38 -39.667 57 -95.5 57 -167.5v-412h-130v392c0 46.667 -10.833 81.167 -32.5 103.5s-54.167 33.5 -97.5 33.5c-48.667 0 -87.5 -16.5 -116.5 -49.5s-43.5 -77.167 -43.5 -132.5v-347h-130v882h130v-339c46 64 114.667 96 206 96
c66.667 0 119 -19.833 157 -59.5z" />
    <glyph glyph-name="i" unicode="i" horiz-adv-x="296" 
d="M90 758c14.667 14.667 34 22 58 22s43.333 -7.33301 58 -22s22 -34 22 -58s-7.33301 -43.333 -22 -58s-34 -22 -58 -22s-43.333 7.33301 -58 22s-22 34 -22 58s7.33301 43.333 22 58zM213 543v-625h-130v625h130z" />
    <glyph glyph-name="j" unicode="j" horiz-adv-x="296" 
d="M90 758c14.667 14.667 34 22 58 22s43.333 -7.33301 58 -22s22 -34 22 -58s-7.33301 -43.333 -22 -58s-34 -22 -58 -22s-43.333 7.33301 -58 22s-22 34 -22 58s7.33301 43.333 22 58zM163.5 -275c-33 -34 -78.166 -50.999 -135.499 -50.999
c-30.667 0 -60.334 5.33301 -89.001 16v103c16.667 -6 37 -9 61 -9c26.667 0 47.167 7.16699 61.5 21.5s21.5 35.166 21.5 62.499v675h130v-678c0 -59.333 -16.5 -106 -49.5 -140z" />
    <glyph glyph-name="k" unicode="k" horiz-adv-x="630" 
d="M447 -82l-242 309v-309h-130v882h130v-535l229 278h157l-252 -297l274 -328h-166z" />
    <glyph glyph-name="l" unicode="l" horiz-adv-x="296" 
d="M213 800v-882h-130v882h130z" />
    <glyph glyph-name="m" unicode="m" horiz-adv-x="1034" 
d="M909.5 502c34.333 -36.667 51.501 -87.333 51.501 -152v-432h-129v411c0 79.333 -37.333 119 -112 119c-41.333 0 -74.5 -14.5 -99.5 -43.5s-37.5 -67.5 -37.5 -115.5v-371h-130v411c0 79.333 -37 119 -111 119c-41.333 0 -74.5 -14.5 -99.5 -43.5
s-37.5 -67.5 -37.5 -115.5v-371h-129v481c0 54.667 -1.66699 102.667 -5 144h115c2.66699 -19.333 5 -50 7 -92c42 70.667 107.333 106 196 106c42.667 0 79 -9.16699 109 -27.5s52.333 -44.833 67 -79.5c41.333 71.333 108.666 107 201.999 107
c60.667 0 108.167 -18.333 142.5 -55z" />
    <glyph glyph-name="n" unicode="n" horiz-adv-x="696" 
d="M568 497.5c38 -39.667 57 -95.5 57 -167.5v-412h-130v392c0 46.667 -10.833 81.167 -32.5 103.5s-54.167 33.5 -97.5 33.5c-48.667 0 -87.5 -16.5 -116.5 -49.5s-43.5 -77.167 -43.5 -132.5v-347h-130v481c0 62.667 -1.33301 110.667 -4 144h115
c4 -24.667 6.33301 -57.667 7 -99c46 75.333 118.667 113 218 113c66.667 0 119 -19.833 157 -59.5z" />
    <glyph glyph-name="o" unicode="o" horiz-adv-x="688" 
d="M88.5 401c25 49.333 59.833 87.666 104.5 114.999s95 41 151 41s106.333 -13.667 151 -41s79.5 -65.666 104.5 -114.999s37.5 -106 37.5 -170s-12.5 -120.833 -37.5 -170.5s-59.833 -88.167 -104.5 -115.5s-95 -41 -151 -41s-106.333 13.667 -151 41
s-79.5 65.833 -104.5 115.5s-37.5 106.5 -37.5 170.5s12.5 120.667 37.5 170zM486.5 347c-13.667 33.333 -32.834 59.333 -57.501 78s-53 28 -85 28s-60.333 -9.33301 -85 -28s-43.834 -44.667 -57.501 -78s-20.5 -72 -20.5 -116s6.83301 -82.833 20.5 -116.5
s32.834 -59.834 57.501 -78.501s53 -28 85 -28s60.333 9.33301 85 28s43.834 44.834 57.501 78.501s20.5 72.5 20.5 116.5s-6.83301 82.667 -20.5 116z" />
    <glyph glyph-name="p" unicode="p" horiz-adv-x="713" 
d="M533 516c40 -27.333 71.666 -65.834 94.999 -115.501s35 -106.167 35 -169.5c0 -64 -11.667 -120.833 -35 -170.5s-55 -88.167 -95 -115.5s-84.333 -41 -133 -41c-41.333 0 -78.666 8.33301 -111.999 25s-61 40.334 -83 71.001v-312h-129v711
c0 54.667 -1.66699 102.667 -5 144h115c4 -24.667 6.33301 -57.667 7 -99c22.667 36 51.5 63.833 86.5 83.5s75.167 29.5 120.5 29.5c48.667 0 93 -13.667 133 -41zM453.999 35.999c24.667 18.667 43.834 44.834 57.501 78.501s20.5 72.5 20.5 116.5
s-6.83301 82.667 -20.5 116s-32.834 59.333 -57.501 78s-53 28 -85 28s-60.5 -9.33301 -85.5 -28s-44.333 -44.667 -58 -78s-20.5 -72 -20.5 -116s6.83301 -82.833 20.5 -116.5s33 -59.834 58 -78.501s53.5 -28 85.5 -28s60.333 9.33301 85 28z" />
    <glyph glyph-name="q" unicode="q" horiz-adv-x="713" 
d="M642 543c-2.66699 -33.333 -4.00098 -81.332 -4.00098 -143.999v-711h-130v312c-22 -30.667 -49.667 -54.334 -83 -71.001s-70.666 -25 -111.999 -25c-48.667 0 -93 13.667 -133 41s-71.5 65.833 -94.5 115.5s-34.5 106.5 -34.5 170.5c0 63.333 11.5 119.833 34.5 169.5
s54.5 88.167 94.5 115.5s84.333 41 133 41c45.333 0 85.5 -9.83301 120.5 -29.5s63.833 -47.5 86.5 -83.5c2 48.667 4.33301 81.667 7 99h115zM429.999 36.001c24.667 18.667 43.834 44.834 57.501 78.501s20.5 72.5 20.5 116.5s-6.83301 82.833 -20.5 116.5
s-32.834 59.667 -57.501 78s-53.334 27.5 -86.001 27.5c-32 0 -60.333 -9.33301 -85 -28s-43.834 -44.667 -57.501 -78s-20.5 -72 -20.5 -116s6.83301 -82.833 20.5 -116.5s32.834 -59.834 57.501 -78.501s53 -28 85 -28c32.667 0 61.334 9.33301 86.001 28z" />
    <glyph glyph-name="r" unicode="r" horiz-adv-x="442" 
d="M405 551l-0.000976562 -117c-14.667 2.66699 -29 4 -43 4c-46.667 0 -84.5 -15.333 -113.5 -46s-43.5 -73.334 -43.5 -128.001v-346h-129v481c0 54.667 -1.66699 102.667 -5 144h113c3.33301 -23.333 5.33301 -57.666 6 -102.999c18.667 38 43.334 67 74.001 87
s65.667 30 105 30c16 0 28 -2 36 -6z" />
    <glyph glyph-name="s" unicode="s" horiz-adv-x="577" 
d="M61 375c0 35.333 9.66992 66.833 29.0029 94.5s46.166 49.167 80.499 64.5s73.5 23 117.5 23c61.333 0 112.166 -11.833 152.499 -35.5s66.833 -56.834 79.5 -99.501l-100 -46c-16 54 -58.333 81 -127 81c-32 0 -57.333 -6.83301 -76 -20.5s-28 -32.5 -28 -56.5
s9.66699 -42.333 29 -55s53.666 -22.667 102.999 -30c73.333 -10.667 127.333 -31.834 162 -63.501s52 -75.167 52 -130.5c0 -38.667 -10.333 -73 -31 -103s-49.167 -53.167 -85.5 -69.5s-77.5 -24.5 -123.5 -24.5c-68 0 -123.833 13.167 -167.5 39.5
s-73.167 63.833 -88.5 112.5l99 46c21.333 -65.333 71.333 -98 150 -98c37.333 0 66.5 7.66699 87.5 23s31.5 37 31.5 65c0 20.667 -4.33301 37.334 -13 50.001s-23 22.834 -43 30.501s-48.333 14.167 -85 19.5c-136.667 20 -205 81 -205 183z" />
    <glyph glyph-name="t" unicode="t" horiz-adv-x="443" 
d="M255 439l0.000976562 -342c0 -55.333 27.667 -83 83 -83c24.667 0 45 2.66699 61 8v-103c-28.667 -10 -58.334 -15 -89.001 -15c-57.333 0 -102.5 16.667 -135.5 50s-49.5 79.333 -49.5 138v347h-89v104h89v151h130v-151h144v-104h-144z" />
    <glyph glyph-name="u" unicode="u" horiz-adv-x="696" 
d="M510 -82c-4 26.667 -6.33301 59.667 -7 99c-46 -75.333 -118.667 -113 -218 -113c-66.667 0 -119 20 -157 60s-57 95.667 -57 167v412h130v-392c0 -46 10.833 -80.167 32.5 -102.5s54.167 -33.5 97.5 -33.5c49.333 0 88.333 16.333 117 49s43 77 43 133v346h130v-481
c0 -62.667 1.33301 -110.667 4 -144h-115z" />
    <glyph glyph-name="v" unicode="v" horiz-adv-x="653" 
d="M628 543l-227 -625h-148l-229 625h146l160 -510l159 510h139z" />
    <glyph glyph-name="w" unicode="w" horiz-adv-x="976" 
d="M943 543l-170 -625h-149l-136 506l-136 -506h-149l-169 625h132l114 -505l136 505h151l136 -505l114 505h126z" />
    <glyph glyph-name="x" unicode="x" horiz-adv-x="653" 
d="M468 -82l-145 245l-140 -245h-149l210 317l-205 308h157l134 -237l140 237h143l-203 -307l210 -318h-152z" />
    <glyph glyph-name="y" unicode="y" horiz-adv-x="654" 
d="M630 543l-317 -855h-144l104 219l-249 636h148l162 -507l157 507h139z" />
    <glyph glyph-name="z" unicode="z" horiz-adv-x="619" 
d="M565 23v-105h-511v81l340 440h-328v104h493v-81l-339 -439h345z" />
    <glyph glyph-name="braceleft" unicode="{" horiz-adv-x="419" 
d="M265 687c-14.667 -12.667 -22 -30.665 -22 -53.998c0 -16.667 1.83301 -31.834 5.5 -45.501s9.5 -29.834 17.5 -48.501c8.66699 -22 15 -40.5 19 -55.5s6 -32.833 6 -53.5c0 -23.333 -5.83301 -44.166 -17.5 -62.499s-27.834 -33.166 -48.501 -44.499
c20.667 -11.333 36.834 -26.166 48.501 -44.499s17.5 -39.166 17.5 -62.499c0 -20.667 -2 -38.5 -6 -53.5s-10.333 -33.5 -19 -55.5c-8 -18.667 -13.833 -34.834 -17.5 -48.501s-5.5 -28.834 -5.5 -45.501c0 -23.333 7.33301 -41.333 22 -54s34.667 -19 60 -19h49v-130h-111
c-44 0 -80.667 14 -110 42s-44 64.667 -44 110c0 23.333 2.33301 44.166 7 62.499s11 38.5 19 60.5s13.667 39.5 17 52.5s5 27.5 5 43.5c0 24 -7.16699 42.833 -21.5 56.5s-34.166 20.5 -59.499 20.5h-41v130h41c25.333 0 45.166 6.83301 59.499 20.5s21.5 32.5 21.5 56.5
c0 16 -1.66699 30.5 -5 43.5s-9 30.5 -17 52.5s-14.333 42.167 -19 60.5s-7 39.166 -7 62.499c0 45.333 14.667 82 44 110s66 42 110 42h111v-130h-49c-25.333 0 -45.333 -6.33301 -60 -19z" />
    <glyph glyph-name="bar" unicode="|" horiz-adv-x="309" 
d="M91 -190v1030h127v-1030h-127z" />
    <glyph glyph-name="braceright" unicode="}" horiz-adv-x="419" 
d="M384 388v-130h-40c-25.333 0 -45.333 -6.83301 -60 -20.5s-22 -32.5 -22 -56.5c0 -16 1.66699 -30.5 5 -43.5s9 -30.5 17 -52.5c8.66699 -22.667 15.334 -43 20.001 -61s7 -38.667 7 -62c0 -30 -6.83301 -56.5 -20.5 -79.5s-32.167 -40.833 -55.5 -53.5
s-49.333 -19 -78 -19h-112v130h49c26 0 46.167 6.33301 60.5 19s21.5 30.667 21.5 54c0 16.667 -1.83301 31.5 -5.5 44.5s-9.16699 29.5 -16.5 49.5c-8.66699 22 -15 40.5 -19 55.5s-6 32.833 -6 53.5c0 24 5.83301 45 17.5 63s27.834 32.667 48.501 44
c-20.667 11.333 -36.834 26 -48.501 44s-17.5 39 -17.5 63c0 20.667 2 38.5 6 53.5s10.333 33.5 19 55.5c7.33301 20 12.833 36.5 16.5 49.5s5.5 27.833 5.5 44.5c0 23.333 -7.16699 41.333 -21.5 54s-34.5 19 -60.5 19h-49v130h112c28.667 0 54.667 -6.33301 78 -19
s41.833 -30.5 55.5 -53.5s20.5 -49.5 20.5 -79.5c0 -23.333 -2.33301 -44 -7 -62s-11.334 -38.333 -20.001 -61c-8 -22 -13.667 -39.5 -17 -52.5s-5 -27.5 -5 -43.5c0 -24 7.33301 -42.833 22 -56.5s34.667 -20.5 60 -20.5h40z" />
    <glyph glyph-name="asciitilde" unicode="~" 
d="M488 370c10.667 9.33301 16 21.666 16 36.999v6h106v-14c0 -27.333 -6.83301 -52.5 -20.5 -75.5s-32.334 -41.167 -56.001 -54.5s-49.5 -20 -77.5 -20c-28.667 0 -53.334 4.16699 -74.001 12.5s-43.667 20.166 -69 35.499c-18.667 10.667 -32.667 18.167 -42 22.5
s-19.666 6.5 -30.999 6.5c-18 0 -32.333 -4.66699 -43 -14s-16 -21.666 -16 -36.999v-6h-106v14c0 27.333 6.83301 52.5 20.5 75.5s32.334 41.167 56.001 54.5s49.5 20 77.5 20c28.667 0 53.334 -4.16699 74.001 -12.5s43.667 -20.166 69 -35.499
c18.667 -10.667 32.667 -18.167 42 -22.5s19.666 -6.5 30.999 -6.5c18 0 32.333 4.66699 43 14z" />
    <glyph glyph-name="exclamdown" unicode="&#xa1;" horiz-adv-x="301" 
d="M208.5 418.5c-14.333 -14.333 -33.833 -21.5 -58.5 -21.5c-24 0 -43.167 7.16699 -57.5 21.5s-21.5 33.833 -21.5 58.5c0 24 7.16699 43.167 21.5 57.5s33.5 21.5 57.5 21.5c24.667 0 44.167 -7.16699 58.5 -21.5s21.5 -33.5 21.5 -57.5
c0 -24.667 -7.16699 -44.167 -21.5 -58.5zM194 295l34 -607h-155l34 607h87z" />
    <glyph glyph-name="cent" unicode="&#xa2;" 
d="M460 151.5c23.333 17 41.334 44.5 54.001 82.5l111 -51c-12.667 -50.667 -42.334 -91.167 -89.001 -121.5s-102.667 -45.5 -168 -45.5c-22.667 0 -44.667 2 -66 6l-25 -104h-85l32 130c-52.667 25.333 -94.167 63.833 -124.5 115.5s-45.5 111.167 -45.5 178.5
c0 63.333 13.333 119.666 40 168.999s63.834 87.833 111.501 115.5s101.834 41.5 162.501 41.5h7l24 96h85l-26 -108c42.667 -11.333 78.834 -30.666 108.501 -57.999s49.167 -60 58.5 -98l-111 -51c-8.66699 26.667 -19.834 48 -33.501 64s-30.167 27.667 -49.5 35
l-102 -418c11.333 -2.66699 24.666 -4 39.999 -4c37.333 0 67.666 8.5 90.999 25.5zM200.501 240c12.333 -30 29.833 -54.666 52.5 -73.999l95 391c-50 -5.33301 -90.167 -27.333 -120.5 -66s-45.5 -88.334 -45.5 -149.001c0 -38 6.16699 -72 18.5 -102z" />
    <glyph glyph-name="sterling" unicode="&#xa3;" horiz-adv-x="716" 
d="M669 29v-110.997h-613v86c46 30.667 77.833 60.667 95.5 90s26.5 65.666 26.5 108.999c0 27.333 -3.66699 55.666 -11 84.999h-122v106h92c-8 28.667 -14.167 54 -18.5 76s-6.5 44.667 -6.5 68c0 47.333 11 89.166 33 125.499s53 64.5 93 84.5s86.667 30 140 30
c69.333 0 126.5 -15.5 171.5 -46.5s75.167 -74.167 90.5 -129.5l-115 -54c-9.33301 38.667 -26.333 68.167 -51 88.5s-56.667 30.5 -96 30.5c-40 0 -72.833 -13 -98.5 -39s-38.5 -59.667 -38.5 -101c0 -34.667 8 -79 24 -133h242v-106h-211c6.66699 -30 10 -57 10 -81
c0 -35.333 -8 -69.833 -24 -103.5s-35.667 -58.5 -59 -74.5h446z" />
    <glyph glyph-name="yen" unicode="&#xa5;" 
d="M406 199h215v-106h-215v-175h-128v175h-215v106h215v84h-215v106h161l-200 375h145l176 -357l175 357h139l-201 -375h162v-106h-214v-84z" />
    <glyph glyph-name="brokenbar" unicode="&#xa6;" horiz-adv-x="309" 
d="M91 390v450h127v-450h-127zM91 -190v450h127v-450h-127z" />
    <glyph glyph-name="section" unicode="&#xa7;" horiz-adv-x="582" 
d="M494.5 153c10.333 -18.667 15.5 -41.332 15.5 -67.999c0 -35.333 -9.66699 -66.833 -29 -94.5s-46.166 -49.167 -80.499 -64.5s-73.5 -23 -117.5 -23c-61.333 0 -112.166 12 -152.499 36s-66.833 57 -79.5 99l101 46c16 -53.333 58 -80 126 -80
c32.667 0 58.167 6.33301 76.5 19s27.5 31 27.5 55c0 23.333 -9.5 41 -28.5 53s-53.5 21.667 -103.5 29c-68.667 10 -119.834 29.5 -153.501 58.5s-50.5 68.5 -50.5 118.5c0 31.333 7.66699 59.333 23 84s37.333 44.667 66 60c-42.667 25.333 -64 63.666 -64 114.999
c0 35.333 9.66699 66.833 29 94.5s46.333 49.167 81 64.5s74 23 118 23c61.333 0 112.166 -12 152.499 -36s66.833 -57 79.5 -99l-101 -46c-16 53.333 -58 80 -126 80c-32.667 0 -58.167 -6.33301 -76.5 -19s-27.5 -31 -27.5 -55c0 -23.333 9.5 -41 28.5 -53
s53.5 -21.667 103.5 -29c68.667 -10 119.834 -29.5 153.501 -58.5s50.5 -68.5 50.5 -118.5c0 -32 -7.83301 -60.167 -23.5 -84.5s-37.5 -44.166 -65.5 -59.499c21.333 -12.667 37.166 -28.334 47.499 -47.001zM282 417.002c-34 0 -60.5 -6.66699 -79.5 -20
s-28.5 -32 -28.5 -56c0 -51.333 41.667 -77 125 -77c34 0 60.667 6.66699 80 20s29 32 29 56c0 51.333 -42 77 -126 77z" />
    <glyph glyph-name="dieresis" unicode="&#xa8;" horiz-adv-x="600" 
d="M125 759c14.667 14.667 34 22 58 22s43.333 -7.33301 58 -22s22 -34 22 -58c0 -24.667 -7.33301 -44.167 -22 -58.5s-34 -21.5 -58 -21.5s-43.333 7.16699 -58 21.5s-22 33.833 -22 58.5c0 24 7.33301 43.333 22 58zM359 759c14.667 14.667 34 22 58 22
s43.333 -7.33301 58 -22s22 -34 22 -58c0 -24.667 -7.33301 -44.167 -22 -58.5s-34 -21.5 -58 -21.5s-43.333 7.16699 -58 21.5s-22 33.833 -22 58.5c0 24 7.33301 43.333 22 58z" />
    <glyph glyph-name="copyright" unicode="&#xa9;" horiz-adv-x="948" 
d="M854 118c-38 -66.667 -90.333 -119 -157 -157s-141 -57 -223 -57s-156.333 19 -223 57s-119 90.333 -157 157s-57 141 -57 223s19 156.333 57 223s90.333 119 157 157s141 57 223 57s156.333 -19 223 -57s119 -90.333 157 -157s57 -141 57 -223s-19 -156.333 -57 -223z
M166.5 161c31 -54 73.5 -96.5 127.5 -127.5s114 -46.5 180 -46.5s126 15.5 180 46.5s96.5 73.5 127.5 127.5s46.5 114 46.5 180s-15.5 126 -46.5 180s-73.5 96.5 -127.5 127.5s-114 46.5 -180 46.5s-126 -15.5 -180 -46.5s-96.5 -73.5 -127.5 -127.5s-46.5 -114 -46.5 -180
s15.5 -126 46.5 -180zM259 477c21.333 39.333 51 70 89 92s81.333 33 130 33c52 0 97.333 -13 136 -39s62.667 -59.667 72 -101l-107 -50c-16.667 52 -51.667 78 -105 78c-38.667 0 -69.5 -13.5 -92.5 -40.5s-34.5 -62.833 -34.5 -107.5c0 -45.333 11.5 -81.5 34.5 -108.5
s53.833 -40.5 92.5 -40.5c53.333 0 88.333 26.333 105 79l107 -50c-9.33301 -41.333 -33.333 -75 -72 -101s-84 -39 -136 -39c-48.667 0 -92 11 -130 33s-67.667 52.667 -89 92s-32 84.333 -32 135s10.667 95.667 32 135z" />
    <glyph glyph-name="ordfeminine" unicode="&#xaa;" horiz-adv-x="601" 
d="M527 388c0 -56 0.998047 -93.999 2.99805 -113.999h-102c-3.33301 30 -5.33301 53.667 -6 71c-18 -26.667 -40.667 -47.334 -68 -62.001s-58.666 -22 -93.999 -22c-38 0 -73 10.833 -105 32.5s-57.333 52 -76 91s-28 83.833 -28 134.5s9.33301 95.667 28 135
s44 69.833 76 91.5s67 32.5 105 32.5c34.667 0 65.834 -7.33301 93.501 -22s50.5 -35.667 68.5 -63c0.666992 17.333 2.66699 41 6 71h102c-2 -20 -3 -58 -3 -114v-262zM377.998 398.001c22.667 30.667 34 71 34 121s-11.333 90.333 -34 121s-52.667 46 -90 46
c-36 0 -65.5 -15.333 -88.5 -46s-34.5 -71 -34.5 -121s11.5 -90.333 34.5 -121s52.5 -46 88.5 -46c37.333 0 67.333 15.333 90 46zM110.998 148.001h361v-95h-361v95z" />
    <glyph glyph-name="guillemotleft" unicode="&#xab;" horiz-adv-x="573" 
d="M153 310l114 -99v-113l-197 158v108l197 158l1 -113zM377 310l115 -99v-113l-198 158v108l198 158l1 -113z" />
    <glyph glyph-name="uni00AD" unicode="&#xad;" horiz-adv-x="393" 
d="M60 362h273v-104h-273v104z" />
    <glyph glyph-name="registered" unicode="&#xae;" horiz-adv-x="394" 
d="M276.5 766.5c24.333 -14.333 43.666 -33.833 57.999 -58.5s21.5 -51.334 21.5 -80.001s-7.16699 -55.334 -21.5 -80.001s-33.666 -44.167 -57.999 -58.5s-50.833 -21.5 -79.5 -21.5s-55.167 7.16699 -79.5 21.5s-43.666 33.833 -57.999 58.5s-21.5 51.334 -21.5 80.001
s7.16699 55.334 21.5 80.001s33.666 44.167 57.999 58.5s50.833 21.5 79.5 21.5s55.167 -7.16699 79.5 -21.5zM289 535.5c24.667 25 37 55.833 37 92.5s-12.333 67.5 -37 92.5s-55.334 37.5 -92.001 37.5s-67.334 -12.5 -92.001 -37.5s-37 -55.833 -37 -92.5
s12.333 -67.5 37 -92.5s55.334 -37.5 92.001 -37.5s67.334 12.5 92.001 37.5zM262 627c-8 -10.667 -18.667 -17.667 -32 -21l47 -76h-49l-40 74h-17v-74h-43v198h84c18.667 0 33.667 -5.66699 45 -17s17 -26.333 17 -45c0 -15.333 -4 -28.333 -12 -39zM171 636h31
c19.333 0 29 10 29 30c0 19.333 -9.66699 29 -29 29h-31v-59z" />
    <glyph glyph-name="macron" unicode="&#xaf;" horiz-adv-x="600" 
d="M139 753h322v-105h-322v105z" />
    <glyph glyph-name="degree" unicode="&#xb0;" horiz-adv-x="586" 
d="M117.5 677c17.667 31.333 42 56 73 74s65.167 27 102.5 27s71.5 -9 102.5 -27s55.333 -42.667 73 -74s26.5 -66.333 26.5 -105c0 -38 -8.83301 -72.667 -26.5 -104s-42 -56 -73 -74s-65.167 -27 -102.5 -27s-71.5 9 -102.5 27s-55.333 42.667 -73 74s-26.5 66 -26.5 104
c0 38.667 8.83301 73.667 26.5 105zM214.5 490c20.333 -21.333 46.5 -32 78.5 -32s58.167 10.667 78.5 32s30.5 48.666 30.5 81.999s-10.167 60.833 -30.5 82.5s-46.5 32.5 -78.5 32.5s-58.167 -10.833 -78.5 -32.5s-30.5 -49.167 -30.5 -82.5s10.167 -60.666 30.5 -81.999z
" />
    <glyph glyph-name="plusminus" unicode="&#xb1;" 
d="M590 481v-106h-195v-187h-107v187h-195v106h195v187h107v-187h195zM93 120h497v-106h-497v106z" />
    <glyph glyph-name="uni00B2" unicode="&#xb2;" horiz-adv-x="382" 
d="M341 416v-75h-299v62l150 146c20 20 33.667 36.333 41 49s11 26.334 11 41.001c0 17.333 -5.16699 31.333 -15.5 42s-24.166 16 -41.499 16c-36 0 -60.667 -20.333 -74 -61l-68 39c22 64.667 70.667 97 146 97c43.333 0 78.666 -12.333 105.999 -37
s41 -56.334 41 -95.001c0 -26.667 -7.33301 -50.5 -22 -71.5s-39.667 -48.5 -75 -82.5l-70 -70h170z" />
    <glyph glyph-name="uni00B3" unicode="&#xb3;" horiz-adv-x="382" 
d="M312 565c20.667 -24.667 30.999 -55 30.999 -91c0 -42 -14 -76 -42 -102s-65 -39 -111 -39c-35.333 0 -65.666 8 -90.999 24s-43 38.333 -53 67l67 40c14 -36.667 39.667 -55 77 -55c19.333 0 34.833 6 46.5 18s17.5 27.667 17.5 47c0 18.667 -6 33.667 -18 45
s-27.667 17 -47 17c-21.333 0 -37.333 -7.66699 -48 -23l-52 58l121 118h-149v75h264v-62l-95 -92c34 -5.33301 61.333 -20.333 82 -45z" />
    <glyph glyph-name="acute" unicode="&#xb4;" horiz-adv-x="600" 
d="M449 800l-96 -199h-106l72 199h130z" />
    <glyph glyph-name="paragraph" unicode="&#xb6;" horiz-adv-x="692" 
d="M611 -82h-140v735h-46v-735h-140v304c-48 4 -90.167 18 -126.5 42s-64.5 55.667 -84.5 95s-30 84 -30 134c0 53.333 11.333 100.5 34 141.5s54.5 72.833 95.5 95.5s88.5 34 142.5 34h295v-846z" />
    <glyph glyph-name="periodcentered" unicode="&#xb7;" horiz-adv-x="301" 
d="M92.5 368c14.333 14.667 33.5 22 57.5 22c24.667 0 44.167 -7.33301 58.5 -22s21.5 -34 21.5 -58s-7.16699 -43.333 -21.5 -58s-33.833 -22 -58.5 -22c-24 0 -43.167 7.33301 -57.5 22s-21.5 34 -21.5 58s7.16699 43.333 21.5 58z" />
    <glyph glyph-name="cedilla" unicode="&#xb8;" horiz-adv-x="600" 
d="M334 -82l-11 -56.001c27.333 -6 48.666 -17 63.999 -33s23 -35.667 23 -59c0 -29.333 -10.667 -52.666 -32 -69.999s-51 -26 -89 -26c-14 0 -29 2 -45 6s-29 8.66699 -39 14l15 56c20 -9.33301 41 -14 63 -14c34 0 51 12 51 36c0 14.667 -7.16699 26.5 -21.5 35.5
s-35.166 15.167 -62.499 18.5l19 92h65z" />
    <glyph glyph-name="uni00B9" unicode="&#xb9;" horiz-adv-x="294" 
d="M222 341h-93v318l-84 -49l1 92l107 62h70z" />
    <glyph glyph-name="ordmasculine" unicode="&#xba;" horiz-adv-x="577" 
d="M81.5 654c20.333 39.333 48.5 69.833 84.5 91.5s76.667 32.5 122 32.5s86 -10.833 122 -32.5s64.167 -52.167 84.5 -91.5s30.5 -84.333 30.5 -135s-10.167 -95.667 -30.5 -135s-48.5 -69.833 -84.5 -91.5s-76.667 -32.5 -122 -32.5s-86 10.833 -122 32.5
s-64.167 52.167 -84.5 91.5s-30.5 84.333 -30.5 135s10.167 95.667 30.5 135zM199.5 397.5c23 -31 52.5 -46.5 88.5 -46.5s65.333 15.5 88 46.5s34 71.5 34 121.5s-11.333 90.5 -34 121.5s-52 46.5 -88 46.5s-65.5 -15.5 -88.5 -46.5s-34.5 -71.5 -34.5 -121.5
s11.5 -90.5 34.5 -121.5zM108 148h360v-95h-360v95z" />
    <glyph glyph-name="guillemotright" unicode="&#xbb;" horiz-adv-x="573" 
d="M196 310l-115 99l-1 113l197 -158v-108l-197 -158v113zM420 310l-115 99l-1 113l198 -158v-108l-198 -158v113z" />
    <glyph glyph-name="onequarter" unicode="&#xbc;" horiz-adv-x="902" 
d="M222 341h-93v318l-84 -49l1 92l107 62h70zM81 -82l556 846h96l-556 -846h-96zM868 2h-52v-84h-88v84h-174v62l186 277h76v-264h52v-75zM728 77v120l-81 -120h81z" />
    <glyph glyph-name="onehalf" unicode="&#xbd;" horiz-adv-x="902" 
d="M222 341h-93v318l-84 -49l1 92l107 62h70zM81 -82l556 846h96l-556 -846h-96zM861 -7v-75h-299v62l150 146c20 20 33.667 36.333 41 49s11 26.334 11 41.001c0 17.333 -5.16699 31.333 -15.5 42s-24.166 16 -41.499 16c-36 0 -60.667 -20.333 -74 -61l-68 39
c22 64.667 70.667 97 146 97c43.333 0 78.666 -12.333 105.999 -37s41 -56.334 41 -95.001c0 -26.667 -7.33301 -50.5 -22 -71.5s-39.667 -48.5 -75 -82.5l-70 -70h170z" />
    <glyph glyph-name="threequarters" unicode="&#xbe;" horiz-adv-x="990" 
d="M312 565c20.667 -24.667 30.999 -55 30.999 -91c0 -42 -14 -76 -42 -102s-65 -39 -111 -39c-35.333 0 -65.666 8 -90.999 24s-43 38.333 -53 67l67 40c14 -36.667 39.667 -55 77 -55c19.333 0 34.833 6 46.5 18s17.5 27.667 17.5 47c0 18.667 -6 33.667 -18 45
s-27.667 17 -47 17c-21.333 0 -37.333 -7.66699 -48 -23l-52 58l121 118h-149v75h264v-62l-95 -92c34 -5.33301 61.333 -20.333 82 -45zM168.999 -82l556 846h96l-556 -846h-96zM955.999 2h-52v-84h-88v84h-174v62l186 277h76v-264h52v-75zM815.999 77v120l-81 -120h81z" />
    <glyph glyph-name="questiondown" unicode="&#xbf;" horiz-adv-x="581" 
d="M350 418.5c-14.667 -14.333 -34 -21.5 -58 -21.5s-43.333 7.16699 -58 21.5s-22 33.833 -22 58.5c0 24 7.33301 43.167 22 57.5s34 21.5 58 21.5s43.333 -7.16699 58 -21.5s22 -33.5 22 -57.5c0 -24.667 -7.33301 -44.167 -22 -58.5zM332.5 153
c-11 -36.667 -29.501 -68.332 -55.501 -94.999l-23 -23c-25.333 -24 -44.333 -45.333 -57 -64s-19 -41.667 -19 -69c0 -34 10.333 -62.333 31 -85s50.334 -34 89.001 -34c70 0 114.333 35.333 133 106l106 -49c-14.667 -54 -43.167 -95.167 -85.5 -123.5
s-96.5 -42.5 -162.5 -42.5c-48 0 -90.667 9.16699 -128 27.5s-66.333 44 -87 77s-31 70.5 -31 112.5c0 35.333 6 66.5 18 93.5s27 50.5 45 70.5s44.333 46 79 78c18 17.333 31.333 39.166 40 65.499s13 58.5 13 96.5h111c0 -58 -5.5 -105.333 -16.5 -142z" />
    <glyph glyph-name="Agrave" unicode="&#xc0;" horiz-adv-x="790" 
d="M546 147h-310l-71 -229h-144l289 846h170l289 -846h-152zM510 265l-119 382l-118 -382h237zM448 821h-106l-96 199h130z" />
    <glyph glyph-name="Aacute" unicode="&#xc1;" horiz-adv-x="790" 
d="M546 147h-310l-71 -229h-144l289 846h170l289 -846h-152zM510 265l-119 382l-118 -382h237zM544 1020l-96 -199h-106l72 199h130z" />
    <glyph glyph-name="Acircumflex" unicode="&#xc2;" horiz-adv-x="790" 
d="M546 147h-310l-71 -229h-144l289 846h170l289 -846h-152zM510 265l-119 382l-118 -382h237zM395 937l-99 -116h-113l158 199h108l158 -199h-113z" />
    <glyph glyph-name="Atilde" unicode="&#xc3;" horiz-adv-x="790" 
d="M546 147h-310l-71 -229h-144l289 846h170l289 -846h-152zM510 265l-119 382l-118 -382h237zM228.5 958.5c20.333 23.667 48.167 35.499 83.5 35.499c20.667 0 38.5 -3 53.5 -9s31.167 -14.667 48.5 -26c12 -8 22.167 -14 30.5 -18s17.166 -6 26.499 -6
c11.333 0 20.166 3.83301 26.499 11.5s9.5 18.5 9.5 32.5h86c-0.666992 -40 -11.167 -71.833 -31.5 -95.5s-48.166 -35.5 -83.499 -35.5c-20.667 0 -38.5 3 -53.5 9s-31.167 14.667 -48.5 26c-12.667 8 -23 13.833 -31 17.5s-16.667 5.5 -26 5.5
c-11.333 0 -20.166 -3.83301 -26.499 -11.5s-9.5 -18.5 -9.5 -32.5h-86c0.666992 40.667 11.167 72.834 31.5 96.501z" />
    <glyph glyph-name="Adieresis" unicode="&#xc4;" horiz-adv-x="790" 
d="M546 147h-310l-71 -229h-144l289 846h170l289 -846h-152zM510 265l-119 382l-118 -382h237zM220 979c14.667 14.667 34 22 58 22s43.333 -7.33301 58 -22s22 -34 22 -58c0 -24.667 -7.33301 -44.167 -22 -58.5s-34 -21.5 -58 -21.5s-43.333 7.16699 -58 21.5
s-22 33.833 -22 58.5c0 24 7.33301 43.333 22 58zM454 979c14.667 14.667 34 22 58 22s43.333 -7.33301 58 -22s22 -34 22 -58c0 -24.667 -7.33301 -44.167 -22 -58.5s-34 -21.5 -58 -21.5s-43.333 7.16699 -58 21.5s-22 33.833 -22 58.5c0 24 7.33301 43.333 22 58z" />
    <glyph glyph-name="Aring" unicode="&#xc5;" horiz-adv-x="790" 
d="M546 147h-310l-71 -229h-144l289 846h170l289 -846h-152zM510 265l-119 382l-118 -382h237zM314 1002.5c21.333 21 48.333 31.5 81 31.5c33.333 0 60.666 -10.667 81.999 -32s32 -48.333 32 -81c0 -33.333 -10.667 -60.5 -32 -81.5s-48.666 -31.5 -81.999 -31.5
s-60.5 10.5 -81.5 31.5s-31.5 48.167 -31.5 81.5s10.667 60.5 32 81.5zM356.5 880.5c10.333 -10.333 23.166 -15.5 38.499 -15.5c16 0 29.167 5.16699 39.5 15.5s15.5 23.833 15.5 40.5c0 16 -5.16699 29.167 -15.5 39.5s-23.5 15.5 -39.5 15.5
c-15.333 0 -28.166 -5.16699 -38.499 -15.5s-15.5 -23.5 -15.5 -39.5c0 -16.667 5.16699 -30.167 15.5 -40.5z" />
    <glyph glyph-name="AE" unicode="&#xc6;" horiz-adv-x="1145" 
d="M648 645l36 -223h370v-119h-351l42 -266h333v-119h-458l-30 229h-311l-111 -229h-151l442 846h619v-119h-430zM574 266l-51 382l-186 -382h237z" />
    <glyph glyph-name="Ccedilla" unicode="&#xc7;" horiz-adv-x="772" 
d="M619 157l116 -54c-18 -61.333 -53 -109.833 -105 -145.5s-116.667 -53.5 -194 -53.5h-16l-8 -42c27.333 -6 48.666 -17 63.999 -33s23 -35.667 23 -59c0 -29.333 -10.667 -52.666 -32 -69.999s-51 -26 -89 -26c-14 0 -29 2 -45 6s-29 8.66699 -39 14l15 56
c20 -9.33301 41 -14 63 -14c34 0 51 12 51 36c0 14.667 -7.16699 26.5 -21.5 35.5s-35.166 15.167 -62.499 18.5l18 86c-60.667 12 -113.667 37.333 -159 76s-80.333 88.334 -105 149.001s-37 128.667 -37 204c0 86 16 162 48 228s76.667 117.333 134 154s123.333 55 198 55
c77.333 0 142 -17.833 194 -53.5s87 -84.167 105 -145.5l-116 -55c-26.667 92 -88.667 138 -186 138c-46.667 0 -87.834 -13.333 -123.501 -40s-63.5 -64.334 -83.5 -113.001s-30 -104.667 -30 -168s10 -119.333 30 -168s47.833 -86.334 83.5 -113.001
s76.834 -40 123.501 -40c97.333 0 159.333 45.667 186 137z" />
    <glyph glyph-name="Egrave" unicode="&#xc8;" horiz-adv-x="656" 
d="M220 646v-225h345v-118h-345v-267h369v-118h-509v846h509v-118h-369zM396 821h-106l-96 199h130z" />
    <glyph glyph-name="Eacute" unicode="&#xc9;" horiz-adv-x="656" 
d="M220 646v-225h345v-118h-345v-267h369v-118h-509v846h509v-118h-369zM492 1020l-96 -199h-106l72 199h130z" />
    <glyph glyph-name="Ecircumflex" unicode="&#xca;" horiz-adv-x="656" 
d="M220 646v-225h345v-118h-345v-267h369v-118h-509v846h509v-118h-369zM335 937l-99 -116h-113l158 199h108l158 -199h-113z" />
    <glyph glyph-name="Edieresis" unicode="&#xcb;" horiz-adv-x="656" 
d="M220 646v-225h345v-118h-345v-267h369v-118h-509v846h509v-118h-369zM160 979c14.667 14.667 34 22 58 22s43.333 -7.33301 58 -22s22 -34 22 -58c0 -24.667 -7.33301 -44.167 -22 -58.5s-34 -21.5 -58 -21.5s-43.333 7.16699 -58 21.5s-22 33.833 -22 58.5
c0 24 7.33301 43.333 22 58zM394 979c14.667 14.667 34 22 58 22s43.333 -7.33301 58 -22s22 -34 22 -58c0 -24.667 -7.33301 -44.167 -22 -58.5s-34 -21.5 -58 -21.5s-43.333 7.16699 -58 21.5s-22 33.833 -22 58.5c0 24 7.33301 43.333 22 58z" />
    <glyph glyph-name="Igrave" unicode="&#xcc;" horiz-adv-x="316" 
d="M228 764v-846h-140v846h140zM212 821h-106l-96 199h130z" />
    <glyph glyph-name="Iacute" unicode="&#xcd;" horiz-adv-x="316" 
d="M228 764v-846h-140v846h140zM308 1020l-96 -199h-106l72 199h130z" />
    <glyph glyph-name="Icircumflex" unicode="&#xce;" horiz-adv-x="316" 
d="M228 764v-846h-140v846h140zM159 937l-99 -116h-113l158 199h108l158 -199h-113z" />
    <glyph glyph-name="Idieresis" unicode="&#xcf;" horiz-adv-x="316" 
d="M228 764v-846h-140v846h140zM-16 979c14.667 14.667 34 22 58 22s43.333 -7.33301 58 -22s22 -34 22 -58c0 -24.667 -7.33301 -44.167 -22 -58.5s-34 -21.5 -58 -21.5s-43.333 7.16699 -58 21.5s-22 33.833 -22 58.5c0 24 7.33301 43.333 22 58zM218 979
c14.667 14.667 34 22 58 22s43.333 -7.33301 58 -22s22 -34 22 -58c0 -24.667 -7.33301 -44.167 -22 -58.5s-34 -21.5 -58 -21.5s-43.333 7.16699 -58 21.5s-22 33.833 -22 58.5c0 24 7.33301 43.333 22 58z" />
    <glyph glyph-name="Eth" unicode="&#xd0;" horiz-adv-x="907" 
d="M673 711.5c56.667 -35 100.167 -84.332 130.5 -147.999s45.5 -137.834 45.5 -222.501s-15.167 -159 -45.5 -223s-73.833 -113.333 -130.5 -148s-123.334 -52 -200.001 -52h-309v385h-134v118h134v343h309c76.667 0 143.334 -17.5 200.001 -52.5zM640.5 118.001
c45.667 54.667 68.5 129 68.5 223c0 93.333 -22.833 167.5 -68.5 222.5s-109.834 82.5 -192.501 82.5h-144v-225h245v-118h-245v-267h144c82.667 0 146.834 27.333 192.501 82z" />
    <glyph glyph-name="Ntilde" unicode="&#xd1;" horiz-adv-x="831" 
d="M750 764v-846h-124l-419 625v-625h-127v846h149l395 -590v590h126zM249.5 958.5c20.333 23.667 48.167 35.499 83.5 35.499c20.667 0 38.5 -3 53.5 -9s31.167 -14.667 48.5 -26c12 -8 22.167 -14 30.5 -18s17.166 -6 26.499 -6c11.333 0 20.166 3.83301 26.499 11.5
s9.5 18.5 9.5 32.5h86c-0.666992 -40 -11.167 -71.833 -31.5 -95.5s-48.166 -35.5 -83.499 -35.5c-20.667 0 -38.5 3 -53.5 9s-31.167 14.667 -48.5 26c-12.667 8 -23 13.833 -31 17.5s-16.667 5.5 -26 5.5c-11.333 0 -20.166 -3.83301 -26.499 -11.5s-9.5 -18.5 -9.5 -32.5
h-86c0.666992 40.667 11.167 72.834 31.5 96.501z" />
    <glyph glyph-name="Ograve" unicode="&#xd2;" horiz-adv-x="866" 
d="M763.5 114c-31.667 -66 -76.167 -117.5 -133.5 -154.5s-123 -55.5 -197 -55.5s-139.667 18.5 -197 55.5s-101.833 88.5 -133.5 154.5s-47.5 141.667 -47.5 227s15.833 161 47.5 227s76.167 117.5 133.5 154.5s123 55.5 197 55.5s139.667 -18.5 197 -55.5
s101.833 -88.5 133.5 -154.5s47.5 -141.667 47.5 -227s-15.833 -161 -47.5 -227zM225 173c20 -48.667 48 -86.334 84 -113.001s77.333 -40 124 -40s88 13.333 124 40s64 64.334 84 113.001s30 104.667 30 168s-10 119.333 -30 168s-48 86.334 -84 113.001
s-77.333 40 -124 40s-88 -13.333 -124 -40s-64 -64.334 -84 -113.001s-30 -104.667 -30 -168s10 -119.333 30 -168zM486 821h-106l-96 199h130z" />
    <glyph glyph-name="Oacute" unicode="&#xd3;" horiz-adv-x="866" 
d="M763.5 114c-31.667 -66 -76.167 -117.5 -133.5 -154.5s-123 -55.5 -197 -55.5s-139.667 18.5 -197 55.5s-101.833 88.5 -133.5 154.5s-47.5 141.667 -47.5 227s15.833 161 47.5 227s76.167 117.5 133.5 154.5s123 55.5 197 55.5s139.667 -18.5 197 -55.5
s101.833 -88.5 133.5 -154.5s47.5 -141.667 47.5 -227s-15.833 -161 -47.5 -227zM225 173c20 -48.667 48 -86.334 84 -113.001s77.333 -40 124 -40s88 13.333 124 40s64 64.334 84 113.001s30 104.667 30 168s-10 119.333 -30 168s-48 86.334 -84 113.001
s-77.333 40 -124 40s-88 -13.333 -124 -40s-64 -64.334 -84 -113.001s-30 -104.667 -30 -168s10 -119.333 30 -168zM582 1020l-96 -199h-106l72 199h130z" />
    <glyph glyph-name="Ocircumflex" unicode="&#xd4;" horiz-adv-x="866" 
d="M763.5 114c-31.667 -66 -76.167 -117.5 -133.5 -154.5s-123 -55.5 -197 -55.5s-139.667 18.5 -197 55.5s-101.833 88.5 -133.5 154.5s-47.5 141.667 -47.5 227s15.833 161 47.5 227s76.167 117.5 133.5 154.5s123 55.5 197 55.5s139.667 -18.5 197 -55.5
s101.833 -88.5 133.5 -154.5s47.5 -141.667 47.5 -227s-15.833 -161 -47.5 -227zM225 173c20 -48.667 48 -86.334 84 -113.001s77.333 -40 124 -40s88 13.333 124 40s64 64.334 84 113.001s30 104.667 30 168s-10 119.333 -30 168s-48 86.334 -84 113.001
s-77.333 40 -124 40s-88 -13.333 -124 -40s-64 -64.334 -84 -113.001s-30 -104.667 -30 -168s10 -119.333 30 -168zM433 937l-99 -116h-113l158 199h108l158 -199h-113z" />
    <glyph glyph-name="Otilde" unicode="&#xd5;" horiz-adv-x="866" 
d="M763.5 114c-31.667 -66 -76.167 -117.5 -133.5 -154.5s-123 -55.5 -197 -55.5s-139.667 18.5 -197 55.5s-101.833 88.5 -133.5 154.5s-47.5 141.667 -47.5 227s15.833 161 47.5 227s76.167 117.5 133.5 154.5s123 55.5 197 55.5s139.667 -18.5 197 -55.5
s101.833 -88.5 133.5 -154.5s47.5 -141.667 47.5 -227s-15.833 -161 -47.5 -227zM225 173c20 -48.667 48 -86.334 84 -113.001s77.333 -40 124 -40s88 13.333 124 40s64 64.334 84 113.001s30 104.667 30 168s-10 119.333 -30 168s-48 86.334 -84 113.001
s-77.333 40 -124 40s-88 -13.333 -124 -40s-64 -64.334 -84 -113.001s-30 -104.667 -30 -168s10 -119.333 30 -168zM266.5 958.5c20.333 23.667 48.167 35.499 83.5 35.499c20.667 0 38.5 -3 53.5 -9s31.167 -14.667 48.5 -26c12 -8 22.167 -14 30.5 -18
s17.166 -6 26.499 -6c11.333 0 20.166 3.83301 26.499 11.5s9.5 18.5 9.5 32.5h86c-0.666992 -40 -11.167 -71.833 -31.5 -95.5s-48.166 -35.5 -83.499 -35.5c-20.667 0 -38.5 3 -53.5 9s-31.167 14.667 -48.5 26c-12.667 8 -23 13.833 -31 17.5s-16.667 5.5 -26 5.5
c-11.333 0 -20.166 -3.83301 -26.499 -11.5s-9.5 -18.5 -9.5 -32.5h-86c0.666992 40.667 11.167 72.834 31.5 96.501z" />
    <glyph glyph-name="Odieresis" unicode="&#xd6;" horiz-adv-x="866" 
d="M763.5 114c-31.667 -66 -76.167 -117.5 -133.5 -154.5s-123 -55.5 -197 -55.5s-139.667 18.5 -197 55.5s-101.833 88.5 -133.5 154.5s-47.5 141.667 -47.5 227s15.833 161 47.5 227s76.167 117.5 133.5 154.5s123 55.5 197 55.5s139.667 -18.5 197 -55.5
s101.833 -88.5 133.5 -154.5s47.5 -141.667 47.5 -227s-15.833 -161 -47.5 -227zM225 173c20 -48.667 48 -86.334 84 -113.001s77.333 -40 124 -40s88 13.333 124 40s64 64.334 84 113.001s30 104.667 30 168s-10 119.333 -30 168s-48 86.334 -84 113.001
s-77.333 40 -124 40s-88 -13.333 -124 -40s-64 -64.334 -84 -113.001s-30 -104.667 -30 -168s10 -119.333 30 -168zM258 979c14.667 14.667 34 22 58 22s43.333 -7.33301 58 -22s22 -34 22 -58c0 -24.667 -7.33301 -44.167 -22 -58.5s-34 -21.5 -58 -21.5
s-43.333 7.16699 -58 21.5s-22 33.833 -22 58.5c0 24 7.33301 43.333 22 58zM492 979c14.667 14.667 34 22 58 22s43.333 -7.33301 58 -22s22 -34 22 -58c0 -24.667 -7.33301 -44.167 -22 -58.5s-34 -21.5 -58 -21.5s-43.333 7.16699 -58 21.5s-22 33.833 -22 58.5
c0 24 7.33301 43.333 22 58z" />
    <glyph glyph-name="multiply" unicode="&#xd7;" 
d="M417 341l190 -190l-76 -75l-189 190l-190 -190l-76 75l190 190l-190 190l76 75l190 -189l189 189l76 -75z" />
    <glyph glyph-name="Oslash" unicode="&#xd8;" horiz-adv-x="866" 
d="M790.5 496c13.667 -48 20.5 -99.667 20.5 -155c0 -85.333 -15.833 -161 -47.5 -227s-76.167 -117.5 -133.5 -154.5s-123 -55.5 -197 -55.5c-44.667 0 -86.5 6.83301 -125.5 20.5s-74.167 33.5 -105.5 59.5l-59 -71l-75 64l67 81c-26 37.333 -45.833 80 -59.5 128
s-20.5 99.667 -20.5 155c0 85.333 15.833 161 47.5 227s76.167 117.5 133.5 154.5s123 55.5 197 55.5c44.667 0 86.5 -6.83301 125.5 -20.5s74.167 -33.5 105.5 -59.5l59 71l75 -64l-67 -81c26 -37.333 45.833 -80 59.5 -128zM227 169l356 431.001
c-41.333 41.333 -91.333 62 -150 62c-46.667 0 -88 -13.333 -124 -40s-64 -64.334 -84 -113.001s-30 -104.667 -30 -168c0 -66 10.667 -123.333 32 -172zM557 60.001c36 26.667 64 64.333 84 113s30 104.667 30 168c0 66 -10.667 123.333 -32 172l-356 -430
c40.667 -42 90.667 -63 150 -63c46.667 0 88 13.333 124 40z" />
    <glyph glyph-name="Ugrave" unicode="&#xd9;" horiz-adv-x="824" 
d="M706 54c-27.333 -48 -66.167 -84.833 -116.5 -110.5s-109.5 -38.5 -177.5 -38.5s-127.333 13 -178 39s-89.667 62.833 -117 110.5s-41 103.834 -41 168.501v541h133v-531c0 -68.667 17.333 -121.334 52 -158.001s83.667 -55 147 -55c64 0 113.167 18.333 147.5 55
s51.5 89.667 51.5 159v530h140v-541c0 -64.667 -13.667 -121 -41 -169zM465.999 821h-106l-96 199h130z" />
    <glyph glyph-name="Uacute" unicode="&#xda;" horiz-adv-x="824" 
d="M706 54c-27.333 -48 -66.167 -84.833 -116.5 -110.5s-109.5 -38.5 -177.5 -38.5s-127.333 13 -178 39s-89.667 62.833 -117 110.5s-41 103.834 -41 168.501v541h133v-531c0 -68.667 17.333 -121.334 52 -158.001s83.667 -55 147 -55c64 0 113.167 18.333 147.5 55
s51.5 89.667 51.5 159v530h140v-541c0 -64.667 -13.667 -121 -41 -169zM561.999 1020l-96 -199h-106l72 199h130z" />
    <glyph glyph-name="Ucircumflex" unicode="&#xdb;" horiz-adv-x="824" 
d="M706 54c-27.333 -48 -66.167 -84.833 -116.5 -110.5s-109.5 -38.5 -177.5 -38.5s-127.333 13 -178 39s-89.667 62.833 -117 110.5s-41 103.834 -41 168.501v541h133v-531c0 -68.667 17.333 -121.334 52 -158.001s83.667 -55 147 -55c64 0 113.167 18.333 147.5 55
s51.5 89.667 51.5 159v530h140v-541c0 -64.667 -13.667 -121 -41 -169zM412.999 937l-99 -116h-113l158 199h108l158 -199h-113z" />
    <glyph glyph-name="Udieresis" unicode="&#xdc;" horiz-adv-x="824" 
d="M706 54c-27.333 -48 -66.167 -84.833 -116.5 -110.5s-109.5 -38.5 -177.5 -38.5s-127.333 13 -178 39s-89.667 62.833 -117 110.5s-41 103.834 -41 168.501v541h133v-531c0 -68.667 17.333 -121.334 52 -158.001s83.667 -55 147 -55c64 0 113.167 18.333 147.5 55
s51.5 89.667 51.5 159v530h140v-541c0 -64.667 -13.667 -121 -41 -169zM237.999 979c14.667 14.667 34 22 58 22s43.333 -7.33301 58 -22s22 -34 22 -58c0 -24.667 -7.33301 -44.167 -22 -58.5s-34 -21.5 -58 -21.5s-43.333 7.16699 -58 21.5s-22 33.833 -22 58.5
c0 24 7.33301 43.333 22 58zM471.999 979c14.667 14.667 34 22 58 22s43.333 -7.33301 58 -22s22 -34 22 -58c0 -24.667 -7.33301 -44.167 -22 -58.5s-34 -21.5 -58 -21.5s-43.333 7.16699 -58 21.5s-22 33.833 -22 58.5c0 24 7.33301 43.333 22 58z" />
    <glyph glyph-name="Yacute" unicode="&#xdd;" horiz-adv-x="744" 
d="M442 256v-338h-140v338l-288 508h159l203 -395l202 395h153zM522 1020l-96 -199h-106l72 199h130z" />
    <glyph glyph-name="Thorn" unicode="&#xde;" horiz-adv-x="695" 
d="M515 578c41.333 -22.667 73.333 -54.5 96 -95.5s34 -88.167 34 -141.5s-11.333 -100.5 -34 -141.5s-54.667 -72.833 -96 -95.5s-89 -34 -143 -34h-152v-152h-140v846h140v-152h152c54 0 101.667 -11.333 143 -34zM463 223.5c28 27.667 42 66.832 42 117.499
s-14 89.834 -42 117.501s-67.667 41.5 -119 41.5h-124v-318h124c51.333 0 91 13.833 119 41.5z" />
    <glyph glyph-name="germandbls" unicode="&#xdf;" horiz-adv-x="772" 
d="M333 444.5c13.333 19 32.6689 38.832 58.002 59.499c22.667 18.667 39.334 35.167 50.001 49.5s16 32.5 16 54.5c0 32 -11.333 57.667 -34 77s-53.334 29 -92.001 29c-39.333 0 -70.5 -9.83301 -93.5 -29.5s-34.5 -45.834 -34.5 -78.501v-688h-130v682
c0 65.333 23 117.333 69 156s109 58 189 58c51.333 0 96.166 -8.5 134.499 -25.5s67.833 -41 88.5 -72s31 -67.167 31 -108.5c0 -25.333 -4.16699 -47.166 -12.5 -65.499s-18.333 -33.333 -30 -45s-26.834 -24.834 -45.501 -39.501s-32.667 -27.5 -42 -38.5
s-14 -23.833 -14 -38.5c0 -19.333 8.33301 -34.333 25 -45s44.667 -22 84 -34c63.333 -17.333 109.666 -43 138.999 -77s44 -76 44 -126c0 -38.667 -9.66699 -72.667 -29 -102s-46.333 -52.166 -81 -68.499s-74.667 -24.5 -120 -24.5c-121.333 0 -197.333 50.667 -228 152
l99 46c11.333 -34 27 -58.833 47 -74.5s47.333 -23.5 82 -23.5c31.333 0 56.333 8.16699 75 24.5s28 38.166 28 65.499s-8.66699 48.833 -26 64.5s-47.666 29.834 -90.999 42.501c-63.333 18 -108.5 39.833 -135.5 65.5s-40.5 59.834 -40.5 102.501
c0 31.333 6.66699 56.5 20 75.5z" />
    <glyph glyph-name="agrave" unicode="&#xe0;" horiz-adv-x="713" 
d="M638 62c0 -62.667 1.33301 -110.665 4 -143.998h-115c-2.66699 19.333 -5 52.666 -7 99.999c-22.667 -36.667 -51.5 -64.834 -86.5 -84.501s-75.167 -29.5 -120.5 -29.5c-48.667 0 -93 13.667 -133 41s-71.5 65.833 -94.5 115.5s-34.5 106.5 -34.5 170.5
c0 63.333 11.5 119.833 34.5 169.5s54.5 88.167 94.5 115.5s84.333 41 133 41c45.333 0 85.5 -9.83301 120.5 -29.5s63.833 -47.5 86.5 -83.5c2 48.667 4.33301 81.667 7 99h115c-2.66699 -33.333 -4 -81.333 -4 -144v-337zM430 36.002
c24.667 18.667 43.834 44.834 57.501 78.501s20.5 72.5 20.5 116.5s-6.83301 82.833 -20.5 116.5s-32.834 59.667 -57.501 78s-53.334 27.5 -86.001 27.5c-32 0 -60.333 -9.33301 -85 -28s-43.834 -44.667 -57.501 -78s-20.5 -72 -20.5 -116s6.83301 -82.833 20.5 -116.5
s32.834 -59.834 57.501 -78.501s53 -28 85 -28c32.667 0 61.334 9.33301 86.001 28zM389 601.002h-106l-96 199h130z" />
    <glyph glyph-name="aacute" unicode="&#xe1;" horiz-adv-x="713" 
d="M638 62c0 -62.667 1.33301 -110.665 4 -143.998h-115c-2.66699 19.333 -5 52.666 -7 99.999c-22.667 -36.667 -51.5 -64.834 -86.5 -84.501s-75.167 -29.5 -120.5 -29.5c-48.667 0 -93 13.667 -133 41s-71.5 65.833 -94.5 115.5s-34.5 106.5 -34.5 170.5
c0 63.333 11.5 119.833 34.5 169.5s54.5 88.167 94.5 115.5s84.333 41 133 41c45.333 0 85.5 -9.83301 120.5 -29.5s63.833 -47.5 86.5 -83.5c2 48.667 4.33301 81.667 7 99h115c-2.66699 -33.333 -4 -81.333 -4 -144v-337zM430 36.002
c24.667 18.667 43.834 44.834 57.501 78.501s20.5 72.5 20.5 116.5s-6.83301 82.833 -20.5 116.5s-32.834 59.667 -57.501 78s-53.334 27.5 -86.001 27.5c-32 0 -60.333 -9.33301 -85 -28s-43.834 -44.667 -57.501 -78s-20.5 -72 -20.5 -116s6.83301 -82.833 20.5 -116.5
s32.834 -59.834 57.501 -78.501s53 -28 85 -28c32.667 0 61.334 9.33301 86.001 28zM485 800.002l-96 -199h-106l72 199h130z" />
    <glyph glyph-name="acircumflex" unicode="&#xe2;" horiz-adv-x="713" 
d="M638 62c0 -62.667 1.33301 -110.665 4 -143.998h-115c-2.66699 19.333 -5 52.666 -7 99.999c-22.667 -36.667 -51.5 -64.834 -86.5 -84.501s-75.167 -29.5 -120.5 -29.5c-48.667 0 -93 13.667 -133 41s-71.5 65.833 -94.5 115.5s-34.5 106.5 -34.5 170.5
c0 63.333 11.5 119.833 34.5 169.5s54.5 88.167 94.5 115.5s84.333 41 133 41c45.333 0 85.5 -9.83301 120.5 -29.5s63.833 -47.5 86.5 -83.5c2 48.667 4.33301 81.667 7 99h115c-2.66699 -33.333 -4 -81.333 -4 -144v-337zM430 36.002
c24.667 18.667 43.834 44.834 57.501 78.501s20.5 72.5 20.5 116.5s-6.83301 82.833 -20.5 116.5s-32.834 59.667 -57.501 78s-53.334 27.5 -86.001 27.5c-32 0 -60.333 -9.33301 -85 -28s-43.834 -44.667 -57.501 -78s-20.5 -72 -20.5 -116s6.83301 -82.833 20.5 -116.5
s32.834 -59.834 57.501 -78.501s53 -28 85 -28c32.667 0 61.334 9.33301 86.001 28zM336 717.002l-99 -116h-113l158 199h108l158 -199h-113z" />
    <glyph glyph-name="atilde" unicode="&#xe3;" horiz-adv-x="713" 
d="M638 62c0 -62.667 1.33301 -110.665 4 -143.998h-115c-2.66699 19.333 -5 52.666 -7 99.999c-22.667 -36.667 -51.5 -64.834 -86.5 -84.501s-75.167 -29.5 -120.5 -29.5c-48.667 0 -93 13.667 -133 41s-71.5 65.833 -94.5 115.5s-34.5 106.5 -34.5 170.5
c0 63.333 11.5 119.833 34.5 169.5s54.5 88.167 94.5 115.5s84.333 41 133 41c45.333 0 85.5 -9.83301 120.5 -29.5s63.833 -47.5 86.5 -83.5c2 48.667 4.33301 81.667 7 99h115c-2.66699 -33.333 -4 -81.333 -4 -144v-337zM430 36.002
c24.667 18.667 43.834 44.834 57.501 78.501s20.5 72.5 20.5 116.5s-6.83301 82.833 -20.5 116.5s-32.834 59.667 -57.501 78s-53.334 27.5 -86.001 27.5c-32 0 -60.333 -9.33301 -85 -28s-43.834 -44.667 -57.501 -78s-20.5 -72 -20.5 -116s6.83301 -82.833 20.5 -116.5
s32.834 -59.834 57.501 -78.501s53 -28 85 -28c32.667 0 61.334 9.33301 86.001 28zM169.5 733.502c20.333 23.667 48.167 35.499 83.5 35.499c20.667 0 38.5 -3 53.5 -9s31.167 -14.667 48.5 -26c12.667 -8 23 -13.833 31 -17.5s16.667 -5.5 26 -5.5
c11.333 0 20.166 3.66699 26.499 11s9.5 18 9.5 32h86c-0.666992 -40 -11.167 -71.833 -31.5 -95.5s-48.166 -35.5 -83.499 -35.5c-20.667 0 -38.5 3 -53.5 9s-31.167 14.667 -48.5 26c-12.667 8 -23 13.833 -31 17.5s-16.667 5.5 -26 5.5c-24 0 -36 -14.667 -36 -44h-86
c0.666992 40.667 11.167 72.834 31.5 96.501z" />
    <glyph glyph-name="adieresis" unicode="&#xe4;" horiz-adv-x="713" 
d="M638 62c0 -62.667 1.33301 -110.665 4 -143.998h-115c-2.66699 19.333 -5 52.666 -7 99.999c-22.667 -36.667 -51.5 -64.834 -86.5 -84.501s-75.167 -29.5 -120.5 -29.5c-48.667 0 -93 13.667 -133 41s-71.5 65.833 -94.5 115.5s-34.5 106.5 -34.5 170.5
c0 63.333 11.5 119.833 34.5 169.5s54.5 88.167 94.5 115.5s84.333 41 133 41c45.333 0 85.5 -9.83301 120.5 -29.5s63.833 -47.5 86.5 -83.5c2 48.667 4.33301 81.667 7 99h115c-2.66699 -33.333 -4 -81.333 -4 -144v-337zM430 36.002
c24.667 18.667 43.834 44.834 57.501 78.501s20.5 72.5 20.5 116.5s-6.83301 82.833 -20.5 116.5s-32.834 59.667 -57.501 78s-53.334 27.5 -86.001 27.5c-32 0 -60.333 -9.33301 -85 -28s-43.834 -44.667 -57.501 -78s-20.5 -72 -20.5 -116s6.83301 -82.833 20.5 -116.5
s32.834 -59.834 57.501 -78.501s53 -28 85 -28c32.667 0 61.334 9.33301 86.001 28zM161 759.002c14.667 14.667 34 22 58 22s43.333 -7.33301 58 -22s22 -34 22 -58c0 -24.667 -7.33301 -44.167 -22 -58.5s-34 -21.5 -58 -21.5s-43.333 7.16699 -58 21.5
s-22 33.833 -22 58.5c0 24 7.33301 43.333 22 58zM395 759.002c14.667 14.667 34 22 58 22s43.333 -7.33301 58 -22s22 -34 22 -58c0 -24.667 -7.33301 -44.167 -22 -58.5s-34 -21.5 -58 -21.5s-43.333 7.16699 -58 21.5s-22 33.833 -22 58.5c0 24 7.33301 43.333 22 58z
" />
    <glyph glyph-name="aring" unicode="&#xe5;" horiz-adv-x="713" 
d="M638 62c0 -62.667 1.33301 -110.665 4 -143.998h-115c-2.66699 19.333 -5 52.666 -7 99.999c-22.667 -36.667 -51.5 -64.834 -86.5 -84.501s-75.167 -29.5 -120.5 -29.5c-48.667 0 -93 13.667 -133 41s-71.5 65.833 -94.5 115.5s-34.5 106.5 -34.5 170.5
c0 63.333 11.5 119.833 34.5 169.5s54.5 88.167 94.5 115.5s84.333 41 133 41c45.333 0 85.5 -9.83301 120.5 -29.5s63.833 -47.5 86.5 -83.5c2 48.667 4.33301 81.667 7 99h115c-2.66699 -33.333 -4 -81.333 -4 -144v-337zM430 36.002
c24.667 18.667 43.834 44.834 57.501 78.501s20.5 72.5 20.5 116.5s-6.83301 82.833 -20.5 116.5s-32.834 59.667 -57.501 78s-53.334 27.5 -86.001 27.5c-32 0 -60.333 -9.33301 -85 -28s-43.834 -44.667 -57.501 -78s-20.5 -72 -20.5 -116s6.83301 -82.833 20.5 -116.5
s32.834 -59.834 57.501 -78.501s53 -28 85 -28c32.667 0 61.334 9.33301 86.001 28zM255 782.002c21.333 21.333 48.3311 32 80.998 32s59.834 -10.667 81.501 -32s32.5 -48.333 32.5 -81c0 -33.333 -10.667 -60.5 -32 -81.5s-48.666 -31.5 -81.999 -31.5
s-60.5 10.5 -81.5 31.5s-31.5 48.167 -31.5 81.5c0 32.667 10.667 59.667 32 81zM297.498 660.502c10.333 -10.333 23.166 -15.5 38.499 -15.5c16 0 29.167 5.16699 39.5 15.5s15.5 23.833 15.5 40.5c0 16 -5.16699 29.167 -15.5 39.5s-23.5 15.5 -39.5 15.5
c-15.333 0 -28.166 -5.16699 -38.499 -15.5s-15.5 -23.5 -15.5 -39.5c0 -16.667 5.16699 -30.167 15.5 -40.5z" />
    <glyph glyph-name="ae" unicode="&#xe6;" horiz-adv-x="1066" 
d="M1013 197h-429.996c3.33301 -60.667 20.166 -107.334 50.499 -140.001s70.5 -49 120.5 -49c37.333 0 67.166 8.33301 89.499 25s39.833 41 52.5 73l108 -51c-40 -100.667 -121.333 -151 -244 -151c-56.667 0 -105.334 11.5 -146.001 34.5s-72.667 55.833 -96 98.5
c-22.667 -42 -54.667 -74.667 -96 -98s-89.666 -35 -144.999 -35c-45.333 0 -85.333 7.66699 -120 23s-61.667 37.333 -81 66s-29 61.667 -29 99c0 66.667 23.167 116.667 69.5 150s113.833 50 202.5 50h133c-0.666992 54.667 -12.667 95.167 -36 121.5
s-58.333 39.5 -105 39.5c-38 0 -67.5 -8 -88.5 -24s-36.5 -41 -46.5 -75l-108 51c15.333 48.667 43.666 86.167 84.999 112.5s94 39.5 158 39.5c50.667 0 94.167 -10.167 130.5 -30.5s64.166 -49.833 83.499 -88.5c22 38 51 67.333 87 88s77.333 31 124 31
c57.333 0 107 -13.333 149 -40s74.167 -64.5 96.5 -113.5s33.5 -106.5 33.5 -172.5c0 -17.333 -0.666992 -28.666 -2 -33.999zM635.004 411c-26.667 -28 -43.333 -67.667 -50 -119h299c-6 52.667 -21.667 92.667 -47 120s-59.333 41 -102 41c-40 0 -73.333 -14 -100 -42z
M409.005 55c28.667 31.333 42.999 78.667 42.999 142h-120c-50 0 -87.333 -7.83301 -112 -23.5s-37 -40.167 -37 -73.5c0 -29.333 8.83301 -52 26.5 -68s43.5 -24 77.5 -24c52.667 0 93.334 15.667 122.001 47z" />
    <glyph glyph-name="ccedilla" unicode="&#xe7;" horiz-adv-x="614" 
d="M465 102l111.001 -50.998c-11.333 -40.667 -34.5 -74.167 -69.5 -100.5s-80.167 -41.5 -135.5 -45.5l-8 -43c27.333 -6 48.666 -17 63.999 -33s23 -35.667 23 -59c0 -29.333 -10.667 -52.666 -32 -69.999s-51 -26 -89 -26c-14 0 -29 2 -45 6s-29 8.66699 -39 14l15 56
c20 -9.33301 41 -14 63 -14c34 0 51 12 51 36c0 14.667 -7.16699 26.5 -21.5 35.5s-35.166 15.167 -62.499 18.5l17 80c-50 5.33301 -94.333 22.333 -133 51s-68.834 66.667 -90.501 114s-32.5 100.666 -32.5 159.999c0 64 12.5 120.667 37.5 170s59.5 87.666 103.5 114.999
s94 41 150 41c63.333 0 115 -13.5 155 -40.5s66.333 -62.167 79 -105.5l-111 -52c-16.667 58.667 -57 88 -121 88c-49.333 0 -88.833 -19.5 -118.5 -58.5s-44.5 -91.5 -44.5 -157.5c0 -66.667 14.833 -119.334 44.5 -158.001s69.167 -58 118.5 -58c64.667 0 105 29 121 87z
" />
    <glyph glyph-name="egrave" unicode="&#xe8;" horiz-adv-x="665" 
d="M612 197h-430c3.33301 -60.667 20.166 -107.334 50.499 -140.001s70.5 -49 120.5 -49c36.667 0 65.834 7.83301 87.501 23.5s39.167 39.5 52.5 71.5l107 -51c-40 -98.667 -122 -148 -246 -148c-61.333 0 -115 13.667 -161 41s-81.167 65.833 -105.5 115.5
s-36.5 106.5 -36.5 170.5c0 63.333 12.333 119.833 37 169.5s58.5 88.167 101.5 115.5s91.5 41 145.5 41c57.333 0 107 -13.333 149 -40s74.167 -64.667 96.5 -114s33.5 -106.666 33.5 -171.999c0 -12 -0.666992 -23.333 -2 -34zM234 411
c-26.667 -28 -43.334 -67.667 -50.001 -119h298c-5.33301 52.667 -20.666 92.667 -45.999 120s-59.333 41 -102 41c-40 0 -73.333 -14 -100 -42zM389 601h-106l-96 199h130z" />
    <glyph glyph-name="eacute" unicode="&#xe9;" horiz-adv-x="665" 
d="M612 197h-430c3.33301 -60.667 20.166 -107.334 50.499 -140.001s70.5 -49 120.5 -49c36.667 0 65.834 7.83301 87.501 23.5s39.167 39.5 52.5 71.5l107 -51c-40 -98.667 -122 -148 -246 -148c-61.333 0 -115 13.667 -161 41s-81.167 65.833 -105.5 115.5
s-36.5 106.5 -36.5 170.5c0 63.333 12.333 119.833 37 169.5s58.5 88.167 101.5 115.5s91.5 41 145.5 41c57.333 0 107 -13.333 149 -40s74.167 -64.667 96.5 -114s33.5 -106.666 33.5 -171.999c0 -12 -0.666992 -23.333 -2 -34zM234 411
c-26.667 -28 -43.334 -67.667 -50.001 -119h298c-5.33301 52.667 -20.666 92.667 -45.999 120s-59.333 41 -102 41c-40 0 -73.333 -14 -100 -42zM485 800l-96 -199h-106l72 199h130z" />
    <glyph glyph-name="ecircumflex" unicode="&#xea;" horiz-adv-x="665" 
d="M612 197h-430c3.33301 -60.667 20.166 -107.334 50.499 -140.001s70.5 -49 120.5 -49c36.667 0 65.834 7.83301 87.501 23.5s39.167 39.5 52.5 71.5l107 -51c-40 -98.667 -122 -148 -246 -148c-61.333 0 -115 13.667 -161 41s-81.167 65.833 -105.5 115.5
s-36.5 106.5 -36.5 170.5c0 63.333 12.333 119.833 37 169.5s58.5 88.167 101.5 115.5s91.5 41 145.5 41c57.333 0 107 -13.333 149 -40s74.167 -64.667 96.5 -114s33.5 -106.666 33.5 -171.999c0 -12 -0.666992 -23.333 -2 -34zM234 411
c-26.667 -28 -43.334 -67.667 -50.001 -119h298c-5.33301 52.667 -20.666 92.667 -45.999 120s-59.333 41 -102 41c-40 0 -73.333 -14 -100 -42zM336 717l-99 -116h-113l158 199h108l158 -199h-113z" />
    <glyph glyph-name="edieresis" unicode="&#xeb;" horiz-adv-x="665" 
d="M612 197h-430c3.33301 -60.667 20.166 -107.334 50.499 -140.001s70.5 -49 120.5 -49c36.667 0 65.834 7.83301 87.501 23.5s39.167 39.5 52.5 71.5l107 -51c-40 -98.667 -122 -148 -246 -148c-61.333 0 -115 13.667 -161 41s-81.167 65.833 -105.5 115.5
s-36.5 106.5 -36.5 170.5c0 63.333 12.333 119.833 37 169.5s58.5 88.167 101.5 115.5s91.5 41 145.5 41c57.333 0 107 -13.333 149 -40s74.167 -64.667 96.5 -114s33.5 -106.666 33.5 -171.999c0 -12 -0.666992 -23.333 -2 -34zM234 411
c-26.667 -28 -43.334 -67.667 -50.001 -119h298c-5.33301 52.667 -20.666 92.667 -45.999 120s-59.333 41 -102 41c-40 0 -73.333 -14 -100 -42zM161 759c14.667 14.667 34 22 58 22s43.333 -7.33301 58 -22s22 -34 22 -58c0 -24.667 -7.33301 -44.167 -22 -58.5
s-34 -21.5 -58 -21.5s-43.333 7.16699 -58 21.5s-22 33.833 -22 58.5c0 24 7.33301 43.333 22 58zM395 759c14.667 14.667 34 22 58 22s43.333 -7.33301 58 -22s22 -34 22 -58c0 -24.667 -7.33301 -44.167 -22 -58.5s-34 -21.5 -58 -21.5s-43.333 7.16699 -58 21.5
s-22 33.833 -22 58.5c0 24 7.33301 43.333 22 58z" />
    <glyph glyph-name="igrave" unicode="&#xec;" horiz-adv-x="296" 
d="M213 543v-625h-130v625h130zM201 600h-106l-96 199h130z" />
    <glyph glyph-name="iacute" unicode="&#xed;" horiz-adv-x="296" 
d="M213 543v-625h-130v625h130zM297 799l-96 -199h-106l72 199h130z" />
    <glyph glyph-name="icircumflex" unicode="&#xee;" horiz-adv-x="296" 
d="M213 543v-625h-130v625h130zM148 716l-99 -116h-113l158 199h108l158 -199h-113z" />
    <glyph glyph-name="idieresis" unicode="&#xef;" horiz-adv-x="296" 
d="M213 543v-625h-130v625h130zM-27 758c14.667 14.667 34 22 58 22s43.333 -7.33301 58 -22s22 -34 22 -58c0 -24.667 -7.33301 -44.167 -22 -58.5s-34 -21.5 -58 -21.5s-43.333 7.16699 -58 21.5s-22 33.833 -22 58.5c0 24 7.33301 43.333 22 58zM207 758
c14.667 14.667 34 22 58 22s43.333 -7.33301 58 -22s22 -34 22 -58c0 -24.667 -7.33301 -44.167 -22 -58.5s-34 -21.5 -58 -21.5s-43.333 7.16699 -58 21.5s-22 33.833 -22 58.5c0 24 7.33301 43.333 22 58z" />
    <glyph glyph-name="eth" unicode="&#xf0;" horiz-adv-x="688" 
d="M637 231c0 -64 -12.5 -120.835 -37.5 -170.502s-59.833 -88.167 -104.5 -115.5s-95 -41 -151 -41s-106.333 13.667 -151 41s-79.5 65.833 -104.5 115.5s-37.5 106.5 -37.5 170.5c0 62.667 12.667 118.834 38 168.501s58.833 88.334 100.5 116.001s86.5 41.5 134.5 41.5
c25.333 0 50.666 -3.33301 75.999 -10c-30.667 30.667 -65 58 -103 82l-184 -81l-36 85l123 54c-37.333 20.667 -81.333 42 -132 64l131 63c50.667 -20 96.334 -42.333 137.001 -67l149 66l36 -85l-96 -42c141.333 -116 212 -267.667 212 -455zM429 35.998
c24.667 18.667 43.834 44.834 57.501 78.501s20.5 72.5 20.5 116.5s-6.83301 82.667 -20.5 116s-32.834 59.333 -57.501 78s-53 28 -85 28s-60.333 -9.33301 -85 -28s-43.834 -44.667 -57.501 -78s-20.5 -72 -20.5 -116s6.83301 -82.833 20.5 -116.5
s32.834 -59.834 57.501 -78.501s53 -28 85 -28s60.333 9.33301 85 28z" />
    <glyph glyph-name="ntilde" unicode="&#xf1;" horiz-adv-x="696" 
d="M568 497.5c38 -39.667 57 -95.5 57 -167.5v-412h-130v392c0 46.667 -10.833 81.167 -32.5 103.5s-54.167 33.5 -97.5 33.5c-48.667 0 -87.5 -16.5 -116.5 -49.5s-43.5 -77.167 -43.5 -132.5v-347h-130v481c0 62.667 -1.33301 110.667 -4 144h115
c4 -24.667 6.33301 -57.667 7 -99c46 75.333 118.667 113 218 113c66.667 0 119 -19.833 157 -59.5zM189.5 733.5c20.333 23.667 48.167 35.499 83.5 35.499c20.667 0 38.5 -3 53.5 -9s31.167 -14.667 48.5 -26c12.667 -8 23 -13.833 31 -17.5s16.667 -5.5 26 -5.5
c11.333 0 20.166 3.66699 26.499 11s9.5 18 9.5 32h86c-0.666992 -40 -11.167 -71.833 -31.5 -95.5s-48.166 -35.5 -83.499 -35.5c-20.667 0 -38.5 3 -53.5 9s-31.167 14.667 -48.5 26c-12.667 8 -23 13.833 -31 17.5s-16.667 5.5 -26 5.5c-24 0 -36 -14.667 -36 -44h-86
c0.666992 40.667 11.167 72.834 31.5 96.501z" />
    <glyph glyph-name="ograve" unicode="&#xf2;" horiz-adv-x="688" 
d="M88.5 401c25 49.333 59.833 87.666 104.5 114.999s95 41 151 41s106.333 -13.667 151 -41s79.5 -65.666 104.5 -114.999s37.5 -106 37.5 -170s-12.5 -120.833 -37.5 -170.5s-59.833 -88.167 -104.5 -115.5s-95 -41 -151 -41s-106.333 13.667 -151 41
s-79.5 65.833 -104.5 115.5s-37.5 106.5 -37.5 170.5s12.5 120.667 37.5 170zM486.5 347c-13.667 33.333 -32.834 59.333 -57.501 78s-53 28 -85 28s-60.333 -9.33301 -85 -28s-43.834 -44.667 -57.501 -78s-20.5 -72 -20.5 -116s6.83301 -82.833 20.5 -116.5
s32.834 -59.834 57.501 -78.501s53 -28 85 -28s60.333 9.33301 85 28s43.834 44.834 57.501 78.501s20.5 72.5 20.5 116.5s-6.83301 82.667 -20.5 116zM398 601h-106l-96 199h130z" />
    <glyph glyph-name="oacute" unicode="&#xf3;" horiz-adv-x="688" 
d="M88.5 401c25 49.333 59.833 87.666 104.5 114.999s95 41 151 41s106.333 -13.667 151 -41s79.5 -65.666 104.5 -114.999s37.5 -106 37.5 -170s-12.5 -120.833 -37.5 -170.5s-59.833 -88.167 -104.5 -115.5s-95 -41 -151 -41s-106.333 13.667 -151 41
s-79.5 65.833 -104.5 115.5s-37.5 106.5 -37.5 170.5s12.5 120.667 37.5 170zM486.5 347c-13.667 33.333 -32.834 59.333 -57.501 78s-53 28 -85 28s-60.333 -9.33301 -85 -28s-43.834 -44.667 -57.501 -78s-20.5 -72 -20.5 -116s6.83301 -82.833 20.5 -116.5
s32.834 -59.834 57.501 -78.501s53 -28 85 -28s60.333 9.33301 85 28s43.834 44.834 57.501 78.501s20.5 72.5 20.5 116.5s-6.83301 82.667 -20.5 116zM494 800l-96 -199h-106l72 199h130z" />
    <glyph glyph-name="ocircumflex" unicode="&#xf4;" horiz-adv-x="688" 
d="M88.5 401c25 49.333 59.833 87.666 104.5 114.999s95 41 151 41s106.333 -13.667 151 -41s79.5 -65.666 104.5 -114.999s37.5 -106 37.5 -170s-12.5 -120.833 -37.5 -170.5s-59.833 -88.167 -104.5 -115.5s-95 -41 -151 -41s-106.333 13.667 -151 41
s-79.5 65.833 -104.5 115.5s-37.5 106.5 -37.5 170.5s12.5 120.667 37.5 170zM486.5 347c-13.667 33.333 -32.834 59.333 -57.501 78s-53 28 -85 28s-60.333 -9.33301 -85 -28s-43.834 -44.667 -57.501 -78s-20.5 -72 -20.5 -116s6.83301 -82.833 20.5 -116.5
s32.834 -59.834 57.501 -78.501s53 -28 85 -28s60.333 9.33301 85 28s43.834 44.834 57.501 78.501s20.5 72.5 20.5 116.5s-6.83301 82.667 -20.5 116zM345 717l-99 -116h-113l158 199h108l158 -199h-113z" />
    <glyph glyph-name="otilde" unicode="&#xf5;" horiz-adv-x="688" 
d="M88.5 401c25 49.333 59.833 87.666 104.5 114.999s95 41 151 41s106.333 -13.667 151 -41s79.5 -65.666 104.5 -114.999s37.5 -106 37.5 -170s-12.5 -120.833 -37.5 -170.5s-59.833 -88.167 -104.5 -115.5s-95 -41 -151 -41s-106.333 13.667 -151 41
s-79.5 65.833 -104.5 115.5s-37.5 106.5 -37.5 170.5s12.5 120.667 37.5 170zM486.5 347c-13.667 33.333 -32.834 59.333 -57.501 78s-53 28 -85 28s-60.333 -9.33301 -85 -28s-43.834 -44.667 -57.501 -78s-20.5 -72 -20.5 -116s6.83301 -82.833 20.5 -116.5
s32.834 -59.834 57.501 -78.501s53 -28 85 -28s60.333 9.33301 85 28s43.834 44.834 57.501 78.501s20.5 72.5 20.5 116.5s-6.83301 82.667 -20.5 116zM178.5 733.5c20.333 23.667 48.167 35.499 83.5 35.499c20.667 0 38.5 -3 53.5 -9s31.167 -14.667 48.5 -26
c12.667 -8 23 -13.833 31 -17.5s16.667 -5.5 26 -5.5c11.333 0 20.166 3.66699 26.499 11s9.5 18 9.5 32h86c-0.666992 -40 -11.167 -71.833 -31.5 -95.5s-48.166 -35.5 -83.499 -35.5c-20.667 0 -38.5 3 -53.5 9s-31.167 14.667 -48.5 26c-12.667 8 -23 13.833 -31 17.5
s-16.667 5.5 -26 5.5c-24 0 -36 -14.667 -36 -44h-86c0.666992 40.667 11.167 72.834 31.5 96.501z" />
    <glyph glyph-name="odieresis" unicode="&#xf6;" horiz-adv-x="688" 
d="M88.5 401c25 49.333 59.833 87.666 104.5 114.999s95 41 151 41s106.333 -13.667 151 -41s79.5 -65.666 104.5 -114.999s37.5 -106 37.5 -170s-12.5 -120.833 -37.5 -170.5s-59.833 -88.167 -104.5 -115.5s-95 -41 -151 -41s-106.333 13.667 -151 41
s-79.5 65.833 -104.5 115.5s-37.5 106.5 -37.5 170.5s12.5 120.667 37.5 170zM486.5 347c-13.667 33.333 -32.834 59.333 -57.501 78s-53 28 -85 28s-60.333 -9.33301 -85 -28s-43.834 -44.667 -57.501 -78s-20.5 -72 -20.5 -116s6.83301 -82.833 20.5 -116.5
s32.834 -59.834 57.501 -78.501s53 -28 85 -28s60.333 9.33301 85 28s43.834 44.834 57.501 78.501s20.5 72.5 20.5 116.5s-6.83301 82.667 -20.5 116zM170 759c14.667 14.667 34 22 58 22s43.333 -7.33301 58 -22s22 -34 22 -58c0 -24.667 -7.33301 -44.167 -22 -58.5
s-34 -21.5 -58 -21.5s-43.333 7.16699 -58 21.5s-22 33.833 -22 58.5c0 24 7.33301 43.333 22 58zM404 759c14.667 14.667 34 22 58 22s43.333 -7.33301 58 -22s22 -34 22 -58c0 -24.667 -7.33301 -44.167 -22 -58.5s-34 -21.5 -58 -21.5s-43.333 7.16699 -58 21.5
s-22 33.833 -22 58.5c0 24 7.33301 43.333 22 58z" />
    <glyph glyph-name="divide" unicode="&#xf7;" 
d="M283.5 614.5c14.333 14.333 33.833 21.5 58.5 21.5c24 0 43.167 -7.16699 57.5 -21.5s21.5 -33.833 21.5 -58.5c0 -24 -7.16699 -43.167 -21.5 -57.5s-33.5 -21.5 -57.5 -21.5c-24.667 0 -44.167 7.16699 -58.5 21.5s-21.5 33.5 -21.5 57.5
c0 24.667 7.16699 44.167 21.5 58.5zM93 394h497v-106h-497v106zM283.5 183.5c14.333 14.333 33.833 21.5 58.5 21.5c24 0 43.167 -7.16699 57.5 -21.5s21.5 -33.5 21.5 -57.5c0 -24.667 -7.16699 -44.167 -21.5 -58.5s-33.5 -21.5 -57.5 -21.5
c-24.667 0 -44.167 7.16699 -58.5 21.5s-21.5 33.833 -21.5 58.5c0 24 7.16699 43.167 21.5 57.5z" />
    <glyph glyph-name="oslash" unicode="&#xf8;" horiz-adv-x="688" 
d="M637 231c0 -64 -12.5 -120.832 -37.5 -170.499s-59.833 -88.167 -104.5 -115.5s-95 -41 -151 -41c-62 0 -117 16.667 -165 50l-40 -48l-75 64l46 55c-39.333 56 -59 124.667 -59 206c0 64 12.5 120.667 37.5 170s59.833 87.666 104.5 114.999s95 41 151 41
c62 0 117 -16.667 165 -50l40 48l75 -64l-46 -55c39.333 -56 59 -124.333 59 -205zM196 129.001l240.001 290c-26 22.667 -56.667 34 -92 34c-32 0 -60.333 -9.33301 -85 -28s-43.834 -44.667 -57.501 -78s-20.5 -72 -20.5 -116c0 -38 5 -72 15 -102zM429.001 36.001
c24.667 18.667 43.833 44.833 57.5 78.5s20.5 72.5 20.5 116.5c0 37.333 -5 71 -15 101l-240 -290c26 -22.667 56.667 -34 92 -34c32 0 60.333 9.33301 85 28z" />
    <glyph glyph-name="ugrave" unicode="&#xf9;" horiz-adv-x="696" 
d="M510 -82c-4 26.667 -6.33301 59.667 -7 99c-46 -75.333 -118.667 -113 -218 -113c-66.667 0 -119 20 -157 60s-57 95.667 -57 167v412h130v-392c0 -46 10.833 -80.167 32.5 -102.5s54.167 -33.5 97.5 -33.5c49.333 0 88.333 16.333 117 49s43 77 43 133v346h130v-481
c0 -62.667 1.33301 -110.667 4 -144h-115zM395 601h-106l-96 199h130z" />
    <glyph glyph-name="uacute" unicode="&#xfa;" horiz-adv-x="696" 
d="M510 -82c-4 26.667 -6.33301 59.667 -7 99c-46 -75.333 -118.667 -113 -218 -113c-66.667 0 -119 20 -157 60s-57 95.667 -57 167v412h130v-392c0 -46 10.833 -80.167 32.5 -102.5s54.167 -33.5 97.5 -33.5c49.333 0 88.333 16.333 117 49s43 77 43 133v346h130v-481
c0 -62.667 1.33301 -110.667 4 -144h-115zM491 800l-96 -199h-106l72 199h130z" />
    <glyph glyph-name="ucircumflex" unicode="&#xfb;" horiz-adv-x="696" 
d="M510 -82c-4 26.667 -6.33301 59.667 -7 99c-46 -75.333 -118.667 -113 -218 -113c-66.667 0 -119 20 -157 60s-57 95.667 -57 167v412h130v-392c0 -46 10.833 -80.167 32.5 -102.5s54.167 -33.5 97.5 -33.5c49.333 0 88.333 16.333 117 49s43 77 43 133v346h130v-481
c0 -62.667 1.33301 -110.667 4 -144h-115zM342 717l-99 -116h-113l158 199h108l158 -199h-113z" />
    <glyph glyph-name="udieresis" unicode="&#xfc;" horiz-adv-x="696" 
d="M510 -82c-4 26.667 -6.33301 59.667 -7 99c-46 -75.333 -118.667 -113 -218 -113c-66.667 0 -119 20 -157 60s-57 95.667 -57 167v412h130v-392c0 -46 10.833 -80.167 32.5 -102.5s54.167 -33.5 97.5 -33.5c49.333 0 88.333 16.333 117 49s43 77 43 133v346h130v-481
c0 -62.667 1.33301 -110.667 4 -144h-115zM167 759c14.667 14.667 34 22 58 22s43.333 -7.33301 58 -22s22 -34 22 -58c0 -24.667 -7.33301 -44.167 -22 -58.5s-34 -21.5 -58 -21.5s-43.333 7.16699 -58 21.5s-22 33.833 -22 58.5c0 24 7.33301 43.333 22 58zM401 759
c14.667 14.667 34 22 58 22s43.333 -7.33301 58 -22s22 -34 22 -58c0 -24.667 -7.33301 -44.167 -22 -58.5s-34 -21.5 -58 -21.5s-43.333 7.16699 -58 21.5s-22 33.833 -22 58.5c0 24 7.33301 43.333 22 58z" />
    <glyph glyph-name="yacute" unicode="&#xfd;" horiz-adv-x="654" 
d="M630 543l-317 -855h-144l104 219l-249 636h148l162 -507l157 507h139zM485 800l-96 -199h-106l72 199h130z" />
    <glyph glyph-name="thorn" unicode="&#xfe;" horiz-adv-x="712" 
d="M531.5 516c40.333 -27.333 72.166 -65.833 95.499 -115.5s35 -106.167 35 -169.5c0 -64 -11.667 -120.833 -35 -170.5s-55.166 -88.167 -95.499 -115.5s-85.166 -41 -134.499 -41c-40.667 0 -77.167 8.16699 -109.5 24.5s-59.833 39.833 -82.5 70.5v-311h-130v1112h130
v-338c22.667 30.667 50.167 54.167 82.5 70.5s68.833 24.5 109.5 24.5c49.333 0 94.166 -13.667 134.499 -41zM453 36.5c24.667 18.333 43.834 44.333 57.501 78s20.5 72.5 20.5 116.5s-6.83301 82.667 -20.5 116s-32.834 59.166 -57.501 77.499s-53 27.5 -85 27.5
s-60.333 -9.16699 -85 -27.5s-43.834 -44.166 -57.501 -77.499s-20.5 -72 -20.5 -116s6.83301 -82.833 20.5 -116.5s32.834 -59.667 57.501 -78s53 -27.5 85 -27.5s60.333 9.16699 85 27.5z" />
    <glyph glyph-name="ydieresis" unicode="&#xff;" horiz-adv-x="654" 
d="M630 543l-317 -855h-144l104 219l-249 636h148l162 -507l157 507h139zM161 759c14.667 14.667 34 22 58 22s43.333 -7.33301 58 -22s22 -34 22 -58c0 -24.667 -7.33301 -44.167 -22 -58.5s-34 -21.5 -58 -21.5s-43.333 7.16699 -58 21.5s-22 33.833 -22 58.5
c0 24 7.33301 43.333 22 58zM395 759c14.667 14.667 34 22 58 22s43.333 -7.33301 58 -22s22 -34 22 -58c0 -24.667 -7.33301 -44.167 -22 -58.5s-34 -21.5 -58 -21.5s-43.333 7.16699 -58 21.5s-22 33.833 -22 58.5c0 24 7.33301 43.333 22 58z" />
    <glyph glyph-name="Amacron" unicode="&#x100;" horiz-adv-x="790" 
d="M546 147h-310l-71 -229h-144l289 846h170l289 -846h-152zM510 265l-119 382l-118 -382h237zM234 973h322v-105h-322v105z" />
    <glyph glyph-name="amacron" unicode="&#x101;" horiz-adv-x="713" 
d="M638 62c0 -62.667 1.33301 -110.665 4 -143.998h-115c-2.66699 19.333 -5 52.666 -7 99.999c-22.667 -36.667 -51.5 -64.834 -86.5 -84.501s-75.167 -29.5 -120.5 -29.5c-48.667 0 -93 13.667 -133 41s-71.5 65.833 -94.5 115.5s-34.5 106.5 -34.5 170.5
c0 63.333 11.5 119.833 34.5 169.5s54.5 88.167 94.5 115.5s84.333 41 133 41c45.333 0 85.5 -9.83301 120.5 -29.5s63.833 -47.5 86.5 -83.5c2 48.667 4.33301 81.667 7 99h115c-2.66699 -33.333 -4 -81.333 -4 -144v-337zM430 36.002
c24.667 18.667 43.834 44.834 57.501 78.501s20.5 72.5 20.5 116.5s-6.83301 82.833 -20.5 116.5s-32.834 59.667 -57.501 78s-53.334 27.5 -86.001 27.5c-32 0 -60.333 -9.33301 -85 -28s-43.834 -44.667 -57.501 -78s-20.5 -72 -20.5 -116s6.83301 -82.833 20.5 -116.5
s32.834 -59.834 57.501 -78.501s53 -28 85 -28c32.667 0 61.334 9.33301 86.001 28zM175 753.002h322v-105h-322v105z" />
    <glyph glyph-name="Abreve" unicode="&#x102;" horiz-adv-x="790" 
d="M546 147h-310l-71 -229h-144l289 846h170l289 -846h-152zM510 265l-119 382l-118 -382h237zM252.5 864.5c-35 37.667 -52.498 89.5 -52.498 155.5h87c0 -41.333 9.16699 -72.833 27.5 -94.5s45.166 -32.5 80.499 -32.5s62.166 10.833 80.499 32.5s27.5 53.167 27.5 94.5
h87c0 -66 -17.5 -117.833 -52.5 -155.5s-82.5 -56.5 -142.5 -56.5s-107.5 18.833 -142.5 56.5z" />
    <glyph glyph-name="abreve" unicode="&#x103;" horiz-adv-x="713" 
d="M638 62c0 -62.667 1.33301 -110.665 4 -143.998h-115c-2.66699 19.333 -5 52.666 -7 99.999c-22.667 -36.667 -51.5 -64.834 -86.5 -84.501s-75.167 -29.5 -120.5 -29.5c-48.667 0 -93 13.667 -133 41s-71.5 65.833 -94.5 115.5s-34.5 106.5 -34.5 170.5
c0 63.333 11.5 119.833 34.5 169.5s54.5 88.167 94.5 115.5s84.333 41 133 41c45.333 0 85.5 -9.83301 120.5 -29.5s63.833 -47.5 86.5 -83.5c2 48.667 4.33301 81.667 7 99h115c-2.66699 -33.333 -4 -81.333 -4 -144v-337zM430 36.002
c24.667 18.667 43.834 44.834 57.501 78.501s20.5 72.5 20.5 116.5s-6.83301 82.833 -20.5 116.5s-32.834 59.667 -57.501 78s-53.334 27.5 -86.001 27.5c-32 0 -60.333 -9.33301 -85 -28s-43.834 -44.667 -57.501 -78s-20.5 -72 -20.5 -116s6.83301 -82.833 20.5 -116.5
s32.834 -59.834 57.501 -78.501s53 -28 85 -28c32.667 0 61.334 9.33301 86.001 28zM193.5 644.502c-35 37.667 -52.498 89.5 -52.498 155.5h87c0 -41.333 9.16699 -72.833 27.5 -94.5s45.166 -32.5 80.499 -32.5s62.166 10.833 80.499 32.5s27.5 53.167 27.5 94.5h87
c0 -66 -17.5 -117.833 -52.5 -155.5s-82.5 -56.5 -142.5 -56.5s-107.5 18.833 -142.5 56.5z" />
    <glyph glyph-name="Aogonek" unicode="&#x104;" horiz-adv-x="790" 
d="M830 -296c-26 -20 -61.666 -30.001 -106.999 -30.001c-41.333 0 -75 11.167 -101 33.5s-39 51.5 -39 87.5c0 48 19.667 89 59 123h-25l-71 229h-310l-71 -229h-144l289 846h170l289 -846c-35.333 -11.333 -61.333 -25.666 -78 -42.999s-25 -39.333 -25 -66
c0 -19.333 6.16699 -34.5 18.5 -45.5s29.166 -16.5 50.499 -16.5c28 0 53.667 7.33301 77 22zM510.001 264.999l-119 382l-118 -382h237z" />
    <glyph glyph-name="aogonek" unicode="&#x105;" horiz-adv-x="713" 
d="M703 -296c-26 -20 -61.666 -29.999 -106.999 -29.999c-41.333 0 -75 11.167 -101 33.5s-39 51.5 -39 87.5c0 51.333 23.333 95.333 70 132c-3.33301 29.333 -5.33301 59.666 -6 90.999c-22.667 -36.667 -51.5 -64.834 -86.5 -84.501s-75.167 -29.5 -120.5 -29.5
c-48.667 0 -93 13.667 -133 41s-71.5 65.833 -94.5 115.5s-34.5 106.5 -34.5 170.5c0 63.333 11.5 119.833 34.5 169.5s54.5 88.167 94.5 115.5s84.333 41 133 41c45.333 0 85.5 -9.83301 120.5 -29.5s63.833 -47.5 86.5 -83.5c2 48.667 4.33301 81.667 7 99h115
c-2.66699 -33.333 -4 -81.333 -4 -144v-337c0 -62.667 1.33301 -110.667 4 -144c-35.333 -11.333 -61.333 -25.666 -78 -42.999s-25 -39.333 -25 -66c0 -19.333 6.16699 -34.5 18.5 -45.5s29.166 -16.5 50.499 -16.5c28 0 53.667 7.33301 77 22zM430.001 36.001
c24.667 18.667 43.834 44.834 57.501 78.501s20.5 72.5 20.5 116.5s-6.83301 82.833 -20.5 116.5s-32.834 59.667 -57.501 78s-53.334 27.5 -86.001 27.5c-32 0 -60.333 -9.33301 -85 -28s-43.834 -44.667 -57.501 -78s-20.5 -72 -20.5 -116s6.83301 -82.833 20.5 -116.5
s32.834 -59.834 57.501 -78.501s53 -28 85 -28c32.667 0 61.334 9.33301 86.001 28z" />
    <glyph glyph-name="Cacute" unicode="&#x106;" horiz-adv-x="772" 
d="M226 173c20 -48.667 47.833 -86.332 83.5 -112.999s76.834 -40 123.501 -40c97.333 0 159.333 45.667 186 137l116 -54c-18 -61.333 -53 -109.833 -105 -145.5s-116.667 -53.5 -194 -53.5c-74.667 0 -140.667 18.333 -198 55s-102 88 -134 154s-48 142 -48 228
s16 162 48 228s76.667 117.333 134 154s123.333 55 198 55c77.333 0 142 -17.833 194 -53.5s87 -84.167 105 -145.5l-116 -55c-26.667 92 -88.667 138 -186 138c-46.667 0 -87.834 -13.333 -123.501 -40s-63.5 -64.334 -83.5 -113.001s-30 -104.667 -30 -168
s10 -119.333 30 -168zM571 1020l-96 -199h-106l72 199h130z" />
    <glyph glyph-name="cacute" unicode="&#x107;" horiz-adv-x="614" 
d="M88.5 401c25 49.333 59.5 87.668 103.5 115.001s94 41 150 41c63.333 0 115 -13.5 155 -40.5s66.333 -62.167 79 -105.5l-111 -52c-16.667 58.667 -57 88 -121 88c-49.333 0 -88.833 -19.5 -118.5 -58.5s-44.5 -91.5 -44.5 -157.5
c0 -66.667 14.833 -119.334 44.5 -158.001s69.167 -58 118.5 -58c64.667 0 105 29 121 87l111 -51c-12.667 -44 -39 -79.5 -79 -106.5s-91.667 -40.5 -155 -40.5c-56 0 -106 13.667 -150 41s-78.5 65.833 -103.5 115.5s-37.5 106.5 -37.5 170.5s12.5 120.667 37.5 170z
M479 800.002l-96 -199h-106l72 199h130z" />
    <glyph glyph-name="Ccircumflex" unicode="&#x108;" horiz-adv-x="772" 
d="M226 173c20 -48.667 47.833 -86.332 83.5 -112.999s76.834 -40 123.501 -40c97.333 0 159.333 45.667 186 137l116 -54c-18 -61.333 -53 -109.833 -105 -145.5s-116.667 -53.5 -194 -53.5c-74.667 0 -140.667 18.333 -198 55s-102 88 -134 154s-48 142 -48 228
s16 162 48 228s76.667 117.333 134 154s123.333 55 198 55c77.333 0 142 -17.833 194 -53.5s87 -84.167 105 -145.5l-116 -55c-26.667 92 -88.667 138 -186 138c-46.667 0 -87.834 -13.333 -123.501 -40s-63.5 -64.334 -83.5 -113.001s-30 -104.667 -30 -168
s10 -119.333 30 -168zM422 937.002l-99 -116h-113l158 199h108l158 -199h-113z" />
    <glyph glyph-name="ccircumflex" unicode="&#x109;" horiz-adv-x="614" 
d="M88.5 401c25 49.333 59.5 87.668 103.5 115.001s94 41 150 41c63.333 0 115 -13.5 155 -40.5s66.333 -62.167 79 -105.5l-111 -52c-16.667 58.667 -57 88 -121 88c-49.333 0 -88.833 -19.5 -118.5 -58.5s-44.5 -91.5 -44.5 -157.5
c0 -66.667 14.833 -119.334 44.5 -158.001s69.167 -58 118.5 -58c64.667 0 105 29 121 87l111 -51c-12.667 -44 -39 -79.5 -79 -106.5s-91.667 -40.5 -155 -40.5c-56 0 -106 13.667 -150 41s-78.5 65.833 -103.5 115.5s-37.5 106.5 -37.5 170.5s12.5 120.667 37.5 170z
M330 717.002l-99 -116h-113l158 199h108l158 -199h-113z" />
    <glyph glyph-name="Cdotaccent" unicode="&#x10a;" horiz-adv-x="772" 
d="M226 173c20 -48.667 47.833 -86.332 83.5 -112.999s76.834 -40 123.501 -40c97.333 0 159.333 45.667 186 137l116 -54c-18 -61.333 -53 -109.833 -105 -145.5s-116.667 -53.5 -194 -53.5c-74.667 0 -140.667 18.333 -198 55s-102 88 -134 154s-48 142 -48 228
s16 162 48 228s76.667 117.333 134 154s123.333 55 198 55c77.333 0 142 -17.833 194 -53.5s87 -84.167 105 -145.5l-116 -55c-26.667 92 -88.667 138 -186 138c-46.667 0 -87.834 -13.333 -123.501 -40s-63.5 -64.334 -83.5 -113.001s-30 -104.667 -30 -168
s10 -119.333 30 -168zM364 979.002c14.667 14.667 34 22 58 22s43.333 -7.33301 58 -22s22 -34 22 -58c0 -24.667 -7.33301 -44.167 -22 -58.5s-34 -21.5 -58 -21.5s-43.333 7.16699 -58 21.5s-22 33.833 -22 58.5c0 24 7.33301 43.333 22 58z" />
    <glyph glyph-name="cdotaccent" unicode="&#x10b;" horiz-adv-x="614" 
d="M88.5 401c25 49.333 59.5 87.668 103.5 115.001s94 41 150 41c63.333 0 115 -13.5 155 -40.5s66.333 -62.167 79 -105.5l-111 -52c-16.667 58.667 -57 88 -121 88c-49.333 0 -88.833 -19.5 -118.5 -58.5s-44.5 -91.5 -44.5 -157.5
c0 -66.667 14.833 -119.334 44.5 -158.001s69.167 -58 118.5 -58c64.667 0 105 29 121 87l111 -51c-12.667 -44 -39 -79.5 -79 -106.5s-91.667 -40.5 -155 -40.5c-56 0 -106 13.667 -150 41s-78.5 65.833 -103.5 115.5s-37.5 106.5 -37.5 170.5s12.5 120.667 37.5 170z
M272 759.002c14.667 14.667 34 22 58 22s43.333 -7.33301 58 -22s22 -34 22 -58c0 -24.667 -7.33301 -44.167 -22 -58.5s-34 -21.5 -58 -21.5s-43.333 7.16699 -58 21.5s-22 33.833 -22 58.5c0 24 7.33301 43.333 22 58z" />
    <glyph glyph-name="Ccaron" unicode="&#x10c;" horiz-adv-x="772" 
d="M226 173c20 -48.667 47.833 -86.332 83.5 -112.999s76.834 -40 123.501 -40c97.333 0 159.333 45.667 186 137l116 -54c-18 -61.333 -53 -109.833 -105 -145.5s-116.667 -53.5 -194 -53.5c-74.667 0 -140.667 18.333 -198 55s-102 88 -134 154s-48 142 -48 228
s16 162 48 228s76.667 117.333 134 154s123.333 55 198 55c77.333 0 142 -17.833 194 -53.5s87 -84.167 105 -145.5l-116 -55c-26.667 92 -88.667 138 -186 138c-46.667 0 -87.834 -13.333 -123.501 -40s-63.5 -64.334 -83.5 -113.001s-30 -104.667 -30 -168
s10 -119.333 30 -168zM422 904.002l99 116h113l-158 -199h-108l-158 199h113z" />
    <glyph glyph-name="ccaron" unicode="&#x10d;" horiz-adv-x="614" 
d="M88.5 401c25 49.333 59.5 87.668 103.5 115.001s94 41 150 41c63.333 0 115 -13.5 155 -40.5s66.333 -62.167 79 -105.5l-111 -52c-16.667 58.667 -57 88 -121 88c-49.333 0 -88.833 -19.5 -118.5 -58.5s-44.5 -91.5 -44.5 -157.5
c0 -66.667 14.833 -119.334 44.5 -158.001s69.167 -58 118.5 -58c64.667 0 105 29 121 87l111 -51c-12.667 -44 -39 -79.5 -79 -106.5s-91.667 -40.5 -155 -40.5c-56 0 -106 13.667 -150 41s-78.5 65.833 -103.5 115.5s-37.5 106.5 -37.5 170.5s12.5 120.667 37.5 170z
M330 684.002l99 116h113l-158 -199h-108l-158 199h113z" />
    <glyph glyph-name="Dcaron" unicode="&#x10e;" horiz-adv-x="823" 
d="M589.5 711.5c56.333 -35 99.666 -84.332 129.999 -147.999s45.5 -137.834 45.5 -222.501s-15.167 -159 -45.5 -223s-73.666 -113.333 -129.999 -148s-122.833 -52 -199.5 -52h-310v846h310c76.667 0 143.167 -17.5 199.5 -52.5zM556.5 118.001
c45.667 54.667 68.5 129 68.5 223c0 93.333 -22.833 167.5 -68.5 222.5s-109.5 82.5 -191.5 82.5h-145v-610h145c82 0 145.833 27.333 191.5 82zM372 904.001l99 116h113l-158 -199h-108l-158 199h113z" />
    <glyph glyph-name="dcaron" unicode="&#x10f;" horiz-adv-x="715" 
d="M529 -82c-4 26.667 -6.33301 59.668 -7 99.001c-22.667 -36 -51.5 -63.833 -86.5 -83.5s-74.833 -29.5 -119.5 -29.5c-49.333 0 -94 13.667 -134 41s-71.5 65.833 -94.5 115.5s-34.5 106.5 -34.5 170.5c0 63.333 11.5 119.833 34.5 169.5s54.5 88.167 94.5 115.5
s84.667 41 134 41c41.333 0 78.5 -8.33301 111.5 -25s60.5 -40.334 82.5 -71.001v339h130v-738c0 -62.667 1.33301 -110.667 4 -144h-115zM432 36.001c24.667 18.667 43.834 44.834 57.501 78.501s20.5 72.5 20.5 116.5s-6.83301 82.667 -20.5 116
s-32.834 59.333 -57.501 78s-53 28 -85 28s-60.5 -9.33301 -85.5 -28s-44.333 -44.667 -58 -78s-20.5 -72 -20.5 -116s6.83301 -82.833 20.5 -116.5s33 -59.834 58 -78.501s53.5 -28 85.5 -28s60.333 9.33301 85 28zM803 800.001l-28 -220h-89l10 220h107z" />
    <glyph glyph-name="Dcroat" unicode="&#x110;" horiz-adv-x="907" 
d="M673 711.5c56.667 -35 100.167 -84.332 130.5 -147.999s45.5 -137.834 45.5 -222.501s-15.167 -159 -45.5 -223s-73.833 -113.333 -130.5 -148s-123.334 -52 -200.001 -52h-309v385h-134v118h134v343h309c76.667 0 143.334 -17.5 200.001 -52.5zM640.5 118.001
c45.667 54.667 68.5 129 68.5 223c0 93.333 -22.833 167.5 -68.5 222.5s-109.834 82.5 -192.501 82.5h-144v-225h245v-118h-245v-267h144c82.667 0 146.834 27.333 192.501 82z" />
    <glyph glyph-name="dcroat" unicode="&#x111;" horiz-adv-x="715" 
d="M640 619v-556.999c0 -62.667 1.33301 -110.667 4 -144h-115c-4 26.667 -6.33301 59.667 -7 99c-22.667 -36 -51.5 -63.833 -86.5 -83.5s-74.833 -29.5 -119.5 -29.5c-49.333 0 -94 13.667 -134 41s-71.5 65.833 -94.5 115.5s-34.5 106.5 -34.5 170.5
c0 63.333 11.5 119.833 34.5 169.5s54.5 88.167 94.5 115.5s84.667 41 134 41c41.333 0 78.5 -8.33301 111.5 -25s60.5 -40.334 82.5 -71.001v158h-122v104h122v77h130v-77h81v-104h-81zM432 36.001c24.667 18.667 43.834 44.834 57.501 78.501s20.5 72.5 20.5 116.5
s-6.83301 82.667 -20.5 116s-32.834 59.333 -57.501 78s-53 28 -85 28s-60.5 -9.33301 -85.5 -28s-44.333 -44.667 -58 -78s-20.5 -72 -20.5 -116s6.83301 -82.833 20.5 -116.5s33 -59.834 58 -78.501s53.5 -28 85.5 -28s60.333 9.33301 85 28z" />
    <glyph glyph-name="Emacron" unicode="&#x112;" horiz-adv-x="656" 
d="M220 646v-225h345v-118h-345v-267h369v-118h-509v846h509v-118h-369zM174 973h322v-105h-322v105z" />
    <glyph glyph-name="emacron" unicode="&#x113;" horiz-adv-x="665" 
d="M612 197h-430c3.33301 -60.667 20.166 -107.334 50.499 -140.001s70.5 -49 120.5 -49c36.667 0 65.834 7.83301 87.501 23.5s39.167 39.5 52.5 71.5l107 -51c-40 -98.667 -122 -148 -246 -148c-61.333 0 -115 13.667 -161 41s-81.167 65.833 -105.5 115.5
s-36.5 106.5 -36.5 170.5c0 63.333 12.333 119.833 37 169.5s58.5 88.167 101.5 115.5s91.5 41 145.5 41c57.333 0 107 -13.333 149 -40s74.167 -64.667 96.5 -114s33.5 -106.666 33.5 -171.999c0 -12 -0.666992 -23.333 -2 -34zM234 411
c-26.667 -28 -43.334 -67.667 -50.001 -119h298c-5.33301 52.667 -20.666 92.667 -45.999 120s-59.333 41 -102 41c-40 0 -73.333 -14 -100 -42zM175 753h322v-105h-322v105z" />
    <glyph glyph-name="Ebreve" unicode="&#x114;" horiz-adv-x="656" 
d="M220 646v-225h345v-118h-345v-267h369v-118h-509v846h509v-118h-369zM192.5 864.5c-35 37.667 -52.498 89.5 -52.498 155.5h87c0 -41.333 9.16699 -72.833 27.5 -94.5s45.166 -32.5 80.499 -32.5s62.166 10.833 80.499 32.5s27.5 53.167 27.5 94.5h87
c0 -66 -17.5 -117.833 -52.5 -155.5s-82.5 -56.5 -142.5 -56.5s-107.5 18.833 -142.5 56.5z" />
    <glyph glyph-name="ebreve" unicode="&#x115;" horiz-adv-x="665" 
d="M612 197h-430c3.33301 -60.667 20.166 -107.334 50.499 -140.001s70.5 -49 120.5 -49c36.667 0 65.834 7.83301 87.501 23.5s39.167 39.5 52.5 71.5l107 -51c-40 -98.667 -122 -148 -246 -148c-61.333 0 -115 13.667 -161 41s-81.167 65.833 -105.5 115.5
s-36.5 106.5 -36.5 170.5c0 63.333 12.333 119.833 37 169.5s58.5 88.167 101.5 115.5s91.5 41 145.5 41c57.333 0 107 -13.333 149 -40s74.167 -64.667 96.5 -114s33.5 -106.666 33.5 -171.999c0 -12 -0.666992 -23.333 -2 -34zM234 411
c-26.667 -28 -43.334 -67.667 -50.001 -119h298c-5.33301 52.667 -20.666 92.667 -45.999 120s-59.333 41 -102 41c-40 0 -73.333 -14 -100 -42zM193.5 644.5c-35 37.667 -52.498 89.5 -52.498 155.5h87c0 -41.333 9.16699 -72.833 27.5 -94.5s45.166 -32.5 80.499 -32.5
s62.166 10.833 80.499 32.5s27.5 53.167 27.5 94.5h87c0 -66 -17.5 -117.833 -52.5 -155.5s-82.5 -56.5 -142.5 -56.5s-107.5 18.833 -142.5 56.5z" />
    <glyph glyph-name="Edotaccent" unicode="&#x116;" horiz-adv-x="656" 
d="M220 646v-225h345v-118h-345v-267h369v-118h-509v846h509v-118h-369zM277 979c14.667 14.667 34 22 58 22s43.333 -7.33301 58 -22s22 -34 22 -58c0 -24.667 -7.33301 -44.167 -22 -58.5s-34 -21.5 -58 -21.5s-43.333 7.16699 -58 21.5s-22 33.833 -22 58.5
c0 24 7.33301 43.333 22 58z" />
    <glyph glyph-name="edotaccent" unicode="&#x117;" horiz-adv-x="665" 
d="M612 197h-430c3.33301 -60.667 20.166 -107.334 50.499 -140.001s70.5 -49 120.5 -49c36.667 0 65.834 7.83301 87.501 23.5s39.167 39.5 52.5 71.5l107 -51c-40 -98.667 -122 -148 -246 -148c-61.333 0 -115 13.667 -161 41s-81.167 65.833 -105.5 115.5
s-36.5 106.5 -36.5 170.5c0 63.333 12.333 119.833 37 169.5s58.5 88.167 101.5 115.5s91.5 41 145.5 41c57.333 0 107 -13.333 149 -40s74.167 -64.667 96.5 -114s33.5 -106.666 33.5 -171.999c0 -12 -0.666992 -23.333 -2 -34zM234 411
c-26.667 -28 -43.334 -67.667 -50.001 -119h298c-5.33301 52.667 -20.666 92.667 -45.999 120s-59.333 41 -102 41c-40 0 -73.333 -14 -100 -42zM278 759c14.667 14.667 34 22 58 22s43.333 -7.33301 58 -22s22 -34 22 -58c0 -24.667 -7.33301 -44.167 -22 -58.5
s-34 -21.5 -58 -21.5s-43.333 7.16699 -58 21.5s-22 33.833 -22 58.5c0 24 7.33301 43.333 22 58z" />
    <glyph glyph-name="Eogonek" unicode="&#x118;" horiz-adv-x="656" 
d="M650 -296c-26 -20 -61.666 -30.001 -106.999 -30.001c-41.333 0 -75 11.167 -101 33.5s-39 51.5 -39 87.5c0 48 19.667 89 59 123h-382v846h509v-118h-369v-225h345v-118h-345v-267h369v-118c-35.333 -11.333 -61.333 -25.666 -78 -42.999s-25 -39.333 -25 -66
c0 -19.333 6.16699 -34.5 18.5 -45.5s29.166 -16.5 50.499 -16.5c28 0 53.667 7.33301 77 22z" />
    <glyph glyph-name="eogonek" unicode="&#x119;" horiz-adv-x="665" 
d="M612 197h-429.999c3.33301 -60.667 20.166 -107.334 50.499 -140.001s70.5 -49 120.5 -49c36.667 0 65.834 7.83301 87.501 23.5s39.167 39.5 52.5 71.5l107 -51c-28 -70 -78 -115.333 -150 -136c-32.667 -11.333 -57 -25.5 -73 -42.5s-24 -38.5 -24 -64.5
c0 -19.333 6.16699 -34.5 18.5 -45.5s29.166 -16.5 50.499 -16.5c28 0 53.667 7.33301 77 22l18 -65c-26 -20 -61.667 -30 -107 -30c-41.333 0 -75 11.167 -101 33.5s-39 51.5 -39 87.5c0 43.333 15.333 80.333 46 111c-54 5.33301 -101 22.333 -141 51
s-70.667 66.5 -92 113.5s-32 100.5 -32 160.5c0 63.333 12.333 119.833 37 169.5s58.5 88.167 101.5 115.5s91.5 41 145.5 41c57.333 0 107 -13.333 149 -40s74.167 -64.667 96.5 -114s33.5 -106.666 33.5 -171.999c0 -12 -0.666992 -23.333 -2 -34zM234.001 411
c-26.667 -28 -43.334 -67.667 -50.001 -119h298c-5.33301 52.667 -20.666 92.667 -45.999 120s-59.333 41 -102 41c-40 0 -73.333 -14 -100 -42z" />
    <glyph glyph-name="Ecaron" unicode="&#x11a;" horiz-adv-x="656" 
d="M220 646v-225h345v-118h-345v-267h369v-118h-509v846h509v-118h-369zM335 904l99 116h113l-158 -199h-108l-158 199h113z" />
    <glyph glyph-name="ecaron" unicode="&#x11b;" horiz-adv-x="665" 
d="M612 197h-430c3.33301 -60.667 20.166 -107.334 50.499 -140.001s70.5 -49 120.5 -49c36.667 0 65.834 7.83301 87.501 23.5s39.167 39.5 52.5 71.5l107 -51c-40 -98.667 -122 -148 -246 -148c-61.333 0 -115 13.667 -161 41s-81.167 65.833 -105.5 115.5
s-36.5 106.5 -36.5 170.5c0 63.333 12.333 119.833 37 169.5s58.5 88.167 101.5 115.5s91.5 41 145.5 41c57.333 0 107 -13.333 149 -40s74.167 -64.667 96.5 -114s33.5 -106.666 33.5 -171.999c0 -12 -0.666992 -23.333 -2 -34zM234 411
c-26.667 -28 -43.334 -67.667 -50.001 -119h298c-5.33301 52.667 -20.666 92.667 -45.999 120s-59.333 41 -102 41c-40 0 -73.333 -14 -100 -42zM336 694l99 116h113l-158 -199h-108l-158 199h113z" />
    <glyph glyph-name="Gcircumflex" unicode="&#x11c;" horiz-adv-x="820" 
d="M755 244c0 -66.667 -12.165 -125.667 -36.498 -177s-60.5 -91.333 -108.5 -120s-106.333 -43 -175 -43c-74 0 -139.667 18.333 -197 55s-102 88.167 -134 154.5s-48 142.166 -48 227.499c0 86 16 162 48 228s76.667 117.333 134 154s123.333 55 198 55
c77.333 0 142 -17.833 194 -53.5s87.333 -84.167 106 -145.5l-116 -55c-13.333 44.667 -35.5 78.834 -66.5 102.501s-71.167 35.5 -120.5 35.5c-46.667 0 -87.834 -13.333 -123.501 -40s-63.5 -64.334 -83.5 -113.001s-30 -104.667 -30 -168
c0 -65.333 9.83301 -122.166 29.5 -170.499s47.5 -85.5 83.5 -111.5s78 -39 126 -39c127.333 0 191.666 76 192.999 228h-168v118h295v-122zM422.002 937l-99 -116h-113l158 199h108l158 -199h-113z" />
    <glyph glyph-name="gcircumflex" unicode="&#x11d;" horiz-adv-x="703" 
d="M631 543c-2 -50 -3.00098 -98.001 -3.00098 -144.001v-448c0 -86.667 -25.5 -154.5 -76.5 -203.5s-123.167 -73.5 -216.5 -73.5c-77.333 0 -139.5 12.833 -186.5 38.5s-78.167 62.5 -93.5 110.5l104 48c10 -28.667 29.333 -51.167 58 -67.5s65.334 -24.5 110.001 -24.5
c56 0 98.5 14.167 127.5 42.5s43.5 70.833 43.5 127.5v65c-22 -30.667 -49.167 -54.334 -81.5 -71.001s-68.5 -25 -108.5 -25c-48 0 -91.5 13.333 -130.5 40s-69.833 64.334 -92.5 113.001s-34 104 -34 166c0 62.667 11.333 118.334 34 167.001s53.5 86.334 92.5 113.001
s82.5 40 130.5 40c44 0 83 -9.83301 117 -29.5s62 -47.5 84 -83.5c1.33301 23.333 2.83301 44.666 4.5 63.999s2.5 31 2.5 35h115zM421.999 49.999c24 18 42.667 43.167 56 75.5s20 69.5 20 111.5c0 42.667 -6.66699 80.334 -20 113.001s-32 58 -56 76s-51.667 27 -83 27
s-58.833 -9 -82.5 -27s-42.167 -43.333 -55.5 -76s-20 -70.334 -20 -113.001c0 -42 6.66699 -79.167 20 -111.5s31.833 -57.5 55.5 -75.5s51.167 -27 82.5 -27s59 9 83 27zM331.999 716.999l-99 -116h-113l158 199h108l158 -199h-113z" />
    <glyph glyph-name="Gbreve" unicode="&#x11e;" horiz-adv-x="820" 
d="M755 244c0 -66.667 -12.165 -125.667 -36.498 -177s-60.5 -91.333 -108.5 -120s-106.333 -43 -175 -43c-74 0 -139.667 18.333 -197 55s-102 88.167 -134 154.5s-48 142.166 -48 227.499c0 86 16 162 48 228s76.667 117.333 134 154s123.333 55 198 55
c77.333 0 142 -17.833 194 -53.5s87.333 -84.167 106 -145.5l-116 -55c-13.333 44.667 -35.5 78.834 -66.5 102.501s-71.167 35.5 -120.5 35.5c-46.667 0 -87.834 -13.333 -123.501 -40s-63.5 -64.334 -83.5 -113.001s-30 -104.667 -30 -168
c0 -65.333 9.83301 -122.166 29.5 -170.499s47.5 -85.5 83.5 -111.5s78 -39 126 -39c127.333 0 191.666 76 192.999 228h-168v118h295v-122zM279.502 864.5c-35 37.667 -52.498 89.5 -52.498 155.5h87c0 -41.333 9.16699 -72.833 27.5 -94.5s45.166 -32.5 80.499 -32.5
s62.166 10.833 80.499 32.5s27.5 53.167 27.5 94.5h87c0 -66 -17.5 -117.833 -52.5 -155.5s-82.5 -56.5 -142.5 -56.5s-107.5 18.833 -142.5 56.5z" />
    <glyph glyph-name="gbreve" unicode="&#x11f;" horiz-adv-x="703" 
d="M631 543c-2 -50 -3.00098 -98.001 -3.00098 -144.001v-448c0 -86.667 -25.5 -154.5 -76.5 -203.5s-123.167 -73.5 -216.5 -73.5c-77.333 0 -139.5 12.833 -186.5 38.5s-78.167 62.5 -93.5 110.5l104 48c10 -28.667 29.333 -51.167 58 -67.5s65.334 -24.5 110.001 -24.5
c56 0 98.5 14.167 127.5 42.5s43.5 70.833 43.5 127.5v65c-22 -30.667 -49.167 -54.334 -81.5 -71.001s-68.5 -25 -108.5 -25c-48 0 -91.5 13.333 -130.5 40s-69.833 64.334 -92.5 113.001s-34 104 -34 166c0 62.667 11.333 118.334 34 167.001s53.5 86.334 92.5 113.001
s82.5 40 130.5 40c44 0 83 -9.83301 117 -29.5s62 -47.5 84 -83.5c1.33301 23.333 2.83301 44.666 4.5 63.999s2.5 31 2.5 35h115zM421.999 49.999c24 18 42.667 43.167 56 75.5s20 69.5 20 111.5c0 42.667 -6.66699 80.334 -20 113.001s-32 58 -56 76s-51.667 27 -83 27
s-58.833 -9 -82.5 -27s-42.167 -43.333 -55.5 -76s-20 -70.334 -20 -113.001c0 -42 6.66699 -79.167 20 -111.5s31.833 -57.5 55.5 -75.5s51.167 -27 82.5 -27s59 9 83 27zM189.499 644.499c-35 37.667 -52.498 89.5 -52.498 155.5h87c0 -41.333 9.16699 -72.833 27.5 -94.5
s45.166 -32.5 80.499 -32.5s62.166 10.833 80.499 32.5s27.5 53.167 27.5 94.5h87c0 -66 -17.5 -117.833 -52.5 -155.5s-82.5 -56.5 -142.5 -56.5s-107.5 18.833 -142.5 56.5z" />
    <glyph glyph-name="Gdotaccent" unicode="&#x120;" horiz-adv-x="820" 
d="M755 244c0 -66.667 -12.165 -125.667 -36.498 -177s-60.5 -91.333 -108.5 -120s-106.333 -43 -175 -43c-74 0 -139.667 18.333 -197 55s-102 88.167 -134 154.5s-48 142.166 -48 227.499c0 86 16 162 48 228s76.667 117.333 134 154s123.333 55 198 55
c77.333 0 142 -17.833 194 -53.5s87.333 -84.167 106 -145.5l-116 -55c-13.333 44.667 -35.5 78.834 -66.5 102.501s-71.167 35.5 -120.5 35.5c-46.667 0 -87.834 -13.333 -123.501 -40s-63.5 -64.334 -83.5 -113.001s-30 -104.667 -30 -168
c0 -65.333 9.83301 -122.166 29.5 -170.499s47.5 -85.5 83.5 -111.5s78 -39 126 -39c127.333 0 191.666 76 192.999 228h-168v118h295v-122zM364.002 979c14.667 14.667 34 22 58 22s43.333 -7.33301 58 -22s22 -34 22 -58c0 -24.667 -7.33301 -44.167 -22 -58.5
s-34 -21.5 -58 -21.5s-43.333 7.16699 -58 21.5s-22 33.833 -22 58.5c0 24 7.33301 43.333 22 58z" />
    <glyph glyph-name="gdotaccent" unicode="&#x121;" horiz-adv-x="703" 
d="M631 543c-2 -50 -3.00098 -98.001 -3.00098 -144.001v-448c0 -86.667 -25.5 -154.5 -76.5 -203.5s-123.167 -73.5 -216.5 -73.5c-77.333 0 -139.5 12.833 -186.5 38.5s-78.167 62.5 -93.5 110.5l104 48c10 -28.667 29.333 -51.167 58 -67.5s65.334 -24.5 110.001 -24.5
c56 0 98.5 14.167 127.5 42.5s43.5 70.833 43.5 127.5v65c-22 -30.667 -49.167 -54.334 -81.5 -71.001s-68.5 -25 -108.5 -25c-48 0 -91.5 13.333 -130.5 40s-69.833 64.334 -92.5 113.001s-34 104 -34 166c0 62.667 11.333 118.334 34 167.001s53.5 86.334 92.5 113.001
s82.5 40 130.5 40c44 0 83 -9.83301 117 -29.5s62 -47.5 84 -83.5c1.33301 23.333 2.83301 44.666 4.5 63.999s2.5 31 2.5 35h115zM421.999 49.999c24 18 42.667 43.167 56 75.5s20 69.5 20 111.5c0 42.667 -6.66699 80.334 -20 113.001s-32 58 -56 76s-51.667 27 -83 27
s-58.833 -9 -82.5 -27s-42.167 -43.333 -55.5 -76s-20 -70.334 -20 -113.001c0 -42 6.66699 -79.167 20 -111.5s31.833 -57.5 55.5 -75.5s51.167 -27 82.5 -27s59 9 83 27zM273.999 758.999c14.667 14.667 34 22 58 22s43.333 -7.33301 58 -22s22 -34 22 -58
c0 -24.667 -7.33301 -44.167 -22 -58.5s-34 -21.5 -58 -21.5s-43.333 7.16699 -58 21.5s-22 33.833 -22 58.5c0 24 7.33301 43.333 22 58z" />
    <glyph glyph-name="uni0122" unicode="&#x122;" horiz-adv-x="820" 
d="M755 244c0 -66.667 -12.165 -125.667 -36.498 -177s-60.5 -91.333 -108.5 -120s-106.333 -43 -175 -43c-74 0 -139.667 18.333 -197 55s-102 88.167 -134 154.5s-48 142.166 -48 227.499c0 86 16 162 48 228s76.667 117.333 134 154s123.333 55 198 55
c77.333 0 142 -17.833 194 -53.5s87.333 -84.167 106 -145.5l-116 -55c-13.333 44.667 -35.5 78.834 -66.5 102.501s-71.167 35.5 -120.5 35.5c-46.667 0 -87.834 -13.333 -123.501 -40s-63.5 -64.334 -83.5 -113.001s-30 -104.667 -30 -168
c0 -65.333 9.83301 -122.166 29.5 -170.499s47.5 -85.5 83.5 -111.5s78 -39 126 -39c127.333 0 191.666 76 192.999 228h-168v118h295v-122zM475.002 -148c0 -28.667 -4.33203 -65.999 -12.999 -111.999c-0.666992 -6.66699 -2.33398 -17.334 -5.00098 -32.001l-3 -20h-107
l3 20c3.33301 20.667 6 45.167 8 73.5s3 51.833 3 70.5h114z" />
    <glyph glyph-name="uni0123" unicode="&#x123;" horiz-adv-x="703" 
d="M274 601c0 22 1.16797 42.167 3.50098 60.5s6.16602 43.833 11.499 76.5l6 34l5 28h105l-5 -29c-8 -45.333 -12 -102 -12 -170h-114zM631.001 543c-2 -50 -3.00098 -98.001 -3.00098 -144.001v-448c0 -86.667 -25.5 -154.5 -76.5 -203.5s-123.167 -73.5 -216.5 -73.5
c-77.333 0 -139.5 12.833 -186.5 38.5s-78.167 62.5 -93.5 110.5l104 48c10 -28.667 29.333 -51.167 58 -67.5s65.334 -24.5 110.001 -24.5c56 0 98.5 14.167 127.5 42.5s43.5 70.833 43.5 127.5v65c-22 -30.667 -49.167 -54.334 -81.5 -71.001s-68.5 -25 -108.5 -25
c-48 0 -91.5 13.333 -130.5 40s-69.833 64.334 -92.5 113.001s-34 104 -34 166c0 62.667 11.333 118.334 34 167.001s53.5 86.334 92.5 113.001s82.5 40 130.5 40c44 0 83 -9.83301 117 -29.5s62 -47.5 84 -83.5c1.33301 23.333 2.83301 44.666 4.5 63.999s2.5 31 2.5 35
h115zM422 49.999c24 18 42.667 43.167 56 75.5s20 69.5 20 111.5c0 42.667 -6.66699 80.334 -20 113.001s-32 58 -56 76s-51.667 27 -83 27s-58.833 -9 -82.5 -27s-42.167 -43.333 -55.5 -76s-20 -70.334 -20 -113.001c0 -42 6.66699 -79.167 20 -111.5
s31.833 -57.5 55.5 -75.5s51.167 -27 82.5 -27s59 9 83 27z" />
    <glyph glyph-name="Hcircumflex" unicode="&#x124;" horiz-adv-x="832" 
d="M752 764v-846h-140v385h-392v-385h-140v846h140v-343h392v343h140zM417 937l-99 -116h-113l158 199h108l158 -199h-113z" />
    <glyph glyph-name="hcircumflex" unicode="&#x125;" horiz-adv-x="696" 
d="M568 497.5c38 -39.667 57 -95.5 57 -167.5v-412h-130v392c0 46.667 -10.833 81.167 -32.5 103.5s-54.167 33.5 -97.5 33.5c-48.667 0 -87.5 -16.5 -116.5 -49.5s-43.5 -77.167 -43.5 -132.5v-347h-130v882h130v-339c46 64 114.667 96 206 96
c66.667 0 119 -19.833 157 -59.5zM141 957l-99 -116h-113l158 199h108l158 -199h-113z" />
    <glyph glyph-name="Hbar" unicode="&#x126;" horiz-adv-x="832" 
d="M802 537h-50v-619h-140v385h-392v-385h-140v619h-49v107h49v120h140v-120h392v120h140v-120h50v-107zM612 537h-392v-116h392v116z" />
    <glyph glyph-name="hbar" unicode="&#x127;" horiz-adv-x="696" 
d="M568 497.5c38 -39.667 57 -95.5 57 -167.5v-412h-130v392c0 46.667 -10.833 81.167 -32.5 103.5s-54.167 33.5 -97.5 33.5c-48.667 0 -87.5 -16.5 -116.5 -49.5s-43.5 -77.167 -43.5 -132.5v-347h-130v701h-77v104h77v77h130v-77h142v-104h-142v-158
c46 64 114.667 96 206 96c66.667 0 119 -19.833 157 -59.5z" />
    <glyph glyph-name="Itilde" unicode="&#x128;" horiz-adv-x="316" 
d="M228 764v-846h-140v846h140zM-7.5 958.5c20.333 23.667 48.167 35.499 83.5 35.499c20.667 0 38.5 -3 53.5 -9s31.167 -14.667 48.5 -26c12 -8 22.167 -14 30.5 -18s17.166 -6 26.499 -6c11.333 0 20.166 3.83301 26.499 11.5s9.5 18.5 9.5 32.5h86
c-0.666992 -40 -11.167 -71.833 -31.5 -95.5s-48.166 -35.5 -83.499 -35.5c-20.667 0 -38.5 3 -53.5 9s-31.167 14.667 -48.5 26c-12.667 8 -23 13.833 -31 17.5s-16.667 5.5 -26 5.5c-11.333 0 -20.166 -3.83301 -26.499 -11.5s-9.5 -18.5 -9.5 -32.5h-86
c0.666992 40.667 11.167 72.834 31.5 96.501z" />
    <glyph glyph-name="itilde" unicode="&#x129;" horiz-adv-x="296" 
d="M213 543v-625h-130v625h130zM-18.5 733.5c20.333 23.667 48.167 35.499 83.5 35.499c20.667 0 38.5 -3 53.5 -9s31.167 -14.667 48.5 -26c12.667 -8 23 -13.833 31 -17.5s16.667 -5.5 26 -5.5c11.333 0 20.166 3.66699 26.499 11s9.5 18 9.5 32h86
c-0.666992 -40 -11.167 -71.833 -31.5 -95.5s-48.166 -35.5 -83.499 -35.5c-20.667 0 -38.5 3 -53.5 9s-31.167 14.667 -48.5 26c-12.667 8 -23 13.833 -31 17.5s-16.667 5.5 -26 5.5c-24 0 -36 -14.667 -36 -44h-86c0.666992 40.667 11.167 72.834 31.5 96.501z" />
    <glyph glyph-name="Imacron" unicode="&#x12a;" horiz-adv-x="316" 
d="M228 764v-846h-140v846h140zM-2 973h322v-105h-322v105z" />
    <glyph glyph-name="imacron" unicode="&#x12b;" horiz-adv-x="296" 
d="M213 543v-625h-130v625h130zM-13 752h322v-105h-322v105z" />
    <glyph glyph-name="Ibreve" unicode="&#x12c;" horiz-adv-x="316" 
d="M228 764v-846h-140v846h140zM16.5 864.5c-35 37.667 -52.498 89.5 -52.498 155.5h87c0 -41.333 9.16699 -72.833 27.5 -94.5s45.166 -32.5 80.499 -32.5s62.166 10.833 80.499 32.5s27.5 53.167 27.5 94.5h87c0 -66 -17.5 -117.833 -52.5 -155.5
s-82.5 -56.5 -142.5 -56.5s-107.5 18.833 -142.5 56.5z" />
    <glyph glyph-name="ibreve" unicode="&#x12d;" horiz-adv-x="296" 
d="M213 543v-625h-130v625h130zM5.5 643.5c-35 37.667 -52.498 89.5 -52.498 155.5h87c0 -41.333 9.16699 -72.833 27.5 -94.5s45.166 -32.5 80.499 -32.5s62.166 10.833 80.499 32.5s27.5 53.167 27.5 94.5h87c0 -66 -17.5 -117.833 -52.5 -155.5s-82.5 -56.5 -142.5 -56.5
s-107.5 18.833 -142.5 56.5z" />
    <glyph glyph-name="Iogonek" unicode="&#x12e;" horiz-adv-x="316" 
d="M290 -296c-26 -20 -61.666 -30.001 -106.999 -30.001c-41.333 0 -75 11.167 -101 33.5s-39 51.5 -39 87.5c0 48 19.667 89 59 123h-14v846h140v-844l1 -2c-35.333 -11.333 -61.333 -25.666 -78 -42.999s-25 -39.333 -25 -66c0 -19.333 6.16699 -34.5 18.5 -45.5
s29.166 -16.5 50.499 -16.5c28 0 53.667 7.33301 77 22z" />
    <glyph glyph-name="iogonek" unicode="&#x12f;" horiz-adv-x="296" 
d="M90 642c-14.667 14.667 -22 34 -22 58s7.33301 43.333 22 58s34 22 58 22s43.333 -7.33301 58 -22s22 -34 22 -58s-7.33301 -43.333 -22 -58s-34 -22 -58 -22s-43.333 7.33301 -58 22zM274 -296c-26 -20 -61.666 -30.001 -106.999 -30.001
c-41.333 0 -75 11.167 -101 33.5s-39 51.5 -39 87.5c0 48 19.667 89 59 123h-3v625h130v-625c-35.333 -11.333 -61.333 -25.666 -78 -42.999s-25 -39.333 -25 -66c0 -19.333 6.16699 -34.5 18.5 -45.5s29.166 -16.5 50.499 -16.5c28 0 53.667 7.33301 77 22z" />
    <glyph glyph-name="Idotaccent" unicode="&#x130;" horiz-adv-x="316" 
d="M228 764v-846h-140v846h140zM101 979c14.667 14.667 34 22 58 22s43.333 -7.33301 58 -22s22 -34 22 -58c0 -24.667 -7.33301 -44.167 -22 -58.5s-34 -21.5 -58 -21.5s-43.333 7.16699 -58 21.5s-22 33.833 -22 58.5c0 24 7.33301 43.333 22 58z" />
    <glyph glyph-name="dotlessi" unicode="&#x131;" horiz-adv-x="296" 
d="M213 543v-625h-130v625h130z" />
    <glyph glyph-name="IJ" unicode="&#x132;" horiz-adv-x="823" 
d="M228 764v-846h-140v846h140zM745 140c0 -74.667 -21.001 -132.667 -63.001 -174s-100 -62 -174 -62c-63.333 0 -113.666 13.167 -150.999 39.5s-62 62.833 -74 109.5l107 50c7.33301 -30 19.833 -52 37.5 -66s41.167 -21 70.5 -21c35.333 0 62 9.83301 80 29.5
s27 48.167 27 85.5v633h140v-624z" />
    <glyph glyph-name="ij" unicode="&#x133;" horiz-adv-x="531" 
d="M90 758c14.667 14.667 34 22 58 22s43.333 -7.33301 58 -22s22 -34 22 -58s-7.33301 -43.333 -22 -58s-34 -22 -58 -22s-43.333 7.33301 -58 22s-22 34 -22 58s7.33301 43.333 22 58zM213 543v-625h-130v625h130zM325 758c14.667 14.667 34 22 58 22
s43.333 -7.33301 58 -22s22 -34 22 -58s-7.33301 -43.333 -22 -58s-34 -22 -58 -22s-43.333 7.33301 -58 22s-22 34 -22 58s7.33301 43.333 22 58zM398.5 -275c-33 -34 -78.166 -50.999 -135.499 -50.999c-30.667 0 -60.334 5.33301 -89.001 16v103c16.667 -6 37 -9 61 -9
c26.667 0 47.167 7.16699 61.5 21.5s21.5 35.166 21.5 62.499v675h130v-678c0 -59.333 -16.5 -106 -49.5 -140z" />
    <glyph glyph-name="Jcircumflex" unicode="&#x134;" horiz-adv-x="567" 
d="M426 -34c-42 -41.333 -100.001 -62 -174.001 -62c-63.333 0 -113.666 13.167 -150.999 39.5s-62 62.833 -74 109.5l107 50c7.33301 -30 19.833 -52 37.5 -66s41.167 -21 70.5 -21c35.333 0 62 9.83301 80 29.5s27 48.167 27 85.5v633h140v-624
c0 -74.667 -21 -132.667 -63 -174zM419.999 937l-99 -116h-113l158 199h108l158 -199h-113z" />
    <glyph glyph-name="jcircumflex" unicode="&#x135;" horiz-adv-x="296" 
d="M164.5 -275c-33 -34 -78.166 -50.999 -135.499 -50.999c-30.667 0 -60.334 5.33301 -89.001 16v103c16.667 -6 37 -9 61 -9c26.667 0 47.167 7.16699 61.5 21.5s21.5 35.166 21.5 62.499v675h130v-678c0 -59.333 -16.5 -106 -49.5 -140zM149.001 716.001l-99 -116h-113
l158 199h108l158 -199h-113z" />
    <glyph glyph-name="uni0136" unicode="&#x136;" horiz-adv-x="739" 
d="M562 -82l-342 426v-426h-140v846h140v-382l312 382h169l-340 -399l375 -447h-174zM434 -148c0 -28.667 -4.33203 -65.999 -12.999 -111.999c-0.666992 -6.66699 -2.33398 -17.334 -5.00098 -32.001l-3 -20h-107l3 20c3.33301 20.667 6 45.167 8 73.5s3 51.833 3 70.5h114
z" />
    <glyph glyph-name="uni0137" unicode="&#x137;" horiz-adv-x="630" 
d="M447 -82l-242 309v-309h-130v882h130v-535l229 278h157l-252 -297l274 -328h-166zM380 -148c0 -28.667 -4.33203 -65.999 -12.999 -111.999c-0.666992 -6.66699 -2.33398 -17.334 -5.00098 -32.001l-3 -20h-107l3 20c3.33301 20.667 6 45.167 8 73.5s3 51.833 3 70.5h114
z" />
    <glyph glyph-name="kgreenlandic" unicode="&#x138;" horiz-adv-x="630" 
d="M447 -82l-242 309v-309h-130v625h130v-278l229 278h157l-252 -297l274 -328h-166z" />
    <glyph glyph-name="Lacute" unicode="&#x139;" horiz-adv-x="619" 
d="M577 36v-118h-497v846h140v-728h357zM301 1020l-96 -199h-106l72 199h130z" />
    <glyph glyph-name="lacute" unicode="&#x13a;" horiz-adv-x="296" 
d="M213 800v-882h-130v882h130zM295 1040l-96 -199h-106l72 199h130z" />
    <glyph glyph-name="uni013B" unicode="&#x13b;" horiz-adv-x="619" 
d="M577 36v-118h-497v846h140v-728h357zM374 -148c0 -28.667 -4.33203 -65.999 -12.999 -111.999c-0.666992 -6.66699 -2.33398 -17.334 -5.00098 -32.001l-3 -20h-107l3 20c3.33301 20.667 6 45.167 8 73.5s3 51.833 3 70.5h114z" />
    <glyph glyph-name="uni013C" unicode="&#x13c;" horiz-adv-x="296" 
d="M213 800v-882h-130v882h130zM206 -148c0 -28.667 -4.33203 -65.999 -12.999 -111.999c-0.666992 -6.66699 -2.33398 -17.334 -5.00098 -32.001l-3 -20h-107l3 20c3.33301 20.667 6 45.167 8 73.5s3 51.833 3 70.5h114z" />
    <glyph glyph-name="Lcaron" unicode="&#x13d;" horiz-adv-x="619" 
d="M577 36v-118h-497v846h140v-728h357zM481 769l-28 -220h-89l10 220h107z" />
    <glyph glyph-name="lcaron" unicode="&#x13e;" horiz-adv-x="296" 
d="M213 800v-882h-130v882h130zM377 800l-28 -220h-89l10 220h107z" />
    <glyph glyph-name="Ldot" unicode="&#x13f;" horiz-adv-x="619" 
d="M577 36v-118h-497v846h140v-728h357zM402 304c-14.667 14.667 -22 34 -22 58s7.33301 43.333 22 58s34 22 58 22s43.333 -7.33301 58 -22s22 -34 22 -58s-7.33301 -43.333 -22 -58s-34 -22 -58 -22s-43.333 7.33301 -58 22z" />
    <glyph glyph-name="ldot" unicode="&#x140;" horiz-adv-x="443" 
d="M213 800v-882h-130v882h130zM311.5 368c14.333 14.667 33.5 22 57.5 22c24.667 0 44.167 -7.33301 58.5 -22s21.5 -34 21.5 -58s-7.16699 -43.333 -21.5 -58s-33.833 -22 -58.5 -22c-24 0 -43.167 7.33301 -57.5 22s-21.5 34 -21.5 58s7.16699 43.333 21.5 58z" />
    <glyph glyph-name="Lslash" unicode="&#x141;" horiz-adv-x="703" 
d="M660 36v-118h-496v295l-90 -60l-53 80l143 96v435h140v-342l200 134l53 -80l-253 -169v-271h356z" />
    <glyph glyph-name="lslash" unicode="&#x142;" horiz-adv-x="431" 
d="M272 365v-447h-130v335l-62 -53l-61 71l123 106v423h130v-310l77 66l61 -72z" />
    <glyph glyph-name="Nacute" unicode="&#x143;" horiz-adv-x="831" 
d="M750 764v-846h-124l-419 625v-625h-127v846h149l395 -590v590h126zM565 1020l-96 -199h-106l72 199h130z" />
    <glyph glyph-name="nacute" unicode="&#x144;" horiz-adv-x="696" 
d="M568 497.5c38 -39.667 57 -95.5 57 -167.5v-412h-130v392c0 46.667 -10.833 81.167 -32.5 103.5s-54.167 33.5 -97.5 33.5c-48.667 0 -87.5 -16.5 -116.5 -49.5s-43.5 -77.167 -43.5 -132.5v-347h-130v481c0 62.667 -1.33301 110.667 -4 144h115
c4 -24.667 6.33301 -57.667 7 -99c46 75.333 118.667 113 218 113c66.667 0 119 -19.833 157 -59.5zM505 800l-96 -199h-106l72 199h130z" />
    <glyph glyph-name="uni0145" unicode="&#x145;" horiz-adv-x="831" 
d="M750 764v-846h-124l-419 625v-625h-127v846h149l395 -590v590h126zM480 -148c0 -28.667 -4.33203 -65.999 -12.999 -111.999c-0.666992 -6.66699 -2.33398 -17.334 -5.00098 -32.001l-3 -20h-107l3 20c3.33301 20.667 6 45.167 8 73.5s3 51.833 3 70.5h114z" />
    <glyph glyph-name="uni0146" unicode="&#x146;" horiz-adv-x="696" 
d="M568 497.5c38 -39.667 57 -95.5 57 -167.5v-412h-130v392c0 46.667 -10.833 81.167 -32.5 103.5s-54.167 33.5 -97.5 33.5c-48.667 0 -87.5 -16.5 -116.5 -49.5s-43.5 -77.167 -43.5 -132.5v-347h-130v481c0 62.667 -1.33301 110.667 -4 144h115
c4 -24.667 6.33301 -57.667 7 -99c46 75.333 118.667 113 218 113c66.667 0 119 -19.833 157 -59.5zM414 -148c0 -28.667 -4.33203 -65.999 -12.999 -111.999c-0.666992 -6.66699 -2.33398 -17.334 -5.00098 -32.001l-3 -20h-107l3 20c3.33301 20.667 6 45.167 8 73.5
s3 51.833 3 70.5h114z" />
    <glyph glyph-name="Ncaron" unicode="&#x147;" horiz-adv-x="831" 
d="M750 764v-846h-124l-419 625v-625h-127v846h149l395 -590v590h126zM416 904l99 116h113l-158 -199h-108l-158 199h113z" />
    <glyph glyph-name="ncaron" unicode="&#x148;" horiz-adv-x="696" 
d="M568 497.5c38 -39.667 57 -95.5 57 -167.5v-412h-130v392c0 46.667 -10.833 81.167 -32.5 103.5s-54.167 33.5 -97.5 33.5c-48.667 0 -87.5 -16.5 -116.5 -49.5s-43.5 -77.167 -43.5 -132.5v-347h-130v481c0 62.667 -1.33301 110.667 -4 144h115
c4 -24.667 6.33301 -57.667 7 -99c46 75.333 118.667 113 218 113c66.667 0 119 -19.833 157 -59.5zM356 684l99 116h113l-158 -199h-108l-158 199h113z" />
    <glyph glyph-name="Eng" unicode="&#x14a;" horiz-adv-x="831" 
d="M750 764v-896c0 -60 -16.5 -107.333 -49.5 -142s-78.167 -52 -135.5 -52c-31.333 0 -61.333 5.66699 -90 17v100c17.333 -6 38 -9 62 -9c28 0 49.5 7.66699 64.5 23s22.5 37.333 22.5 66v50l-417 622v-625h-127v846h149l395 -590v590h126z" />
    <glyph glyph-name="eng" unicode="&#x14b;" horiz-adv-x="696" 
d="M568 497.5c38 -39.667 57.001 -95.501 57.001 -167.501v-465c0 -59.333 -16.5 -106 -49.5 -140s-78.5 -51 -136.5 -51c-30.667 0 -60.334 5.33301 -89.001 16v103c17.333 -6 38 -9 62 -9c26.667 0 47.167 7.33301 61.5 22s21.5 35.334 21.5 62.001v442
c0 46.667 -10.833 81.167 -32.5 103.5s-54.167 33.5 -97.5 33.5c-48.667 0 -87.5 -16.5 -116.5 -49.5s-43.5 -77.167 -43.5 -132.5v-347h-130v481c0 62.667 -1.33301 110.667 -4 144h115c4 -24.667 6.33301 -57.667 7 -99c46 75.333 118.667 113 218 113
c66.667 0 119 -19.833 157 -59.5z" />
    <glyph glyph-name="Omacron" unicode="&#x14c;" horiz-adv-x="866" 
d="M763.5 114c-31.667 -66 -76.167 -117.5 -133.5 -154.5s-123 -55.5 -197 -55.5s-139.667 18.5 -197 55.5s-101.833 88.5 -133.5 154.5s-47.5 141.667 -47.5 227s15.833 161 47.5 227s76.167 117.5 133.5 154.5s123 55.5 197 55.5s139.667 -18.5 197 -55.5
s101.833 -88.5 133.5 -154.5s47.5 -141.667 47.5 -227s-15.833 -161 -47.5 -227zM225 173c20 -48.667 48 -86.334 84 -113.001s77.333 -40 124 -40s88 13.333 124 40s64 64.334 84 113.001s30 104.667 30 168s-10 119.333 -30 168s-48 86.334 -84 113.001
s-77.333 40 -124 40s-88 -13.333 -124 -40s-64 -64.334 -84 -113.001s-30 -104.667 -30 -168s10 -119.333 30 -168zM272 973h322v-105h-322v105z" />
    <glyph glyph-name="omacron" unicode="&#x14d;" horiz-adv-x="688" 
d="M88.5 401c25 49.333 59.833 87.666 104.5 114.999s95 41 151 41s106.333 -13.667 151 -41s79.5 -65.666 104.5 -114.999s37.5 -106 37.5 -170s-12.5 -120.833 -37.5 -170.5s-59.833 -88.167 -104.5 -115.5s-95 -41 -151 -41s-106.333 13.667 -151 41
s-79.5 65.833 -104.5 115.5s-37.5 106.5 -37.5 170.5s12.5 120.667 37.5 170zM486.5 347c-13.667 33.333 -32.834 59.333 -57.501 78s-53 28 -85 28s-60.333 -9.33301 -85 -28s-43.834 -44.667 -57.501 -78s-20.5 -72 -20.5 -116s6.83301 -82.833 20.5 -116.5
s32.834 -59.834 57.501 -78.501s53 -28 85 -28s60.333 9.33301 85 28s43.834 44.834 57.501 78.501s20.5 72.5 20.5 116.5s-6.83301 82.667 -20.5 116zM184 753h322v-105h-322v105z" />
    <glyph glyph-name="Obreve" unicode="&#x14e;" horiz-adv-x="866" 
d="M763.5 114c-31.667 -66 -76.167 -117.5 -133.5 -154.5s-123 -55.5 -197 -55.5s-139.667 18.5 -197 55.5s-101.833 88.5 -133.5 154.5s-47.5 141.667 -47.5 227s15.833 161 47.5 227s76.167 117.5 133.5 154.5s123 55.5 197 55.5s139.667 -18.5 197 -55.5
s101.833 -88.5 133.5 -154.5s47.5 -141.667 47.5 -227s-15.833 -161 -47.5 -227zM225 173c20 -48.667 48 -86.334 84 -113.001s77.333 -40 124 -40s88 13.333 124 40s64 64.334 84 113.001s30 104.667 30 168s-10 119.333 -30 168s-48 86.334 -84 113.001
s-77.333 40 -124 40s-88 -13.333 -124 -40s-64 -64.334 -84 -113.001s-30 -104.667 -30 -168s10 -119.333 30 -168zM290.5 864.5c-35 37.667 -52.498 89.5 -52.498 155.5h87c0 -41.333 9.16699 -72.833 27.5 -94.5s45.166 -32.5 80.499 -32.5s62.166 10.833 80.499 32.5
s27.5 53.167 27.5 94.5h87c0 -66 -17.5 -117.833 -52.5 -155.5s-82.5 -56.5 -142.5 -56.5s-107.5 18.833 -142.5 56.5z" />
    <glyph glyph-name="obreve" unicode="&#x14f;" horiz-adv-x="688" 
d="M88.5 401c25 49.333 59.833 87.666 104.5 114.999s95 41 151 41s106.333 -13.667 151 -41s79.5 -65.666 104.5 -114.999s37.5 -106 37.5 -170s-12.5 -120.833 -37.5 -170.5s-59.833 -88.167 -104.5 -115.5s-95 -41 -151 -41s-106.333 13.667 -151 41
s-79.5 65.833 -104.5 115.5s-37.5 106.5 -37.5 170.5s12.5 120.667 37.5 170zM486.5 347c-13.667 33.333 -32.834 59.333 -57.501 78s-53 28 -85 28s-60.333 -9.33301 -85 -28s-43.834 -44.667 -57.501 -78s-20.5 -72 -20.5 -116s6.83301 -82.833 20.5 -116.5
s32.834 -59.834 57.501 -78.501s53 -28 85 -28s60.333 9.33301 85 28s43.834 44.834 57.501 78.501s20.5 72.5 20.5 116.5s-6.83301 82.667 -20.5 116zM202.5 644.5c-35 37.667 -52.498 89.5 -52.498 155.5h87c0 -41.333 9.16699 -72.833 27.5 -94.5
s45.166 -32.5 80.499 -32.5s62.166 10.833 80.499 32.5s27.5 53.167 27.5 94.5h87c0 -66 -17.5 -117.833 -52.5 -155.5s-82.5 -56.5 -142.5 -56.5s-107.5 18.833 -142.5 56.5z" />
    <glyph glyph-name="Ohungarumlaut" unicode="&#x150;" horiz-adv-x="866" 
d="M763.5 114c-31.667 -66 -76.167 -117.5 -133.5 -154.5s-123 -55.5 -197 -55.5s-139.667 18.5 -197 55.5s-101.833 88.5 -133.5 154.5s-47.5 141.667 -47.5 227s15.833 161 47.5 227s76.167 117.5 133.5 154.5s123 55.5 197 55.5s139.667 -18.5 197 -55.5
s101.833 -88.5 133.5 -154.5s47.5 -141.667 47.5 -227s-15.833 -161 -47.5 -227zM225 173c20 -48.667 48 -86.334 84 -113.001s77.333 -40 124 -40s88 13.333 124 40s64 64.334 84 113.001s30 104.667 30 168s-10 119.333 -30 168s-48 86.334 -84 113.001
s-77.333 40 -124 40s-88 -13.333 -124 -40s-64 -64.334 -84 -113.001s-30 -104.667 -30 -168s10 -119.333 30 -168zM489 1020l-96 -199h-106l72 199h130zM675 1020l-96 -199h-106l72 199h130z" />
    <glyph glyph-name="ohungarumlaut" unicode="&#x151;" horiz-adv-x="688" 
d="M88.5 401c25 49.333 59.833 87.666 104.5 114.999s95 41 151 41s106.333 -13.667 151 -41s79.5 -65.666 104.5 -114.999s37.5 -106 37.5 -170s-12.5 -120.833 -37.5 -170.5s-59.833 -88.167 -104.5 -115.5s-95 -41 -151 -41s-106.333 13.667 -151 41
s-79.5 65.833 -104.5 115.5s-37.5 106.5 -37.5 170.5s12.5 120.667 37.5 170zM486.5 347c-13.667 33.333 -32.834 59.333 -57.501 78s-53 28 -85 28s-60.333 -9.33301 -85 -28s-43.834 -44.667 -57.501 -78s-20.5 -72 -20.5 -116s6.83301 -82.833 20.5 -116.5
s32.834 -59.834 57.501 -78.501s53 -28 85 -28s60.333 9.33301 85 28s43.834 44.834 57.501 78.501s20.5 72.5 20.5 116.5s-6.83301 82.667 -20.5 116zM401 800l-96 -199h-106l72 199h130zM587 800l-96 -199h-106l72 199h130z" />
    <glyph glyph-name="OE" unicode="&#x152;" horiz-adv-x="1126" 
d="M692 645v-223.001h343v-119h-343v-266h367v-119h-625c-76.667 0 -143.334 17.333 -200.001 52s-100.167 84 -130.5 148s-45.5 138.333 -45.5 223s15.167 158.834 45.5 222.501s73.833 113 130.5 148s123.334 52.5 200.001 52.5h625v-119h-367zM552 35.999v610h-93
c-82.667 0 -146.834 -27.5 -192.501 -82.5s-68.5 -129.167 -68.5 -222.5c0 -94 22.833 -168.333 68.5 -223s109.834 -82 192.501 -82h93z" />
    <glyph glyph-name="oe" unicode="&#x153;" horiz-adv-x="1119" 
d="M1067 198l-429 0.00195312c3.33301 -60.667 19.833 -107.334 49.5 -140.001s69.167 -49 118.5 -49c38 0 68 7.83301 90 23.5s39.333 38.5 52 68.5l107 -51c-40 -97.333 -122.667 -146 -248 -146c-54.667 0 -102 12.333 -142 37s-71.333 59 -94 103
c-22.667 -43.333 -53.334 -77.5 -92.001 -102.5s-83.334 -37.5 -134.001 -37.5c-56 0 -106.333 13.667 -151 41s-79.5 65.833 -104.5 115.5s-37.5 106.5 -37.5 170.5s12.5 120.667 37.5 170s59.833 87.666 104.5 114.999s95 41 151 41c50.667 0 95.334 -12.5 134.001 -37.5
s69.667 -59.167 93 -102.5c22 43.333 51.833 77.5 89.5 102.5s80.834 37.5 129.501 37.5c56.667 0 106 -13.5 148 -40.5s74.167 -65 96.5 -114s33.5 -106.167 33.5 -171.5c0 -12.667 -0.666992 -23.667 -2 -33zM429.5 36.502c24.333 18.333 43.333 44.333 57 78
s20.5 72.5 20.5 116.5s-6.83301 82.667 -20.5 116s-32.667 59.166 -57 77.499s-52.5 27.5 -84.5 27.5s-60.333 -9.16699 -85 -27.5s-43.834 -44.166 -57.501 -77.499s-20.5 -72 -20.5 -116s6.83301 -82.833 20.5 -116.5s32.834 -59.667 57.501 -78s53 -27.5 85 -27.5
s60.167 9.16699 84.5 27.5zM690.5 410.502c-26.333 -27.667 -42.834 -66.5 -49.501 -116.5h296c-6 50.667 -21.667 89.667 -47 117s-59 41 -101 41c-39.333 0 -72.166 -13.833 -98.499 -41.5z" />
    <glyph glyph-name="Racute" unicode="&#x154;" horiz-adv-x="726" 
d="M324 254h-104.001v-336h-140v846h331c50.667 0 95 -10.5 133 -31.5s67.333 -50.833 88 -89.5s31 -83.334 31 -134.001c0 -66 -17.167 -121.167 -51.5 -165.5s-81.166 -72.166 -140.499 -83.499l244 -342h-168zM219.999 365l161 -0.000976562
c45.333 0 80.166 12.333 104.499 37s36.5 60.334 36.5 107.001c0 46 -12.167 81.5 -36.5 106.5s-59.166 37.5 -104.499 37.5h-161v-288zM490.999 1020l-96 -199h-106l72 199h130z" />
    <glyph glyph-name="racute" unicode="&#x155;" horiz-adv-x="443" 
d="M405 551l-0.000976562 -117c-14.667 2.66699 -29 4 -43 4c-46.667 0 -84.5 -15.333 -113.5 -46s-43.5 -73.334 -43.5 -128.001v-346h-129v481c0 54.667 -1.66699 102.667 -5 144h113c3.33301 -23.333 5.33301 -57.666 6 -102.999c18.667 38 43.334 67 74.001 87
s65.667 30 105 30c16 0 28 -2 36 -6zM381.999 800l-96 -199h-106l72 199h130z" />
    <glyph glyph-name="uni0156" unicode="&#x156;" horiz-adv-x="726" 
d="M324 254h-104.001v-336h-140v846h331c50.667 0 95 -10.5 133 -31.5s67.333 -50.833 88 -89.5s31 -83.334 31 -134.001c0 -66 -17.167 -121.167 -51.5 -165.5s-81.166 -72.166 -140.499 -83.499l244 -342h-168zM219.999 365l161 -0.000976562
c45.333 0 80.166 12.333 104.499 37s36.5 60.334 36.5 107.001c0 46 -12.167 81.5 -36.5 106.5s-59.166 37.5 -104.499 37.5h-161v-288zM426.999 -148.001c0 -28.667 -4.33203 -65.999 -12.999 -111.999c-0.666992 -6.66699 -2.33398 -17.334 -5.00098 -32.001l-3 -20h-107
l3 20c3.33301 20.667 6 45.167 8 73.5s3 51.833 3 70.5h114z" />
    <glyph glyph-name="uni0157" unicode="&#x157;" horiz-adv-x="443" 
d="M405 551l-0.000976562 -117c-14.667 2.66699 -29 4 -43 4c-46.667 0 -84.5 -15.333 -113.5 -46s-43.5 -73.334 -43.5 -128.001v-346h-129v481c0 54.667 -1.66699 102.667 -5 144h113c3.33301 -23.333 5.33301 -57.666 6 -102.999c18.667 38 43.334 67 74.001 87
s65.667 30 105 30c16 0 28 -2 36 -6zM197.999 -148c0 -28.667 -4.33203 -65.999 -12.999 -111.999c-0.666992 -6.66699 -2.33398 -17.334 -5.00098 -32.001l-3 -20h-107l3 20c3.33301 20.667 6 45.167 8 73.5s3 51.833 3 70.5h114z" />
    <glyph glyph-name="Rcaron" unicode="&#x158;" horiz-adv-x="726" 
d="M324 254h-104.001v-336h-140v846h331c50.667 0 95 -10.5 133 -31.5s67.333 -50.833 88 -89.5s31 -83.334 31 -134.001c0 -66 -17.167 -121.167 -51.5 -165.5s-81.166 -72.166 -140.499 -83.499l244 -342h-168zM219.999 365l161 -0.000976562
c45.333 0 80.166 12.333 104.499 37s36.5 60.334 36.5 107.001c0 46 -12.167 81.5 -36.5 106.5s-59.166 37.5 -104.499 37.5h-161v-288zM341.999 903.999l99 116h113l-158 -199h-108l-158 199h113z" />
    <glyph glyph-name="rcaron" unicode="&#x159;" horiz-adv-x="443" 
d="M405 551l-0.000976562 -117c-14.667 2.66699 -29 4 -43 4c-46.667 0 -84.5 -15.333 -113.5 -46s-43.5 -73.334 -43.5 -128.001v-346h-129v481c0 54.667 -1.66699 102.667 -5 144h113c3.33301 -23.333 5.33301 -57.666 6 -102.999c18.667 38 43.334 67 74.001 87
s65.667 30 105 30c16 0 28 -2 36 -6zM232.999 684l99 116h113l-158 -199h-108l-158 199h113z" />
    <glyph glyph-name="Sacute" unicode="&#x15a;" horiz-adv-x="694" 
d="M133 381.5c-40.667 39 -60.9961 91.167 -60.9961 156.5c0 46.667 11.5 88.167 34.5 124.5s55.833 64.666 98.5 84.999s93 30.5 151 30.5c72 0 132 -14.833 180 -44.5s81 -72.5 99 -128.5l-112 -53c-12.667 35.333 -32.167 61.833 -58.5 79.5s-61.5 26.5 -105.5 26.5
c-48.667 0 -85.167 -9.83301 -109.5 -29.5s-36.5 -47.834 -36.5 -84.501c0 -23.333 5.16699 -42.833 15.5 -58.5s27.666 -28.834 51.999 -39.501s57.833 -20.334 100.5 -29.001c95.333 -17.333 164.166 -46.666 206.499 -87.999s63.5 -98.666 63.5 -171.999
c0 -48.667 -12.667 -92.167 -38 -130.5s-61 -68.333 -107 -90s-98.333 -32.5 -157 -32.5c-80 0 -146.5 16.667 -199.5 50s-89.167 81 -108.5 143l113 53c13.333 -41.333 36.5 -72.666 69.5 -93.999s74.5 -32 124.5 -32c52 0 92 11.333 120 34s42 54.667 42 96
c0 38.667 -13.833 68.834 -41.5 90.501s-75.834 39.5 -144.501 53.5c-86.667 16.667 -150.334 44.5 -191.001 83.5zM498.004 1020l-96 -199h-106l72 199h130z" />
    <glyph glyph-name="sacute" unicode="&#x15b;" horiz-adv-x="577" 
d="M61 375c0 35.333 9.66992 66.833 29.0029 94.5s46.166 49.167 80.499 64.5s73.5 23 117.5 23c61.333 0 112.166 -11.833 152.499 -35.5s66.833 -56.834 79.5 -99.501l-100 -46c-16 54 -58.333 81 -127 81c-32 0 -57.333 -6.83301 -76 -20.5s-28 -32.5 -28 -56.5
s9.66699 -42.333 29 -55s53.666 -22.667 102.999 -30c73.333 -10.667 127.333 -31.834 162 -63.501s52 -75.167 52 -130.5c0 -38.667 -10.333 -73 -31 -103s-49.167 -53.167 -85.5 -69.5s-77.5 -24.5 -123.5 -24.5c-68 0 -123.833 13.167 -167.5 39.5
s-73.167 63.833 -88.5 112.5l99 46c21.333 -65.333 71.333 -98 150 -98c37.333 0 66.5 7.66699 87.5 23s31.5 37 31.5 65c0 20.667 -4.33301 37.334 -13 50.001s-23 22.834 -43 30.501s-48.333 14.167 -85 19.5c-136.667 20 -205 81 -205 183zM438.003 800l-96 -199h-106
l72 199h130z" />
    <glyph glyph-name="Scircumflex" unicode="&#x15c;" horiz-adv-x="694" 
d="M133 381.5c-40.667 39 -60.9961 91.167 -60.9961 156.5c0 46.667 11.5 88.167 34.5 124.5s55.833 64.666 98.5 84.999s93 30.5 151 30.5c72 0 132 -14.833 180 -44.5s81 -72.5 99 -128.5l-112 -53c-12.667 35.333 -32.167 61.833 -58.5 79.5s-61.5 26.5 -105.5 26.5
c-48.667 0 -85.167 -9.83301 -109.5 -29.5s-36.5 -47.834 -36.5 -84.501c0 -23.333 5.16699 -42.833 15.5 -58.5s27.666 -28.834 51.999 -39.501s57.833 -20.334 100.5 -29.001c95.333 -17.333 164.166 -46.666 206.499 -87.999s63.5 -98.666 63.5 -171.999
c0 -48.667 -12.667 -92.167 -38 -130.5s-61 -68.333 -107 -90s-98.333 -32.5 -157 -32.5c-80 0 -146.5 16.667 -199.5 50s-89.167 81 -108.5 143l113 53c13.333 -41.333 36.5 -72.666 69.5 -93.999s74.5 -32 124.5 -32c52 0 92 11.333 120 34s42 54.667 42 96
c0 38.667 -13.833 68.834 -41.5 90.501s-75.834 39.5 -144.501 53.5c-86.667 16.667 -150.334 44.5 -191.001 83.5zM349.004 937l-99 -116h-113l158 199h108l158 -199h-113z" />
    <glyph glyph-name="scircumflex" unicode="&#x15d;" horiz-adv-x="577" 
d="M61 375c0 35.333 9.66992 66.833 29.0029 94.5s46.166 49.167 80.499 64.5s73.5 23 117.5 23c61.333 0 112.166 -11.833 152.499 -35.5s66.833 -56.834 79.5 -99.501l-100 -46c-16 54 -58.333 81 -127 81c-32 0 -57.333 -6.83301 -76 -20.5s-28 -32.5 -28 -56.5
s9.66699 -42.333 29 -55s53.666 -22.667 102.999 -30c73.333 -10.667 127.333 -31.834 162 -63.501s52 -75.167 52 -130.5c0 -38.667 -10.333 -73 -31 -103s-49.167 -53.167 -85.5 -69.5s-77.5 -24.5 -123.5 -24.5c-68 0 -123.833 13.167 -167.5 39.5
s-73.167 63.833 -88.5 112.5l99 46c21.333 -65.333 71.333 -98 150 -98c37.333 0 66.5 7.66699 87.5 23s31.5 37 31.5 65c0 20.667 -4.33301 37.334 -13 50.001s-23 22.834 -43 30.501s-48.333 14.167 -85 19.5c-136.667 20 -205 81 -205 183zM289.003 717l-99 -116h-113
l158 199h108l158 -199h-113z" />
    <glyph glyph-name="Scedilla" unicode="&#x15e;" horiz-adv-x="694" 
d="M616 31c-23.333 -37.333 -56.1641 -67.002 -98.4971 -89.002s-91.166 -34.333 -146.499 -37l-8 -43c27.333 -6 48.666 -17 63.999 -33s23 -35.667 23 -59c0 -29.333 -10.667 -52.666 -32 -69.999s-51 -26 -89 -26c-14 0 -29 2 -45 6s-29 8.66699 -39 14l15 56
c20 -9.33301 41 -14 63 -14c34 0 51 12 51 36c0 14.667 -7.16699 26.5 -21.5 35.5s-35.166 15.167 -62.499 18.5l16 80c-68 5.33301 -124.833 24.333 -170.5 57s-77.167 77.334 -94.5 134.001l113 53c13.333 -41.333 36.5 -72.666 69.5 -93.999s74.5 -32 124.5 -32
c52 0 92 11.333 120 34s42 54.667 42 96c0 38.667 -13.833 68.834 -41.5 90.501s-75.834 39.5 -144.501 53.5c-86.667 16.667 -150.334 44.5 -191.001 83.5s-61 91.167 -61 156.5c0 46.667 11.5 88.167 34.5 124.5s55.833 64.666 98.5 84.999s93 30.5 151 30.5
c72 0 132 -14.833 180 -44.5s81 -72.5 99 -128.5l-112 -53c-12.667 35.333 -32.167 61.833 -58.5 79.5s-61.5 26.5 -105.5 26.5c-48.667 0 -85.167 -9.83301 -109.5 -29.5s-36.5 -47.834 -36.5 -84.501c0 -23.333 5.16699 -42.833 15.5 -58.5s27.666 -28.834 51.999 -39.501
s57.833 -20.334 100.5 -29.001c95.333 -17.333 164.166 -46.666 206.499 -87.999s63.5 -98.666 63.5 -171.999c0 -46.667 -11.667 -88.667 -35 -126z" />
    <glyph glyph-name="scedilla" unicode="&#x15f;" horiz-adv-x="577" 
d="M475.5 -34.5c-39.667 -35.667 -91.1641 -55.834 -154.497 -60.501l-8 -43c27.333 -6 48.666 -17 63.999 -33s23 -35.667 23 -59c0 -29.333 -10.667 -52.666 -32 -69.999s-51 -26 -89 -26c-14 0 -29 2 -45 6s-29 8.66699 -39 14l15 56c20 -9.33301 41 -14 63 -14
c34 0 51 12 51 36c0 14.667 -7.16699 26.5 -21.5 35.5s-35.166 15.167 -62.499 18.5l16 80c-57.333 4.66699 -104.5 19.834 -141.5 45.501s-62.167 60.5 -75.5 104.5l99 46c21.333 -65.333 71.333 -98 150 -98c37.333 0 66.5 7.66699 87.5 23s31.5 37 31.5 65
c0 20.667 -4.33301 37.334 -13 50.001s-23 22.834 -43 30.501s-48.333 14.167 -85 19.5c-136.667 20 -205 81 -205 183c0 35.333 9.66699 66.833 29 94.5s46.166 49.167 80.499 64.5s73.5 23 117.5 23c61.333 0 112.166 -11.833 152.499 -35.5s66.833 -56.834 79.5 -99.501
l-100 -46c-16 54 -58.333 81 -127 81c-32 0 -57.333 -6.83301 -76 -20.5s-28 -32.5 -28 -56.5s9.66699 -42.333 29 -55s53.666 -22.667 102.999 -30c73.333 -10.667 127.333 -31.834 162 -63.501s52 -75.167 52 -130.5c0 -54.667 -19.833 -99.834 -59.5 -135.501z" />
    <glyph glyph-name="Scaron" unicode="&#x160;" horiz-adv-x="694" 
d="M133 381.5c-40.667 39 -60.9961 91.167 -60.9961 156.5c0 46.667 11.5 88.167 34.5 124.5s55.833 64.666 98.5 84.999s93 30.5 151 30.5c72 0 132 -14.833 180 -44.5s81 -72.5 99 -128.5l-112 -53c-12.667 35.333 -32.167 61.833 -58.5 79.5s-61.5 26.5 -105.5 26.5
c-48.667 0 -85.167 -9.83301 -109.5 -29.5s-36.5 -47.834 -36.5 -84.501c0 -23.333 5.16699 -42.833 15.5 -58.5s27.666 -28.834 51.999 -39.501s57.833 -20.334 100.5 -29.001c95.333 -17.333 164.166 -46.666 206.499 -87.999s63.5 -98.666 63.5 -171.999
c0 -48.667 -12.667 -92.167 -38 -130.5s-61 -68.333 -107 -90s-98.333 -32.5 -157 -32.5c-80 0 -146.5 16.667 -199.5 50s-89.167 81 -108.5 143l113 53c13.333 -41.333 36.5 -72.666 69.5 -93.999s74.5 -32 124.5 -32c52 0 92 11.333 120 34s42 54.667 42 96
c0 38.667 -13.833 68.834 -41.5 90.501s-75.834 39.5 -144.501 53.5c-86.667 16.667 -150.334 44.5 -191.001 83.5zM349.004 904l99 116h113l-158 -199h-108l-158 199h113z" />
    <glyph glyph-name="scaron" unicode="&#x161;" horiz-adv-x="577" 
d="M61 375c0 35.333 9.66992 66.833 29.0029 94.5s46.166 49.167 80.499 64.5s73.5 23 117.5 23c61.333 0 112.166 -11.833 152.499 -35.5s66.833 -56.834 79.5 -99.501l-100 -46c-16 54 -58.333 81 -127 81c-32 0 -57.333 -6.83301 -76 -20.5s-28 -32.5 -28 -56.5
s9.66699 -42.333 29 -55s53.666 -22.667 102.999 -30c73.333 -10.667 127.333 -31.834 162 -63.501s52 -75.167 52 -130.5c0 -38.667 -10.333 -73 -31 -103s-49.167 -53.167 -85.5 -69.5s-77.5 -24.5 -123.5 -24.5c-68 0 -123.833 13.167 -167.5 39.5
s-73.167 63.833 -88.5 112.5l99 46c21.333 -65.333 71.333 -98 150 -98c37.333 0 66.5 7.66699 87.5 23s31.5 37 31.5 65c0 20.667 -4.33301 37.334 -13 50.001s-23 22.834 -43 30.501s-48.333 14.167 -85 19.5c-136.667 20 -205 81 -205 183zM289.003 684l99 116h113
l-158 -199h-108l-158 199h113z" />
    <glyph glyph-name="uni0162" unicode="&#x162;" horiz-adv-x="674" 
d="M631 646h-224v-728h-140v728h-225v118h589v-118zM299 -120c48 -5.33301 84.666 -17.6689 109.999 -37.002s38 -43.666 38 -72.999s-10.667 -52.666 -32 -69.999s-51 -26 -89 -26c-14 0 -29 2 -45 6s-29 8.66699 -39 14l15 56c20 -9.33301 41 -14 63 -14c34 0 51 12 51 36
c0 14.667 -7.16699 26.5 -21.5 35.5s-35.166 15.167 -62.499 18.5z" />
    <glyph glyph-name="uni0163" unicode="&#x163;" horiz-adv-x="441" 
d="M255 439l0.000976562 -342c0 -55.333 27.667 -83 83 -83c24.667 0 45 2.66699 61 8v-103c-28.667 -10 -58.334 -15 -89.001 -15c-57.333 0 -102.5 16.667 -135.5 50s-49.5 79.333 -49.5 138v347h-89v104h89v151h130v-151h144v-104h-144zM225.001 -120
c48 -5.33301 84.666 -17.6689 109.999 -37.002s38 -43.666 38 -72.999s-10.667 -52.666 -32 -69.999s-51 -26 -89 -26c-14 0 -29 2 -45 6s-29 8.66699 -39 14l15 56c20 -9.33301 41 -14 63 -14c34 0 51 12 51 36c0 14.667 -7.16699 26.5 -21.5 35.5
s-35.166 15.167 -62.499 18.5z" />
    <glyph glyph-name="Tcaron" unicode="&#x164;" horiz-adv-x="674" 
d="M631 646h-224v-728h-140v728h-225v118h589v-118zM333 904l99 116h113l-158 -199h-108l-158 199h113z" />
    <glyph glyph-name="tcaron" unicode="&#x165;" horiz-adv-x="441" 
d="M255 439l0.000976562 -342c0 -55.333 27.667 -83 83 -83c24.667 0 45 2.66699 61 8v-103c-28.667 -10 -58.334 -15 -89.001 -15c-57.333 0 -102.5 16.667 -135.5 50s-49.5 79.333 -49.5 138v347h-89v104h89v151h130v-151h144v-104h-144zM416.001 800l-28 -220h-89l10 220
h107z" />
    <glyph glyph-name="Tbar" unicode="&#x166;" horiz-adv-x="674" 
d="M407 646v-225h143v-118h-143v-385h-140v385h-140v118h140v225h-225v118h589v-118h-224z" />
    <glyph glyph-name="tbar" unicode="&#x167;" horiz-adv-x="441" 
d="M255 439l0.000976562 -145h130v-99h-130v-98c0 -55.333 27.667 -83 83 -83c24.667 0 45 2.66699 61 8v-103c-28.667 -10 -58.334 -15 -89.001 -15c-57.333 0 -102.5 16.667 -135.5 50s-49.5 79.333 -49.5 138v103h-78v99h78v145h-89v104h89v151h130v-151h144v-104h-144z
" />
    <glyph glyph-name="Utilde" unicode="&#x168;" horiz-adv-x="824" 
d="M706 54c-27.333 -48 -66.167 -84.833 -116.5 -110.5s-109.5 -38.5 -177.5 -38.5s-127.333 13 -178 39s-89.667 62.833 -117 110.5s-41 103.834 -41 168.501v541h133v-531c0 -68.667 17.333 -121.334 52 -158.001s83.667 -55 147 -55c64 0 113.167 18.333 147.5 55
s51.5 89.667 51.5 159v530h140v-541c0 -64.667 -13.667 -121 -41 -169zM246.499 958.5c20.333 23.667 48.167 35.499 83.5 35.499c20.667 0 38.5 -3 53.5 -9s31.167 -14.667 48.5 -26c12 -8 22.167 -14 30.5 -18s17.166 -6 26.499 -6c11.333 0 20.166 3.83301 26.499 11.5
s9.5 18.5 9.5 32.5h86c-0.666992 -40 -11.167 -71.833 -31.5 -95.5s-48.166 -35.5 -83.499 -35.5c-20.667 0 -38.5 3 -53.5 9s-31.167 14.667 -48.5 26c-12.667 8 -23 13.833 -31 17.5s-16.667 5.5 -26 5.5c-11.333 0 -20.166 -3.83301 -26.499 -11.5s-9.5 -18.5 -9.5 -32.5
h-86c0.666992 40.667 11.167 72.834 31.5 96.501z" />
    <glyph glyph-name="utilde" unicode="&#x169;" horiz-adv-x="696" 
d="M510 -82c-4 26.667 -6.33301 59.667 -7 99c-46 -75.333 -118.667 -113 -218 -113c-66.667 0 -119 20 -157 60s-57 95.667 -57 167v412h130v-392c0 -46 10.833 -80.167 32.5 -102.5s54.167 -33.5 97.5 -33.5c49.333 0 88.333 16.333 117 49s43 77 43 133v346h130v-481
c0 -62.667 1.33301 -110.667 4 -144h-115zM175.5 733.5c20.333 23.667 48.167 35.499 83.5 35.499c20.667 0 38.5 -3 53.5 -9s31.167 -14.667 48.5 -26c12.667 -8 23 -13.833 31 -17.5s16.667 -5.5 26 -5.5c11.333 0 20.166 3.66699 26.499 11s9.5 18 9.5 32h86
c-0.666992 -40 -11.167 -71.833 -31.5 -95.5s-48.166 -35.5 -83.499 -35.5c-20.667 0 -38.5 3 -53.5 9s-31.167 14.667 -48.5 26c-12.667 8 -23 13.833 -31 17.5s-16.667 5.5 -26 5.5c-24 0 -36 -14.667 -36 -44h-86c0.666992 40.667 11.167 72.834 31.5 96.501z" />
    <glyph glyph-name="Umacron" unicode="&#x16a;" horiz-adv-x="824" 
d="M706 54c-27.333 -48 -66.167 -84.833 -116.5 -110.5s-109.5 -38.5 -177.5 -38.5s-127.333 13 -178 39s-89.667 62.833 -117 110.5s-41 103.834 -41 168.501v541h133v-531c0 -68.667 17.333 -121.334 52 -158.001s83.667 -55 147 -55c64 0 113.167 18.333 147.5 55
s51.5 89.667 51.5 159v530h140v-541c0 -64.667 -13.667 -121 -41 -169zM251.999 973h322v-105h-322v105z" />
    <glyph glyph-name="umacron" unicode="&#x16b;" horiz-adv-x="696" 
d="M510 -82c-4 26.667 -6.33301 59.667 -7 99c-46 -75.333 -118.667 -113 -218 -113c-66.667 0 -119 20 -157 60s-57 95.667 -57 167v412h130v-392c0 -46 10.833 -80.167 32.5 -102.5s54.167 -33.5 97.5 -33.5c49.333 0 88.333 16.333 117 49s43 77 43 133v346h130v-481
c0 -62.667 1.33301 -110.667 4 -144h-115zM181 753h322v-105h-322v105z" />
    <glyph glyph-name="Ubreve" unicode="&#x16c;" horiz-adv-x="824" 
d="M706 54c-27.333 -48 -66.167 -84.833 -116.5 -110.5s-109.5 -38.5 -177.5 -38.5s-127.333 13 -178 39s-89.667 62.833 -117 110.5s-41 103.834 -41 168.501v541h133v-531c0 -68.667 17.333 -121.334 52 -158.001s83.667 -55 147 -55c64 0 113.167 18.333 147.5 55
s51.5 89.667 51.5 159v530h140v-541c0 -64.667 -13.667 -121 -41 -169zM270.499 864.5c-35 37.667 -52.498 89.5 -52.498 155.5h87c0 -41.333 9.16699 -72.833 27.5 -94.5s45.166 -32.5 80.499 -32.5s62.166 10.833 80.499 32.5s27.5 53.167 27.5 94.5h87
c0 -66 -17.5 -117.833 -52.5 -155.5s-82.5 -56.5 -142.5 -56.5s-107.5 18.833 -142.5 56.5z" />
    <glyph glyph-name="ubreve" unicode="&#x16d;" horiz-adv-x="696" 
d="M510 -82c-4 26.667 -6.33301 59.667 -7 99c-46 -75.333 -118.667 -113 -218 -113c-66.667 0 -119 20 -157 60s-57 95.667 -57 167v412h130v-392c0 -46 10.833 -80.167 32.5 -102.5s54.167 -33.5 97.5 -33.5c49.333 0 88.333 16.333 117 49s43 77 43 133v346h130v-481
c0 -62.667 1.33301 -110.667 4 -144h-115zM199.5 644.5c-35 37.667 -52.498 89.5 -52.498 155.5h87c0 -41.333 9.16699 -72.833 27.5 -94.5s45.166 -32.5 80.499 -32.5s62.166 10.833 80.499 32.5s27.5 53.167 27.5 94.5h87c0 -66 -17.5 -117.833 -52.5 -155.5
s-82.5 -56.5 -142.5 -56.5s-107.5 18.833 -142.5 56.5z" />
    <glyph glyph-name="Uring" unicode="&#x16e;" horiz-adv-x="824" 
d="M706 54c-27.333 -48 -66.167 -84.833 -116.5 -110.5s-109.5 -38.5 -177.5 -38.5s-127.333 13 -178 39s-89.667 62.833 -117 110.5s-41 103.834 -41 168.501v541h133v-531c0 -68.667 17.333 -121.334 52 -158.001s83.667 -55 147 -55c64 0 113.167 18.333 147.5 55
s51.5 89.667 51.5 159v530h140v-541c0 -64.667 -13.667 -121 -41 -169zM331.999 1002.5c21.333 21 48.333 31.5 81 31.5c33.333 0 60.666 -10.667 81.999 -32s32 -48.333 32 -81c0 -33.333 -10.667 -60.5 -32 -81.5s-48.666 -31.5 -81.999 -31.5s-60.5 10.5 -81.5 31.5
s-31.5 48.167 -31.5 81.5s10.667 60.5 32 81.5zM374.499 880.5c10.333 -10.333 23.166 -15.5 38.499 -15.5c16 0 29.167 5.16699 39.5 15.5s15.5 23.833 15.5 40.5c0 16 -5.16699 29.167 -15.5 39.5s-23.5 15.5 -39.5 15.5c-15.333 0 -28.166 -5.16699 -38.499 -15.5
s-15.5 -23.5 -15.5 -39.5c0 -16.667 5.16699 -30.167 15.5 -40.5z" />
    <glyph glyph-name="uring" unicode="&#x16f;" horiz-adv-x="696" 
d="M510 -82c-4 26.667 -6.33301 59.667 -7 99c-46 -75.333 -118.667 -113 -218 -113c-66.667 0 -119 20 -157 60s-57 95.667 -57 167v412h130v-392c0 -46 10.833 -80.167 32.5 -102.5s54.167 -33.5 97.5 -33.5c49.333 0 88.333 16.333 117 49s43 77 43 133v346h130v-481
c0 -62.667 1.33301 -110.667 4 -144h-115zM261 782c21.333 21.333 48.3311 32 80.998 32s59.834 -10.667 81.501 -32s32.5 -48.333 32.5 -81c0 -33.333 -10.667 -60.5 -32 -81.5s-48.666 -31.5 -81.999 -31.5s-60.5 10.5 -81.5 31.5s-31.5 48.167 -31.5 81.5
c0 32.667 10.667 59.667 32 81zM303.498 660.5c10.333 -10.333 23.166 -15.5 38.499 -15.5c16 0 29.167 5.16699 39.5 15.5s15.5 23.833 15.5 40.5c0 16 -5.16699 29.167 -15.5 39.5s-23.5 15.5 -39.5 15.5c-15.333 0 -28.166 -5.16699 -38.499 -15.5
s-15.5 -23.5 -15.5 -39.5c0 -16.667 5.16699 -30.167 15.5 -40.5z" />
    <glyph glyph-name="Uhungarumlaut" unicode="&#x170;" horiz-adv-x="824" 
d="M706 54c-27.333 -48 -66.167 -84.833 -116.5 -110.5s-109.5 -38.5 -177.5 -38.5s-127.333 13 -178 39s-89.667 62.833 -117 110.5s-41 103.834 -41 168.501v541h133v-531c0 -68.667 17.333 -121.334 52 -158.001s83.667 -55 147 -55c64 0 113.167 18.333 147.5 55
s51.5 89.667 51.5 159v530h140v-541c0 -64.667 -13.667 -121 -41 -169zM468.999 1020l-96 -199h-106l72 199h130zM654.999 1020l-96 -199h-106l72 199h130z" />
    <glyph glyph-name="uhungarumlaut" unicode="&#x171;" horiz-adv-x="696" 
d="M510 -82c-4 26.667 -6.33301 59.667 -7 99c-46 -75.333 -118.667 -113 -218 -113c-66.667 0 -119 20 -157 60s-57 95.667 -57 167v412h130v-392c0 -46 10.833 -80.167 32.5 -102.5s54.167 -33.5 97.5 -33.5c49.333 0 88.333 16.333 117 49s43 77 43 133v346h130v-481
c0 -62.667 1.33301 -110.667 4 -144h-115zM398 800l-96 -199h-106l72 199h130zM584 800l-96 -199h-106l72 199h130z" />
    <glyph glyph-name="Uogonek" unicode="&#x172;" horiz-adv-x="824" 
d="M747 764l0.000976562 -540.998c0 -80.667 -20.833 -147.834 -62.5 -201.501s-99.834 -89.167 -174.501 -106.5c-32 -11.333 -55.833 -25.5 -71.5 -42.5s-23.5 -38.167 -23.5 -63.5c0 -19.333 6.16699 -34.5 18.5 -45.5s29.166 -16.5 50.499 -16.5
c28 0 53.667 7.33301 77 22l18 -65c-26 -20 -61.667 -30 -107 -30c-41.333 0 -75 11.167 -101 33.5s-39 51.5 -39 87.5c0 42 15.333 79 46 111c-61.333 4 -114.666 19.5 -159.999 46.5s-80.333 63.667 -105 110s-37 99.833 -37 160.5v541h133v-531
c0 -68.667 17.333 -121.334 52 -158.001s83.667 -55 147 -55c64 0 113.167 18.333 147.5 55s51.5 89.667 51.5 159v530h140z" />
    <glyph glyph-name="uogonek" unicode="&#x173;" horiz-adv-x="696" 
d="M686 -296c-26 -20 -61.666 -30.001 -106.999 -30.001c-41.333 0 -75 11.167 -101 33.5s-39 51.5 -39 87.5c0 52 23.333 96 70 132c-3.33301 26.667 -5.33301 56.667 -6 90c-46 -75.333 -118.667 -113 -218 -113c-66.667 0 -119 20 -157 60s-57 95.667 -57 167v412h130
v-392c0 -46 10.833 -80.167 32.5 -102.5s54.167 -33.5 97.5 -33.5c49.333 0 88.333 16.333 117 49s43 77 43 133v346h130v-481c0 -62.667 1.33301 -110.667 4 -144c-35.333 -11.333 -61.333 -25.666 -78 -42.999s-25 -39.333 -25 -66c0 -19.333 6.16699 -34.5 18.5 -45.5
s29.166 -16.5 50.499 -16.5c28 0 53.667 7.33301 77 22z" />
    <glyph glyph-name="Wcircumflex" unicode="&#x174;" horiz-adv-x="1130" 
d="M1103 764l-219 -846h-145l-174 673l-174 -673h-145l-219 846h146l152 -679l171 679h143l172 -680l152 680h140zM565 937l-99 -116h-113l158 199h108l158 -199h-113z" />
    <glyph glyph-name="wcircumflex" unicode="&#x175;" horiz-adv-x="976" 
d="M943 543l-170 -625h-149l-136 506l-136 -506h-149l-169 625h132l114 -505l136 505h151l136 -505l114 505h126zM489 717l-99 -116h-113l158 199h108l158 -199h-113z" />
    <glyph glyph-name="Ycircumflex" unicode="&#x176;" horiz-adv-x="744" 
d="M442 256v-338h-140v338l-288 508h159l203 -395l202 395h153zM373 937l-99 -116h-113l158 199h108l158 -199h-113z" />
    <glyph glyph-name="ycircumflex" unicode="&#x177;" horiz-adv-x="654" 
d="M630 543l-317 -855h-144l104 219l-249 636h148l162 -507l157 507h139zM336 717l-99 -116h-113l158 199h108l158 -199h-113z" />
    <glyph glyph-name="Ydieresis" unicode="&#x178;" horiz-adv-x="744" 
d="M442 256v-338h-140v338l-288 508h159l203 -395l202 395h153zM198 979c14.667 14.667 34 22 58 22s43.333 -7.33301 58 -22s22 -34 22 -58c0 -24.667 -7.33301 -44.167 -22 -58.5s-34 -21.5 -58 -21.5s-43.333 7.16699 -58 21.5s-22 33.833 -22 58.5
c0 24 7.33301 43.333 22 58zM432 979c14.667 14.667 34 22 58 22s43.333 -7.33301 58 -22s22 -34 22 -58c0 -24.667 -7.33301 -44.167 -22 -58.5s-34 -21.5 -58 -21.5s-43.333 7.16699 -58 21.5s-22 33.833 -22 58.5c0 24 7.33301 43.333 22 58z" />
    <glyph glyph-name="Zacute" unicode="&#x179;" horiz-adv-x="748" 
d="M692 36v-118h-636v87l454 641h-424v118h600v-88l-453 -640h459zM524 1020l-96 -199h-106l72 199h130z" />
    <glyph glyph-name="zacute" unicode="&#x17a;" horiz-adv-x="619" 
d="M565 23v-105h-511v81l340 440h-328v104h493v-81l-339 -439h345zM458 800l-96 -199h-106l72 199h130z" />
    <glyph glyph-name="Zdotaccent" unicode="&#x17b;" horiz-adv-x="748" 
d="M692 36v-118h-636v87l454 641h-424v118h600v-88l-453 -640h459zM317 979c14.667 14.667 34 22 58 22s43.333 -7.33301 58 -22s22 -34 22 -58c0 -24.667 -7.33301 -44.167 -22 -58.5s-34 -21.5 -58 -21.5s-43.333 7.16699 -58 21.5s-22 33.833 -22 58.5
c0 24 7.33301 43.333 22 58z" />
    <glyph glyph-name="zdotaccent" unicode="&#x17c;" horiz-adv-x="619" 
d="M565 23v-105h-511v81l340 440h-328v104h493v-81l-339 -439h345zM251 759c14.667 14.667 34 22 58 22s43.333 -7.33301 58 -22s22 -34 22 -58c0 -24.667 -7.33301 -44.167 -22 -58.5s-34 -21.5 -58 -21.5s-43.333 7.16699 -58 21.5s-22 33.833 -22 58.5
c0 24 7.33301 43.333 22 58z" />
    <glyph glyph-name="Zcaron" unicode="&#x17d;" horiz-adv-x="748" 
d="M692 36v-118h-636v87l454 641h-424v118h600v-88l-453 -640h459zM375 904l99 116h113l-158 -199h-108l-158 199h113z" />
    <glyph glyph-name="zcaron" unicode="&#x17e;" horiz-adv-x="619" 
d="M565 23v-105h-511v81l340 440h-328v104h493v-81l-339 -439h345zM309 684l99 116h113l-158 -199h-108l-158 199h113z" />
    <glyph glyph-name="uni018F" unicode="&#x18f;" horiz-adv-x="866" 
d="M624.5 723c60.333 -36.667 106.499 -88.002 138.499 -154.002s48 -142 48 -228s-16.167 -162.167 -48.5 -228.5s-77.5 -117.666 -135.5 -153.999s-124 -54.5 -198 -54.5c-76.667 0 -143.167 17.833 -199.5 53.5s-99.5 86.334 -129.5 152.001s-45 142.834 -45 231.501
c0 14.667 1 25.334 3 32.001h612c-4 91.333 -29.167 162.166 -75.5 212.499s-107.5 75.5 -183.5 75.5c-57.333 0 -102.833 -11.333 -136.5 -34s-59.167 -57 -76.5 -103l-121 56c26 63.333 66.833 112.166 122.5 146.499s125.834 51.5 210.501 51.5
c82.667 0 154.167 -18.333 214.5 -55zM585.499 86.998c42.333 44 68.835 103.333 79.502 178h-466c8 -76.667 32.167 -136.5 72.5 -179.5s93.166 -64.5 158.499 -64.5c61.333 0 113.166 22 155.499 66z" />
    <glyph glyph-name="florin" unicode="&#x192;" horiz-adv-x="693" 
d="M328.5 632.5c-21.667 -23.667 -32.501 -53.835 -32.501 -90.502c0 -42.667 12.667 -92 38 -148h224v-106h-169c10.667 -19.333 17 -30.666 19 -33.999c40.667 -74 71.334 -136.167 92.001 -186.5s31 -100.833 31 -151.5c0 -48 -10.333 -90.167 -31 -126.5
s-49.834 -64.666 -87.501 -84.999s-80.5 -30.5 -128.5 -30.5c-68.667 0 -125.5 15.5 -170.5 46.5s-74.833 74.167 -89.5 129.5l115 54c18.667 -79.333 67 -119 145 -119c35.333 0 63.833 11.833 85.5 35.5s32.5 53.834 32.5 90.501c0 39.333 -8.83301 79.833 -26.5 121.5
s-44.834 95.167 -81.501 160.5c-26.667 48 -43.667 79.667 -51 95h-178v106h131c-18.667 51.333 -28 98.666 -28 141.999c0 48 10.333 90.333 31 127s49.667 65 87 85s80 30 128 30c68.667 0 125.5 -15.5 170.5 -46.5s75.167 -74.167 90.5 -129.5l-115 -53
c-9.33301 38.667 -26.166 68.167 -50.499 88.5s-56.166 30.5 -95.499 30.5c-35.333 0 -63.833 -11.833 -85.5 -35.5z" />
    <glyph glyph-name="uni0218" unicode="&#x218;" horiz-adv-x="694" 
d="M133 381.5c-40.667 39 -60.9961 91.167 -60.9961 156.5c0 46.667 11.5 88.167 34.5 124.5s55.833 64.666 98.5 84.999s93 30.5 151 30.5c72 0 132 -14.833 180 -44.5s81 -72.5 99 -128.5l-112 -53c-12.667 35.333 -32.167 61.833 -58.5 79.5s-61.5 26.5 -105.5 26.5
c-48.667 0 -85.167 -9.83301 -109.5 -29.5s-36.5 -47.834 -36.5 -84.501c0 -23.333 5.16699 -42.833 15.5 -58.5s27.666 -28.834 51.999 -39.501s57.833 -20.334 100.5 -29.001c95.333 -17.333 164.166 -46.666 206.499 -87.999s63.5 -98.666 63.5 -171.999
c0 -48.667 -12.667 -92.167 -38 -130.5s-61 -68.333 -107 -90s-98.333 -32.5 -157 -32.5c-80 0 -146.5 16.667 -199.5 50s-89.167 81 -108.5 143l113 53c13.333 -41.333 36.5 -72.666 69.5 -93.999s74.5 -32 124.5 -32c52 0 92 11.333 120 34s42 54.667 42 96
c0 38.667 -13.833 68.834 -41.5 90.501s-75.834 39.5 -144.501 53.5c-86.667 16.667 -150.334 44.5 -191.001 83.5zM411.004 -148c0 -28.667 -4.33203 -65.999 -12.999 -111.999c-0.666992 -6.66699 -2.33398 -17.334 -5.00098 -32.001l-3 -20h-107l3 20
c3.33301 20.667 6 45.167 8 73.5s3 51.833 3 70.5h114z" />
    <glyph glyph-name="uni0219" unicode="&#x219;" horiz-adv-x="577" 
d="M61 375c0 35.333 9.66992 66.833 29.0029 94.5s46.166 49.167 80.499 64.5s73.5 23 117.5 23c61.333 0 112.166 -11.833 152.499 -35.5s66.833 -56.834 79.5 -99.501l-100 -46c-16 54 -58.333 81 -127 81c-32 0 -57.333 -6.83301 -76 -20.5s-28 -32.5 -28 -56.5
s9.66699 -42.333 29 -55s53.666 -22.667 102.999 -30c73.333 -10.667 127.333 -31.834 162 -63.501s52 -75.167 52 -130.5c0 -38.667 -10.333 -73 -31 -103s-49.167 -53.167 -85.5 -69.5s-77.5 -24.5 -123.5 -24.5c-68 0 -123.833 13.167 -167.5 39.5
s-73.167 63.833 -88.5 112.5l99 46c21.333 -65.333 71.333 -98 150 -98c37.333 0 66.5 7.66699 87.5 23s31.5 37 31.5 65c0 20.667 -4.33301 37.334 -13 50.001s-23 22.834 -43 30.501s-48.333 14.167 -85 19.5c-136.667 20 -205 81 -205 183zM353.003 -148
c0 -28.667 -4.33203 -65.999 -12.999 -111.999c-0.666992 -6.66699 -2.33398 -17.334 -5.00098 -32.001l-3 -20h-107l3 20c3.33301 20.667 6 45.167 8 73.5s3 51.833 3 70.5h114z" />
    <glyph glyph-name="uni021A" unicode="&#x21a;" horiz-adv-x="674" 
d="M631 646h-224v-728h-140v728h-225v118h589v-118zM395 -148c0 -28.667 -4.33203 -65.999 -12.999 -111.999c-0.666992 -6.66699 -2.33398 -17.334 -5.00098 -32.001l-3 -20h-107l3 20c3.33301 20.667 6 45.167 8 73.5s3 51.833 3 70.5h114z" />
    <glyph glyph-name="uni021B" unicode="&#x21b;" horiz-adv-x="441" 
d="M255 439l0.000976562 -342c0 -55.333 27.667 -83 83 -83c24.667 0 45 2.66699 61 8v-103c-28.667 -10 -58.334 -15 -89.001 -15c-57.333 0 -102.5 16.667 -135.5 50s-49.5 79.333 -49.5 138v347h-89v104h89v151h130v-151h144v-104h-144zM324.001 -148
c0 -28.667 -4.33203 -65.999 -12.999 -111.999c-0.666992 -6.66699 -2.33398 -17.334 -5.00098 -32.001l-3 -20h-107l3 20c3.33301 20.667 6 45.167 8 73.5s3 51.833 3 70.5h114z" />
    <glyph glyph-name="uni0232" unicode="&#x232;" horiz-adv-x="744" 
d="M442 256v-338h-140v338l-288 508h159l203 -395l202 395h153zM212 973h322v-105h-322v105z" />
    <glyph glyph-name="uni0233" unicode="&#x233;" horiz-adv-x="654" 
d="M630 543l-317 -855h-144l104 219l-249 636h148l162 -507l157 507h139zM175 763h322v-105h-322v105z" />
    <glyph glyph-name="uni0237" unicode="&#x237;" horiz-adv-x="296" 
d="M163.5 -275c-33 -34 -78.166 -50.999 -135.499 -50.999c-30.667 0 -60.334 5.33301 -89.001 16v103c16.667 -6 37 -9 61 -9c26.667 0 47.167 7.16699 61.5 21.5s21.5 35.166 21.5 62.499v675h130v-678c0 -59.333 -16.5 -106 -49.5 -140z" />
    <glyph glyph-name="uni0259" unicode="&#x259;" horiz-adv-x="665" 
d="M472 516c46 -27.333 81.167 -65.668 105.5 -115.001s36.5 -106 36.5 -170s-12.333 -120.833 -37 -170.5s-58.5 -88.167 -101.5 -115.5s-91.5 -41 -145.5 -41c-57.333 0 -107 13.333 -149 40s-74.167 64.667 -96.5 114s-33.5 107 -33.5 173c0 16.667 0.666992 27.667 2 33
h430c-3.33301 60.667 -20.166 107.334 -50.499 140.001s-70.5 49 -120.5 49c-36.667 0 -65.834 -7.83301 -87.501 -23.5s-39.167 -39.5 -52.5 -71.5l-107 51c40 98.667 122 148 246 148c61.333 0 115 -13.667 161 -41zM431 49.998c26.667 28 43.333 67.667 50 119h-299
c6 -52 21.667 -91.833 47 -119.5s59.333 -41.5 102 -41.5c40 0 73.333 14 100 42z" />
    <glyph glyph-name="circumflex" unicode="&#x2c6;" horiz-adv-x="600" 
d="M300 717l-99 -116h-113l158 199h108l158 -199h-113z" />
    <glyph glyph-name="caron" unicode="&#x2c7;" horiz-adv-x="600" 
d="M300 684l99 116h113l-158 -199h-108l-158 199h113z" />
    <glyph glyph-name="breve" unicode="&#x2d8;" horiz-adv-x="600" 
d="M157.5 644.5c-35 37.667 -52.498 89.5 -52.498 155.5h87c0 -41.333 9.16699 -72.833 27.5 -94.5s45.166 -32.5 80.499 -32.5s62.166 10.833 80.499 32.5s27.5 53.167 27.5 94.5h87c0 -66 -17.5 -117.833 -52.5 -155.5s-82.5 -56.5 -142.5 -56.5
s-107.5 18.833 -142.5 56.5z" />
    <glyph glyph-name="dotaccent" unicode="&#x2d9;" horiz-adv-x="600" 
d="M242 759c14.667 14.667 34 22 58 22s43.333 -7.33301 58 -22s22 -34 22 -58c0 -24.667 -7.33301 -44.167 -22 -58.5s-34 -21.5 -58 -21.5s-43.333 7.16699 -58 21.5s-22 33.833 -22 58.5c0 24 7.33301 43.333 22 58z" />
    <glyph glyph-name="ring" unicode="&#x2da;" horiz-adv-x="600" 
d="M219 782c21.333 21.333 48.3311 32 80.998 32s59.834 -10.667 81.501 -32s32.5 -48.333 32.5 -81c0 -33.333 -10.667 -60.5 -32 -81.5s-48.666 -31.5 -81.999 -31.5s-60.5 10.5 -81.5 31.5s-31.5 48.167 -31.5 81.5c0 32.667 10.667 59.667 32 81zM261.498 660.5
c10.333 -10.333 23.166 -15.5 38.499 -15.5c16 0 29.167 5.16699 39.5 15.5s15.5 23.833 15.5 40.5c0 16 -5.16699 29.167 -15.5 39.5s-23.5 15.5 -39.5 15.5c-15.333 0 -28.166 -5.16699 -38.499 -15.5s-15.5 -23.5 -15.5 -39.5c0 -16.667 5.16699 -30.167 15.5 -40.5z" />
    <glyph glyph-name="ogonek" unicode="&#x2db;" horiz-adv-x="600" 
d="M300 -82c-35.333 -11.333 -61.332 -25.667 -77.999 -43s-25 -39.333 -25 -66c0 -19.333 6.16699 -34.5 18.5 -45.5s29.166 -16.5 50.499 -16.5c28 0 53.667 7.33301 77 22l18 -65c-26 -20 -61.667 -30 -107 -30c-41.333 0 -75 11.167 -101 33.5s-39 51.5 -39 87.5
c0 38.667 12.5 72.5 37.5 101.5s62.833 54.5 113.5 76.5z" />
    <glyph glyph-name="tilde" unicode="&#x2dc;" horiz-adv-x="600" 
d="M133.5 733.5c20.333 23.667 48.167 35.499 83.5 35.499c20.667 0 38.5 -3 53.5 -9s31.167 -14.667 48.5 -26c12.667 -8 23 -13.833 31 -17.5s16.667 -5.5 26 -5.5c11.333 0 20.166 3.66699 26.499 11s9.5 18 9.5 32h86c-0.666992 -40 -11.167 -71.833 -31.5 -95.5
s-48.166 -35.5 -83.499 -35.5c-20.667 0 -38.5 3 -53.5 9s-31.167 14.667 -48.5 26c-12.667 8 -23 13.833 -31 17.5s-16.667 5.5 -26 5.5c-24 0 -36 -14.667 -36 -44h-86c0.666992 40.667 11.167 72.834 31.5 96.501z" />
    <glyph glyph-name="hungarumlaut" unicode="&#x2dd;" horiz-adv-x="600" 
d="M356 800l-96 -199h-106l72 199h130zM542 800l-96 -199h-106l72 199h130z" />
    <glyph glyph-name="uni0304" unicode="&#x304;" horiz-adv-x="0" 
 />
    <glyph glyph-name="uni0306" unicode="&#x306;" horiz-adv-x="0" 
 />
    <glyph glyph-name="uni0308" unicode="&#x308;" horiz-adv-x="0" 
 />
    <glyph glyph-name="uni030B" unicode="&#x30b;" horiz-adv-x="0" 
 />
    <glyph glyph-name="alpha" unicode="&#x3b1;" horiz-adv-x="788" 
d="M754 23v-101.999c-11.333 -6.66699 -25 -10 -41 -10c-40.667 0 -73.334 9.66699 -98.001 29s-45.667 50.666 -63 93.999c-26.667 -45.333 -58.5 -78.333 -95.5 -99s-79.833 -31 -128.5 -31c-53.333 0 -101 13.667 -143 41s-74.833 65.833 -98.5 115.5
s-35.5 106.5 -35.5 170.5s11.833 120.667 35.5 170s56.667 87.666 99 114.999s89.833 41 142.5 41c50 0 93.167 -10.167 129.5 -30.5s67.166 -51.166 92.499 -92.499c6 22 11.167 40 15.5 54l10.5 34c2 4.66699 4.33301 11.667 7 21h124
c-13.333 -41.333 -27.666 -90 -42.999 -146s-27.333 -105.333 -36 -148l-3 -15v-2c16 -76 31 -130.667 45 -164s33.333 -50 58 -50c10.667 0 19.334 1.66699 26.001 5zM442 63.501c24 37 43.667 90.167 59 159.5c-10 48.667 -21.167 89.334 -33.5 122.001
s-29.333 58.834 -51 78.501s-49.5 29.5 -83.5 29.5c-28 0 -53.667 -9.33301 -77 -28s-41.666 -44.834 -54.999 -78.501s-20 -72.167 -20 -115.5c0 -44 6.66699 -82.833 20 -116.5s31.666 -59.834 54.999 -78.501s49 -28 77 -28c48.667 0 85 18.5 109 55.5z" />
    <glyph glyph-name="uni0400" unicode="&#x400;" horiz-adv-x="656" 
d="M220 646v-225h345v-118h-345v-267h369v-118h-509v846h509v-118h-369zM396 821h-106l-96 199h130z" />
    <glyph glyph-name="uni0401" unicode="&#x401;" horiz-adv-x="656" 
d="M168 979c14.667 14.667 34 22 58 22s43.333 -7.33301 58 -22s22 -34 22 -58c0 -24.667 -7.33301 -44.167 -22 -58.5s-34 -21.5 -58 -21.5s-43.333 7.16699 -58 21.5s-22 33.833 -22 58.5c0 24 7.33301 43.333 22 58zM402 979c14.667 14.667 34 22 58 22
s43.333 -7.33301 58 -22s22 -34 22 -58c0 -24.667 -7.33301 -44.167 -22 -58.5s-34 -21.5 -58 -21.5s-43.333 7.16699 -58 21.5s-22 33.833 -22 58.5c0 24 7.33301 43.333 22 58zM220 646v-225h345v-118h-345v-267h369v-118h-509v846h509v-118h-369z" />
    <glyph glyph-name="uni0402" unicode="&#x402;" horiz-adv-x="942" 
d="M756.5 396c40.333 -23.333 71.832 -56.666 94.499 -99.999s34 -94.333 34 -153c0 -90.667 -24.667 -160.834 -74 -210.501s-118.333 -74.5 -207 -74.5c-32 0 -59.667 3 -83 9v118c18.667 -4.66699 40.334 -7 65.001 -7c103.333 0 155 56.333 155 169
c0 50 -14.5 89.833 -43.5 119.5s-68.5 44.5 -118.5 44.5c-52.667 0 -94.5 -17.5 -125.5 -52.5s-46.5 -82.167 -46.5 -141.5v-199h-140v728h-225v118h590v-118h-225v-310c48 63.333 118 95 210 95c52.667 0 99.167 -11.667 139.5 -35z" />
    <glyph glyph-name="uni0403" unicode="&#x403;" horiz-adv-x="619" 
d="M577 646h-357v-728h-140v846h497v-118zM473 1020l-96 -199h-106l72 199h130z" />
    <glyph glyph-name="uni0404" unicode="&#x404;" horiz-adv-x="772" 
d="M619 157l115.999 -54.001c-18 -61.333 -53 -109.833 -105 -145.5s-116.667 -53.5 -194 -53.5c-74.667 0 -140.667 18.333 -198 55s-102 88 -134 154s-48 142 -48 228s16 162 48 228s76.667 117.333 134 154s123.333 55 198 55c77.333 0 142 -17.833 194 -53.5
s87 -84.167 105 -145.5l-116 -55c-26.667 92 -88.667 138 -186 138c-61.333 0 -112.833 -22.667 -154.5 -68s-67.5 -106.333 -77.5 -183h351v-118h-354c4.66699 -54.667 17.5 -102.667 38.5 -144s48.333 -73.166 82 -95.499s71.834 -33.5 114.501 -33.5
c97.333 0 159.333 45.667 186 137z" />
    <glyph glyph-name="uni0405" unicode="&#x405;" horiz-adv-x="695" 
d="M133 381.5c-40.667 39 -60.9961 91.167 -60.9961 156.5c0 46.667 11.5 88.167 34.5 124.5s55.833 64.666 98.5 84.999s93 30.5 151 30.5c72 0 132 -14.833 180 -44.5s81 -72.5 99 -128.5l-112 -53c-12.667 35.333 -32.167 61.833 -58.5 79.5s-61.5 26.5 -105.5 26.5
c-48.667 0 -85.167 -9.83301 -109.5 -29.5s-36.5 -47.834 -36.5 -84.501c0 -23.333 5.16699 -42.833 15.5 -58.5s27.666 -28.834 51.999 -39.501s57.833 -20.334 100.5 -29.001c95.333 -17.333 164.166 -46.666 206.499 -87.999s63.5 -98.666 63.5 -171.999
c0 -48.667 -12.667 -92.167 -38 -130.5s-61 -68.333 -107 -90s-98.333 -32.5 -157 -32.5c-80 0 -146.5 16.667 -199.5 50s-89.167 81 -108.5 143l113 53c13.333 -41.333 36.5 -72.666 69.5 -93.999s74.5 -32 124.5 -32c52 0 92 11.333 120 34s42 54.667 42 96
c0 38.667 -13.833 68.834 -41.5 90.501s-75.834 39.5 -144.501 53.5c-86.667 16.667 -150.334 44.5 -191.001 83.5z" />
    <glyph glyph-name="uni0406" unicode="&#x406;" horiz-adv-x="316" 
d="M228 764v-846h-140v846h140z" />
    <glyph glyph-name="uni0407" unicode="&#x407;" horiz-adv-x="316" 
d="M228 764v-846h-140v846h140zM-17 979c14.667 14.667 34 22 58 22s43.333 -7.33301 58 -22s22 -34 22 -58c0 -24.667 -7.33301 -44.167 -22 -58.5s-34 -21.5 -58 -21.5s-43.333 7.16699 -58 21.5s-22 33.833 -22 58.5c0 24 7.33301 43.333 22 58zM217 979
c14.667 14.667 34 22 58 22s43.333 -7.33301 58 -22s22 -34 22 -58c0 -24.667 -7.33301 -44.167 -22 -58.5s-34 -21.5 -58 -21.5s-43.333 7.16699 -58 21.5s-22 33.833 -22 58.5c0 24 7.33301 43.333 22 58z" />
    <glyph glyph-name="uni0408" unicode="&#x408;" horiz-adv-x="567" 
d="M489 140c0 -74.667 -21.001 -132.667 -63.001 -174s-100 -62 -174 -62c-63.333 0 -113.666 13.167 -150.999 39.5s-62 62.833 -74 109.5l107 50c7.33301 -30 19.833 -52 37.5 -66s41.167 -21 70.5 -21c35.333 0 62 9.83301 80 29.5s27 48.167 27 85.5v633h140v-624z" />
    <glyph glyph-name="uni0409" unicode="&#x409;" horiz-adv-x="1249" 
d="M1084 389.5c38 -21 67.5 -50.501 88.5 -88.501s31.5 -81.667 31.5 -131s-10.5 -93.166 -31.5 -131.499s-50.5 -68 -88.5 -89s-82.333 -31.5 -133 -31.5h-343v728h-251l-61 -573c-6 -55.333 -24.167 -97.333 -54.5 -126s-72.5 -43 -126.5 -43
c-16 0 -31.833 1.83301 -47.5 5.5s-28.167 8.16699 -37.5 13.5v108c18 -8 37.333 -12 58 -12c42 0 65.667 24.333 71 73l72 672h517v-343h203c50.667 0 95 -10.5 133 -31.5zM1026.5 65.999c25 24.667 37.5 59.333 37.5 104s-12.333 79.167 -37 103.5s-59.667 36.5 -105 36.5
h-174v-281h174c44.667 0 79.5 12.333 104.5 37z" />
    <glyph glyph-name="uni040A" unicode="&#x40a;" horiz-adv-x="1252" 
d="M1088 389.5c38 -21 67.5 -50.501 88.5 -88.501s31.5 -81.667 31.5 -131s-10.5 -93.166 -31.5 -131.499s-50.5 -68 -88.5 -89s-82 -31.5 -132 -31.5h-344v385h-392v-385h-140v846h140v-343h392v343h140v-343h204c50 0 94 -10.5 132 -31.5zM1030.5 65.999
c25 24.667 37.5 59.333 37.5 104s-12.5 79.167 -37.5 103.5s-59.833 36.5 -104.5 36.5h-174v-281h174c44.667 0 79.5 12.333 104.5 37z" />
    <glyph glyph-name="uni040B" unicode="&#x40b;" horiz-adv-x="927" 
d="M796 367.5c42 -42.333 62.999 -103.167 62.999 -182.5v-267h-140v245c0 98.667 -47.333 148 -142 148c-52.667 0 -94.167 -17.5 -124.5 -52.5s-45.5 -82.5 -45.5 -142.5v-198h-140v728h-225v118h590v-118h-225v-312c48.667 64.667 118.334 97 209.001 97
c78 0 138 -21.167 180 -63.5z" />
    <glyph glyph-name="uni040C" unicode="&#x40c;" horiz-adv-x="739" 
d="M562 -82l-342 425v-425h-140v846h140v-382l312 382h169l-340 -399l375 -447h-174zM522 1020l-96 -199h-106l72 199h130z" />
    <glyph glyph-name="uni040D" unicode="&#x40d;" horiz-adv-x="831" 
d="M466 822h-106l-96 199h130zM750 -82h-140v617l-375 -617h-154v846h140v-618l375 618h154v-846z" />
    <glyph glyph-name="uni040E" unicode="&#x40e;" horiz-adv-x="744" 
d="M731 764l-328.001 -676.001c-23.333 -48 -46.166 -85.167 -68.499 -111.5s-47.166 -45 -74.499 -56s-60.333 -16.5 -99 -16.5c-21.333 0 -41.333 1.83301 -60 5.5s-33.334 8.5 -44.001 14.5v107c8.66699 -3.33301 20.5 -6.16602 35.5 -8.49902s30.167 -3.5 45.5 -3.5
c28.667 0 52.5 6.5 71.5 19.5s37.167 35.5 54.5 67.5l49 89l-299 569h158l211 -450l199 450h149zM231.499 864.499c-35 37.667 -52.498 89.5 -52.498 155.5h87c0 -41.333 9.16699 -72.833 27.5 -94.5s45.166 -32.5 80.499 -32.5s62.166 10.833 80.499 32.5
s27.5 53.167 27.5 94.5h87c0 -66 -17.5 -117.833 -52.5 -155.5s-82.5 -56.5 -142.5 -56.5s-107.5 18.833 -142.5 56.5z" />
    <glyph glyph-name="uni040F" unicode="&#x40f;" horiz-adv-x="832" 
d="M752 764v-846h-276v-135h-119v135h-277v846h140v-728h392v728h140z" />
    <glyph glyph-name="uni0410" unicode="&#x410;" horiz-adv-x="790" 
d="M546 147h-310l-71 -229h-144l289 846h170l289 -846h-152zM510 265l-119 382l-118 -382h237z" />
    <glyph glyph-name="uni0411" unicode="&#x411;" horiz-adv-x="724" 
d="M560.5 389.5c38.333 -21 68 -50.501 89 -88.501s31.5 -81.667 31.5 -131s-10.5 -93.166 -31.5 -131.499s-50.667 -68 -89 -89s-82.5 -31.5 -132.5 -31.5h-348v846h495v-118h-355v-225h208c50 0 94.167 -10.5 132.5 -31.5zM502.5 65.999c25 24.667 37.5 59.333 37.5 104
s-12.5 79.167 -37.5 103.5s-59.833 36.5 -104.5 36.5h-178v-281h178c44.667 0 79.5 12.333 104.5 37z" />
    <glyph glyph-name="uni0412" unicode="&#x412;" horiz-adv-x="736" 
d="M644 290.5c29.333 -35.667 44 -80.167 44 -133.5c0 -47.333 -10 -89.166 -30 -125.499s-48.333 -64.333 -85 -84s-78.667 -29.5 -126 -29.5h-367v846h353c43.333 0 81.833 -9.16699 115.5 -27.5s59.667 -44 78 -77s27.5 -71.167 27.5 -114.5
c0 -45.333 -11.5 -83.5 -34.5 -114.5s-54.5 -53.5 -94.5 -67.5c50 -12.667 89.667 -36.834 119 -72.501zM220 653l-0.000976562 -239h170c38.667 0 68.834 10.5 90.501 31.5s32.5 50.167 32.5 87.5c0 38 -11 67.5 -33 88.5s-52 31.5 -90 31.5h-170zM509.999 65.5
c25.333 24.333 38 57.833 38 100.5c0 43.333 -12.667 77 -38 101s-60.333 36 -105 36h-185v-274h185c44.667 0 79.667 12.167 105 36.5z" />
    <glyph glyph-name="uni0413" unicode="&#x413;" horiz-adv-x="619" 
d="M577 646h-357v-728h-140v846h497v-118z" />
    <glyph glyph-name="uni0414" unicode="&#x414;" horiz-adv-x="884" 
d="M838 36v-253h-119v135h-555v-135h-119v253h46c20 0 36.167 6 48.5 18s20.5 32.333 24.5 61l69 649h508v-728h97zM601 36v610h-242l-56 -527c-4 -34 -12.333 -61.667 -25 -83h323z" />
    <glyph glyph-name="uni0415" unicode="&#x415;" horiz-adv-x="656" 
d="M220 646v-225h345v-118h-345v-267h369v-118h-509v846h509v-118h-369z" />
    <glyph glyph-name="uni0416" unicode="&#x416;" horiz-adv-x="1131" 
d="M936 -82l-301 416v-416h-140v414l-299 -414h-173l340 446l-304 400h166l270 -371v371h140v-373l272 373h166l-304 -400l339 -446h-172z" />
    <glyph glyph-name="uni0417" unicode="&#x417;" horiz-adv-x="714" 
d="M622.5 285c28.333 -37.333 42.502 -82.6689 42.502 -136.002c0 -46.667 -12.5 -88.5 -37.5 -125.5s-60.833 -66.167 -107.5 -87.5s-101 -32 -163 -32c-82.667 0 -150.834 16 -204.501 48s-92.167 79.333 -115.5 142l114 54c29.333 -82 95 -123 197 -123
c54.667 0 97.667 12.333 129 37s47 58.667 47 102c0 44.667 -12.5 79 -37.5 103s-60.833 36 -107.5 36h-157v109h141c40.667 0 72 10.5 94 31.5s33 50.833 33 89.5c0 40 -12.167 70.667 -36.5 92s-59.833 32 -106.5 32c-88 0 -143.333 -35.333 -166 -106l-114 53
c19.333 56.667 53.833 99.834 103.5 129.501s112.167 44.5 187.5 44.5c54 0 101.667 -9.5 143 -28.5s73.333 -45.667 96 -80s34 -73.833 34 -118.5c0 -45.333 -11 -84 -33 -116s-52.667 -55.667 -92 -71c49.333 -15.333 88.166 -41.666 116.499 -78.999z" />
    <glyph glyph-name="uni0418" unicode="&#x418;" horiz-adv-x="829" 
d="M749 -82h-140v617l-375 -617h-154v846h140v-618l375 618h154v-846z" />
    <glyph glyph-name="uni0419" unicode="&#x419;" horiz-adv-x="829" 
d="M749 -82h-140v617l-375 -617h-154v846h140v-618l375 618h154v-846zM272.5 864.5c-35 37.667 -52.498 89.5 -52.498 155.5h87c0 -41.333 9.16699 -72.833 27.5 -94.5s45.166 -32.5 80.499 -32.5s62.166 10.833 80.499 32.5s27.5 53.167 27.5 94.5h87
c0 -66 -17.5 -117.833 -52.5 -155.5s-82.5 -56.5 -142.5 -56.5s-107.5 18.833 -142.5 56.5z" />
    <glyph glyph-name="uni041A" unicode="&#x41a;" horiz-adv-x="739" 
d="M562 -82l-342 425v-425h-140v846h140v-382l312 382h169l-340 -399l375 -447h-174z" />
    <glyph glyph-name="uni041B" unicode="&#x41b;" horiz-adv-x="820" 
d="M739 -82h-140v728h-242l-61 -573c-6 -55.333 -24.167 -97.333 -54.5 -126s-72.5 -43 -126.5 -43c-16 0 -31.833 1.83301 -47.5 5.5s-28.167 8.16699 -37.5 13.5v108c18 -8 37.333 -12 58 -12c42 0 65.667 24.333 71 73l72 672h508v-846z" />
    <glyph glyph-name="uni041C" unicode="&#x41c;" horiz-adv-x="1023" 
d="M943 -82h-140v656l-225 -656h-147l-224 653v-653h-127v846h195l234 -691l234 691h200v-846z" />
    <glyph glyph-name="uni041D" unicode="&#x41d;" horiz-adv-x="832" 
d="M752 764v-846h-140v385h-392v-385h-140v846h140v-343h392v343h140z" />
    <glyph glyph-name="uni041E" unicode="&#x41e;" horiz-adv-x="866" 
d="M763.5 114c-31.667 -66 -76.167 -117.5 -133.5 -154.5s-123 -55.5 -197 -55.5s-139.667 18.5 -197 55.5s-101.833 88.5 -133.5 154.5s-47.5 141.667 -47.5 227s15.833 161 47.5 227s76.167 117.5 133.5 154.5s123 55.5 197 55.5s139.667 -18.5 197 -55.5
s101.833 -88.5 133.5 -154.5s47.5 -141.667 47.5 -227s-15.833 -161 -47.5 -227zM225 173c20 -48.667 48 -86.334 84 -113.001s77.333 -40 124 -40s88 13.333 124 40s64 64.334 84 113.001s30 104.667 30 168s-10 119.333 -30 168s-48 86.334 -84 113.001
s-77.333 40 -124 40s-88 -13.333 -124 -40s-64 -64.334 -84 -113.001s-30 -104.667 -30 -168s10 -119.333 30 -168z" />
    <glyph glyph-name="uni041F" unicode="&#x41f;" horiz-adv-x="832" 
d="M752 -82h-140v728h-392v-728h-140v846h672v-846z" />
    <glyph glyph-name="uni0420" unicode="&#x420;" horiz-adv-x="692" 
d="M517.5 730c41 -22.667 72.833 -54.5 95.5 -95.5s34 -88.167 34 -141.5c0 -54 -11.333 -101.5 -34 -142.5s-54.5 -72.833 -95.5 -95.5s-88.5 -34 -142.5 -34h-155v-303h-140v846h295c54 0 101.5 -11.333 142.5 -34zM464.5 375c28.333 28 42.5 67.333 42.5 118
s-14.167 90 -42.5 118s-67.833 42 -118.5 42h-126v-320h126c50.667 0 90.167 14 118.5 42z" />
    <glyph glyph-name="uni0421" unicode="&#x421;" horiz-adv-x="772" 
d="M226 173c20 -48.667 47.833 -86.332 83.5 -112.999s76.834 -40 123.501 -40c97.333 0 159.333 45.667 186 137l116 -54c-18 -61.333 -53 -109.833 -105 -145.5s-116.667 -53.5 -194 -53.5c-74.667 0 -140.667 18.333 -198 55s-102 88 -134 154s-48 142 -48 228
s16 162 48 228s76.667 117.333 134 154s123.333 55 198 55c77.333 0 142 -17.833 194 -53.5s87 -84.167 105 -145.5l-116 -55c-26.667 92 -88.667 138 -186 138c-46.667 0 -87.834 -13.333 -123.501 -40s-63.5 -64.334 -83.5 -113.001s-30 -104.667 -30 -168
s10 -119.333 30 -168z" />
    <glyph glyph-name="uni0422" unicode="&#x422;" horiz-adv-x="674" 
d="M631 646h-224v-728h-140v728h-225v118h589v-118z" />
    <glyph glyph-name="uni0423" unicode="&#x423;" horiz-adv-x="744" 
d="M731 764l-328.001 -676.001c-23.333 -48 -46.166 -85.167 -68.499 -111.5s-47.166 -45 -74.499 -56s-60.333 -16.5 -99 -16.5c-21.333 0 -41.333 1.83301 -60 5.5s-33.334 8.5 -44.001 14.5v107c8.66699 -3.33301 20.5 -6.16602 35.5 -8.49902s30.167 -3.5 45.5 -3.5
c28.667 0 52.5 6.5 71.5 19.5s37.167 35.5 54.5 67.5l49 89l-299 569h158l211 -450l199 450h149z" />
    <glyph glyph-name="uni0424" unicode="&#x424;" horiz-adv-x="917" 
d="M739.5 578c41 -22.667 72.667 -54.5 95 -95.5s33.5 -88.167 33.5 -141.5c0 -54 -11.167 -101.5 -33.5 -142.5s-54 -72.667 -95 -95s-88.5 -33.5 -142.5 -33.5h-68v-152h-140v152h-69c-54 0 -101.5 11.167 -142.5 33.5s-72.833 54 -95.5 95s-34 88.5 -34 142.5
c0 53.333 11.333 100.5 34 141.5s54.5 72.833 95.5 95.5s88.5 34 142.5 34h69v152h140v-152h68c54 0 101.5 -11.333 142.5 -34zM389 181v320h-40c-50.667 0 -90 -14 -118 -42s-42 -67.333 -42 -118s14 -90 42 -118s67.333 -42 118 -42h40zM686.5 223
c28.333 28 42.5 67.333 42.5 118s-14.167 90 -42.5 118s-68.166 42 -119.499 42h-38v-320h38c51.333 0 91.166 14 119.499 42z" />
    <glyph glyph-name="uni0425" unicode="&#x425;" horiz-adv-x="769" 
d="M578 -82l-198 343l-198 -343h-150l268 429l-261 417h164l185 -331l187 331h155l-260 -416l268 -430h-160z" />
    <glyph glyph-name="uni0426" unicode="&#x426;" horiz-adv-x="895" 
d="M849 -217h-119v135h-650v846h140v-728h392v728h140v-728h97v-253z" />
    <glyph glyph-name="uni0427" unicode="&#x427;" horiz-adv-x="735" 
d="M654 764v-845.999h-140v349c-48 -64 -117.667 -96 -209 -96c-78 0 -138 21.167 -180 63.5s-63 103.166 -63 182.499v347h140v-325c0 -98.667 47.333 -148 142 -148c52.667 0 94.167 17.5 124.5 52.5s45.5 82.5 45.5 142.5v278h140z" />
    <glyph glyph-name="uni0428" unicode="&#x428;" horiz-adv-x="1059" 
d="M978 764v-846h-898v846h140v-728h239v728h140v-728h239v728h140z" />
    <glyph glyph-name="uni0429" unicode="&#x429;" horiz-adv-x="1121" 
d="M1075 -217h-118v135h-877v846h140v-728h239v728h140v-728h239v728h140v-728h97v-253z" />
    <glyph glyph-name="uni042A" unicode="&#x42a;" horiz-adv-x="907" 
d="M742.5 389.5c38.333 -21 68 -50.501 89 -88.501s31.5 -81.667 31.5 -131s-10.5 -93.166 -31.5 -131.499s-50.667 -68 -89 -89s-82.5 -31.5 -132.5 -31.5h-344v728h-223v118h363v-343h204c50 0 94.167 -10.5 132.5 -31.5zM685 65.999c24.667 24.667 37 59.333 37 104
s-12.333 79.167 -37 103.5s-59.334 36.5 -104.001 36.5h-175v-281h175c44.667 0 79.334 12.333 104.001 37z" />
    <glyph glyph-name="uni042B" unicode="&#x42b;" horiz-adv-x="975" 
d="M556.5 389.5c38.333 -21 68 -50.501 89 -88.501s31.5 -81.667 31.5 -131s-10.5 -93.166 -31.5 -131.499s-50.667 -68 -89 -89s-82.5 -31.5 -132.5 -31.5h-344v846h140v-343h204c50 0 94.167 -10.5 132.5 -31.5zM894 763.999v-846h-140v846h140zM499.5 65.999
c25 24.667 37.5 59.333 37.5 104s-12.5 79.167 -37.5 103.5s-59.833 36.5 -104.5 36.5h-175v-281h175c44.667 0 79.5 12.333 104.5 37z" />
    <glyph glyph-name="uni042C" unicode="&#x42c;" horiz-adv-x="721" 
d="M556.5 389.5c38.333 -21 68 -50.501 89 -88.501s31.5 -81.667 31.5 -131s-10.5 -93.166 -31.5 -131.499s-50.667 -68 -89 -89s-82.5 -31.5 -132.5 -31.5h-344v846h140v-343h204c50 0 94.167 -10.5 132.5 -31.5zM499.5 65.999c25 24.667 37.5 59.333 37.5 104
s-12.5 79.167 -37.5 103.5s-59.833 36.5 -104.5 36.5h-175v-281h175c44.667 0 79.5 12.333 104.5 37z" />
    <glyph glyph-name="uni042D" unicode="&#x42d;" horiz-adv-x="772" 
d="M535 723c57.333 -36.667 102 -87.999 134 -153.999s48 -142 48 -228s-16 -162 -48 -228s-76.667 -117.333 -134 -154s-123.333 -55 -198 -55c-77.333 0 -142.166 17.833 -194.499 53.5s-87.166 84.167 -104.499 145.5l115 54c26.667 -91.333 88.667 -137 186 -137
c42.667 0 81 11.167 115 33.5s61.5 54.166 82.5 95.499s33.833 89.333 38.5 144h-355v118h352c-10 76.667 -35.833 137.667 -77.5 183s-93.5 68 -155.5 68c-97.333 0 -159.333 -46 -186 -138l-115 55c17.333 61.333 52.166 109.833 104.499 145.5s117.166 53.5 194.499 53.5
c74.667 0 140.667 -18.333 198 -55z" />
    <glyph glyph-name="uni042E" unicode="&#x42e;" horiz-adv-x="1161" 
d="M924 722.5c57.333 -37 101.833 -88.499 133.5 -154.499s47.5 -141.667 47.5 -227s-15.833 -161 -47.5 -227s-76.167 -117.5 -133.5 -154.5s-123 -55.5 -197 -55.5c-70 0 -132.667 16.667 -188 50s-99.5 80.166 -132.5 140.499s-51.833 129.833 -56.5 208.5h-130v-385
h-140v846h140v-343h134c9.33301 70.667 31 133 65 187s77.5 95.833 130.5 125.5s112.167 44.5 177.5 44.5c74 0 139.667 -18.5 197 -55.5zM851 60.001c36 26.667 64.001 64.334 84.001 113.001s30 104.667 30 168s-10 119.333 -30 168s-48 86.334 -84 113.001
s-77.333 40 -124 40s-87.834 -13.333 -123.501 -40s-63.5 -64.334 -83.5 -113.001s-30 -104.667 -30 -168s10 -119.333 30 -168s48 -86.334 84 -113.001s77 -40 123 -40c46.667 0 88 13.333 124 40z" />
    <glyph glyph-name="uni042F" unicode="&#x42f;" horiz-adv-x="726" 
d="M646 -82h-140v336h-103l-223 -336h-168l243 342c-59.333 11.333 -106 39.166 -140 83.499s-51 99.5 -51 165.5c0 50.667 10.333 95.334 31 134.001s50 68.5 88 89.5s82.333 31.5 133 31.5h330v-846zM506 365v288.001h-161c-45.333 0 -80.166 -12.5 -104.499 -37.5
s-36.5 -60.5 -36.5 -106.5c0 -46.667 12.167 -82.334 36.5 -107.001s59.166 -37 104.499 -37h161z" />
    <glyph glyph-name="uni0430" unicode="&#x430;" horiz-adv-x="713" 
d="M638 62c0 -62.667 1.33301 -110.665 4 -143.998h-115c-2.66699 19.333 -5 52.666 -7 99.999c-22.667 -36.667 -51.5 -64.834 -86.5 -84.501s-75.167 -29.5 -120.5 -29.5c-48.667 0 -93 13.667 -133 41s-71.5 65.833 -94.5 115.5s-34.5 106.5 -34.5 170.5
c0 63.333 11.5 119.833 34.5 169.5s54.5 88.167 94.5 115.5s84.333 41 133 41c45.333 0 85.5 -9.83301 120.5 -29.5s63.833 -47.5 86.5 -83.5c2 48.667 4.33301 81.667 7 99h115c-2.66699 -33.333 -4 -81.333 -4 -144v-337zM430 36.002
c24.667 18.667 43.834 44.834 57.501 78.501s20.5 72.5 20.5 116.5s-6.83301 82.833 -20.5 116.5s-32.834 59.667 -57.501 78s-53.334 27.5 -86.001 27.5c-32 0 -60.333 -9.33301 -85 -28s-43.834 -44.667 -57.501 -78s-20.5 -72 -20.5 -116s6.83301 -82.833 20.5 -116.5
s32.834 -59.834 57.501 -78.501s53 -28 85 -28c32.667 0 61.334 9.33301 86.001 28z" />
    <glyph glyph-name="uni0431" unicode="&#x431;" horiz-adv-x="691" 
d="M503 516c42.667 -27.333 76.3311 -65.835 100.998 -115.502s37 -106.167 37 -169.5c0 -64 -12.5 -120.833 -37.5 -170.5s-59.833 -88.167 -104.5 -115.5s-95.334 -41 -152.001 -41s-107 13.5 -151 40.5s-78.5 68.167 -103.5 123.5s-37.5 123.333 -37.5 204
c0 182 27.333 317.833 82 407.5s133.667 134.5 237 134.5c20 0 36.833 -1.33301 50.5 -4s29.834 -6.33398 48.501 -11.001c10.667 -3.33301 21.834 -6.16602 33.501 -8.49902s23.167 -3.5 34.5 -3.5c13.333 0 27.333 2.5 42 7.5s26.334 11.5 35.001 19.5v-97
c-20 -21.333 -46.667 -32 -80 -32c-19.333 0 -43 3.33301 -71 10c-15.333 4 -28.833 7 -40.5 9s-25.167 3 -40.5 3c-58.667 0 -104.667 -22.667 -138 -68s-57.333 -109.666 -72 -192.999c20.667 34.667 46.667 61.834 78 81.501s67 29.5 107 29.5
c52 0 99.333 -13.667 142 -41zM432.497 35.998c25 18.667 44.333 44.834 58 78.501s20.5 72.5 20.5 116.5s-6.83301 82.667 -20.5 116s-33 59.333 -58 78s-53.5 28 -85.5 28s-60.167 -9.33301 -84.5 -28s-43.333 -44.667 -57 -78s-20.5 -72 -20.5 -116
s6.83301 -82.833 20.5 -116.5s32.667 -59.834 57 -78.501s52.5 -28 84.5 -28s60.5 9.33301 85.5 28z" />
    <glyph glyph-name="uni0432" unicode="&#x432;" horiz-adv-x="638" 
d="M564 191c19.333 -25.333 29 -56.334 29 -93.001c0 -54 -16.5 -97.5 -49.5 -130.5s-76.5 -49.5 -130.5 -49.5h-338v625h322c50.667 0 91.5 -15.5 122.5 -46.5s46.5 -71.833 46.5 -122.5c0 -30 -7.16699 -55.833 -21.5 -77.5s-34.166 -38.5 -59.499 -50.5
c33.333 -11.333 59.666 -29.666 78.999 -54.999zM205 444.999v-156.002h150c25.333 0 45.166 6.83301 59.499 20.5s21.5 32.834 21.5 57.501s-7.16699 43.834 -21.5 57.501s-34.166 20.5 -59.499 20.5h-150zM437.5 39.4971c16.333 15.667 24.5 37.833 24.5 66.5
c0 27.333 -8.16699 48.833 -24.5 64.5s-39.166 23.5 -68.499 23.5h-164v-178h164c29.333 0 52.166 7.83301 68.499 23.5z" />
    <glyph glyph-name="uni0433" unicode="&#x433;" horiz-adv-x="442" 
d="M405 439h-200v-521h-130v625h330v-104z" />
    <glyph glyph-name="uni0434" unicode="&#x434;" horiz-adv-x="737" 
d="M712 -217h-105.001v135h-478v-135h-104v240h52c16.667 0 29.834 4.33301 39.501 13s15.5 25 17.5 49l49 458h446v-520h83v-240zM498.999 23v416.001h-199l-35 -330c-4 -34.667 -12.333 -63.334 -25 -86.001h259z" />
    <glyph glyph-name="uni0435" unicode="&#x435;" horiz-adv-x="665" 
d="M612 197h-430c3.33301 -60.667 20.166 -107.334 50.499 -140.001s70.5 -49 120.5 -49c36.667 0 65.834 7.83301 87.501 23.5s39.167 39.5 52.5 71.5l107 -51c-40 -98.667 -122 -148 -246 -148c-61.333 0 -115 13.667 -161 41s-81.167 65.833 -105.5 115.5
s-36.5 106.5 -36.5 170.5c0 63.333 12.333 119.833 37 169.5s58.5 88.167 101.5 115.5s91.5 41 145.5 41c57.333 0 107 -13.333 149 -40s74.167 -64.667 96.5 -114s33.5 -106.666 33.5 -171.999c0 -12 -0.666992 -23.333 -2 -34zM234 411
c-26.667 -28 -43.334 -67.667 -50.001 -119h298c-5.33301 52.667 -20.666 92.667 -45.999 120s-59.333 41 -102 41c-40 0 -73.333 -14 -100 -42z" />
    <glyph glyph-name="uni0436" unicode="&#x436;" horiz-adv-x="936" 
d="M742 -82l-209 300v-300h-130v300l-209 -300h-161l249 328l-226 297h151l196 -270v270h130v-270l196 270h150l-226 -297l250 -328h-161z" />
    <glyph glyph-name="uni0437" unicode="&#x437;" horiz-adv-x="565" 
d="M489.5 190c20.333 -26.667 30.5 -59.667 30.5 -99c0 -36 -9.83301 -68.167 -29.5 -96.5s-47.667 -50.5 -84 -66.5s-78.833 -24 -127.5 -24c-66.667 0 -119.5 12.5 -158.5 37.5s-66.833 62.167 -83.5 111.5l101 48c9.33301 -32 24.833 -55.5 46.5 -70.5
s51.5 -22.5 89.5 -22.5c36.667 0 65.334 8.5 86.001 25.5s31 39.833 31 68.5c0 29.333 -8.33301 52.333 -25 69s-40.334 25 -71.001 25h-121v95h108c26.667 0 47.5 7 62.5 21s22.5 33.333 22.5 58c0 26 -8.5 46.333 -25.5 61s-40.833 22 -71.5 22
c-64 0 -103.333 -25.333 -118 -76l-99 47c26.667 88.667 101.334 133 224.001 133c44 0 82.5 -7.33301 115.5 -22s58.333 -34.834 76 -60.501s26.5 -55.167 26.5 -88.5s-7.83301 -61.666 -23.5 -84.999s-37.834 -41 -66.501 -53c36 -12 64.167 -31.333 84.5 -58z" />
    <glyph glyph-name="uni0438" unicode="&#x438;" horiz-adv-x="693" 
d="M617 -82h-129v427l-270 -427h-143v625h130v-427l270 427h142v-625z" />
    <glyph glyph-name="uni0439" unicode="&#x439;" horiz-adv-x="693" 
d="M617 -82h-129v427l-270 -427h-143v625h130v-427l270 427h142v-625zM204.5 644.5c-35 37.667 -52.498 89.5 -52.498 155.5h87c0 -41.333 9.16699 -72.833 27.5 -94.5s45.166 -32.5 80.499 -32.5s62.166 10.833 80.499 32.5s27.5 53.167 27.5 94.5h87
c0 -66 -17.5 -117.833 -52.5 -155.5s-82.5 -56.5 -142.5 -56.5s-107.5 18.833 -142.5 56.5z" />
    <glyph glyph-name="uni043A" unicode="&#x43a;" horiz-adv-x="630" 
d="M447 -82l-242 309v-309h-130v625h130v-278l229 278h157l-252 -297l274 -328h-166z" />
    <glyph glyph-name="uni043B" unicode="&#x43b;" horiz-adv-x="693" 
d="M619 -82h-131v520h-200l-39 -383c-11.333 -100.667 -61.333 -151 -150 -151c-33.333 0 -58.333 5.33301 -75 16v102c14 -4.66699 27.667 -7 41 -7c34 0 53.333 21 58 63l48 465h448v-625z" />
    <glyph glyph-name="uni043C" unicode="&#x43c;" horiz-adv-x="852" 
d="M776 -82h-124v495l-151 -495h-159l-151 495v-495h-116v625h196l154 -510l154 510h197v-625z" />
    <glyph glyph-name="uni043D" unicode="&#x43d;" horiz-adv-x="693" 
d="M617 543v-625h-129v279h-283v-279h-130v625h130v-242h283v242h129z" />
    <glyph glyph-name="uni043E" unicode="&#x43e;" horiz-adv-x="688" 
d="M88.5 401c25 49.333 59.833 87.666 104.5 114.999s95 41 151 41s106.333 -13.667 151 -41s79.5 -65.666 104.5 -114.999s37.5 -106 37.5 -170s-12.5 -120.833 -37.5 -170.5s-59.833 -88.167 -104.5 -115.5s-95 -41 -151 -41s-106.333 13.667 -151 41
s-79.5 65.833 -104.5 115.5s-37.5 106.5 -37.5 170.5s12.5 120.667 37.5 170zM486.5 347c-13.667 33.333 -32.834 59.333 -57.501 78s-53 28 -85 28s-60.333 -9.33301 -85 -28s-43.834 -44.667 -57.501 -78s-20.5 -72 -20.5 -116s6.83301 -82.833 20.5 -116.5
s32.834 -59.834 57.501 -78.501s53 -28 85 -28s60.333 9.33301 85 28s43.834 44.834 57.501 78.501s20.5 72.5 20.5 116.5s-6.83301 82.667 -20.5 116z" />
    <glyph glyph-name="uni043F" unicode="&#x43f;" horiz-adv-x="693" 
d="M617 -82h-130v521h-282v-521h-130v625h542v-625z" />
    <glyph glyph-name="uni0440" unicode="&#x440;" horiz-adv-x="713" 
d="M533 516c40 -27.333 71.666 -65.834 94.999 -115.501s35 -106.167 35 -169.5c0 -64 -11.667 -120.833 -35 -170.5s-55 -88.167 -95 -115.5s-84.333 -41 -133 -41c-41.333 0 -78.666 8.33301 -111.999 25s-61 40.334 -83 71.001v-312h-129v711
c0 54.667 -1.66699 102.667 -5 144h115c4 -24.667 6.33301 -57.667 7 -99c22.667 36 51.5 63.833 86.5 83.5s75.167 29.5 120.5 29.5c48.667 0 93 -13.667 133 -41zM453.999 35.999c24.667 18.667 43.834 44.834 57.501 78.501s20.5 72.5 20.5 116.5
s-6.83301 82.667 -20.5 116s-32.834 59.333 -57.501 78s-53 28 -85 28s-60.5 -9.33301 -85.5 -28s-44.333 -44.667 -58 -78s-20.5 -72 -20.5 -116s6.83301 -82.833 20.5 -116.5s33 -59.834 58 -78.501s53.5 -28 85.5 -28s60.333 9.33301 85 28z" />
    <glyph glyph-name="uni0441" unicode="&#x441;" horiz-adv-x="614" 
d="M88.5 401c25 49.333 59.5 87.668 103.5 115.001s94 41 150 41c63.333 0 115 -13.5 155 -40.5s66.333 -62.167 79 -105.5l-111 -52c-16.667 58.667 -57 88 -121 88c-49.333 0 -88.833 -19.5 -118.5 -58.5s-44.5 -91.5 -44.5 -157.5
c0 -66.667 14.833 -119.334 44.5 -158.001s69.167 -58 118.5 -58c64.667 0 105 29 121 87l111 -51c-12.667 -44 -39 -79.5 -79 -106.5s-91.667 -40.5 -155 -40.5c-56 0 -106 13.667 -150 41s-78.5 65.833 -103.5 115.5s-37.5 106.5 -37.5 170.5s12.5 120.667 37.5 170z" />
    <glyph glyph-name="uni0442" unicode="&#x442;" horiz-adv-x="526" 
d="M488 438h-160v-520h-130v520h-161v105h451v-105z" />
    <glyph glyph-name="uni0443" unicode="&#x443;" horiz-adv-x="654" 
d="M630 543l-265 -703c-22 -58.667 -49.333 -101 -82 -127s-72.667 -39 -120 -39c-43.333 0 -77.333 7 -102 21v104c24 -6.66699 47 -10 69 -10c27.333 0 49.833 5.66699 67.5 17s32.5 30.333 44.5 57l26 58l-244 622h148l153 -481l160 481h145z" />
    <glyph glyph-name="uni0444" unicode="&#x444;" horiz-adv-x="848" 
d="M662 504c42.667 -26 76 -62.668 100 -110.001s36 -101.666 36 -162.999s-12 -115.666 -36 -162.999s-57.333 -84 -100 -110s-91 -39 -145 -39h-28v-231h-130v231h-29c-54 0 -102.167 13 -144.5 39s-75.5 62.5 -99.5 109.5s-36 101.5 -36 163.5
c0 61.333 12 115.666 36 162.999s57.167 84 99.5 110s90.5 39 144.5 39h29v257h130v-257h28c54 0 102.333 -13 145 -39zM359 22.999v415.001h-26c-45.333 0 -82 -19 -110 -57s-42 -88 -42 -150c0 -40.667 6.33301 -76.834 19 -108.501s30.5 -56.167 53.5 -73.5
s49.5 -26 79.5 -26h26zM593.5 49c23 17.333 41 41.833 54 73.5s19.5 67.834 19.5 108.501s-6.33301 76.667 -19 108s-30.667 55.666 -54 72.999s-50 26 -80 26h-25v-415h24c30.667 0 57.5 8.66699 80.5 26z" />
    <glyph glyph-name="uni0445" unicode="&#x445;" horiz-adv-x="653" 
d="M468 -82l-145 245l-140 -245h-149l210 317l-205 308h157l134 -237l140 237h143l-203 -307l210 -318h-152z" />
    <glyph glyph-name="uni0446" unicode="&#x446;" horiz-adv-x="726" 
d="M701 -217h-104v135h-522v625h130v-520h283v520h129v-520h84v-240z" />
    <glyph glyph-name="uni0447" unicode="&#x447;" horiz-adv-x="690" 
d="M614 543l0.000976562 -625h-129v275c-44.667 -73.333 -113.334 -110 -206.001 -110c-66.667 0 -118.834 19.833 -156.501 59.5s-56.5 95.167 -56.5 166.5v234h130v-212c0 -92 43.333 -138 130 -138c48.667 0 87.334 16.5 116.001 49.5s43 77.5 43 133.5v167h129z" />
    <glyph glyph-name="uni0448" unicode="&#x448;" horiz-adv-x="981" 
d="M906 543v-625h-831v625h130v-520h220v520h130v-520h221v520h130z" />
    <glyph glyph-name="uni0449" unicode="&#x449;" horiz-adv-x="1014" 
d="M989 -217h-104v135h-810v625h130v-520h220v520h130v-520h221v520h130v-520h83v-240z" />
    <glyph glyph-name="uni044A" unicode="&#x44a;" horiz-adv-x="730" 
d="M639 249c35.333 -35.333 53 -81.667 53 -139c0 -38 -8 -71.5 -24 -100.5s-38.667 -51.5 -68 -67.5s-63 -24 -101 -24h-302v520h-160v105h290v-241h172c58 0 104.667 -17.667 140 -53zM536.5 40.499c16.333 16.333 24.5 39.5 24.5 69.5s-8.16699 53 -24.5 69
s-39.5 24 -69.5 24h-140v-187h140c30 0 53.167 8.16699 69.5 24.5z" />
    <glyph glyph-name="uni044B" unicode="&#x44b;" horiz-adv-x="837" 
d="M517 249c35.333 -35.333 53.001 -81.668 53.001 -139.001c0 -37.333 -8 -70.666 -24 -99.999s-38.5 -52 -67.5 -68s-62.5 -24 -100.5 -24h-303v625h130v-241h173c57.333 0 103.666 -17.667 138.999 -53zM762.001 542.998v-625h-130v625h130zM414.501 40.498
c16.333 16.333 24.5 39.5 24.5 69.5s-8.16699 53 -24.5 69s-39.166 24 -68.499 24h-141v-187h141c29.333 0 52.166 8.16699 68.499 24.5z" />
    <glyph glyph-name="uni044C" unicode="&#x44c;" horiz-adv-x="608" 
d="M517 249c35.333 -35.333 53.001 -81.668 53.001 -139.001c0 -37.333 -8 -70.666 -24 -99.999s-38.5 -52 -67.5 -68s-62.5 -24 -100.5 -24h-303v625h130v-241h173c57.333 0 103.666 -17.667 138.999 -53zM414.501 40.498c16.333 16.333 24.5 39.5 24.5 69.5
s-8.16699 53 -24.5 69s-39.166 24 -68.499 24h-141v-187h141c29.333 0 52.166 8.16699 68.499 24.5z" />
    <glyph glyph-name="uni044D" unicode="&#x44d;" horiz-adv-x="614" 
d="M421.5 516c44.333 -27.333 79 -65.833 104 -115.5s37.5 -106.167 37.5 -169.5c0 -64 -12.5 -120.833 -37.5 -170.5s-59.667 -88.167 -104 -115.5s-94.166 -41 -149.499 -41c-63.333 0 -115 13.5 -155 40.5s-66.667 62.5 -80 106.5l112 51c16 -58 56 -87 120 -87
c44.667 0 81.5 15.833 110.5 47.5s46.167 75.167 51.5 130.5h-237v105h233c-9.33301 46.667 -28 83.167 -56 109.5s-62 39.5 -102 39.5c-64.667 0 -104.667 -29.333 -120 -88l-112 52c13.333 43.333 40 78.5 80 105.5s91.667 40.5 155 40.5
c55.333 0 105.166 -13.667 149.499 -41z" />
    <glyph glyph-name="uni044E" unicode="&#x44e;" horiz-adv-x="960" 
d="M767 516c44.667 -27.333 79.5 -65.666 104.5 -114.999s37.5 -106 37.5 -170s-12.5 -120.833 -37.5 -170.5s-59.833 -88.167 -104.5 -115.5s-95 -41 -151 -41c-53.333 0 -101.333 12.167 -144 36.5s-77 58.666 -103 102.999s-41.333 95.5 -46 153.5h-118v-279h-130v625
h130v-242h123c8.66699 51.333 26.167 96.333 52.5 135s59.833 68.5 100.5 89.5s85.667 31.5 135 31.5c56 0 106.333 -13.667 151 -41zM701 36c24.667 18.667 43.834 44.834 57.501 78.501s20.5 72.5 20.5 116.5s-6.83301 82.667 -20.5 116s-32.834 59.333 -57.501 78
s-53 28 -85 28s-60.5 -9.33301 -85.5 -28s-44.333 -44.667 -58 -78s-20.5 -72 -20.5 -116s6.83301 -82.833 20.5 -116.5s33 -59.834 58 -78.501s53.5 -28 85.5 -28s60.333 9.33301 85 28z" />
    <glyph glyph-name="uni044F" unicode="&#x44f;" horiz-adv-x="638" 
d="M563 -82l-130 -0.00195312v235h-89l-149 -235h-158l168 241c-44 10.667 -78.667 32.834 -104 66.501s-38 74.5 -38 122.5c0 58.667 18 105.834 54 141.501s83.667 53.5 143 53.5h303v-625zM433 250.998v194h-141c-30.667 0 -54.5 -8.33301 -71.5 -25
s-25.5 -40.667 -25.5 -72c0 -30.667 8.5 -54.5 25.5 -71.5s40.833 -25.5 71.5 -25.5h141z" />
    <glyph glyph-name="uni0450" unicode="&#x450;" horiz-adv-x="665" 
d="M612 197h-430c3.33301 -60.667 20.166 -107.334 50.499 -140.001s70.5 -49 120.5 -49c36.667 0 65.834 7.83301 87.501 23.5s39.167 39.5 52.5 71.5l107 -51c-40 -98.667 -122 -148 -246 -148c-61.333 0 -115 13.667 -161 41s-81.167 65.833 -105.5 115.5
s-36.5 106.5 -36.5 170.5c0 63.333 12.333 119.833 37 169.5s58.5 88.167 101.5 115.5s91.5 41 145.5 41c57.333 0 107 -13.333 149 -40s74.167 -64.667 96.5 -114s33.5 -106.666 33.5 -171.999c0 -12 -0.666992 -23.333 -2 -34zM234 411
c-26.667 -28 -43.334 -67.667 -50.001 -119h298c-5.33301 52.667 -20.666 92.667 -45.999 120s-59.333 41 -102 41c-40 0 -73.333 -14 -100 -42zM389 616h-106l-96 199h130z" />
    <glyph glyph-name="uni0451" unicode="&#x451;" horiz-adv-x="665" 
d="M612 197h-430c3.33301 -60.667 20.166 -107.334 50.499 -140.001s70.5 -49 120.5 -49c36.667 0 65.834 7.83301 87.501 23.5s39.167 39.5 52.5 71.5l107 -51c-40 -98.667 -122 -148 -246 -148c-61.333 0 -115 13.667 -161 41s-81.167 65.833 -105.5 115.5
s-36.5 106.5 -36.5 170.5c0 63.333 12.333 119.833 37 169.5s58.5 88.167 101.5 115.5s91.5 41 145.5 41c57.333 0 107 -13.333 149 -40s74.167 -64.667 96.5 -114s33.5 -106.666 33.5 -171.999c0 -12 -0.666992 -23.333 -2 -34zM234 411
c-26.667 -28 -43.334 -67.667 -50.001 -119h298c-5.33301 52.667 -20.666 92.667 -45.999 120s-59.333 41 -102 41c-40 0 -73.333 -14 -100 -42zM161 769c14.667 14.667 34 22 58 22s43.333 -7.33301 58 -22s22 -34 22 -58c0 -24.667 -7.33301 -44.167 -22 -58.5
s-34 -21.5 -58 -21.5s-43.333 7.16699 -58 21.5s-22 33.833 -22 58.5c0 24 7.33301 43.333 22 58zM395 769c14.667 14.667 34 22 58 22s43.333 -7.33301 58 -22s22 -34 22 -58c0 -24.667 -7.33301 -44.167 -22 -58.5s-34 -21.5 -58 -21.5s-43.333 7.16699 -58 21.5
s-22 33.833 -22 58.5c0 24 7.33301 43.333 22 58z" />
    </font>
</defs>
</svg>
